<?xml version="1.0"?>
<Project_Data Version="8.00">
<Project_Settings>
<ProfileName>MP4 with Smart Player (up to 480p)</ProfileName>
<ProjectWidth>1280</ProjectWidth>
<ProjectHeight>720</ProjectHeight>
<IsCustomProject>1</IsCustomProject>
<SavedProjectSettings>1</SavedProjectSettings>
<LastFlashTemplate>-1</LastFlashTemplate>
</Project_Settings>


<AutoSaveFile>C:\Users\Gabriel\AppData\Local\TechSmith\Camtasia Studio\8.0\Auto-Saves\Vídeo (Incompleto)346f30e.autosave.camproj</AutoSaveFile>

<ProjectID>FA9F3ED5-F315-4CF1-B8A3-B665FAFDEBA7</ProjectID>

<PowerPointProject>0</PowerPointProject>

<PowerPointFilename></PowerPointFilename>


<Project_Notes>
</Project_Notes>

<Project_MetaData>
<Project_MetaData_Object>
<FieldArrayKey>8</FieldArrayKey>
<Value>Vídeo (Incompleto)</Value>
</Project_MetaData_Object>
<Project_MetaData_Object>
<FieldArrayKey>13</FieldArrayKey>
<Value>2019-04-06 10:13:26 </Value>
</Project_MetaData_Object>
<Project_MetaData_Object>
<FieldArrayKey>16</FieldArrayKey>
<Value>ENU</Value>
</Project_MetaData_Object>
</Project_MetaData>

<CSMLData>
<GoProject id="1" version="3.0" >
 <Project id="2" editRate="30/1" version="3.0" >
  <Author></Author>
  <Comment></Comment>
  <System></System>
  <SourceBin id="3"  >
    <Source id="4" src="C:\Users\Gabriel\Downloads\Fadiga dos metais (Massao) 1º.mp3" lastMod="20190406T131309" rect="(0,0,0,0)" >
      <SourceTrack range="(0,237000000)" type="2" editRate="10000000/1" trackRect="(0,0,0,0)" sampleRate="48000/1" bitDepth="0" numChannels="1" filename="" metaData="" />
    </Source>
    <Source id="5" src="C:\Users\Gabriel\Downloads\Tema da Aula (Massao).mp3" lastMod="20190406T131306" rect="(0,0,0,0)" >
      <SourceTrack range="(0,205666667)" type="2" editRate="10000000/1" trackRect="(0,0,0,0)" sampleRate="48000/1" bitDepth="0" numChannels="1" filename="" metaData="" />
    </Source>
    <Source id="6" src="C:\Users\Gabriel\Downloads\Conformidade com teoria da fadiga dos metais (Fábio).mp3" lastMod="20190406T131303" rect="(0,0,0,0)" >
      <SourceTrack range="(0,162000000)" type="2" editRate="10000000/1" trackRect="(0,0,0,0)" sampleRate="44100/1" bitDepth="0" numChannels="1" filename="" metaData="" />
    </Source>
    <Source id="7" src="C:\Users\Gabriel\Downloads\Conformidade com teoria de Aparência física (Fábio).mp3" lastMod="20190406T131300" rect="(0,0,0,0)" >
      <SourceTrack range="(0,137000000)" type="2" editRate="10000000/1" trackRect="(0,0,0,0)" sampleRate="44100/1" bitDepth="0" numChannels="1" filename="" metaData="" />
    </Source>
    <Source id="8" src="C:\Users\Gabriel\Downloads\Conformidade com teoria de condução elétrica (Fábio).mp3" lastMod="20190406T131257" rect="(0,0,0,0)" >
      <SourceTrack range="(0,171333333)" type="2" editRate="10000000/1" trackRect="(0,0,0,0)" sampleRate="44100/1" bitDepth="0" numChannels="1" filename="" metaData="" />
    </Source>
    <Source id="9" src="C:\Users\Gabriel\Downloads\Outros materiais paramagnéticos (Fábio).mp3" lastMod="20190406T131256" rect="(0,0,0,0)" >
      <SourceTrack range="(0,127333333)" type="2" editRate="10000000/1" trackRect="(0,0,0,0)" sampleRate="44100/1" bitDepth="0" numChannels="1" filename="" metaData="" />
    </Source>
    <Source id="10" src="C:\Users\Gabriel\Downloads\Condução elétrica (Sulfato Ferroso) (Gi).mp3" lastMod="20190406T131251" rect="(0,0,0,0)" >
      <SourceTrack range="(0,72666667)" type="2" editRate="10000000/1" trackRect="(0,0,0,0)" sampleRate="48000/1" bitDepth="0" numChannels="1" filename="" metaData="" />
    </Source>
    <Source id="11" src="C:\Users\Gabriel\Downloads\Magnetismo (Massao) 1º.mp3" lastMod="20190406T130916" rect="(0,0,0,0)" >
      <SourceTrack range="(0,163666667)" type="2" editRate="10000000/1" trackRect="(0,0,0,0)" sampleRate="48000/1" bitDepth="0" numChannels="1" filename="" metaData="" />
    </Source>
    <Source id="12" src="C:\Users\Gabriel\Downloads\Outros materiais condutores (Fábio).mp3" lastMod="20190406T130914" rect="(0,0,0,0)" >
      <SourceTrack range="(0,144000000)" type="2" editRate="10000000/1" trackRect="(0,0,0,0)" sampleRate="44100/1" bitDepth="0" numChannels="1" filename="" metaData="" />
    </Source>
    <Source id="13" src="C:\Users\Gabriel\Downloads\Outros materiais Aparência física (Fábio).mp3" lastMod="20190406T130912" rect="(0,0,0,0)" >
      <SourceTrack range="(0,122000000)" type="2" editRate="10000000/1" trackRect="(0,0,0,0)" sampleRate="44100/1" bitDepth="0" numChannels="1" filename="" metaData="" />
    </Source>
    <Source id="14" src="C:\Users\Gabriel\Downloads\Outros materiais Fadiga dos metais (Fábio).mp3" lastMod="20190406T130910" rect="(0,0,0,0)" >
      <SourceTrack range="(0,123333333)" type="2" editRate="10000000/1" trackRect="(0,0,0,0)" sampleRate="44100/1" bitDepth="0" numChannels="1" filename="" metaData="" />
    </Source>
    <Source id="15" src="C:\Users\Gabriel\Downloads\Magnetismo (Gi) 2º.mp3" lastMod="20190406T130909" rect="(0,0,0,0)" >
      <SourceTrack range="(0,273666667)" type="2" editRate="10000000/1" trackRect="(0,0,0,0)" sampleRate="48000/1" bitDepth="0" numChannels="1" filename="" metaData="" />
    </Source>
    <Source id="16" src="C:\Users\Gabriel\Downloads\Condução elétrica (Sulfato de Zinco e Cobre) (Gi).mp3" lastMod="20190406T130905" rect="(0,0,0,0)" >
      <SourceTrack range="(0,123666667)" type="2" editRate="10000000/1" trackRect="(0,0,0,0)" sampleRate="48000/1" bitDepth="0" numChannels="1" filename="" metaData="" />
    </Source>
    <Source id="17" src="C:\Users\Gabriel\Downloads\Condução elétrica (Cloreto de Alumínio) (Gi) 1º.mp3" lastMod="20190406T130901" rect="(0,0,0,0)" >
      <SourceTrack range="(0,169666667)" type="2" editRate="10000000/1" trackRect="(0,0,0,0)" sampleRate="48000/1" bitDepth="0" numChannels="1" filename="" metaData="" />
    </Source>
    <Source id="18" src="C:\Users\Gabriel\Downloads\Condução elétrica (Sulfato férrico) (Gi).mp3" lastMod="20190406T130856" rect="(0,0,0,0)" >
      <SourceTrack range="(0,90666667)" type="2" editRate="10000000/1" trackRect="(0,0,0,0)" sampleRate="48000/1" bitDepth="0" numChannels="1" filename="" metaData="" />
    </Source>
    <Source id="19" src="C:\Users\Gabriel\Downloads\Condução elétrica (Nitrato de Níquel) (Gi).mp3" lastMod="20190406T130850" rect="(0,0,0,0)" >
      <SourceTrack range="(0,94666667)" type="2" editRate="10000000/1" trackRect="(0,0,0,0)" sampleRate="48000/1" bitDepth="0" numChannels="1" filename="" metaData="" />
    </Source>
    <Source id="20" src="C:\Users\Gabriel\Downloads\Condução elétrica (Massao) 1º.mp3" lastMod="20190406T130823" rect="(0,0,0,0)" >
      <SourceTrack range="(0,138666667)" type="2" editRate="10000000/1" trackRect="(0,0,0,0)" sampleRate="48000/1" bitDepth="0" numChannels="1" filename="" metaData="" />
    </Source>
    <Source id="21" src="C:\Users\Gabriel\Desktop\Trabalhos\Quim\Vídeo Aula Prática 1º período\Visual\WhatsApp Video 2019-03-25 at 11.20.53.mp4" lastMod="20190406T123345" rect="(0,0,352,640)" >
      <SourceTrack range="(0,298000000)" type="0" editRate="10000000/1" trackRect="(0,0,352,640)" sampleRate="100000/3329" bitDepth="24" numChannels="0" filename="" metaData="" />
      <SourceTrack range="(0,298000000)" type="2" editRate="10000000/1" trackRect="(0,0,0,0)" sampleRate="48000/1" bitDepth="16" numChannels="2" filename="" metaData="" />
    </Source>
    <Source id="22" src="C:\Users\Gabriel\Desktop\Trabalhos\Quim\Vídeo Aula Prática 1º período\Visual\WhatsApp Video 2019-03-25 at 11.21.07.mp4" lastMod="20190406T123406" rect="(0,0,352,640)" >
      <SourceTrack range="(0,81333333)" type="0" editRate="10000000/1" trackRect="(0,0,352,640)" sampleRate="5000000/165601" bitDepth="24" numChannels="0" filename="" metaData="" />
      <SourceTrack range="(0,81333333)" type="2" editRate="10000000/1" trackRect="(0,0,0,0)" sampleRate="48000/1" bitDepth="16" numChannels="2" filename="" metaData="" />
    </Source>
    <Source id="23" src="C:\Users\Gabriel\Desktop\Trabalhos\Quim\Vídeo Aula Prática 1º período\Visual\WhatsApp Video 2019-03-25 at 11.21.37.mp4" lastMod="20190406T123423" rect="(0,0,352,640)" >
      <SourceTrack range="(0,310666667)" type="0" editRate="10000000/1" trackRect="(0,0,352,640)" sampleRate="2000000/66631" bitDepth="24" numChannels="0" filename="" metaData="" />
      <SourceTrack range="(0,310666667)" type="2" editRate="10000000/1" trackRect="(0,0,0,0)" sampleRate="48000/1" bitDepth="16" numChannels="2" filename="" metaData="" />
    </Source>
    <Source id="24" src="C:\Users\Gabriel\Desktop\Trabalhos\Quim\Vídeo Aula Prática 1º período\Visual\WhatsApp Video 2019-03-25 at 11.18.58.mp4" lastMod="20190406T123212" rect="(0,0,352,640)" >
      <SourceTrack range="(0,579333333)" type="0" editRate="10000000/1" trackRect="(0,0,352,640)" sampleRate="1000000/33259" bitDepth="24" numChannels="0" filename="" metaData="" />
      <SourceTrack range="(0,579333333)" type="2" editRate="10000000/1" trackRect="(0,0,0,0)" sampleRate="48000/1" bitDepth="16" numChannels="2" filename="" metaData="" />
    </Source>
    <Source id="25" src="C:\Users\Gabriel\Desktop\Trabalhos\Quim\Vídeo Aula Prática 1º período\Visual\WhatsApp Video 2019-03-25 at 11.19.48.mp4" lastMod="20190406T123241" rect="(0,0,352,640)" >
      <SourceTrack range="(0,73000000)" type="0" editRate="10000000/1" trackRect="(0,0,352,640)" sampleRate="2500000/82891" bitDepth="24" numChannels="0" filename="" metaData="" />
      <SourceTrack range="(0,73000000)" type="2" editRate="10000000/1" trackRect="(0,0,0,0)" sampleRate="48000/1" bitDepth="16" numChannels="2" filename="" metaData="" />
    </Source>
    <Source id="26" src="C:\Users\Gabriel\Desktop\Trabalhos\Quim\Vídeo Aula Prática 1º período\Visual\WhatsApp Video 2019-03-25 at 11.20.24.mp4" lastMod="20190406T123330" rect="(0,0,352,640)" >
      <SourceTrack range="(0,345000000)" type="0" editRate="10000000/1" trackRect="(0,0,352,640)" sampleRate="10000000/333111" bitDepth="24" numChannels="0" filename="" metaData="" />
      <SourceTrack range="(0,345000000)" type="2" editRate="10000000/1" trackRect="(0,0,0,0)" sampleRate="48000/1" bitDepth="16" numChannels="2" filename="" metaData="" />
    </Source>
    <Source id="27" src="C:\Users\Gabriel\Desktop\Trabalhos\Quim\Vídeo Aula Prática 1º período\Vídeos solicitados\Fadiga dos metais.mp4" lastMod="20190406T134547" rect="(0,0,352,640)" >
      <SourceTrack range="(0,673333333)" type="0" editRate="10000000/1" trackRect="(0,0,352,640)" sampleRate="5000000/166661" bitDepth="24" numChannels="0" filename="" metaData="" />
      <SourceTrack range="(0,673333333)" type="2" editRate="10000000/1" trackRect="(0,0,0,0)" sampleRate="48000/1" bitDepth="16" numChannels="2" filename="" metaData="" />
    </Source>
    <Source id="28" src="C:\Users\Gabriel\Desktop\Trabalhos\Quim\Vídeo Aula Prática 1º período\Vídeos solicitados\Magnetismo.mp4" lastMod="20190406T123437" rect="(0,0,352,640)" >
      <SourceTrack range="(0,258000000)" type="0" editRate="10000000/1" trackRect="(0,0,352,640)" sampleRate="625000/20809" bitDepth="24" numChannels="0" filename="" metaData="" />
      <SourceTrack range="(0,258000000)" type="2" editRate="10000000/1" trackRect="(0,0,0,0)" sampleRate="48000/1" bitDepth="16" numChannels="2" filename="" metaData="" />
    </Source>
    <Source id="29" src="C:\Users\Gabriel\Desktop\Trabalhos\Quim\Vídeo Aula Prática 1º período\Vídeos solicitados\Nitrato de Níquel.mp4" lastMod="20190406T123614" rect="(0,0,352,640)" >
      <SourceTrack range="(0,460333333)" type="0" editRate="10000000/1" trackRect="(0,0,352,640)" sampleRate="5000000/166489" bitDepth="24" numChannels="0" filename="" metaData="" />
      <SourceTrack range="(0,460333333)" type="2" editRate="10000000/1" trackRect="(0,0,0,0)" sampleRate="48000/1" bitDepth="16" numChannels="2" filename="" metaData="" />
    </Source>
    <Source id="30" src="C:\Users\Gabriel\Desktop\Trabalhos\Quim\Vídeo Aula Prática 1º período\Vídeos solicitados\Sulfato de Cobre.mp4" lastMod="20190406T123641" rect="(0,0,352,640)" >
      <SourceTrack range="(0,214333333)" type="0" editRate="10000000/1" trackRect="(0,0,352,640)" sampleRate="10000000/332789" bitDepth="24" numChannels="0" filename="" metaData="" />
      <SourceTrack range="(0,214333333)" type="2" editRate="10000000/1" trackRect="(0,0,0,0)" sampleRate="48000/1" bitDepth="16" numChannels="2" filename="" metaData="" />
    </Source>
    <Source id="31" src="C:\Users\Gabriel\Desktop\Trabalhos\Quim\Vídeo Aula Prática 1º período\Vídeos solicitados\Sulfato de Zinco.mp4" lastMod="20190406T123634" rect="(0,0,352,640)" >
      <SourceTrack range="(0,396000000)" type="0" editRate="10000000/1" trackRect="(0,0,352,640)" sampleRate="2500000/83297" bitDepth="24" numChannels="0" filename="" metaData="" />
      <SourceTrack range="(0,396000000)" type="2" editRate="10000000/1" trackRect="(0,0,0,0)" sampleRate="48000/1" bitDepth="16" numChannels="2" filename="" metaData="" />
    </Source>
    <Source id="32" src="C:\Users\Gabriel\Desktop\Trabalhos\Quim\Vídeo Aula Prática 1º período\Vídeos solicitados\Sulfato Férrico.mp4" lastMod="20190406T123549" rect="(0,0,352,640)" >
      <SourceTrack range="(0,549333333)" type="0" editRate="10000000/1" trackRect="(0,0,352,640)" sampleRate="2500000/83131" bitDepth="24" numChannels="0" filename="" metaData="" />
      <SourceTrack range="(0,549333333)" type="2" editRate="10000000/1" trackRect="(0,0,0,0)" sampleRate="48000/1" bitDepth="16" numChannels="2" filename="" metaData="" />
    </Source>
    <Source id="33" src="C:\Users\Gabriel\Desktop\Trabalhos\Quim\Vídeo Aula Prática 1º período\Vídeos solicitados\Sulfato Ferroso.mp4" lastMod="20190406T123601" rect="(0,0,352,640)" >
      <SourceTrack range="(0,258666667)" type="0" editRate="10000000/1" trackRect="(0,0,352,640)" sampleRate="10000000/333177" bitDepth="24" numChannels="0" filename="" metaData="" />
      <SourceTrack range="(0,258666667)" type="2" editRate="10000000/1" trackRect="(0,0,0,0)" sampleRate="48000/1" bitDepth="16" numChannels="2" filename="" metaData="" />
    </Source>
    <Source id="34" src="C:\Users\Gabriel\Desktop\Trabalhos\Quim\Vídeo Aula Prática 1º período\Vídeos solicitados\Aparência Física.mp4" lastMod="20190406T123511" rect="(0,0,352,640)" >
      <SourceTrack range="(0,591333333)" type="0" editRate="10000000/1" trackRect="(0,0,352,640)" sampleRate="625000/20791" bitDepth="24" numChannels="0" filename="" metaData="" />
      <SourceTrack range="(0,591333333)" type="2" editRate="10000000/1" trackRect="(0,0,0,0)" sampleRate="48000/1" bitDepth="16" numChannels="2" filename="" metaData="" />
    </Source>
    <Source id="35" src="C:\Users\Gabriel\Desktop\Trabalhos\Quim\Vídeo Aula Prática 1º período\Vídeos solicitados\Cloreto de Alumínio.mp4" lastMod="20190406T123533" rect="(0,0,352,640)" >
      <SourceTrack range="(0,814000000)" type="0" editRate="10000000/1" trackRect="(0,0,352,640)" sampleRate="2000000/66671" bitDepth="24" numChannels="0" filename="" metaData="" />
      <SourceTrack range="(0,814000000)" type="2" editRate="10000000/1" trackRect="(0,0,0,0)" sampleRate="48000/1" bitDepth="16" numChannels="2" filename="" metaData="" />
    </Source>
    <Source id="36" src="C:\Users\Gabriel\Desktop\Trabalhos\Quim\Vídeo Aula Prática 1º período\Áudio\Aparência física (Massao).mp3" lastMod="20190406T134951" rect="(0,0,0,0)" >
      <SourceTrack range="(0,134000000)" type="2" editRate="10000000/1" trackRect="(0,0,0,0)" sampleRate="48000/1" bitDepth="0" numChannels="1" filename="" metaData="" />
    </Source>
    <Source id="37" src="C:\Users\Gabriel\Downloads\WhatsApp Ptt 2019-04-06 at 15.00.45_45.mp3" lastMod="20190406T180611" rect="(0,0,0,0)" >
      <SourceTrack range="(0,89000000)" type="2" editRate="10000000/1" trackRect="(0,0,0,0)" sampleRate="48000/1" bitDepth="0" numChannels="1" filename="" metaData="" />
    </Source>
  </SourceBin>
  <Timeline id="38"  >
   <Attributes>
    <Attribute id="39" value="1280" name="width"/>
    <Attribute id="40" value="720" name="height"/>
    <Attribute id="41" value="(0,0,0,255)" name="backgroundColor"/>
   </Attributes>
    <GenericMixer id="42"  name="Unified Mixer">
     <MetaData>
      <entry key="MixerType" val="TimelineMixer"/>
     </MetaData>
     <Tracks>
      <GenericTrack id="43"  >
       <Attributes>
        <Attribute id="44" value="" name="ident"/>
        <Attribute id="45" value="0" name="audioMuted"/>
        <Attribute id="46" value="0" name="videoHidden"/>
       </Attributes>
       <MetaData>
        <entry key="IsLocked" val="False"/>
        <entry key="WinTrackHeight" val="62"/>
       </MetaData>
       <Medias>
        <Callout id="47" start="0" duration="171" scalar="1/1" mediaStart="0/1" mediaDuration="171/1" >
         <Transformer>
          <VectorParam id="48"  name="translation">
           <InterpolatingParam id="49" interp="linr"  time="-9999999/1" value="-391.95046439626873" leadInLength="0/1"  />
           <InterpolatingParam id="50" interp="linr"  time="-9999999/1" value="191.15239117980011" leadInLength="0/1"  />
           <InterpolatingParam id="51" interp="linr"  time="-9999999/1" value="0" leadInLength="0/1"  />
          </VectorParam>
          <VectorParam id="52"  name="rotation">
           <InterpolatingParam id="53" interp="linr"  time="-9999999/1" value="0" leadInLength="0/1"  />
           <InterpolatingParam id="54" interp="linr"  time="-9999999/1" value="0" leadInLength="0/1"  />
           <InterpolatingParam id="55" interp="linr"  time="-9999999/1" value="0" leadInLength="0/1"  />
          </VectorParam>
          <VectorParam id="56"  name="shear">
           <InterpolatingParam id="57" interp="linr"  time="-9999999/1" value="0" leadInLength="0/1"  />
           <InterpolatingParam id="58" interp="linr"  time="-9999999/1" value="0" leadInLength="0/1"  />
           <InterpolatingParam id="59" interp="linr"  time="-9999999/1" value="0" leadInLength="0/1"  />
          </VectorParam>
          <VectorParam id="60"  name="scale">
           <InterpolatingParam id="61" interp="linr"  time="-9999999/1" value="1.5503095975235892" leadInLength="0/1"  />
           <InterpolatingParam id="62" interp="linr"  time="-9999999/1" value="1.4225597046431839" leadInLength="0/1"  />
           <InterpolatingParam id="63" interp="linr"  time="-9999999/1" value="1" leadInLength="0/1"  />
          </VectorParam>
          <VectorParam id="64"  name="anchor">
           <InterpolatingParam id="65" interp="linr"  time="0/1" value="0" leadInLength="0/1"  />
           <InterpolatingParam id="66" interp="linr"  time="0/1" value="0" leadInLength="0/1"  />
           <InterpolatingParam id="67" interp="linr"  time="0/1" value="0" leadInLength="0/1"  />
          </VectorParam>
         </Transformer>
         <Parameters>
          <VectorParam id="68"  name="sourceCrop">
           <InterpolatingParam id="69" interp="linr"  time="0/1" value="0" leadInLength="0/1"  />
           <InterpolatingParam id="70" interp="linr"  time="0/1" value="0" leadInLength="0/1"  />
           <InterpolatingParam id="71" interp="linr"  time="0/1" value="0" leadInLength="0/1"  />
           <InterpolatingParam id="72" interp="linr"  time="0/1" value="0" leadInLength="0/1"  />
          </VectorParam>
          <VectorParam id="73"  name="geometryCrop">
           <InterpolatingParam id="74" interp="linr"  time="-9999999/1" value="0" leadInLength="0/1"  />
           <InterpolatingParam id="75" interp="linr"  time="-9999999/1" value="0" leadInLength="0/1"  />
           <InterpolatingParam id="76" interp="linr"  time="-9999999/1" value="0" leadInLength="0/1"  />
           <InterpolatingParam id="77" interp="linr"  time="-9999999/1" value="0" leadInLength="0/1"  />
          </VectorParam>
          <InterpolatingParam id="78" interp="linr"  time="-9999999/1" value="1" leadInLength="0/1"  name="opacity"/>
         </Parameters>
         <Effects>
          <GenericEffect id="79" name = "DropShadow" >
           <Parameters>
           <InterpolatingParam id="80" interp="linr"  time="0/1" value="315" leadInLength="0/1"   name="angle"/>
           <InterpolatingParam id="81" interp="linr"  time="0/1" value="2" leadInLength="0/1"   name="blur"/>
           <Parameter id="82"   name="enabled">
            <Keyframes>
            <Keyframe id="83"  time="0/1" value="1" leadInLength="0/1"  />
            </Keyframes>
           </Parameter>
           <InterpolatingParam id="84" interp="linr"  time="0/1" value="4" leadInLength="0/1"   name="offset"/>
           <InterpolatingParam id="85" interp="linr"  time="0/1" value="0.75" leadInLength="0/1"   name="opacity"/>
           </Parameters>
          </GenericEffect>
         </Effects>
         <Attributes>
          <Attribute id="86"  name="vectorNode">
           <VectorNode id="87" kind="TypeWinXML"  >
            <DoubleParameters>
             <InterpolatingParam id="88" interp="linr"  time="0/1" value="-1" leadInLength="0/1"  name="CutoutPercentage"/>
             <InterpolatingParam id="89" interp="linr"  time="0/1" value="30" leadInLength="0/1"  name="RoundedRectRadius"/>
             <InterpolatingParam id="90" interp="linr"  time="0/1" value="5" leadInLength="0/1"  name="Style"/>
             <InterpolatingParam id="91" interp="linr"  time="0/1" value="0" leadInLength="0/1"  name="borderColorBlue"/>
             <InterpolatingParam id="92" interp="linr"  time="0/1" value="0" leadInLength="0/1"  name="borderColorGreen"/>
             <InterpolatingParam id="93" interp="linr"  time="0/1" value="0" leadInLength="0/1"  name="borderColorRed"/>
             <InterpolatingParam id="94" interp="linr"  time="0/1" value="1" leadInLength="0/1"  name="borderState"/>
             <InterpolatingParam id="95" interp="linr"  time="0/1" value="5" leadInLength="0/1"  name="borderWidth"/>
             <InterpolatingParam id="96" interp="linr"  time="0/1" value="0" leadInLength="0/1"  name="dimensionTime"/>
             <InterpolatingParam id="97" interp="linr"  time="0/1" value="0" leadInLength="0/1"  name="fillColorBlue"/>
             <InterpolatingParam id="98" interp="linr"  time="0/1" value="0" leadInLength="0/1"  name="fillColorGreen"/>
             <InterpolatingParam id="99" interp="linr"  time="0/1" value="0" leadInLength="0/1"  name="fillColorRed"/>
             <InterpolatingParam id="100" interp="linr"  time="0/1" value="1" leadInLength="0/1"  name="fillState"/>
             <InterpolatingParam id="101" interp="linr"  time="0/1" value="0" leadInLength="0/1"  name="flipOnXAxis"/>
             <InterpolatingParam id="102" interp="linr"  time="0/1" value="0" leadInLength="0/1"  name="flipOnYAxis"/>
             <InterpolatingParam id="103" interp="linr"  time="0/1" value="237.38562091503266" leadInLength="0/1"  name="height"/>
             <InterpolatingParam id="104" interp="linr"  time="0/1" value="0" leadInLength="0/1"  name="textDropShadow"/>
             <InterpolatingParam id="105" interp="linr"  time="0/1" value="0" leadInLength="0/1"  name="textIgnoresOpacity"/>
             <InterpolatingParam id="106" interp="linr"  time="0/1" value="0.86784140969162993" leadInLength="0/1"  name="textRectHeight"/>
             <InterpolatingParam id="107" interp="linr"  time="0/1" value="0.90196078431372551" leadInLength="0/1"  name="textRectWidth"/>
             <InterpolatingParam id="108" interp="linr"  time="0/1" value="0.049019607843137254" leadInLength="0/1"  name="textRectX"/>
             <InterpolatingParam id="109" interp="linr"  time="0/1" value="0.066079295154185022" leadInLength="0/1"  name="textRectY"/>
             <InterpolatingParam id="110" interp="linr"  time="0/1" value="0" leadInLength="0/1"  name="textVerticalAlign"/>
             <InterpolatingParam id="111" interp="linr"  time="0/1" value="320" leadInLength="0/1"  name="width"/>
            </DoubleParameters>
            <StringParameters>
             <Parameter id="112"  name="VectorPath">
              <Keyframes>
              <Keyframe id="113"  time="0/1" value="M10,0h286c5.521,0,10,4.477,10,10v207c0,5.521-4.479,10-10,10H10c-5.523,0-10-4.479-10-10V10&#xa;&#x9;C0,4.477,4.477,0,10,0z" leadInLength="0/1"  />
              </Keyframes>
             </Parameter>
             <Parameter id="114"  name="filename">
              <Keyframes>
              <Keyframe id="115"  time="0/1" value="C:\Program Files (x86)\TechSmith\Camtasia Studio 8\Media\Studio\Callouts\roundedrectangle.xml" leadInLength="0/1"  />
              </Keyframes>
             </Parameter>
             <Parameter id="116"  name="name">
              <Keyframes>
              <Keyframe id="117"  time="0/1" value="Filled Rounded Rectangle" leadInLength="0/1"  />
              </Keyframes>
             </Parameter>
             <Parameter id="118"  name="text">
              <Keyframes>
              <Keyframe id="119"  time="0/1" value="{\rtf1\ansi\ansicpg1252\deff0\deflang1033{\fonttbl{\f0\fswiss\fprq2\fcharset0 Arial;}}&#xD;&#xa;{\colortbl ;\red255\green255\blue255;}&#xD;&#xa;\viewkind4\uc1\pard\qc\cf1\f0\fs56 Aviso\par&#xD;&#xa;Devido a marca d&apos;\&apos;e1gua do editor de v\&apos;eddeo os textos ficar\&apos;e3o nos cantos superiores da tela\par&#xD;&#xa;}&#xD;&#xa;" leadInLength="0/1"  />
              </Keyframes>
             </Parameter>
             <Parameter id="120"  name="xmlContent">
              <Keyframes>
              <Keyframe id="121"  time="0/1" value="﻿&lt;?xml version=&quot;1.0&quot;?&gt;&#xa;&#xa;&lt;Overlay version=&quot;1.0.1&quot;&gt;&#xa;&#xa;&lt;Overlay_Filename&gt;roundedrectangle.png&lt;/Overlay_Filename&gt;&#xa;&lt;Overlay_Name&gt;Filled Rounded Rectangle&lt;/Overlay_Name&gt;&#xa;&lt;Text_Top&gt;15&lt;/Text_Top&gt;&#xa;&lt;Text_Left&gt;15&lt;/Text_Left&gt;&#xa;&lt;Text_Bottom&gt;15&lt;/Text_Bottom&gt;&#xa;&lt;Text_Right&gt;15&lt;/Text_Right&gt;&#xa;&lt;Fill_Color&gt;1&lt;/Fill_Color&gt;&#xa;&lt;Border_Color&gt;1&lt;/Border_Color&gt;&#xa;&lt;Initial_Fill_Color&gt;0xffe05f00&lt;/Initial_Fill_Color&gt;&#xa;&lt;Initial_Border_Color&gt;0xffd7d7d7&lt;/Initial_Border_Color&gt;&#xa;&lt;VectorProps&gt;&#xa;&lt;figure&gt;&#xa;&lt;svg&gt;M10,0h286c5.521,0,10,4.477,10,10v207c0,5.521-4.479,10-10,10H10c-5.523,0-10-4.479-10-10V10&#xa;&#x9;C0,4.477,4.477,0,10,0z&lt;/svg&gt;&#xa;&lt;/figure&gt;&#xa;&lt;borderWidth&gt;5.00&lt;/borderWidth&gt;&#xa;&lt;seamY&gt;-1&lt;/seamY&gt;&#xa;&lt;roundedRectRadius&gt;30&lt;/roundedRectRadius&gt;&#xa;&lt;shapeWidth&gt;306&lt;/shapeWidth&gt;&#xa;&lt;shapeHeight&gt;227&lt;/shapeHeight&gt;&#xa;&lt;/VectorProps&gt;&#xa;&lt;Style&gt;5&lt;/Style&gt;&#xa;&lt;/Overlay&gt;" leadInLength="0/1"  />
              </Keyframes>
             </Parameter>
            </StringParameters>
           </VectorNode>
          </Attribute>
         </Attributes>
         <MetaData>
          <entry key="WinSubProjectDisplayName" val=""/>
         </MetaData>
         <LeftEdgeMods length="30/1" groupName="OpacityFade">
          <EdgeMod parameter="78">
           <FadeInFunc id="122"  />
          </EdgeMod>
         </LeftEdgeMods>
         <RightEdgeMods length="30/1" groupName="OpacityFade">
          <EdgeMod parameter="78">
           <FadeOutFunc id="123"  />
          </EdgeMod>
         </RightEdgeMods>
         <ExtraData>
          <Entry key="ZoomPanBin">
           <ZoomPanBin id="124"  >
            <ZoomPanKeyframes>
             <ZoomPanKeyframe id="125" timeRangeEnd="-9999999/1" timeRangeDuration="0/1" interpolaterName="linr"  />
            </ZoomPanKeyframes>
           </ZoomPanBin>
          </Entry>
         </ExtraData>
        </Callout>
        <Callout id="126" start="171" duration="591" scalar="1/1" mediaStart="0/1" mediaDuration="591/1" >
         <Transformer>
          <VectorParam id="127"  name="translation">
           <InterpolatingParam id="128" interp="linr"  time="-9999999/1" value="-432.44582043388306" leadInLength="0/1"  />
           <InterpolatingParam id="129" interp="linr"  time="-9999999/1" value="169.41176470618782" leadInLength="0/1"  />
           <InterpolatingParam id="130" interp="linr"  time="-9999999/1" value="-3.410605131648287e-010" leadInLength="0/1"  />
          </VectorParam>
          <VectorParam id="131"  name="rotation">
           <InterpolatingParam id="132" interp="linr"  time="-9999999/1" value="0" leadInLength="0/1"  />
           <InterpolatingParam id="133" interp="linr"  time="-9999999/1" value="0" leadInLength="0/1"  />
           <InterpolatingParam id="134" interp="linr"  time="-9999999/1" value="0" leadInLength="0/1"  />
          </VectorParam>
          <VectorParam id="135"  name="shear">
           <InterpolatingParam id="136" interp="linr"  time="-9999999/1" value="0" leadInLength="0/1"  />
           <InterpolatingParam id="137" interp="linr"  time="-9999999/1" value="0" leadInLength="0/1"  />
           <InterpolatingParam id="138" interp="linr"  time="-9999999/1" value="0" leadInLength="0/1"  />
          </VectorParam>
          <VectorParam id="139"  name="scale">
           <InterpolatingParam id="140" interp="linr"  time="-9999999/1" value="1.2972136222890516" leadInLength="0/1"  />
           <InterpolatingParam id="141" interp="linr"  time="-9999999/1" value="1.6057268776412748" leadInLength="0/1"  />
           <InterpolatingParam id="142" interp="linr"  time="-9999999/1" value="1" leadInLength="0/1"  />
          </VectorParam>
          <VectorParam id="143"  name="anchor">
           <InterpolatingParam id="144" interp="linr"  time="0/1" value="0" leadInLength="0/1"  />
           <InterpolatingParam id="145" interp="linr"  time="0/1" value="0" leadInLength="0/1"  />
           <InterpolatingParam id="146" interp="linr"  time="0/1" value="0" leadInLength="0/1"  />
          </VectorParam>
         </Transformer>
         <Parameters>
          <VectorParam id="147"  name="sourceCrop">
           <InterpolatingParam id="148" interp="linr"  time="0/1" value="0" leadInLength="0/1"  />
           <InterpolatingParam id="149" interp="linr"  time="0/1" value="0" leadInLength="0/1"  />
           <InterpolatingParam id="150" interp="linr"  time="0/1" value="0" leadInLength="0/1"  />
           <InterpolatingParam id="151" interp="linr"  time="0/1" value="0" leadInLength="0/1"  />
          </VectorParam>
          <VectorParam id="152"  name="geometryCrop">
           <InterpolatingParam id="153" interp="linr"  time="-9999999/1" value="0" leadInLength="0/1"  />
           <InterpolatingParam id="154" interp="linr"  time="-9999999/1" value="0" leadInLength="0/1"  />
           <InterpolatingParam id="155" interp="linr"  time="-9999999/1" value="0" leadInLength="0/1"  />
           <InterpolatingParam id="156" interp="linr"  time="-9999999/1" value="0" leadInLength="0/1"  />
          </VectorParam>
          <InterpolatingParam id="157" interp="linr"  time="-9999999/1" value="1" leadInLength="0/1"  name="opacity"/>
         </Parameters>
         <Effects>
          <GenericEffect id="158" name = "DropShadow" >
           <Parameters>
           <InterpolatingParam id="159" interp="linr"  time="0/1" value="315" leadInLength="0/1"   name="angle"/>
           <InterpolatingParam id="160" interp="linr"  time="0/1" value="2" leadInLength="0/1"   name="blur"/>
           <Parameter id="161"   name="enabled">
            <Keyframes>
            <Keyframe id="162"  time="0/1" value="1" leadInLength="0/1"  />
            </Keyframes>
           </Parameter>
           <InterpolatingParam id="163" interp="linr"  time="0/1" value="4" leadInLength="0/1"   name="offset"/>
           <InterpolatingParam id="164" interp="linr"  time="0/1" value="0.75" leadInLength="0/1"   name="opacity"/>
           </Parameters>
          </GenericEffect>
         </Effects>
         <Attributes>
          <Attribute id="165"  name="vectorNode">
           <VectorNode id="166" kind="TypeWinXML"  >
            <DoubleParameters>
             <InterpolatingParam id="167" interp="linr"  time="0/1" value="-1" leadInLength="0/1"  name="CutoutPercentage"/>
             <InterpolatingParam id="168" interp="linr"  time="0/1" value="30" leadInLength="0/1"  name="RoundedRectRadius"/>
             <InterpolatingParam id="169" interp="linr"  time="0/1" value="5" leadInLength="0/1"  name="Style"/>
             <InterpolatingParam id="170" interp="linr"  time="0/1" value="0" leadInLength="0/1"  name="borderColorBlue"/>
             <InterpolatingParam id="171" interp="linr"  time="0/1" value="0" leadInLength="0/1"  name="borderColorGreen"/>
             <InterpolatingParam id="172" interp="linr"  time="0/1" value="0" leadInLength="0/1"  name="borderColorRed"/>
             <InterpolatingParam id="173" interp="linr"  time="0/1" value="1" leadInLength="0/1"  name="borderState"/>
             <InterpolatingParam id="174" interp="linr"  time="0/1" value="5" leadInLength="0/1"  name="borderWidth"/>
             <InterpolatingParam id="175" interp="linr"  time="0/1" value="0" leadInLength="0/1"  name="dimensionTime"/>
             <InterpolatingParam id="176" interp="linr"  time="0/1" value="0" leadInLength="0/1"  name="fillColorBlue"/>
             <InterpolatingParam id="177" interp="linr"  time="0/1" value="0" leadInLength="0/1"  name="fillColorGreen"/>
             <InterpolatingParam id="178" interp="linr"  time="0/1" value="0" leadInLength="0/1"  name="fillColorRed"/>
             <InterpolatingParam id="179" interp="linr"  time="0/1" value="1" leadInLength="0/1"  name="fillState"/>
             <InterpolatingParam id="180" interp="linr"  time="0/1" value="0" leadInLength="0/1"  name="flipOnXAxis"/>
             <InterpolatingParam id="181" interp="linr"  time="0/1" value="0" leadInLength="0/1"  name="flipOnYAxis"/>
             <InterpolatingParam id="182" interp="linr"  time="0/1" value="237.38562091503266" leadInLength="0/1"  name="height"/>
             <InterpolatingParam id="183" interp="linr"  time="0/1" value="0" leadInLength="0/1"  name="textDropShadow"/>
             <InterpolatingParam id="184" interp="linr"  time="0/1" value="0" leadInLength="0/1"  name="textIgnoresOpacity"/>
             <InterpolatingParam id="185" interp="linr"  time="0/1" value="0.86784140969162993" leadInLength="0/1"  name="textRectHeight"/>
             <InterpolatingParam id="186" interp="linr"  time="0/1" value="0.90196078431372551" leadInLength="0/1"  name="textRectWidth"/>
             <InterpolatingParam id="187" interp="linr"  time="0/1" value="0.049019607843137254" leadInLength="0/1"  name="textRectX"/>
             <InterpolatingParam id="188" interp="linr"  time="0/1" value="0.066079295154185022" leadInLength="0/1"  name="textRectY"/>
             <InterpolatingParam id="189" interp="linr"  time="0/1" value="0" leadInLength="0/1"  name="textVerticalAlign"/>
             <InterpolatingParam id="190" interp="linr"  time="0/1" value="320" leadInLength="0/1"  name="width"/>
            </DoubleParameters>
            <StringParameters>
             <Parameter id="191"  name="VectorPath">
              <Keyframes>
              <Keyframe id="192"  time="0/1" value="M10,0h286c5.521,0,10,4.477,10,10v207c0,5.521-4.479,10-10,10H10c-5.523,0-10-4.479-10-10V10&#xa;&#x9;C0,4.477,4.477,0,10,0z" leadInLength="0/1"  />
              </Keyframes>
             </Parameter>
             <Parameter id="193"  name="filename">
              <Keyframes>
              <Keyframe id="194"  time="0/1" value="C:\Program Files (x86)\TechSmith\Camtasia Studio 8\Media\Studio\Callouts\roundedrectangle.xml" leadInLength="0/1"  />
              </Keyframes>
             </Parameter>
             <Parameter id="195"  name="name">
              <Keyframes>
              <Keyframe id="196"  time="0/1" value="Filled Rounded Rectangle" leadInLength="0/1"  />
              </Keyframes>
             </Parameter>
             <Parameter id="197"  name="text">
              <Keyframes>
              <Keyframe id="198"  time="0/1" value="{\rtf1\ansi\ansicpg1252\deff0\deflang1033{\fonttbl{\f0\fswiss\fprq2\fcharset0 Arial;}}&#xD;&#xa;{\colortbl ;\red255\green255\blue255;}&#xD;&#xa;\viewkind4\uc1\pard\qc\cf1\f0\fs72 Qu\&apos;edmica Pr\&apos;e1tica\par&#xD;&#xa;Professor Jefferson\par&#xD;&#xa;Engenharia Bernoullie \par&#xD;&#xa;Equipe Linus\par&#xD;&#xa;\par&#xD;&#xa;}&#xD;&#xa;" leadInLength="0/1"  />
              </Keyframes>
             </Parameter>
             <Parameter id="199"  name="xmlContent">
              <Keyframes>
              <Keyframe id="200"  time="0/1" value="﻿&lt;?xml version=&quot;1.0&quot;?&gt;&#xa;&#xa;&lt;Overlay version=&quot;1.0.1&quot;&gt;&#xa;&#xa;&lt;Overlay_Filename&gt;roundedrectangle.png&lt;/Overlay_Filename&gt;&#xa;&lt;Overlay_Name&gt;Filled Rounded Rectangle&lt;/Overlay_Name&gt;&#xa;&lt;Text_Top&gt;15&lt;/Text_Top&gt;&#xa;&lt;Text_Left&gt;15&lt;/Text_Left&gt;&#xa;&lt;Text_Bottom&gt;15&lt;/Text_Bottom&gt;&#xa;&lt;Text_Right&gt;15&lt;/Text_Right&gt;&#xa;&lt;Fill_Color&gt;1&lt;/Fill_Color&gt;&#xa;&lt;Border_Color&gt;1&lt;/Border_Color&gt;&#xa;&lt;Initial_Fill_Color&gt;0xffe05f00&lt;/Initial_Fill_Color&gt;&#xa;&lt;Initial_Border_Color&gt;0xffd7d7d7&lt;/Initial_Border_Color&gt;&#xa;&lt;VectorProps&gt;&#xa;&lt;figure&gt;&#xa;&lt;svg&gt;M10,0h286c5.521,0,10,4.477,10,10v207c0,5.521-4.479,10-10,10H10c-5.523,0-10-4.479-10-10V10&#xa;&#x9;C0,4.477,4.477,0,10,0z&lt;/svg&gt;&#xa;&lt;/figure&gt;&#xa;&lt;borderWidth&gt;5.00&lt;/borderWidth&gt;&#xa;&lt;seamY&gt;-1&lt;/seamY&gt;&#xa;&lt;roundedRectRadius&gt;30&lt;/roundedRectRadius&gt;&#xa;&lt;shapeWidth&gt;306&lt;/shapeWidth&gt;&#xa;&lt;shapeHeight&gt;227&lt;/shapeHeight&gt;&#xa;&lt;/VectorProps&gt;&#xa;&lt;Style&gt;5&lt;/Style&gt;&#xa;&lt;/Overlay&gt;" leadInLength="0/1"  />
              </Keyframes>
             </Parameter>
            </StringParameters>
           </VectorNode>
          </Attribute>
         </Attributes>
         <MetaData>
          <entry key="WinSubProjectDisplayName" val=""/>
         </MetaData>
         <LeftEdgeMods length="0/1" groupName="OpacityFade">
          <EdgeMod parameter="157">
           <FadeInFunc id="201"  />
          </EdgeMod>
         </LeftEdgeMods>
         <RightEdgeMods length="30/1" groupName="OpacityFade">
          <EdgeMod parameter="157">
           <FadeOutFunc id="202"  />
          </EdgeMod>
         </RightEdgeMods>
         <ExtraData>
          <Entry key="ZoomPanBin">
           <ZoomPanBin id="203"  >
            <ZoomPanKeyframes>
             <ZoomPanKeyframe id="204" timeRangeEnd="-9999999/1" timeRangeDuration="0/1" interpolaterName="linr"  />
            </ZoomPanKeyframes>
           </ZoomPanBin>
          </Entry>
         </ExtraData>
        </Callout>
        <Callout id="205" start="762" duration="223" scalar="1/1" mediaStart="0/1" mediaDuration="223/1" >
         <Transformer>
          <VectorParam id="206"  name="translation">
           <InterpolatingParam id="207" interp="linr"  time="-9999999/1" value="-435.7894736841356" leadInLength="0/1"  />
           <InterpolatingParam id="208" interp="linr"  time="-9999999/1" value="169.41176470615028" leadInLength="0/1"  />
           <InterpolatingParam id="209" interp="linr"  time="-9999999/1" value="-3.4106051316482886e-010" leadInLength="0/1"  />
          </VectorParam>
          <VectorParam id="210"  name="rotation">
           <InterpolatingParam id="211" interp="linr"  time="-9999999/1" value="0" leadInLength="0/1"  />
           <InterpolatingParam id="212" interp="linr"  time="-9999999/1" value="0" leadInLength="0/1"  />
           <InterpolatingParam id="213" interp="linr"  time="-9999999/1" value="0" leadInLength="0/1"  />
          </VectorParam>
          <VectorParam id="214"  name="shear">
           <InterpolatingParam id="215" interp="linr"  time="-9999999/1" value="0" leadInLength="0/1"  />
           <InterpolatingParam id="216" interp="linr"  time="-9999999/1" value="0" leadInLength="0/1"  />
           <InterpolatingParam id="217" interp="linr"  time="-9999999/1" value="0" leadInLength="0/1"  />
          </VectorParam>
          <VectorParam id="218"  name="scale">
           <InterpolatingParam id="219" interp="linr"  time="-9999999/1" value="1.3181114551031969" leadInLength="0/1"  />
           <InterpolatingParam id="220" interp="linr"  time="-9999999/1" value="1.60572687764132" leadInLength="0/1"  />
           <InterpolatingParam id="221" interp="linr"  time="-9999999/1" value="1" leadInLength="0/1"  />
          </VectorParam>
          <VectorParam id="222"  name="anchor">
           <InterpolatingParam id="223" interp="linr"  time="0/1" value="0" leadInLength="0/1"  />
           <InterpolatingParam id="224" interp="linr"  time="0/1" value="0" leadInLength="0/1"  />
           <InterpolatingParam id="225" interp="linr"  time="0/1" value="0" leadInLength="0/1"  />
          </VectorParam>
         </Transformer>
         <Parameters>
          <VectorParam id="226"  name="sourceCrop">
           <InterpolatingParam id="227" interp="linr"  time="0/1" value="0" leadInLength="0/1"  />
           <InterpolatingParam id="228" interp="linr"  time="0/1" value="0" leadInLength="0/1"  />
           <InterpolatingParam id="229" interp="linr"  time="0/1" value="0" leadInLength="0/1"  />
           <InterpolatingParam id="230" interp="linr"  time="0/1" value="0" leadInLength="0/1"  />
          </VectorParam>
          <VectorParam id="231"  name="geometryCrop">
           <InterpolatingParam id="232" interp="linr"  time="-9999999/1" value="0" leadInLength="0/1"  />
           <InterpolatingParam id="233" interp="linr"  time="-9999999/1" value="0" leadInLength="0/1"  />
           <InterpolatingParam id="234" interp="linr"  time="-9999999/1" value="0" leadInLength="0/1"  />
           <InterpolatingParam id="235" interp="linr"  time="-9999999/1" value="0" leadInLength="0/1"  />
          </VectorParam>
          <InterpolatingParam id="236" interp="linr"  time="-9999999/1" value="1" leadInLength="0/1"  name="opacity"/>
         </Parameters>
         <Effects>
          <GenericEffect id="237" name = "DropShadow" >
           <Parameters>
           <InterpolatingParam id="238" interp="linr"  time="0/1" value="315" leadInLength="0/1"   name="angle"/>
           <InterpolatingParam id="239" interp="linr"  time="0/1" value="2" leadInLength="0/1"   name="blur"/>
           <Parameter id="240"   name="enabled">
            <Keyframes>
            <Keyframe id="241"  time="0/1" value="1" leadInLength="0/1"  />
            </Keyframes>
           </Parameter>
           <InterpolatingParam id="242" interp="linr"  time="0/1" value="4" leadInLength="0/1"   name="offset"/>
           <InterpolatingParam id="243" interp="linr"  time="0/1" value="0.75" leadInLength="0/1"   name="opacity"/>
           </Parameters>
          </GenericEffect>
         </Effects>
         <Attributes>
          <Attribute id="244"  name="vectorNode">
           <VectorNode id="245" kind="TypeWinXML"  >
            <DoubleParameters>
             <InterpolatingParam id="246" interp="linr"  time="0/1" value="-1" leadInLength="0/1"  name="CutoutPercentage"/>
             <InterpolatingParam id="247" interp="linr"  time="0/1" value="30" leadInLength="0/1"  name="RoundedRectRadius"/>
             <InterpolatingParam id="248" interp="linr"  time="0/1" value="5" leadInLength="0/1"  name="Style"/>
             <InterpolatingParam id="249" interp="linr"  time="0/1" value="0" leadInLength="0/1"  name="borderColorBlue"/>
             <InterpolatingParam id="250" interp="linr"  time="0/1" value="0" leadInLength="0/1"  name="borderColorGreen"/>
             <InterpolatingParam id="251" interp="linr"  time="0/1" value="0" leadInLength="0/1"  name="borderColorRed"/>
             <InterpolatingParam id="252" interp="linr"  time="0/1" value="1" leadInLength="0/1"  name="borderState"/>
             <InterpolatingParam id="253" interp="linr"  time="0/1" value="5" leadInLength="0/1"  name="borderWidth"/>
             <InterpolatingParam id="254" interp="linr"  time="0/1" value="0" leadInLength="0/1"  name="dimensionTime"/>
             <InterpolatingParam id="255" interp="linr"  time="0/1" value="0" leadInLength="0/1"  name="fillColorBlue"/>
             <InterpolatingParam id="256" interp="linr"  time="0/1" value="0" leadInLength="0/1"  name="fillColorGreen"/>
             <InterpolatingParam id="257" interp="linr"  time="0/1" value="0" leadInLength="0/1"  name="fillColorRed"/>
             <InterpolatingParam id="258" interp="linr"  time="0/1" value="1" leadInLength="0/1"  name="fillState"/>
             <InterpolatingParam id="259" interp="linr"  time="0/1" value="0" leadInLength="0/1"  name="flipOnXAxis"/>
             <InterpolatingParam id="260" interp="linr"  time="0/1" value="0" leadInLength="0/1"  name="flipOnYAxis"/>
             <InterpolatingParam id="261" interp="linr"  time="0/1" value="237.38562091503266" leadInLength="0/1"  name="height"/>
             <InterpolatingParam id="262" interp="linr"  time="0/1" value="0" leadInLength="0/1"  name="textDropShadow"/>
             <InterpolatingParam id="263" interp="linr"  time="0/1" value="0" leadInLength="0/1"  name="textIgnoresOpacity"/>
             <InterpolatingParam id="264" interp="linr"  time="0/1" value="0.86784140969162993" leadInLength="0/1"  name="textRectHeight"/>
             <InterpolatingParam id="265" interp="linr"  time="0/1" value="0.90196078431372551" leadInLength="0/1"  name="textRectWidth"/>
             <InterpolatingParam id="266" interp="linr"  time="0/1" value="0.049019607843137254" leadInLength="0/1"  name="textRectX"/>
             <InterpolatingParam id="267" interp="linr"  time="0/1" value="0.066079295154185022" leadInLength="0/1"  name="textRectY"/>
             <InterpolatingParam id="268" interp="linr"  time="0/1" value="0" leadInLength="0/1"  name="textVerticalAlign"/>
             <InterpolatingParam id="269" interp="linr"  time="0/1" value="320" leadInLength="0/1"  name="width"/>
            </DoubleParameters>
            <StringParameters>
             <Parameter id="270"  name="VectorPath">
              <Keyframes>
              <Keyframe id="271"  time="0/1" value="M10,0h286c5.521,0,10,4.477,10,10v207c0,5.521-4.479,10-10,10H10c-5.523,0-10-4.479-10-10V10&#xa;&#x9;C0,4.477,4.477,0,10,0z" leadInLength="0/1"  />
              </Keyframes>
             </Parameter>
             <Parameter id="272"  name="filename">
              <Keyframes>
              <Keyframe id="273"  time="0/1" value="C:\Program Files (x86)\TechSmith\Camtasia Studio 8\Media\Studio\Callouts\roundedrectangle.xml" leadInLength="0/1"  />
              </Keyframes>
             </Parameter>
             <Parameter id="274"  name="name">
              <Keyframes>
              <Keyframe id="275"  time="0/1" value="Filled Rounded Rectangle" leadInLength="0/1"  />
              </Keyframes>
             </Parameter>
             <Parameter id="276"  name="text">
              <Keyframes>
              <Keyframe id="277"  time="0/1" value="{\rtf1\ansi\ansicpg1252\deff0\deflang1033{\fonttbl{\f0\fswiss\fprq2\fcharset0 Arial;}}&#xD;&#xa;{\colortbl ;\red255\green255\blue255;}&#xD;&#xa;\viewkind4\uc1\pard\cf1\f0\fs56 Apar\&apos;eancia F\&apos;edsica\par&#xD;&#xa;Esta\&apos;e7\&apos;e3o 4\par&#xD;&#xa;Envolvidos:\par&#xD;&#xa;Gabriel Cez\&apos;e1rio \par&#xD;&#xa;(V\&apos;eddeo)\par&#xD;&#xa;Massao Oshima \par&#xD;&#xa;(\&apos;c1udio)\par&#xD;&#xa;F\&apos;e1bio Pacheco\par&#xD;&#xa;(\&apos;c1udio)\par&#xD;&#xa;}&#xD;&#xa;" leadInLength="0/1"  />
              </Keyframes>
             </Parameter>
             <Parameter id="278"  name="xmlContent">
              <Keyframes>
              <Keyframe id="279"  time="0/1" value="﻿&lt;?xml version=&quot;1.0&quot;?&gt;&#xa;&#xa;&lt;Overlay version=&quot;1.0.1&quot;&gt;&#xa;&#xa;&lt;Overlay_Filename&gt;roundedrectangle.png&lt;/Overlay_Filename&gt;&#xa;&lt;Overlay_Name&gt;Filled Rounded Rectangle&lt;/Overlay_Name&gt;&#xa;&lt;Text_Top&gt;15&lt;/Text_Top&gt;&#xa;&lt;Text_Left&gt;15&lt;/Text_Left&gt;&#xa;&lt;Text_Bottom&gt;15&lt;/Text_Bottom&gt;&#xa;&lt;Text_Right&gt;15&lt;/Text_Right&gt;&#xa;&lt;Fill_Color&gt;1&lt;/Fill_Color&gt;&#xa;&lt;Border_Color&gt;1&lt;/Border_Color&gt;&#xa;&lt;Initial_Fill_Color&gt;0xffe05f00&lt;/Initial_Fill_Color&gt;&#xa;&lt;Initial_Border_Color&gt;0xffd7d7d7&lt;/Initial_Border_Color&gt;&#xa;&lt;VectorProps&gt;&#xa;&lt;figure&gt;&#xa;&lt;svg&gt;M10,0h286c5.521,0,10,4.477,10,10v207c0,5.521-4.479,10-10,10H10c-5.523,0-10-4.479-10-10V10&#xa;&#x9;C0,4.477,4.477,0,10,0z&lt;/svg&gt;&#xa;&lt;/figure&gt;&#xa;&lt;borderWidth&gt;5.00&lt;/borderWidth&gt;&#xa;&lt;seamY&gt;-1&lt;/seamY&gt;&#xa;&lt;roundedRectRadius&gt;30&lt;/roundedRectRadius&gt;&#xa;&lt;shapeWidth&gt;306&lt;/shapeWidth&gt;&#xa;&lt;shapeHeight&gt;227&lt;/shapeHeight&gt;&#xa;&lt;/VectorProps&gt;&#xa;&lt;Style&gt;5&lt;/Style&gt;&#xa;&lt;/Overlay&gt;" leadInLength="0/1"  />
              </Keyframes>
             </Parameter>
            </StringParameters>
           </VectorNode>
          </Attribute>
         </Attributes>
         <MetaData>
          <entry key="WinSubProjectDisplayName" val=""/>
         </MetaData>
         <LeftEdgeMods length="30/1" groupName="OpacityFade">
          <EdgeMod parameter="236">
           <FadeInFunc id="280"  />
          </EdgeMod>
         </LeftEdgeMods>
         <RightEdgeMods length="30/1" groupName="OpacityFade">
          <EdgeMod parameter="236">
           <FadeOutFunc id="122"  />
          </EdgeMod>
         </RightEdgeMods>
         <ExtraData>
          <Entry key="ZoomPanBin">
           <ZoomPanBin id="281"  >
            <ZoomPanKeyframes>
             <ZoomPanKeyframe id="282" timeRangeEnd="-9999999/1" timeRangeDuration="0/1" interpolaterName="linr"  />
            </ZoomPanKeyframes>
           </ZoomPanBin>
          </Entry>
         </ExtraData>
        </Callout>
        <StitchedMedia id="283" start="985" duration="179" scalar="1/1" mediaStart="716/1" mediaDuration="179/1" minMediaStart="0/1" >
         <Transformer>
          <VectorParam id="284"  name="translation">
           <InterpolatingParam id="285" interp="linr"  time="-9999999/1" value="3.2789212150785616" leadInLength="0/1"  />
           <InterpolatingParam id="286" interp="linr"  time="-9999999/1" value="-0.17262843959800073" leadInLength="0/1"  />
           <InterpolatingParam id="287" interp="linr"  time="-9999999/1" value="0" leadInLength="0/1"  />
          </VectorParam>
          <VectorParam id="288"  name="rotation">
           <InterpolatingParam id="289" interp="linr"  time="-9999999/1" value="0" leadInLength="0/1"  />
           <InterpolatingParam id="290" interp="linr"  time="-9999999/1" value="0" leadInLength="0/1"  />
           <InterpolatingParam id="291" interp="linr"  time="-9999999/1" value="0" leadInLength="0/1"  />
          </VectorParam>
          <VectorParam id="292"  name="shear">
           <InterpolatingParam id="293" interp="linr"  time="-9999999/1" value="0" leadInLength="0/1"  />
           <InterpolatingParam id="294" interp="linr"  time="-9999999/1" value="0" leadInLength="0/1"  />
           <InterpolatingParam id="295" interp="linr"  time="-9999999/1" value="0" leadInLength="0/1"  />
          </VectorParam>
          <VectorParam id="296"  name="scale">
           <InterpolatingParam id="297" interp="linr"  time="-9999999/1" value="2.2971272789250712" leadInLength="0/1"  />
           <InterpolatingParam id="298" interp="linr"  time="-9999999/1" value="1.1244605361266176" leadInLength="0/1"  />
           <InterpolatingParam id="299" interp="linr"  time="-9999999/1" value="1" leadInLength="0/1"  />
          </VectorParam>
          <VectorParam id="300"  name="anchor">
           <InterpolatingParam id="301" interp="linr"  time="0/1" value="0" leadInLength="0/1"  />
           <InterpolatingParam id="302" interp="linr"  time="0/1" value="0" leadInLength="0/1"  />
           <InterpolatingParam id="303" interp="linr"  time="0/1" value="0" leadInLength="0/1"  />
          </VectorParam>
         </Transformer>
         <Parameters>
          <VectorParam id="304"  name="sourceCrop">
           <InterpolatingParam id="305" interp="linr"  time="0/1" value="0" leadInLength="0/1"  />
           <InterpolatingParam id="306" interp="linr"  time="0/1" value="0" leadInLength="0/1"  />
           <InterpolatingParam id="307" interp="linr"  time="0/1" value="0" leadInLength="0/1"  />
           <InterpolatingParam id="308" interp="linr"  time="0/1" value="0" leadInLength="0/1"  />
          </VectorParam>
          <VectorParam id="309"  name="geometryCrop">
           <InterpolatingParam id="310" interp="linr"  time="-9999999/1" value="0" leadInLength="0/1"  />
           <InterpolatingParam id="311" interp="linr"  time="-9999999/1" value="0" leadInLength="0/1"  />
           <InterpolatingParam id="312" interp="linr"  time="-9999999/1" value="0" leadInLength="0/1"  />
           <InterpolatingParam id="313" interp="linr"  time="-9999999/1" value="0" leadInLength="0/1"  />
          </VectorParam>
          <InterpolatingParam id="314" interp="linr"  time="-9999999/1" value="1" leadInLength="0/1"  name="opacity"/>
          <InterpolatingParam id="315" interp="linr"  time="0/1" value="1" leadInLength="0/1"  name="cursorOpacity"/>
          <InterpolatingParam id="316" interp="linr"  time="0/1" value="1" leadInLength="0/1"  name="cursorScale"/>
          <InterpolatingParam id="317" interp="linr"  time="0/1" value="0" leadInLength="0/1"  name="volume"/>
          <Parameter id="318"  name="captions"/>
         </Parameters>
         <Attributes>
          <Attribute id="319" value="" name="ident"/>
          <Attribute id="320" value="0" name="mixToMono"/>
         </Attributes>
         <MetaData>
          <entry key="WinSubProjectDisplayName" val=""/>
         </MetaData>
         <ExtraData>
          <Entry key="ZoomPanBin">
           <ZoomPanBin id="321"  >
            <ZoomPanKeyframes>
             <ZoomPanKeyframe id="322" timeRangeEnd="-9999999/1" timeRangeDuration="0/1" interpolaterName="linr"  />
            </ZoomPanKeyframes>
           </ZoomPanBin>
          </Entry>
          <Entry key="CursorEffectBin">
           <CursorEffectBin id="323"  >
            <CursorEffectKeyframes>
            </CursorEffectKeyframes>
           </CursorEffectBin>
          </Entry>
         </ExtraData>
         <GenericTrack id="324"  >
          <Attributes>
           <Attribute id="325" value="" name="ident"/>
           <Attribute id="326" value="0" name="audioMuted"/>
           <Attribute id="327" value="0" name="videoHidden"/>
          </Attributes>
          <MetaData>
           <entry key="IsLocked" val="False"/>
           <entry key="WinTrackHeight" val="0"/>
          </MetaData>
          <Medias>
           <UnifiedMedia id="328"  >
            <AMFile id="329" start="0" duration="537" scalar="1/1" mediaStart="0/1" mediaDuration="537/1" trackNumber="1" src="34" channelNumber="0,1" >
             <Parameters>
              <InterpolatingParam id="330" interp="linr"  time="0/1" value="1" leadInLength="0/1"  name="volume"/>
              <Parameter id="331"  name="captions"/>
             </Parameters>
             <Attributes>
              <Attribute id="332" value="" name="ident"/>
              <Attribute id="333" value="48000" name="sampleRate"/>
              <Attribute id="334" value="16" name="bitDepth"/>
              <Attribute id="335" value="1" name="gain"/>
              <Attribute id="336" value="0" name="mixToMono"/>
             </Attributes>
            </AMFile>
            <VMFile id="337" start="0" duration="537" scalar="1/1" mediaStart="0/1" mediaDuration="537/1" trackNumber="0" src="34" >
             <Transformer>
              <VectorParam id="338"  name="translation">
               <InterpolatingParam id="339" interp="linr"  time="-9999999/1" value="0" leadInLength="0/1"  />
               <InterpolatingParam id="340" interp="linr"  time="-9999999/1" value="0" leadInLength="0/1"  />
               <InterpolatingParam id="341" interp="linr"  time="-9999999/1" value="0" leadInLength="0/1"  />
              </VectorParam>
              <VectorParam id="342"  name="rotation">
               <InterpolatingParam id="343" interp="linr"  time="-9999999/1" value="0" leadInLength="0/1"  />
               <InterpolatingParam id="344" interp="linr"  time="-9999999/1" value="0" leadInLength="0/1"  />
               <InterpolatingParam id="345" interp="linr"  time="-9999999/1" value="0" leadInLength="0/1"  />
              </VectorParam>
              <VectorParam id="346"  name="shear">
               <InterpolatingParam id="347" interp="linr"  time="-9999999/1" value="0" leadInLength="0/1"  />
               <InterpolatingParam id="348" interp="linr"  time="-9999999/1" value="0" leadInLength="0/1"  />
               <InterpolatingParam id="349" interp="linr"  time="-9999999/1" value="0" leadInLength="0/1"  />
              </VectorParam>
              <VectorParam id="350"  name="scale">
               <InterpolatingParam id="351" interp="linr"  time="-9999999/1" value="1" leadInLength="0/1"  />
               <InterpolatingParam id="352" interp="linr"  time="-9999999/1" value="1" leadInLength="0/1"  />
               <InterpolatingParam id="353" interp="linr"  time="-9999999/1" value="1" leadInLength="0/1"  />
              </VectorParam>
              <VectorParam id="354"  name="anchor">
               <InterpolatingParam id="355" interp="linr"  time="0/1" value="0" leadInLength="0/1"  />
               <InterpolatingParam id="356" interp="linr"  time="0/1" value="0" leadInLength="0/1"  />
               <InterpolatingParam id="357" interp="linr"  time="0/1" value="0" leadInLength="0/1"  />
              </VectorParam>
             </Transformer>
             <Parameters>
              <VectorParam id="358"  name="sourceCrop">
               <InterpolatingParam id="359" interp="linr"  time="0/1" value="0" leadInLength="0/1"  />
               <InterpolatingParam id="360" interp="linr"  time="0/1" value="0" leadInLength="0/1"  />
               <InterpolatingParam id="361" interp="linr"  time="0/1" value="0" leadInLength="0/1"  />
               <InterpolatingParam id="362" interp="linr"  time="0/1" value="0" leadInLength="0/1"  />
              </VectorParam>
              <VectorParam id="363"  name="geometryCrop">
               <InterpolatingParam id="364" interp="linr"  time="-9999999/1" value="0" leadInLength="0/1"  />
               <InterpolatingParam id="365" interp="linr"  time="-9999999/1" value="0" leadInLength="0/1"  />
               <InterpolatingParam id="366" interp="linr"  time="-9999999/1" value="0" leadInLength="0/1"  />
               <InterpolatingParam id="367" interp="linr"  time="-9999999/1" value="0" leadInLength="0/1"  />
              </VectorParam>
              <InterpolatingParam id="368" interp="linr"  time="-9999999/1" value="1" leadInLength="0/1"  name="opacity"/>
             </Parameters>
             <Attributes>
              <Attribute id="369" value="" name="ident"/>
             </Attributes>
             <ExtraData>
              <Entry key="ZoomPanBin">
               <ZoomPanBin id="370"  >
                <ZoomPanKeyframes>
                 <ZoomPanKeyframe id="371" timeRangeEnd="-9999999/1" timeRangeDuration="0/1" interpolaterName="linr"  />
                </ZoomPanKeyframes>
               </ZoomPanBin>
              </Entry>
             </ExtraData>
            </VMFile>
            <MetaData>
             <entry key="WinSubProjectDisplayName" val=""/>
            </MetaData>
           </UnifiedMedia>
           <UnifiedMedia id="372"  >
            <AMFile id="373" start="537" duration="1182" scalar="1/1" mediaStart="591/1" mediaDuration="1182/1" trackNumber="1" src="34" channelNumber="0,1" >
             <Parameters>
              <InterpolatingParam id="374" interp="linr"  time="0/1" value="1" leadInLength="0/1"  name="volume"/>
              <Parameter id="375"  name="captions"/>
             </Parameters>
             <Attributes>
              <Attribute id="376" value="" name="ident"/>
              <Attribute id="377" value="48000" name="sampleRate"/>
              <Attribute id="378" value="16" name="bitDepth"/>
              <Attribute id="379" value="1" name="gain"/>
              <Attribute id="380" value="0" name="mixToMono"/>
             </Attributes>
            </AMFile>
            <VMFile id="381" start="537" duration="1182" scalar="1/1" mediaStart="591/1" mediaDuration="1182/1" trackNumber="0" src="34" >
             <Transformer>
              <VectorParam id="382"  name="translation">
               <InterpolatingParam id="383" interp="linr"  time="-9999999/1" value="0" leadInLength="0/1"  />
               <InterpolatingParam id="384" interp="linr"  time="-9999999/1" value="0" leadInLength="0/1"  />
               <InterpolatingParam id="385" interp="linr"  time="-9999999/1" value="0" leadInLength="0/1"  />
              </VectorParam>
              <VectorParam id="386"  name="rotation">
               <InterpolatingParam id="387" interp="linr"  time="-9999999/1" value="0" leadInLength="0/1"  />
               <InterpolatingParam id="388" interp="linr"  time="-9999999/1" value="0" leadInLength="0/1"  />
               <InterpolatingParam id="389" interp="linr"  time="-9999999/1" value="0" leadInLength="0/1"  />
              </VectorParam>
              <VectorParam id="390"  name="shear">
               <InterpolatingParam id="391" interp="linr"  time="-9999999/1" value="0" leadInLength="0/1"  />
               <InterpolatingParam id="392" interp="linr"  time="-9999999/1" value="0" leadInLength="0/1"  />
               <InterpolatingParam id="393" interp="linr"  time="-9999999/1" value="0" leadInLength="0/1"  />
              </VectorParam>
              <VectorParam id="394"  name="scale">
               <InterpolatingParam id="395" interp="linr"  time="-9999999/1" value="1" leadInLength="0/1"  />
               <InterpolatingParam id="396" interp="linr"  time="-9999999/1" value="1" leadInLength="0/1"  />
               <InterpolatingParam id="397" interp="linr"  time="-9999999/1" value="1" leadInLength="0/1"  />
              </VectorParam>
              <VectorParam id="398"  name="anchor">
               <InterpolatingParam id="399" interp="linr"  time="0/1" value="0" leadInLength="0/1"  />
               <InterpolatingParam id="400" interp="linr"  time="0/1" value="0" leadInLength="0/1"  />
               <InterpolatingParam id="401" interp="linr"  time="0/1" value="0" leadInLength="0/1"  />
              </VectorParam>
             </Transformer>
             <Parameters>
              <VectorParam id="402"  name="sourceCrop">
               <InterpolatingParam id="403" interp="linr"  time="0/1" value="0" leadInLength="0/1"  />
               <InterpolatingParam id="404" interp="linr"  time="0/1" value="0" leadInLength="0/1"  />
               <InterpolatingParam id="405" interp="linr"  time="0/1" value="0" leadInLength="0/1"  />
               <InterpolatingParam id="406" interp="linr"  time="0/1" value="0" leadInLength="0/1"  />
              </VectorParam>
              <VectorParam id="407"  name="geometryCrop">
               <InterpolatingParam id="408" interp="linr"  time="-9999999/1" value="0" leadInLength="0/1"  />
               <InterpolatingParam id="409" interp="linr"  time="-9999999/1" value="0" leadInLength="0/1"  />
               <InterpolatingParam id="410" interp="linr"  time="-9999999/1" value="0" leadInLength="0/1"  />
               <InterpolatingParam id="411" interp="linr"  time="-9999999/1" value="0" leadInLength="0/1"  />
              </VectorParam>
              <InterpolatingParam id="412" interp="linr"  time="-9999999/1" value="1" leadInLength="0/1"  name="opacity"/>
             </Parameters>
             <Attributes>
              <Attribute id="413" value="" name="ident"/>
             </Attributes>
             <ExtraData>
              <Entry key="ZoomPanBin">
               <ZoomPanBin id="414"  >
                <ZoomPanKeyframes>
                 <ZoomPanKeyframe id="415" timeRangeEnd="-9999999/1" timeRangeDuration="0/1" interpolaterName="linr"  />
                </ZoomPanKeyframes>
               </ZoomPanBin>
              </Entry>
             </ExtraData>
            </VMFile>
            <MetaData>
             <entry key="WinSubProjectDisplayName" val=""/>
            </MetaData>
           </UnifiedMedia>
          </Medias>
         </GenericTrack>
        </StitchedMedia>
        <StitchedMedia id="416" start="1164" duration="77" scalar="1/1" mediaStart="895/1" mediaDuration="77/1" minMediaStart="0/1" >
         <Transformer>
          <VectorParam id="417"  name="translation">
           <InterpolatingParam id="418" interp="linr"  time="-9999999/1" value="-0.97976559011249265" leadInLength="0/1"  />
           <InterpolatingParam id="419" interp="linr"  time="-9999999/1" value="6.451017497967012e-011" leadInLength="0/1"  />
           <InterpolatingParam id="420" interp="linr"  time="-9999999/1" value="0" leadInLength="0/1"  />
          </VectorParam>
          <VectorParam id="421"  name="rotation">
           <InterpolatingParam id="422" interp="linr"  time="-9999999/1" value="0" leadInLength="0/1"  />
           <InterpolatingParam id="423" interp="linr"  time="-9999999/1" value="0" leadInLength="0/1"  />
           <InterpolatingParam id="424" interp="linr"  time="-9999999/1" value="0" leadInLength="0/1"  />
          </VectorParam>
          <VectorParam id="425"  name="shear">
           <InterpolatingParam id="426" interp="linr"  time="-9999999/1" value="0" leadInLength="0/1"  />
           <InterpolatingParam id="427" interp="linr"  time="-9999999/1" value="0" leadInLength="0/1"  />
           <InterpolatingParam id="428" interp="linr"  time="-9999999/1" value="0" leadInLength="0/1"  />
          </VectorParam>
          <VectorParam id="429"  name="scale">
           <InterpolatingParam id="430" interp="linr"  time="-9999999/1" value="2.2729301948043412" leadInLength="0/1"  />
           <InterpolatingParam id="431" interp="linr"  time="-9999999/1" value="1.124999999999756" leadInLength="0/1"  />
           <InterpolatingParam id="432" interp="linr"  time="-9999999/1" value="1" leadInLength="0/1"  />
          </VectorParam>
          <VectorParam id="433"  name="anchor">
           <InterpolatingParam id="434" interp="linr"  time="0/1" value="0" leadInLength="0/1"  />
           <InterpolatingParam id="435" interp="linr"  time="0/1" value="0" leadInLength="0/1"  />
           <InterpolatingParam id="436" interp="linr"  time="0/1" value="0" leadInLength="0/1"  />
          </VectorParam>
         </Transformer>
         <Parameters>
          <VectorParam id="437"  name="sourceCrop">
           <InterpolatingParam id="438" interp="linr"  time="0/1" value="0" leadInLength="0/1"  />
           <InterpolatingParam id="439" interp="linr"  time="0/1" value="0" leadInLength="0/1"  />
           <InterpolatingParam id="440" interp="linr"  time="0/1" value="0" leadInLength="0/1"  />
           <InterpolatingParam id="441" interp="linr"  time="0/1" value="0" leadInLength="0/1"  />
          </VectorParam>
          <VectorParam id="442"  name="geometryCrop">
           <InterpolatingParam id="443" interp="linr"  time="-9999999/1" value="0" leadInLength="0/1"  />
           <InterpolatingParam id="444" interp="linr"  time="-9999999/1" value="0" leadInLength="0/1"  />
           <InterpolatingParam id="445" interp="linr"  time="-9999999/1" value="0" leadInLength="0/1"  />
           <InterpolatingParam id="446" interp="linr"  time="-9999999/1" value="0" leadInLength="0/1"  />
          </VectorParam>
          <InterpolatingParam id="447" interp="linr"  time="-9999999/1" value="1" leadInLength="0/1"  name="opacity"/>
          <InterpolatingParam id="448" interp="linr"  time="0/1" value="1" leadInLength="0/1"  name="cursorOpacity"/>
          <InterpolatingParam id="449" interp="linr"  time="0/1" value="1" leadInLength="0/1"  name="cursorScale"/>
          <InterpolatingParam id="450" interp="linr"  time="0/1" value="0.91811414392059543" leadInLength="0/1"  name="volume"/>
          <Parameter id="451"  name="captions"/>
         </Parameters>
         <Attributes>
          <Attribute id="452" value="" name="ident"/>
          <Attribute id="453" value="0" name="mixToMono"/>
         </Attributes>
         <MetaData>
          <entry key="WinSubProjectDisplayName" val=""/>
         </MetaData>
         <ExtraData>
          <Entry key="ZoomPanBin">
           <ZoomPanBin id="454"  >
            <ZoomPanKeyframes>
             <ZoomPanKeyframe id="455" timeRangeEnd="-9999999/1" timeRangeDuration="0/1" interpolaterName="linr"  />
            </ZoomPanKeyframes>
           </ZoomPanBin>
          </Entry>
          <Entry key="CursorEffectBin">
           <CursorEffectBin id="456"  >
            <CursorEffectKeyframes>
            </CursorEffectKeyframes>
           </CursorEffectBin>
          </Entry>
         </ExtraData>
         <GenericTrack id="457"  >
          <Attributes>
           <Attribute id="458" value="" name="ident"/>
           <Attribute id="459" value="0" name="audioMuted"/>
           <Attribute id="460" value="0" name="videoHidden"/>
          </Attributes>
          <MetaData>
           <entry key="IsLocked" val="False"/>
           <entry key="WinTrackHeight" val="0"/>
          </MetaData>
          <Medias>
           <UnifiedMedia id="461"  >
            <AMFile id="462" start="0" duration="537" scalar="1/1" mediaStart="0/1" mediaDuration="537/1" trackNumber="1" src="34" channelNumber="0,1" >
             <Parameters>
              <InterpolatingParam id="463" interp="linr"  time="0/1" value="1" leadInLength="0/1"  name="volume"/>
              <Parameter id="464"  name="captions"/>
             </Parameters>
             <Attributes>
              <Attribute id="465" value="" name="ident"/>
              <Attribute id="466" value="48000" name="sampleRate"/>
              <Attribute id="467" value="16" name="bitDepth"/>
              <Attribute id="468" value="1" name="gain"/>
              <Attribute id="469" value="0" name="mixToMono"/>
             </Attributes>
            </AMFile>
            <VMFile id="470" start="0" duration="537" scalar="1/1" mediaStart="0/1" mediaDuration="537/1" trackNumber="0" src="34" >
             <Transformer>
              <VectorParam id="471"  name="translation">
               <InterpolatingParam id="472" interp="linr"  time="-9999999/1" value="0" leadInLength="0/1"  />
               <InterpolatingParam id="473" interp="linr"  time="-9999999/1" value="0" leadInLength="0/1"  />
               <InterpolatingParam id="474" interp="linr"  time="-9999999/1" value="0" leadInLength="0/1"  />
              </VectorParam>
              <VectorParam id="475"  name="rotation">
               <InterpolatingParam id="476" interp="linr"  time="-9999999/1" value="0" leadInLength="0/1"  />
               <InterpolatingParam id="477" interp="linr"  time="-9999999/1" value="0" leadInLength="0/1"  />
               <InterpolatingParam id="478" interp="linr"  time="-9999999/1" value="0" leadInLength="0/1"  />
              </VectorParam>
              <VectorParam id="479"  name="shear">
               <InterpolatingParam id="480" interp="linr"  time="-9999999/1" value="0" leadInLength="0/1"  />
               <InterpolatingParam id="481" interp="linr"  time="-9999999/1" value="0" leadInLength="0/1"  />
               <InterpolatingParam id="482" interp="linr"  time="-9999999/1" value="0" leadInLength="0/1"  />
              </VectorParam>
              <VectorParam id="483"  name="scale">
               <InterpolatingParam id="484" interp="linr"  time="-9999999/1" value="1" leadInLength="0/1"  />
               <InterpolatingParam id="485" interp="linr"  time="-9999999/1" value="1" leadInLength="0/1"  />
               <InterpolatingParam id="486" interp="linr"  time="-9999999/1" value="1" leadInLength="0/1"  />
              </VectorParam>
              <VectorParam id="487"  name="anchor">
               <InterpolatingParam id="488" interp="linr"  time="0/1" value="0" leadInLength="0/1"  />
               <InterpolatingParam id="489" interp="linr"  time="0/1" value="0" leadInLength="0/1"  />
               <InterpolatingParam id="490" interp="linr"  time="0/1" value="0" leadInLength="0/1"  />
              </VectorParam>
             </Transformer>
             <Parameters>
              <VectorParam id="491"  name="sourceCrop">
               <InterpolatingParam id="492" interp="linr"  time="0/1" value="0" leadInLength="0/1"  />
               <InterpolatingParam id="493" interp="linr"  time="0/1" value="0" leadInLength="0/1"  />
               <InterpolatingParam id="494" interp="linr"  time="0/1" value="0" leadInLength="0/1"  />
               <InterpolatingParam id="495" interp="linr"  time="0/1" value="0" leadInLength="0/1"  />
              </VectorParam>
              <VectorParam id="496"  name="geometryCrop">
               <InterpolatingParam id="497" interp="linr"  time="-9999999/1" value="0" leadInLength="0/1"  />
               <InterpolatingParam id="498" interp="linr"  time="-9999999/1" value="0" leadInLength="0/1"  />
               <InterpolatingParam id="499" interp="linr"  time="-9999999/1" value="0" leadInLength="0/1"  />
               <InterpolatingParam id="500" interp="linr"  time="-9999999/1" value="0" leadInLength="0/1"  />
              </VectorParam>
              <InterpolatingParam id="501" interp="linr"  time="-9999999/1" value="1" leadInLength="0/1"  name="opacity"/>
             </Parameters>
             <Attributes>
              <Attribute id="502" value="" name="ident"/>
             </Attributes>
             <ExtraData>
              <Entry key="ZoomPanBin">
               <ZoomPanBin id="503"  >
                <ZoomPanKeyframes>
                 <ZoomPanKeyframe id="504" timeRangeEnd="-9999999/1" timeRangeDuration="0/1" interpolaterName="linr"  />
                </ZoomPanKeyframes>
               </ZoomPanBin>
              </Entry>
             </ExtraData>
            </VMFile>
            <MetaData>
             <entry key="WinSubProjectDisplayName" val=""/>
            </MetaData>
           </UnifiedMedia>
           <UnifiedMedia id="505"  >
            <AMFile id="506" start="537" duration="1182" scalar="1/1" mediaStart="591/1" mediaDuration="1182/1" trackNumber="1" src="34" channelNumber="0,1" >
             <Parameters>
              <InterpolatingParam id="507" interp="linr"  time="0/1" value="1" leadInLength="0/1"  name="volume"/>
              <Parameter id="508"  name="captions"/>
             </Parameters>
             <Attributes>
              <Attribute id="509" value="" name="ident"/>
              <Attribute id="510" value="48000" name="sampleRate"/>
              <Attribute id="511" value="16" name="bitDepth"/>
              <Attribute id="512" value="1" name="gain"/>
              <Attribute id="513" value="0" name="mixToMono"/>
             </Attributes>
            </AMFile>
            <VMFile id="514" start="537" duration="1182" scalar="1/1" mediaStart="591/1" mediaDuration="1182/1" trackNumber="0" src="34" >
             <Transformer>
              <VectorParam id="515"  name="translation">
               <InterpolatingParam id="516" interp="linr"  time="-9999999/1" value="0" leadInLength="0/1"  />
               <InterpolatingParam id="517" interp="linr"  time="-9999999/1" value="0" leadInLength="0/1"  />
               <InterpolatingParam id="518" interp="linr"  time="-9999999/1" value="0" leadInLength="0/1"  />
              </VectorParam>
              <VectorParam id="519"  name="rotation">
               <InterpolatingParam id="520" interp="linr"  time="-9999999/1" value="0" leadInLength="0/1"  />
               <InterpolatingParam id="521" interp="linr"  time="-9999999/1" value="0" leadInLength="0/1"  />
               <InterpolatingParam id="522" interp="linr"  time="-9999999/1" value="0" leadInLength="0/1"  />
              </VectorParam>
              <VectorParam id="523"  name="shear">
               <InterpolatingParam id="524" interp="linr"  time="-9999999/1" value="0" leadInLength="0/1"  />
               <InterpolatingParam id="525" interp="linr"  time="-9999999/1" value="0" leadInLength="0/1"  />
               <InterpolatingParam id="526" interp="linr"  time="-9999999/1" value="0" leadInLength="0/1"  />
              </VectorParam>
              <VectorParam id="527"  name="scale">
               <InterpolatingParam id="528" interp="linr"  time="-9999999/1" value="1" leadInLength="0/1"  />
               <InterpolatingParam id="529" interp="linr"  time="-9999999/1" value="1" leadInLength="0/1"  />
               <InterpolatingParam id="530" interp="linr"  time="-9999999/1" value="1" leadInLength="0/1"  />
              </VectorParam>
              <VectorParam id="531"  name="anchor">
               <InterpolatingParam id="532" interp="linr"  time="0/1" value="0" leadInLength="0/1"  />
               <InterpolatingParam id="533" interp="linr"  time="0/1" value="0" leadInLength="0/1"  />
               <InterpolatingParam id="534" interp="linr"  time="0/1" value="0" leadInLength="0/1"  />
              </VectorParam>
             </Transformer>
             <Parameters>
              <VectorParam id="535"  name="sourceCrop">
               <InterpolatingParam id="536" interp="linr"  time="0/1" value="0" leadInLength="0/1"  />
               <InterpolatingParam id="537" interp="linr"  time="0/1" value="0" leadInLength="0/1"  />
               <InterpolatingParam id="538" interp="linr"  time="0/1" value="0" leadInLength="0/1"  />
               <InterpolatingParam id="539" interp="linr"  time="0/1" value="0" leadInLength="0/1"  />
              </VectorParam>
              <VectorParam id="540"  name="geometryCrop">
               <InterpolatingParam id="541" interp="linr"  time="-9999999/1" value="0" leadInLength="0/1"  />
               <InterpolatingParam id="542" interp="linr"  time="-9999999/1" value="0" leadInLength="0/1"  />
               <InterpolatingParam id="543" interp="linr"  time="-9999999/1" value="0" leadInLength="0/1"  />
               <InterpolatingParam id="544" interp="linr"  time="-9999999/1" value="0" leadInLength="0/1"  />
              </VectorParam>
              <InterpolatingParam id="545" interp="linr"  time="-9999999/1" value="1" leadInLength="0/1"  name="opacity"/>
             </Parameters>
             <Attributes>
              <Attribute id="546" value="" name="ident"/>
             </Attributes>
             <ExtraData>
              <Entry key="ZoomPanBin">
               <ZoomPanBin id="547"  >
                <ZoomPanKeyframes>
                 <ZoomPanKeyframe id="548" timeRangeEnd="-9999999/1" timeRangeDuration="0/1" interpolaterName="linr"  />
                </ZoomPanKeyframes>
               </ZoomPanBin>
              </Entry>
             </ExtraData>
            </VMFile>
            <MetaData>
             <entry key="WinSubProjectDisplayName" val=""/>
            </MetaData>
           </UnifiedMedia>
          </Medias>
         </GenericTrack>
        </StitchedMedia>
        <StitchedMedia id="549" start="1241" duration="610" scalar="1/1" mediaStart="972/1" mediaDuration="610/1" minMediaStart="0/1" >
         <Transformer>
          <VectorParam id="550"  name="translation">
           <InterpolatingParam id="551" interp="linr"  time="-9999999/1" value="-0.97976559029031307" leadInLength="0/1"  />
           <InterpolatingParam id="552" interp="linr"  time="-9999999/1" value="-1.5404921782645937e-010" leadInLength="0/1"  />
           <InterpolatingParam id="553" interp="linr"  time="-9999999/1" value="1.7060600133906196e-022" leadInLength="0/1"  />
          </VectorParam>
          <VectorParam id="554"  name="rotation">
           <InterpolatingParam id="555" interp="linr"  time="-9999999/1" value="0" leadInLength="0/1"  />
           <InterpolatingParam id="556" interp="linr"  time="-9999999/1" value="0" leadInLength="0/1"  />
           <InterpolatingParam id="557" interp="linr"  time="-9999999/1" value="0" leadInLength="0/1"  />
          </VectorParam>
          <VectorParam id="558"  name="shear">
           <InterpolatingParam id="559" interp="linr"  time="-9999999/1" value="0" leadInLength="0/1"  />
           <InterpolatingParam id="560" interp="linr"  time="-9999999/1" value="0" leadInLength="0/1"  />
           <InterpolatingParam id="561" interp="linr"  time="-9999999/1" value="0" leadInLength="0/1"  />
          </VectorParam>
          <VectorParam id="562"  name="scale">
           <InterpolatingParam id="563" interp="linr"  time="-9999999/1" value="2.2729301948047431" leadInLength="0/1"  />
           <InterpolatingParam id="564" interp="linr"  time="-9999999/1" value="1.1250000000006277" leadInLength="0/1"  />
           <InterpolatingParam id="565" interp="linr"  time="-9999999/1" value="1" leadInLength="0/1"  />
          </VectorParam>
          <VectorParam id="566"  name="anchor">
           <InterpolatingParam id="567" interp="linr"  time="0/1" value="0" leadInLength="0/1"  />
           <InterpolatingParam id="568" interp="linr"  time="0/1" value="0" leadInLength="0/1"  />
           <InterpolatingParam id="569" interp="linr"  time="0/1" value="0" leadInLength="0/1"  />
          </VectorParam>
         </Transformer>
         <Parameters>
          <VectorParam id="570"  name="sourceCrop">
           <InterpolatingParam id="571" interp="linr"  time="0/1" value="0" leadInLength="0/1"  />
           <InterpolatingParam id="572" interp="linr"  time="0/1" value="0" leadInLength="0/1"  />
           <InterpolatingParam id="573" interp="linr"  time="0/1" value="0" leadInLength="0/1"  />
           <InterpolatingParam id="574" interp="linr"  time="0/1" value="0" leadInLength="0/1"  />
          </VectorParam>
          <VectorParam id="575"  name="geometryCrop">
           <InterpolatingParam id="576" interp="linr"  time="-9999999/1" value="0" leadInLength="0/1"  />
           <InterpolatingParam id="577" interp="linr"  time="-9999999/1" value="0" leadInLength="0/1"  />
           <InterpolatingParam id="578" interp="linr"  time="-9999999/1" value="0" leadInLength="0/1"  />
           <InterpolatingParam id="579" interp="linr"  time="-9999999/1" value="0" leadInLength="0/1"  />
          </VectorParam>
          <InterpolatingParam id="580" interp="linr"  time="-9999999/1" value="1" leadInLength="0/1"  name="opacity"/>
          <InterpolatingParam id="581" interp="linr"  time="0/1" value="1" leadInLength="0/1"  name="cursorOpacity"/>
          <InterpolatingParam id="582" interp="linr"  time="0/1" value="1" leadInLength="0/1"  name="cursorScale"/>
          <InterpolatingParam id="583" interp="linr"  name="volume">
           <Keyframes>
           <Keyframe id="584"  time="0/1" value="0" leadInLength="0/1"  />
           <Keyframe id="585"  time="1323/1" value="0" leadInLength="0/1"  />
           <Keyframe id="586"  time="1353/1" value="0.91811414392059543" leadInLength="0/1"  />
           </Keyframes>
          </InterpolatingParam>
          <Parameter id="587"  name="captions"/>
         </Parameters>
         <Attributes>
          <Attribute id="588" value="" name="ident"/>
          <Attribute id="589" value="0" name="mixToMono"/>
         </Attributes>
         <MetaData>
          <entry key="WinSubProjectDisplayName" val=""/>
         </MetaData>
         <ExtraData>
          <Entry key="ZoomPanBin">
           <ZoomPanBin id="590"  >
            <ZoomPanKeyframes>
             <ZoomPanKeyframe id="591" timeRangeEnd="-9999999/1" timeRangeDuration="0/1" interpolaterName="linr"  />
            </ZoomPanKeyframes>
           </ZoomPanBin>
          </Entry>
          <Entry key="CursorEffectBin">
           <CursorEffectBin id="592"  >
            <CursorEffectKeyframes>
            </CursorEffectKeyframes>
           </CursorEffectBin>
          </Entry>
         </ExtraData>
         <GenericTrack id="593"  >
          <Attributes>
           <Attribute id="594" value="" name="ident"/>
           <Attribute id="595" value="0" name="audioMuted"/>
           <Attribute id="596" value="0" name="videoHidden"/>
          </Attributes>
          <MetaData>
           <entry key="IsLocked" val="False"/>
           <entry key="WinTrackHeight" val="0"/>
          </MetaData>
          <Medias>
           <UnifiedMedia id="597"  >
            <AMFile id="598" start="0" duration="537" scalar="1/1" mediaStart="0/1" mediaDuration="537/1" trackNumber="1" src="34" channelNumber="0,1" >
             <Parameters>
              <InterpolatingParam id="599" interp="linr"  time="0/1" value="1" leadInLength="0/1"  name="volume"/>
              <Parameter id="600"  name="captions"/>
             </Parameters>
             <Attributes>
              <Attribute id="601" value="" name="ident"/>
              <Attribute id="602" value="48000" name="sampleRate"/>
              <Attribute id="603" value="16" name="bitDepth"/>
              <Attribute id="604" value="1" name="gain"/>
              <Attribute id="605" value="0" name="mixToMono"/>
             </Attributes>
            </AMFile>
            <VMFile id="606" start="0" duration="537" scalar="1/1" mediaStart="0/1" mediaDuration="537/1" trackNumber="0" src="34" >
             <Transformer>
              <VectorParam id="607"  name="translation">
               <InterpolatingParam id="608" interp="linr"  time="-9999999/1" value="0" leadInLength="0/1"  />
               <InterpolatingParam id="609" interp="linr"  time="-9999999/1" value="0" leadInLength="0/1"  />
               <InterpolatingParam id="610" interp="linr"  time="-9999999/1" value="0" leadInLength="0/1"  />
              </VectorParam>
              <VectorParam id="611"  name="rotation">
               <InterpolatingParam id="612" interp="linr"  time="-9999999/1" value="0" leadInLength="0/1"  />
               <InterpolatingParam id="613" interp="linr"  time="-9999999/1" value="0" leadInLength="0/1"  />
               <InterpolatingParam id="614" interp="linr"  time="-9999999/1" value="0" leadInLength="0/1"  />
              </VectorParam>
              <VectorParam id="615"  name="shear">
               <InterpolatingParam id="616" interp="linr"  time="-9999999/1" value="0" leadInLength="0/1"  />
               <InterpolatingParam id="617" interp="linr"  time="-9999999/1" value="0" leadInLength="0/1"  />
               <InterpolatingParam id="618" interp="linr"  time="-9999999/1" value="0" leadInLength="0/1"  />
              </VectorParam>
              <VectorParam id="619"  name="scale">
               <InterpolatingParam id="620" interp="linr"  time="-9999999/1" value="1" leadInLength="0/1"  />
               <InterpolatingParam id="621" interp="linr"  time="-9999999/1" value="1" leadInLength="0/1"  />
               <InterpolatingParam id="622" interp="linr"  time="-9999999/1" value="1" leadInLength="0/1"  />
              </VectorParam>
              <VectorParam id="623"  name="anchor">
               <InterpolatingParam id="624" interp="linr"  time="0/1" value="0" leadInLength="0/1"  />
               <InterpolatingParam id="625" interp="linr"  time="0/1" value="0" leadInLength="0/1"  />
               <InterpolatingParam id="626" interp="linr"  time="0/1" value="0" leadInLength="0/1"  />
              </VectorParam>
             </Transformer>
             <Parameters>
              <VectorParam id="627"  name="sourceCrop">
               <InterpolatingParam id="628" interp="linr"  time="0/1" value="0" leadInLength="0/1"  />
               <InterpolatingParam id="629" interp="linr"  time="0/1" value="0" leadInLength="0/1"  />
               <InterpolatingParam id="630" interp="linr"  time="0/1" value="0" leadInLength="0/1"  />
               <InterpolatingParam id="631" interp="linr"  time="0/1" value="0" leadInLength="0/1"  />
              </VectorParam>
              <VectorParam id="632"  name="geometryCrop">
               <InterpolatingParam id="633" interp="linr"  time="-9999999/1" value="0" leadInLength="0/1"  />
               <InterpolatingParam id="634" interp="linr"  time="-9999999/1" value="0" leadInLength="0/1"  />
               <InterpolatingParam id="635" interp="linr"  time="-9999999/1" value="0" leadInLength="0/1"  />
               <InterpolatingParam id="636" interp="linr"  time="-9999999/1" value="0" leadInLength="0/1"  />
              </VectorParam>
              <InterpolatingParam id="637" interp="linr"  time="-9999999/1" value="1" leadInLength="0/1"  name="opacity"/>
             </Parameters>
             <Attributes>
              <Attribute id="638" value="" name="ident"/>
             </Attributes>
             <ExtraData>
              <Entry key="ZoomPanBin">
               <ZoomPanBin id="639"  >
                <ZoomPanKeyframes>
                 <ZoomPanKeyframe id="640" timeRangeEnd="-9999999/1" timeRangeDuration="0/1" interpolaterName="linr"  />
                </ZoomPanKeyframes>
               </ZoomPanBin>
              </Entry>
             </ExtraData>
            </VMFile>
            <MetaData>
             <entry key="WinSubProjectDisplayName" val=""/>
            </MetaData>
           </UnifiedMedia>
           <UnifiedMedia id="641"  >
            <AMFile id="642" start="537" duration="801" scalar="1/1" mediaStart="591/1" mediaDuration="801/1" trackNumber="1" src="34" channelNumber="0,1" >
             <Parameters>
              <InterpolatingParam id="643" interp="linr"  time="0/1" value="1" leadInLength="0/1"  name="volume"/>
              <Parameter id="644"  name="captions"/>
             </Parameters>
             <Attributes>
              <Attribute id="645" value="" name="ident"/>
              <Attribute id="646" value="48000" name="sampleRate"/>
              <Attribute id="647" value="16" name="bitDepth"/>
              <Attribute id="648" value="1" name="gain"/>
              <Attribute id="649" value="0" name="mixToMono"/>
             </Attributes>
            </AMFile>
            <VMFile id="650" start="537" duration="801" scalar="1/1" mediaStart="591/1" mediaDuration="801/1" trackNumber="0" src="34" >
             <Transformer>
              <VectorParam id="651"  name="translation">
               <InterpolatingParam id="652" interp="linr"  time="-9999999/1" value="0" leadInLength="0/1"  />
               <InterpolatingParam id="653" interp="linr"  time="-9999999/1" value="0" leadInLength="0/1"  />
               <InterpolatingParam id="654" interp="linr"  time="-9999999/1" value="0" leadInLength="0/1"  />
              </VectorParam>
              <VectorParam id="655"  name="rotation">
               <InterpolatingParam id="656" interp="linr"  time="-9999999/1" value="0" leadInLength="0/1"  />
               <InterpolatingParam id="657" interp="linr"  time="-9999999/1" value="0" leadInLength="0/1"  />
               <InterpolatingParam id="658" interp="linr"  time="-9999999/1" value="0" leadInLength="0/1"  />
              </VectorParam>
              <VectorParam id="659"  name="shear">
               <InterpolatingParam id="660" interp="linr"  time="-9999999/1" value="0" leadInLength="0/1"  />
               <InterpolatingParam id="661" interp="linr"  time="-9999999/1" value="0" leadInLength="0/1"  />
               <InterpolatingParam id="662" interp="linr"  time="-9999999/1" value="0" leadInLength="0/1"  />
              </VectorParam>
              <VectorParam id="663"  name="scale">
               <InterpolatingParam id="664" interp="linr"  time="-9999999/1" value="1" leadInLength="0/1"  />
               <InterpolatingParam id="665" interp="linr"  time="-9999999/1" value="1" leadInLength="0/1"  />
               <InterpolatingParam id="666" interp="linr"  time="-9999999/1" value="1" leadInLength="0/1"  />
              </VectorParam>
              <VectorParam id="667"  name="anchor">
               <InterpolatingParam id="668" interp="linr"  time="0/1" value="0" leadInLength="0/1"  />
               <InterpolatingParam id="669" interp="linr"  time="0/1" value="0" leadInLength="0/1"  />
               <InterpolatingParam id="670" interp="linr"  time="0/1" value="0" leadInLength="0/1"  />
              </VectorParam>
             </Transformer>
             <Parameters>
              <VectorParam id="671"  name="sourceCrop">
               <InterpolatingParam id="672" interp="linr"  time="0/1" value="0" leadInLength="0/1"  />
               <InterpolatingParam id="673" interp="linr"  time="0/1" value="0" leadInLength="0/1"  />
               <InterpolatingParam id="674" interp="linr"  time="0/1" value="0" leadInLength="0/1"  />
               <InterpolatingParam id="675" interp="linr"  time="0/1" value="0" leadInLength="0/1"  />
              </VectorParam>
              <VectorParam id="676"  name="geometryCrop">
               <InterpolatingParam id="677" interp="linr"  time="-9999999/1" value="0" leadInLength="0/1"  />
               <InterpolatingParam id="678" interp="linr"  time="-9999999/1" value="0" leadInLength="0/1"  />
               <InterpolatingParam id="679" interp="linr"  time="-9999999/1" value="0" leadInLength="0/1"  />
               <InterpolatingParam id="680" interp="linr"  time="-9999999/1" value="0" leadInLength="0/1"  />
              </VectorParam>
              <InterpolatingParam id="681" interp="linr"  time="-9999999/1" value="1" leadInLength="0/1"  name="opacity"/>
             </Parameters>
             <Attributes>
              <Attribute id="682" value="" name="ident"/>
             </Attributes>
             <ExtraData>
              <Entry key="ZoomPanBin">
               <ZoomPanBin id="683"  >
                <ZoomPanKeyframes>
                 <ZoomPanKeyframe id="684" timeRangeEnd="-9999999/1" timeRangeDuration="0/1" interpolaterName="linr"  />
                </ZoomPanKeyframes>
               </ZoomPanBin>
              </Entry>
             </ExtraData>
            </VMFile>
            <MetaData>
             <entry key="WinSubProjectDisplayName" val=""/>
            </MetaData>
           </UnifiedMedia>
           <UnifiedMedia id="685"  >
            <AMFile id="686" start="1338" duration="299" scalar="1/1" mediaStart="1474/1" mediaDuration="299/1" trackNumber="1" src="34" channelNumber="0,1" >
             <Parameters>
              <InterpolatingParam id="687" interp="linr"  time="0/1" value="1" leadInLength="0/1"  name="volume"/>
              <Parameter id="688"  name="captions"/>
             </Parameters>
             <Attributes>
              <Attribute id="689" value="" name="ident"/>
              <Attribute id="690" value="48000" name="sampleRate"/>
              <Attribute id="691" value="16" name="bitDepth"/>
              <Attribute id="692" value="1" name="gain"/>
              <Attribute id="693" value="0" name="mixToMono"/>
             </Attributes>
            </AMFile>
            <VMFile id="694" start="1338" duration="299" scalar="1/1" mediaStart="1474/1" mediaDuration="299/1" trackNumber="0" src="34" >
             <Transformer>
              <VectorParam id="695"  name="translation">
               <InterpolatingParam id="696" interp="linr"  time="-9999999/1" value="0" leadInLength="0/1"  />
               <InterpolatingParam id="697" interp="linr"  time="-9999999/1" value="0" leadInLength="0/1"  />
               <InterpolatingParam id="698" interp="linr"  time="-9999999/1" value="0" leadInLength="0/1"  />
              </VectorParam>
              <VectorParam id="699"  name="rotation">
               <InterpolatingParam id="700" interp="linr"  time="-9999999/1" value="0" leadInLength="0/1"  />
               <InterpolatingParam id="701" interp="linr"  time="-9999999/1" value="0" leadInLength="0/1"  />
               <InterpolatingParam id="702" interp="linr"  time="-9999999/1" value="0" leadInLength="0/1"  />
              </VectorParam>
              <VectorParam id="703"  name="shear">
               <InterpolatingParam id="704" interp="linr"  time="-9999999/1" value="0" leadInLength="0/1"  />
               <InterpolatingParam id="705" interp="linr"  time="-9999999/1" value="0" leadInLength="0/1"  />
               <InterpolatingParam id="706" interp="linr"  time="-9999999/1" value="0" leadInLength="0/1"  />
              </VectorParam>
              <VectorParam id="707"  name="scale">
               <InterpolatingParam id="708" interp="linr"  time="-9999999/1" value="1" leadInLength="0/1"  />
               <InterpolatingParam id="709" interp="linr"  time="-9999999/1" value="1" leadInLength="0/1"  />
               <InterpolatingParam id="710" interp="linr"  time="-9999999/1" value="1" leadInLength="0/1"  />
              </VectorParam>
              <VectorParam id="711"  name="anchor">
               <InterpolatingParam id="712" interp="linr"  time="0/1" value="0" leadInLength="0/1"  />
               <InterpolatingParam id="713" interp="linr"  time="0/1" value="0" leadInLength="0/1"  />
               <InterpolatingParam id="714" interp="linr"  time="0/1" value="0" leadInLength="0/1"  />
              </VectorParam>
             </Transformer>
             <Parameters>
              <VectorParam id="715"  name="sourceCrop">
               <InterpolatingParam id="716" interp="linr"  time="0/1" value="0" leadInLength="0/1"  />
               <InterpolatingParam id="717" interp="linr"  time="0/1" value="0" leadInLength="0/1"  />
               <InterpolatingParam id="718" interp="linr"  time="0/1" value="0" leadInLength="0/1"  />
               <InterpolatingParam id="719" interp="linr"  time="0/1" value="0" leadInLength="0/1"  />
              </VectorParam>
              <VectorParam id="720"  name="geometryCrop">
               <InterpolatingParam id="721" interp="linr"  time="-9999999/1" value="0" leadInLength="0/1"  />
               <InterpolatingParam id="722" interp="linr"  time="-9999999/1" value="0" leadInLength="0/1"  />
               <InterpolatingParam id="723" interp="linr"  time="-9999999/1" value="0" leadInLength="0/1"  />
               <InterpolatingParam id="724" interp="linr"  time="-9999999/1" value="0" leadInLength="0/1"  />
              </VectorParam>
              <InterpolatingParam id="725" interp="linr"  time="-9999999/1" value="1" leadInLength="0/1"  name="opacity"/>
             </Parameters>
             <Attributes>
              <Attribute id="726" value="" name="ident"/>
             </Attributes>
             <ExtraData>
              <Entry key="ZoomPanBin">
               <ZoomPanBin id="727"  >
                <ZoomPanKeyframes>
                 <ZoomPanKeyframe id="728" timeRangeEnd="-9999999/1" timeRangeDuration="0/1" interpolaterName="linr"  />
                </ZoomPanKeyframes>
               </ZoomPanBin>
              </Entry>
             </ExtraData>
            </VMFile>
            <MetaData>
             <entry key="WinSubProjectDisplayName" val=""/>
            </MetaData>
           </UnifiedMedia>
          </Medias>
         </GenericTrack>
        </StitchedMedia>
        <Callout id="729" start="1851" duration="404" scalar="1/1" mediaStart="0/1" mediaDuration="404/1" >
         <Transformer>
          <VectorParam id="730"  name="translation">
           <InterpolatingParam id="731" interp="linr"  time="-9999999/1" value="-411.39318885428065" leadInLength="0/1"  />
           <InterpolatingParam id="732" interp="linr"  time="-9999999/1" value="211.76470588233482" leadInLength="0/1"  />
           <InterpolatingParam id="733" interp="linr"  time="-9999999/1" value="0" leadInLength="0/1"  />
          </VectorParam>
          <VectorParam id="734"  name="rotation">
           <InterpolatingParam id="735" interp="linr"  time="-9999999/1" value="0" leadInLength="0/1"  />
           <InterpolatingParam id="736" interp="linr"  time="-9999999/1" value="0" leadInLength="0/1"  />
           <InterpolatingParam id="737" interp="linr"  time="-9999999/1" value="0" leadInLength="0/1"  />
          </VectorParam>
          <VectorParam id="738"  name="shear">
           <InterpolatingParam id="739" interp="linr"  time="-9999999/1" value="0" leadInLength="0/1"  />
           <InterpolatingParam id="740" interp="linr"  time="-9999999/1" value="0" leadInLength="0/1"  />
           <InterpolatingParam id="741" interp="linr"  time="-9999999/1" value="0" leadInLength="0/1"  />
          </VectorParam>
          <VectorParam id="742"  name="scale">
           <InterpolatingParam id="743" interp="linr"  time="-9999999/1" value="1.4287925696609385" leadInLength="0/1"  />
           <InterpolatingParam id="744" interp="linr"  time="-9999999/1" value="1.2488986826115536" leadInLength="0/1"  />
           <InterpolatingParam id="745" interp="linr"  time="-9999999/1" value="1" leadInLength="0/1"  />
          </VectorParam>
          <VectorParam id="746"  name="anchor">
           <InterpolatingParam id="747" interp="linr"  time="0/1" value="0" leadInLength="0/1"  />
           <InterpolatingParam id="748" interp="linr"  time="0/1" value="0" leadInLength="0/1"  />
           <InterpolatingParam id="749" interp="linr"  time="0/1" value="0" leadInLength="0/1"  />
          </VectorParam>
         </Transformer>
         <Parameters>
          <VectorParam id="750"  name="sourceCrop">
           <InterpolatingParam id="751" interp="linr"  time="0/1" value="0" leadInLength="0/1"  />
           <InterpolatingParam id="752" interp="linr"  time="0/1" value="0" leadInLength="0/1"  />
           <InterpolatingParam id="753" interp="linr"  time="0/1" value="0" leadInLength="0/1"  />
           <InterpolatingParam id="754" interp="linr"  time="0/1" value="0" leadInLength="0/1"  />
          </VectorParam>
          <VectorParam id="755"  name="geometryCrop">
           <InterpolatingParam id="756" interp="linr"  time="-9999999/1" value="0" leadInLength="0/1"  />
           <InterpolatingParam id="757" interp="linr"  time="-9999999/1" value="0" leadInLength="0/1"  />
           <InterpolatingParam id="758" interp="linr"  time="-9999999/1" value="0" leadInLength="0/1"  />
           <InterpolatingParam id="759" interp="linr"  time="-9999999/1" value="0" leadInLength="0/1"  />
          </VectorParam>
          <InterpolatingParam id="760" interp="linr"  time="-9999999/1" value="1" leadInLength="0/1"  name="opacity"/>
         </Parameters>
         <Effects>
          <GenericEffect id="761" name = "DropShadow" >
           <Parameters>
           <InterpolatingParam id="762" interp="linr"  time="0/1" value="315" leadInLength="0/1"   name="angle"/>
           <InterpolatingParam id="763" interp="linr"  time="0/1" value="2" leadInLength="0/1"   name="blur"/>
           <Parameter id="764"   name="enabled">
            <Keyframes>
            <Keyframe id="765"  time="0/1" value="1" leadInLength="0/1"  />
            </Keyframes>
           </Parameter>
           <InterpolatingParam id="766" interp="linr"  time="0/1" value="4" leadInLength="0/1"   name="offset"/>
           <InterpolatingParam id="767" interp="linr"  time="0/1" value="0.75" leadInLength="0/1"   name="opacity"/>
           </Parameters>
          </GenericEffect>
         </Effects>
         <Attributes>
          <Attribute id="768"  name="vectorNode">
           <VectorNode id="769" kind="TypeWinXML"  >
            <DoubleParameters>
             <InterpolatingParam id="770" interp="linr"  time="0/1" value="-1" leadInLength="0/1"  name="CutoutPercentage"/>
             <InterpolatingParam id="771" interp="linr"  time="0/1" value="30" leadInLength="0/1"  name="RoundedRectRadius"/>
             <InterpolatingParam id="772" interp="linr"  time="0/1" value="5" leadInLength="0/1"  name="Style"/>
             <InterpolatingParam id="773" interp="linr"  time="0/1" value="0" leadInLength="0/1"  name="borderColorBlue"/>
             <InterpolatingParam id="774" interp="linr"  time="0/1" value="0" leadInLength="0/1"  name="borderColorGreen"/>
             <InterpolatingParam id="775" interp="linr"  time="0/1" value="0" leadInLength="0/1"  name="borderColorRed"/>
             <InterpolatingParam id="776" interp="linr"  time="0/1" value="1" leadInLength="0/1"  name="borderState"/>
             <InterpolatingParam id="777" interp="linr"  time="0/1" value="5" leadInLength="0/1"  name="borderWidth"/>
             <InterpolatingParam id="778" interp="linr"  time="0/1" value="0" leadInLength="0/1"  name="dimensionTime"/>
             <InterpolatingParam id="779" interp="linr"  time="0/1" value="0" leadInLength="0/1"  name="fillColorBlue"/>
             <InterpolatingParam id="780" interp="linr"  time="0/1" value="0" leadInLength="0/1"  name="fillColorGreen"/>
             <InterpolatingParam id="781" interp="linr"  time="0/1" value="0" leadInLength="0/1"  name="fillColorRed"/>
             <InterpolatingParam id="782" interp="linr"  time="0/1" value="1" leadInLength="0/1"  name="fillState"/>
             <InterpolatingParam id="783" interp="linr"  time="0/1" value="0" leadInLength="0/1"  name="flipOnXAxis"/>
             <InterpolatingParam id="784" interp="linr"  time="0/1" value="0" leadInLength="0/1"  name="flipOnYAxis"/>
             <InterpolatingParam id="785" interp="linr"  time="0/1" value="237.38562091503266" leadInLength="0/1"  name="height"/>
             <InterpolatingParam id="786" interp="linr"  time="0/1" value="0" leadInLength="0/1"  name="textDropShadow"/>
             <InterpolatingParam id="787" interp="linr"  time="0/1" value="0" leadInLength="0/1"  name="textIgnoresOpacity"/>
             <InterpolatingParam id="788" interp="linr"  time="0/1" value="0.86784140969162993" leadInLength="0/1"  name="textRectHeight"/>
             <InterpolatingParam id="789" interp="linr"  time="0/1" value="0.90196078431372551" leadInLength="0/1"  name="textRectWidth"/>
             <InterpolatingParam id="790" interp="linr"  time="0/1" value="0.049019607843137254" leadInLength="0/1"  name="textRectX"/>
             <InterpolatingParam id="791" interp="linr"  time="0/1" value="0.066079295154185022" leadInLength="0/1"  name="textRectY"/>
             <InterpolatingParam id="792" interp="linr"  time="0/1" value="0" leadInLength="0/1"  name="textVerticalAlign"/>
             <InterpolatingParam id="793" interp="linr"  time="0/1" value="320" leadInLength="0/1"  name="width"/>
            </DoubleParameters>
            <StringParameters>
             <Parameter id="794"  name="VectorPath">
              <Keyframes>
              <Keyframe id="795"  time="0/1" value="M10,0h286c5.521,0,10,4.477,10,10v207c0,5.521-4.479,10-10,10H10c-5.523,0-10-4.479-10-10V10&#xa;&#x9;C0,4.477,4.477,0,10,0z" leadInLength="0/1"  />
              </Keyframes>
             </Parameter>
             <Parameter id="796"  name="filename">
              <Keyframes>
              <Keyframe id="797"  time="0/1" value="C:\Program Files (x86)\TechSmith\Camtasia Studio 8\Media\Studio\Callouts\roundedrectangle.xml" leadInLength="0/1"  />
              </Keyframes>
             </Parameter>
             <Parameter id="798"  name="name">
              <Keyframes>
              <Keyframe id="799"  time="0/1" value="Filled Rounded Rectangle" leadInLength="0/1"  />
              </Keyframes>
             </Parameter>
             <Parameter id="800"  name="text">
              <Keyframes>
              <Keyframe id="801"  time="0/1" value="{\rtf1\ansi\ansicpg1252\deff0\deflang1033{\fonttbl{\f0\fswiss\fprq2\fcharset0 Arial;}}&#xD;&#xa;{\colortbl ;\red255\green255\blue255;}&#xD;&#xa;\viewkind4\uc1\pard\qc\cf1\f0\fs96 Conformidade com a teoria\par&#xD;&#xa;}&#xD;&#xa;" leadInLength="0/1"  />
              </Keyframes>
             </Parameter>
             <Parameter id="802"  name="xmlContent">
              <Keyframes>
              <Keyframe id="803"  time="0/1" value="﻿&lt;?xml version=&quot;1.0&quot;?&gt;&#xa;&#xa;&lt;Overlay version=&quot;1.0.1&quot;&gt;&#xa;&#xa;&lt;Overlay_Filename&gt;roundedrectangle.png&lt;/Overlay_Filename&gt;&#xa;&lt;Overlay_Name&gt;Filled Rounded Rectangle&lt;/Overlay_Name&gt;&#xa;&lt;Text_Top&gt;15&lt;/Text_Top&gt;&#xa;&lt;Text_Left&gt;15&lt;/Text_Left&gt;&#xa;&lt;Text_Bottom&gt;15&lt;/Text_Bottom&gt;&#xa;&lt;Text_Right&gt;15&lt;/Text_Right&gt;&#xa;&lt;Fill_Color&gt;1&lt;/Fill_Color&gt;&#xa;&lt;Border_Color&gt;1&lt;/Border_Color&gt;&#xa;&lt;Initial_Fill_Color&gt;0xffe05f00&lt;/Initial_Fill_Color&gt;&#xa;&lt;Initial_Border_Color&gt;0xffd7d7d7&lt;/Initial_Border_Color&gt;&#xa;&lt;VectorProps&gt;&#xa;&lt;figure&gt;&#xa;&lt;svg&gt;M10,0h286c5.521,0,10,4.477,10,10v207c0,5.521-4.479,10-10,10H10c-5.523,0-10-4.479-10-10V10&#xa;&#x9;C0,4.477,4.477,0,10,0z&lt;/svg&gt;&#xa;&lt;/figure&gt;&#xa;&lt;borderWidth&gt;5.00&lt;/borderWidth&gt;&#xa;&lt;seamY&gt;-1&lt;/seamY&gt;&#xa;&lt;roundedRectRadius&gt;30&lt;/roundedRectRadius&gt;&#xa;&lt;shapeWidth&gt;306&lt;/shapeWidth&gt;&#xa;&lt;shapeHeight&gt;227&lt;/shapeHeight&gt;&#xa;&lt;/VectorProps&gt;&#xa;&lt;Style&gt;5&lt;/Style&gt;&#xa;&lt;/Overlay&gt;" leadInLength="0/1"  />
              </Keyframes>
             </Parameter>
            </StringParameters>
           </VectorNode>
          </Attribute>
         </Attributes>
         <MetaData>
          <entry key="WinSubProjectDisplayName" val=""/>
         </MetaData>
         <LeftEdgeMods length="30/1" groupName="OpacityFade">
          <EdgeMod parameter="760">
           <FadeInFunc id="804"  />
          </EdgeMod>
         </LeftEdgeMods>
         <RightEdgeMods length="30/1" groupName="OpacityFade">
          <EdgeMod parameter="760">
           <FadeOutFunc id="201"  />
          </EdgeMod>
         </RightEdgeMods>
         <ExtraData>
          <Entry key="ZoomPanBin">
           <ZoomPanBin id="805"  >
            <ZoomPanKeyframes>
             <ZoomPanKeyframe id="806" timeRangeEnd="-9999999/1" timeRangeDuration="0/1" interpolaterName="linr"  />
            </ZoomPanKeyframes>
           </ZoomPanBin>
          </Entry>
         </ExtraData>
        </Callout>
        <UnifiedMedia id="807"  >
         <AMFile id="808" start="2542" duration="1331" scalar="1/1" mediaStart="0/1" mediaDuration="1331/1" trackNumber="1" src="27" channelNumber="0,1" >
          <Parameters>
           <InterpolatingParam id="809" interp="linr"  time="0/1" value="0" leadInLength="0/1"  name="volume"/>
           <Parameter id="810"  name="captions"/>
          </Parameters>
          <Attributes>
           <Attribute id="811" value="" name="ident"/>
           <Attribute id="812" value="48000" name="sampleRate"/>
           <Attribute id="813" value="16" name="bitDepth"/>
           <Attribute id="814" value="1" name="gain"/>
           <Attribute id="815" value="0" name="mixToMono"/>
          </Attributes>
         </AMFile>
         <VMFile id="816" start="2542" duration="1331" scalar="1/1" mediaStart="0/1" mediaDuration="1331/1" trackNumber="0" src="27" >
          <Transformer>
           <VectorParam id="817"  name="translation">
            <InterpolatingParam id="818" interp="linr"  time="-9999999/1" value="1.0027409422597185e-011" leadInLength="0/1"  />
            <InterpolatingParam id="819" interp="linr"  time="-9999999/1" value="-3.7477576597689445e-011" leadInLength="0/1"  />
            <InterpolatingParam id="820" interp="linr"  time="-9999999/1" value="0" leadInLength="0/1"  />
           </VectorParam>
           <VectorParam id="821"  name="rotation">
            <InterpolatingParam id="822" interp="linr"  time="-9999999/1" value="0" leadInLength="0/1"  />
            <InterpolatingParam id="823" interp="linr"  time="-9999999/1" value="0" leadInLength="0/1"  />
            <InterpolatingParam id="824" interp="linr"  time="-9999999/1" value="0" leadInLength="0/1"  />
           </VectorParam>
           <VectorParam id="825"  name="shear">
            <InterpolatingParam id="826" interp="linr"  time="-9999999/1" value="0" leadInLength="0/1"  />
            <InterpolatingParam id="827" interp="linr"  time="-9999999/1" value="0" leadInLength="0/1"  />
            <InterpolatingParam id="828" interp="linr"  time="-9999999/1" value="0" leadInLength="0/1"  />
           </VectorParam>
           <VectorParam id="829"  name="scale">
            <InterpolatingParam id="830" interp="linr"  time="-9999999/1" value="2.2662337662357293" leadInLength="0/1"  />
            <InterpolatingParam id="831" interp="linr"  time="-9999999/1" value="1.1250000000004117" leadInLength="0/1"  />
            <InterpolatingParam id="832" interp="linr"  time="-9999999/1" value="1" leadInLength="0/1"  />
           </VectorParam>
           <VectorParam id="833"  name="anchor">
            <InterpolatingParam id="834" interp="linr"  time="0/1" value="0" leadInLength="0/1"  />
            <InterpolatingParam id="835" interp="linr"  time="0/1" value="0" leadInLength="0/1"  />
            <InterpolatingParam id="836" interp="linr"  time="0/1" value="0" leadInLength="0/1"  />
           </VectorParam>
          </Transformer>
          <Parameters>
           <VectorParam id="837"  name="sourceCrop">
            <InterpolatingParam id="838" interp="linr"  time="0/1" value="0" leadInLength="0/1"  />
            <InterpolatingParam id="839" interp="linr"  time="0/1" value="0" leadInLength="0/1"  />
            <InterpolatingParam id="840" interp="linr"  time="0/1" value="0" leadInLength="0/1"  />
            <InterpolatingParam id="841" interp="linr"  time="0/1" value="0" leadInLength="0/1"  />
           </VectorParam>
           <VectorParam id="842"  name="geometryCrop">
            <InterpolatingParam id="843" interp="linr"  time="-9999999/1" value="0" leadInLength="0/1"  />
            <InterpolatingParam id="844" interp="linr"  time="-9999999/1" value="0" leadInLength="0/1"  />
            <InterpolatingParam id="845" interp="linr"  time="-9999999/1" value="0" leadInLength="0/1"  />
            <InterpolatingParam id="846" interp="linr"  time="-9999999/1" value="0" leadInLength="0/1"  />
           </VectorParam>
           <InterpolatingParam id="847" interp="linr"  time="-9999999/1" value="1" leadInLength="0/1"  name="opacity"/>
          </Parameters>
          <Attributes>
           <Attribute id="848" value="" name="ident"/>
          </Attributes>
          <ExtraData>
           <Entry key="ZoomPanBin">
            <ZoomPanBin id="849"  >
             <ZoomPanKeyframes>
              <ZoomPanKeyframe id="850" timeRangeEnd="-9999999/1" timeRangeDuration="0/1" interpolaterName="linr"  />
             </ZoomPanKeyframes>
            </ZoomPanBin>
           </Entry>
          </ExtraData>
         </VMFile>
         <MetaData>
          <entry key="WinSubProjectDisplayName" val=""/>
         </MetaData>
        </UnifiedMedia>
        <StitchedMedia id="851" start="3873" duration="92" scalar="1/1" mediaStart="1347/1" mediaDuration="92/1" minMediaStart="0/1" >
         <Transformer>
          <VectorParam id="852"  name="translation">
           <InterpolatingParam id="853" interp="linr"  time="-9999999/1" value="-8.9164086689811217" leadInLength="0/1"  />
           <InterpolatingParam id="854" interp="linr"  time="-9999999/1" value="1.6237056144061604e-010" leadInLength="0/1"  />
           <InterpolatingParam id="855" interp="linr"  time="-9999999/1" value="0" leadInLength="0/1"  />
          </VectorParam>
          <VectorParam id="856"  name="rotation">
           <InterpolatingParam id="857" interp="linr"  time="-9999999/1" value="0" leadInLength="0/1"  />
           <InterpolatingParam id="858" interp="linr"  time="-9999999/1" value="0" leadInLength="0/1"  />
           <InterpolatingParam id="859" interp="linr"  time="-9999999/1" value="0" leadInLength="0/1"  />
          </VectorParam>
          <VectorParam id="860"  name="shear">
           <InterpolatingParam id="861" interp="linr"  time="-9999999/1" value="0" leadInLength="0/1"  />
           <InterpolatingParam id="862" interp="linr"  time="-9999999/1" value="0" leadInLength="0/1"  />
           <InterpolatingParam id="863" interp="linr"  time="-9999999/1" value="0" leadInLength="0/1"  />
          </VectorParam>
          <VectorParam id="864"  name="scale">
           <InterpolatingParam id="865" interp="linr"  time="-9999999/1" value="2.2662337662357293" leadInLength="0/1"  />
           <InterpolatingParam id="866" interp="linr"  time="-9999999/1" value="1.1250000000004117" leadInLength="0/1"  />
           <InterpolatingParam id="867" interp="linr"  time="-9999999/1" value="1" leadInLength="0/1"  />
          </VectorParam>
          <VectorParam id="868"  name="anchor">
           <InterpolatingParam id="869" interp="linr"  time="0/1" value="0" leadInLength="0/1"  />
           <InterpolatingParam id="870" interp="linr"  time="0/1" value="0" leadInLength="0/1"  />
           <InterpolatingParam id="871" interp="linr"  time="0/1" value="0" leadInLength="0/1"  />
          </VectorParam>
         </Transformer>
         <Parameters>
          <VectorParam id="872"  name="sourceCrop">
           <InterpolatingParam id="873" interp="linr"  time="0/1" value="0" leadInLength="0/1"  />
           <InterpolatingParam id="874" interp="linr"  time="0/1" value="0" leadInLength="0/1"  />
           <InterpolatingParam id="875" interp="linr"  time="0/1" value="0" leadInLength="0/1"  />
           <InterpolatingParam id="876" interp="linr"  time="0/1" value="0" leadInLength="0/1"  />
          </VectorParam>
          <VectorParam id="877"  name="geometryCrop">
           <InterpolatingParam id="878" interp="linr"  time="-9999999/1" value="0" leadInLength="0/1"  />
           <InterpolatingParam id="879" interp="linr"  time="-9999999/1" value="0" leadInLength="0/1"  />
           <InterpolatingParam id="880" interp="linr"  time="-9999999/1" value="0" leadInLength="0/1"  />
           <InterpolatingParam id="881" interp="linr"  time="-9999999/1" value="0" leadInLength="0/1"  />
          </VectorParam>
          <InterpolatingParam id="882" interp="linr"  time="-9999999/1" value="1" leadInLength="0/1"  name="opacity"/>
          <InterpolatingParam id="883" interp="linr"  time="0/1" value="1" leadInLength="0/1"  name="cursorOpacity"/>
          <InterpolatingParam id="884" interp="linr"  time="0/1" value="1" leadInLength="0/1"  name="cursorScale"/>
          <InterpolatingParam id="885" interp="linr"  name="volume">
           <Keyframes>
           <Keyframe id="886"  time="0/1" value="1.129032258064516" leadInLength="0/1"  />
           <Keyframe id="887"  time="1377/1" value="1.129032258064516" leadInLength="0/1"  />
           <Keyframe id="888"  time="1407/1" value="0.52109181141439198" leadInLength="0/1"  />
           </Keyframes>
          </InterpolatingParam>
          <Parameter id="889"  name="captions"/>
         </Parameters>
         <Attributes>
          <Attribute id="890" value="" name="ident"/>
          <Attribute id="891" value="0" name="mixToMono"/>
         </Attributes>
         <MetaData>
          <entry key="WinSubProjectDisplayName" val=""/>
         </MetaData>
         <ExtraData>
          <Entry key="ZoomPanBin">
           <ZoomPanBin id="892"  >
            <ZoomPanKeyframes>
             <ZoomPanKeyframe id="893" timeRangeEnd="-9999999/1" timeRangeDuration="0/1" interpolaterName="linr"  />
            </ZoomPanKeyframes>
           </ZoomPanBin>
          </Entry>
          <Entry key="CursorEffectBin">
           <CursorEffectBin id="894"  >
            <CursorEffectKeyframes>
            </CursorEffectKeyframes>
           </CursorEffectBin>
          </Entry>
         </ExtraData>
         <GenericTrack id="895"  >
          <Attributes>
           <Attribute id="896" value="" name="ident"/>
           <Attribute id="897" value="0" name="audioMuted"/>
           <Attribute id="898" value="0" name="videoHidden"/>
          </Attributes>
          <MetaData>
           <entry key="IsLocked" val="False"/>
           <entry key="WinTrackHeight" val="0"/>
          </MetaData>
          <Medias>
           <UnifiedMedia id="899"  >
            <AMFile id="900" start="0" duration="1392" scalar="1/1" mediaStart="0/1" mediaDuration="1392/1" trackNumber="1" src="27" channelNumber="0,1" >
             <Parameters>
              <InterpolatingParam id="901" interp="linr"  time="0/1" value="1" leadInLength="0/1"  name="volume"/>
              <Parameter id="902"  name="captions"/>
             </Parameters>
             <Attributes>
              <Attribute id="903" value="" name="ident"/>
              <Attribute id="904" value="48000" name="sampleRate"/>
              <Attribute id="905" value="16" name="bitDepth"/>
              <Attribute id="906" value="1" name="gain"/>
              <Attribute id="907" value="0" name="mixToMono"/>
             </Attributes>
            </AMFile>
            <VMFile id="908" start="0" duration="1392" scalar="1/1" mediaStart="0/1" mediaDuration="1392/1" trackNumber="0" src="27" >
             <Transformer>
              <VectorParam id="909"  name="translation">
               <InterpolatingParam id="910" interp="linr"  time="-9999999/1" value="0" leadInLength="0/1"  />
               <InterpolatingParam id="911" interp="linr"  time="-9999999/1" value="0" leadInLength="0/1"  />
               <InterpolatingParam id="912" interp="linr"  time="-9999999/1" value="0" leadInLength="0/1"  />
              </VectorParam>
              <VectorParam id="913"  name="rotation">
               <InterpolatingParam id="914" interp="linr"  time="-9999999/1" value="0" leadInLength="0/1"  />
               <InterpolatingParam id="915" interp="linr"  time="-9999999/1" value="0" leadInLength="0/1"  />
               <InterpolatingParam id="916" interp="linr"  time="-9999999/1" value="0" leadInLength="0/1"  />
              </VectorParam>
              <VectorParam id="917"  name="shear">
               <InterpolatingParam id="918" interp="linr"  time="-9999999/1" value="0" leadInLength="0/1"  />
               <InterpolatingParam id="919" interp="linr"  time="-9999999/1" value="0" leadInLength="0/1"  />
               <InterpolatingParam id="920" interp="linr"  time="-9999999/1" value="0" leadInLength="0/1"  />
              </VectorParam>
              <VectorParam id="921"  name="scale">
               <InterpolatingParam id="922" interp="linr"  time="-9999999/1" value="1" leadInLength="0/1"  />
               <InterpolatingParam id="923" interp="linr"  time="-9999999/1" value="1" leadInLength="0/1"  />
               <InterpolatingParam id="924" interp="linr"  time="-9999999/1" value="1" leadInLength="0/1"  />
              </VectorParam>
              <VectorParam id="925"  name="anchor">
               <InterpolatingParam id="926" interp="linr"  time="0/1" value="0" leadInLength="0/1"  />
               <InterpolatingParam id="927" interp="linr"  time="0/1" value="0" leadInLength="0/1"  />
               <InterpolatingParam id="928" interp="linr"  time="0/1" value="0" leadInLength="0/1"  />
              </VectorParam>
             </Transformer>
             <Parameters>
              <VectorParam id="929"  name="sourceCrop">
               <InterpolatingParam id="930" interp="linr"  time="0/1" value="0" leadInLength="0/1"  />
               <InterpolatingParam id="931" interp="linr"  time="0/1" value="0" leadInLength="0/1"  />
               <InterpolatingParam id="932" interp="linr"  time="0/1" value="0" leadInLength="0/1"  />
               <InterpolatingParam id="933" interp="linr"  time="0/1" value="0" leadInLength="0/1"  />
              </VectorParam>
              <VectorParam id="934"  name="geometryCrop">
               <InterpolatingParam id="935" interp="linr"  time="-9999999/1" value="0" leadInLength="0/1"  />
               <InterpolatingParam id="936" interp="linr"  time="-9999999/1" value="0" leadInLength="0/1"  />
               <InterpolatingParam id="937" interp="linr"  time="-9999999/1" value="0" leadInLength="0/1"  />
               <InterpolatingParam id="938" interp="linr"  time="-9999999/1" value="0" leadInLength="0/1"  />
              </VectorParam>
              <InterpolatingParam id="939" interp="linr"  time="-9999999/1" value="1" leadInLength="0/1"  name="opacity"/>
             </Parameters>
             <Attributes>
              <Attribute id="940" value="" name="ident"/>
             </Attributes>
             <ExtraData>
              <Entry key="ZoomPanBin">
               <ZoomPanBin id="941"  >
                <ZoomPanKeyframes>
                 <ZoomPanKeyframe id="942" timeRangeEnd="-9999999/1" timeRangeDuration="0/1" interpolaterName="linr"  />
                </ZoomPanKeyframes>
               </ZoomPanBin>
              </Entry>
             </ExtraData>
            </VMFile>
            <MetaData>
             <entry key="WinSubProjectDisplayName" val=""/>
            </MetaData>
           </UnifiedMedia>
           <UnifiedMedia id="943"  >
            <AMFile id="944" start="1392" duration="343" scalar="1/1" mediaStart="1676/1" mediaDuration="343/1" trackNumber="1" src="27" channelNumber="0,1" >
             <Parameters>
              <InterpolatingParam id="945" interp="linr"  time="0/1" value="1" leadInLength="0/1"  name="volume"/>
              <Parameter id="946"  name="captions"/>
             </Parameters>
             <Attributes>
              <Attribute id="947" value="" name="ident"/>
              <Attribute id="948" value="48000" name="sampleRate"/>
              <Attribute id="949" value="16" name="bitDepth"/>
              <Attribute id="950" value="1" name="gain"/>
              <Attribute id="951" value="0" name="mixToMono"/>
             </Attributes>
            </AMFile>
            <VMFile id="952" start="1392" duration="343" scalar="1/1" mediaStart="1676/1" mediaDuration="343/1" trackNumber="0" src="27" >
             <Transformer>
              <VectorParam id="953"  name="translation">
               <InterpolatingParam id="954" interp="linr"  time="-9999999/1" value="0" leadInLength="0/1"  />
               <InterpolatingParam id="955" interp="linr"  time="-9999999/1" value="0" leadInLength="0/1"  />
               <InterpolatingParam id="956" interp="linr"  time="-9999999/1" value="0" leadInLength="0/1"  />
              </VectorParam>
              <VectorParam id="957"  name="rotation">
               <InterpolatingParam id="958" interp="linr"  time="-9999999/1" value="0" leadInLength="0/1"  />
               <InterpolatingParam id="959" interp="linr"  time="-9999999/1" value="0" leadInLength="0/1"  />
               <InterpolatingParam id="960" interp="linr"  time="-9999999/1" value="0" leadInLength="0/1"  />
              </VectorParam>
              <VectorParam id="961"  name="shear">
               <InterpolatingParam id="962" interp="linr"  time="-9999999/1" value="0" leadInLength="0/1"  />
               <InterpolatingParam id="963" interp="linr"  time="-9999999/1" value="0" leadInLength="0/1"  />
               <InterpolatingParam id="964" interp="linr"  time="-9999999/1" value="0" leadInLength="0/1"  />
              </VectorParam>
              <VectorParam id="965"  name="scale">
               <InterpolatingParam id="966" interp="linr"  time="-9999999/1" value="1" leadInLength="0/1"  />
               <InterpolatingParam id="967" interp="linr"  time="-9999999/1" value="1" leadInLength="0/1"  />
               <InterpolatingParam id="968" interp="linr"  time="-9999999/1" value="1" leadInLength="0/1"  />
              </VectorParam>
              <VectorParam id="969"  name="anchor">
               <InterpolatingParam id="970" interp="linr"  time="0/1" value="0" leadInLength="0/1"  />
               <InterpolatingParam id="971" interp="linr"  time="0/1" value="0" leadInLength="0/1"  />
               <InterpolatingParam id="972" interp="linr"  time="0/1" value="0" leadInLength="0/1"  />
              </VectorParam>
             </Transformer>
             <Parameters>
              <VectorParam id="973"  name="sourceCrop">
               <InterpolatingParam id="974" interp="linr"  time="0/1" value="0" leadInLength="0/1"  />
               <InterpolatingParam id="975" interp="linr"  time="0/1" value="0" leadInLength="0/1"  />
               <InterpolatingParam id="976" interp="linr"  time="0/1" value="0" leadInLength="0/1"  />
               <InterpolatingParam id="977" interp="linr"  time="0/1" value="0" leadInLength="0/1"  />
              </VectorParam>
              <VectorParam id="978"  name="geometryCrop">
               <InterpolatingParam id="979" interp="linr"  time="-9999999/1" value="0" leadInLength="0/1"  />
               <InterpolatingParam id="980" interp="linr"  time="-9999999/1" value="0" leadInLength="0/1"  />
               <InterpolatingParam id="981" interp="linr"  time="-9999999/1" value="0" leadInLength="0/1"  />
               <InterpolatingParam id="982" interp="linr"  time="-9999999/1" value="0" leadInLength="0/1"  />
              </VectorParam>
              <InterpolatingParam id="983" interp="linr"  time="-9999999/1" value="1" leadInLength="0/1"  name="opacity"/>
             </Parameters>
             <Attributes>
              <Attribute id="984" value="" name="ident"/>
             </Attributes>
             <ExtraData>
              <Entry key="ZoomPanBin">
               <ZoomPanBin id="985"  >
                <ZoomPanKeyframes>
                 <ZoomPanKeyframe id="986" timeRangeEnd="-9999999/1" timeRangeDuration="0/1" interpolaterName="linr"  />
                </ZoomPanKeyframes>
               </ZoomPanBin>
              </Entry>
             </ExtraData>
            </VMFile>
            <MetaData>
             <entry key="WinSubProjectDisplayName" val=""/>
            </MetaData>
           </UnifiedMedia>
          </Medias>
         </GenericTrack>
        </StitchedMedia>
        <UnifiedMedia id="987"  >
         <AudioTransition id="988" start="3965" duration="30" >
          <Parameters>
           <InterpolatingParam id="989" interp="linr"  time="0/1" value="1" leadInLength="0/1"  name="volume"/>
           <Parameter id="990"  name="captions"/>
          </Parameters>
          <Effects>
           <GenericEffect id="991" name = "AudioTransition" >
            <Parameters>
            <Parameter id="992"   name="audioEdgeModType">
             <Keyframes>
             <Keyframe id="993"  time="0/1" value="0" leadInLength="0/1"  />
             </Keyframes>
            </Parameter>
            <Parameter id="994"   name="audioTransitionType">
             <Keyframes>
             <Keyframe id="995"  time="0/1" value="" leadInLength="0/1"  />
             </Keyframes>
            </Parameter>
            </Parameters>
            <MetaData>
            </MetaData>
           </GenericEffect>
          </Effects>
          <Attributes>
           <Attribute id="996" value="" name="ident"/>
           <Attribute id="997" value="0" name="sampleRate"/>
           <Attribute id="998" value="0" name="bitDepth"/>
           <Attribute id="999" value="1" name="gain"/>
           <Attribute id="1000" value="0" name="mixToMono"/>
          </Attributes>
         </AudioTransition>
         <ImageTransition id="1001" start="3965" duration="30" >
          <Transformer>
           <VectorParam id="1002"  name="translation">
            <InterpolatingParam id="1003" interp="linr"  time="0/1" value="0" leadInLength="0/1"  />
            <InterpolatingParam id="1004" interp="linr"  time="0/1" value="0" leadInLength="0/1"  />
            <InterpolatingParam id="1005" interp="linr"  time="0/1" value="0" leadInLength="0/1"  />
           </VectorParam>
           <VectorParam id="1006"  name="rotation">
            <InterpolatingParam id="1007" interp="linr"  time="0/1" value="0" leadInLength="0/1"  />
            <InterpolatingParam id="1008" interp="linr"  time="0/1" value="0" leadInLength="0/1"  />
            <InterpolatingParam id="1009" interp="linr"  time="0/1" value="0" leadInLength="0/1"  />
           </VectorParam>
           <VectorParam id="1010"  name="shear">
            <InterpolatingParam id="1011" interp="linr"  time="0/1" value="0" leadInLength="0/1"  />
            <InterpolatingParam id="1012" interp="linr"  time="0/1" value="0" leadInLength="0/1"  />
            <InterpolatingParam id="1013" interp="linr"  time="0/1" value="0" leadInLength="0/1"  />
           </VectorParam>
           <VectorParam id="1014"  name="scale">
            <InterpolatingParam id="1015" interp="linr"  time="0/1" value="1" leadInLength="0/1"  />
            <InterpolatingParam id="1016" interp="linr"  time="0/1" value="1" leadInLength="0/1"  />
            <InterpolatingParam id="1017" interp="linr"  time="0/1" value="1" leadInLength="0/1"  />
           </VectorParam>
           <VectorParam id="1018"  name="anchor">
            <InterpolatingParam id="1019" interp="linr"  time="0/1" value="0" leadInLength="0/1"  />
            <InterpolatingParam id="1020" interp="linr"  time="0/1" value="0" leadInLength="0/1"  />
            <InterpolatingParam id="1021" interp="linr"  time="0/1" value="0" leadInLength="0/1"  />
           </VectorParam>
          </Transformer>
          <Parameters>
           <VectorParam id="1022"  name="sourceCrop">
            <InterpolatingParam id="1023" interp="linr"  time="0/1" value="0" leadInLength="0/1"  />
            <InterpolatingParam id="1024" interp="linr"  time="0/1" value="0" leadInLength="0/1"  />
            <InterpolatingParam id="1025" interp="linr"  time="0/1" value="0" leadInLength="0/1"  />
            <InterpolatingParam id="1026" interp="linr"  time="0/1" value="0" leadInLength="0/1"  />
           </VectorParam>
           <VectorParam id="1027"  name="geometryCrop">
            <InterpolatingParam id="1028" interp="linr"  time="0/1" value="0" leadInLength="0/1"  />
            <InterpolatingParam id="1029" interp="linr"  time="0/1" value="0" leadInLength="0/1"  />
            <InterpolatingParam id="1030" interp="linr"  time="0/1" value="0" leadInLength="0/1"  />
            <InterpolatingParam id="1031" interp="linr"  time="0/1" value="0" leadInLength="0/1"  />
           </VectorParam>
           <InterpolatingParam id="1032" interp="linr"  time="0/1" value="1" leadInLength="0/1"  name="opacity"/>
          </Parameters>
          <Effects>
           <GenericEffect id="1033" name = "VisualTransition" >
            <Parameters>
            <InterpolatingParam id="1034" interp="linr"  time="0/1" value="0.5" leadInLength="0/1"   name="leftFramePercentage"/>
            <InterpolatingParam id="1035" interp="linr"  time="0/1" value="0.5" leadInLength="0/1"   name="rightFramePercentage"/>
            <Parameter id="1036"   name="visualEdgeModType">
             <Keyframes>
             <Keyframe id="1037"  time="0/1" value="2" leadInLength="0/1"  />
             </Keyframes>
            </Parameter>
            <Parameter id="1038"   name="visualTransitionType">
             <Keyframes>
             <Keyframe id="1039"  time="0/1" value="FadeThruBlack" leadInLength="0/1"  />
             </Keyframes>
            </Parameter>
            </Parameters>
            <MetaData>
            </MetaData>
           </GenericEffect>
          </Effects>
          <Attributes>
           <Attribute id="1040" value="" name="ident"/>
          </Attributes>
          <ExtraData>
           <Entry key="ZoomPanBin">
            <ZoomPanBin id="1041"  >
             <ZoomPanKeyframes>
             </ZoomPanKeyframes>
            </ZoomPanBin>
           </Entry>
          </ExtraData>
         </ImageTransition>
         <MetaData>
          <entry key="WinSubProjectDisplayName" val=""/>
         </MetaData>
        </UnifiedMedia>
        <Callout id="1042" start="3995" duration="446" scalar="1/1" mediaStart="30/1" mediaDuration="446/1" >
         <Transformer>
          <VectorParam id="1043"  name="translation">
           <InterpolatingParam id="1044" interp="linr"  time="-9999999/1" value="-473.68421052621454" leadInLength="0/1"  />
           <InterpolatingParam id="1045" interp="linr"  time="-9999999/1" value="122.60061919505758" leadInLength="0/1"  />
           <InterpolatingParam id="1046" interp="linr"  time="-9999999/1" value="0" leadInLength="0/1"  />
          </VectorParam>
          <VectorParam id="1047"  name="rotation">
           <InterpolatingParam id="1048" interp="linr"  time="-9999999/1" value="0" leadInLength="0/1"  />
           <InterpolatingParam id="1049" interp="linr"  time="-9999999/1" value="0" leadInLength="0/1"  />
           <InterpolatingParam id="1050" interp="linr"  time="-9999999/1" value="0" leadInLength="0/1"  />
          </VectorParam>
          <VectorParam id="1051"  name="shear">
           <InterpolatingParam id="1052" interp="linr"  time="-9999999/1" value="0" leadInLength="0/1"  />
           <InterpolatingParam id="1053" interp="linr"  time="-9999999/1" value="0" leadInLength="0/1"  />
           <InterpolatingParam id="1054" interp="linr"  time="-9999999/1" value="0" leadInLength="0/1"  />
          </VectorParam>
          <VectorParam id="1055"  name="scale">
           <InterpolatingParam id="1056" interp="linr"  time="-9999999/1" value="1.039473684210521" leadInLength="0/1"  />
           <InterpolatingParam id="1057" interp="linr"  time="-9999999/1" value="2.0001159353104714" leadInLength="0/1"  />
           <InterpolatingParam id="1058" interp="linr"  time="-9999999/1" value="1" leadInLength="0/1"  />
          </VectorParam>
          <VectorParam id="1059"  name="anchor">
           <InterpolatingParam id="1060" interp="linr"  time="0/1" value="0" leadInLength="0/1"  />
           <InterpolatingParam id="1061" interp="linr"  time="0/1" value="0" leadInLength="0/1"  />
           <InterpolatingParam id="1062" interp="linr"  time="0/1" value="0" leadInLength="0/1"  />
          </VectorParam>
         </Transformer>
         <Parameters>
          <VectorParam id="1063"  name="sourceCrop">
           <InterpolatingParam id="1064" interp="linr"  time="0/1" value="0" leadInLength="0/1"  />
           <InterpolatingParam id="1065" interp="linr"  time="0/1" value="0" leadInLength="0/1"  />
           <InterpolatingParam id="1066" interp="linr"  time="0/1" value="0" leadInLength="0/1"  />
           <InterpolatingParam id="1067" interp="linr"  time="0/1" value="0" leadInLength="0/1"  />
          </VectorParam>
          <VectorParam id="1068"  name="geometryCrop">
           <InterpolatingParam id="1069" interp="linr"  time="-9999999/1" value="0" leadInLength="0/1"  />
           <InterpolatingParam id="1070" interp="linr"  time="-9999999/1" value="0" leadInLength="0/1"  />
           <InterpolatingParam id="1071" interp="linr"  time="-9999999/1" value="0" leadInLength="0/1"  />
           <InterpolatingParam id="1072" interp="linr"  time="-9999999/1" value="0" leadInLength="0/1"  />
          </VectorParam>
          <InterpolatingParam id="1073" interp="linr"  time="-9999999/1" value="1" leadInLength="0/1"  name="opacity"/>
         </Parameters>
         <Effects>
          <GenericEffect id="1074" name = "DropShadow" >
           <Parameters>
           <InterpolatingParam id="1075" interp="linr"  time="0/1" value="315" leadInLength="0/1"   name="angle"/>
           <InterpolatingParam id="1076" interp="linr"  time="0/1" value="2" leadInLength="0/1"   name="blur"/>
           <Parameter id="1077"   name="enabled">
            <Keyframes>
            <Keyframe id="1078"  time="0/1" value="1" leadInLength="0/1"  />
            </Keyframes>
           </Parameter>
           <InterpolatingParam id="1079" interp="linr"  time="0/1" value="4" leadInLength="0/1"   name="offset"/>
           <InterpolatingParam id="1080" interp="linr"  time="0/1" value="0.75" leadInLength="0/1"   name="opacity"/>
           </Parameters>
          </GenericEffect>
         </Effects>
         <Attributes>
          <Attribute id="1081"  name="vectorNode">
           <VectorNode id="1082" kind="TypeWinXML"  >
            <DoubleParameters>
             <InterpolatingParam id="1083" interp="linr"  time="0/1" value="-1" leadInLength="0/1"  name="CutoutPercentage"/>
             <InterpolatingParam id="1084" interp="linr"  time="0/1" value="30" leadInLength="0/1"  name="RoundedRectRadius"/>
             <InterpolatingParam id="1085" interp="linr"  time="0/1" value="5" leadInLength="0/1"  name="Style"/>
             <InterpolatingParam id="1086" interp="linr"  time="0/1" value="0" leadInLength="0/1"  name="borderColorBlue"/>
             <InterpolatingParam id="1087" interp="linr"  time="0/1" value="0" leadInLength="0/1"  name="borderColorGreen"/>
             <InterpolatingParam id="1088" interp="linr"  time="0/1" value="0" leadInLength="0/1"  name="borderColorRed"/>
             <InterpolatingParam id="1089" interp="linr"  time="0/1" value="1" leadInLength="0/1"  name="borderState"/>
             <InterpolatingParam id="1090" interp="linr"  time="0/1" value="5" leadInLength="0/1"  name="borderWidth"/>
             <InterpolatingParam id="1091" interp="linr"  time="0/1" value="30" leadInLength="0/1"  name="dimensionTime"/>
             <InterpolatingParam id="1092" interp="linr"  time="0/1" value="0" leadInLength="0/1"  name="fillColorBlue"/>
             <InterpolatingParam id="1093" interp="linr"  time="0/1" value="0" leadInLength="0/1"  name="fillColorGreen"/>
             <InterpolatingParam id="1094" interp="linr"  time="0/1" value="0" leadInLength="0/1"  name="fillColorRed"/>
             <InterpolatingParam id="1095" interp="linr"  time="0/1" value="1" leadInLength="0/1"  name="fillState"/>
             <InterpolatingParam id="1096" interp="linr"  time="0/1" value="0" leadInLength="0/1"  name="flipOnXAxis"/>
             <InterpolatingParam id="1097" interp="linr"  time="0/1" value="0" leadInLength="0/1"  name="flipOnYAxis"/>
             <InterpolatingParam id="1098" interp="linr"  time="0/1" value="237.38562091503266" leadInLength="0/1"  name="height"/>
             <InterpolatingParam id="1099" interp="linr"  time="0/1" value="0" leadInLength="0/1"  name="textDropShadow"/>
             <InterpolatingParam id="1100" interp="linr"  time="0/1" value="0" leadInLength="0/1"  name="textIgnoresOpacity"/>
             <InterpolatingParam id="1101" interp="linr"  time="0/1" value="0.86784140969162993" leadInLength="0/1"  name="textRectHeight"/>
             <InterpolatingParam id="1102" interp="linr"  time="0/1" value="0.90196078431372551" leadInLength="0/1"  name="textRectWidth"/>
             <InterpolatingParam id="1103" interp="linr"  time="0/1" value="0.049019607843137254" leadInLength="0/1"  name="textRectX"/>
             <InterpolatingParam id="1104" interp="linr"  time="0/1" value="0.066079295154185022" leadInLength="0/1"  name="textRectY"/>
             <InterpolatingParam id="1105" interp="linr"  time="0/1" value="0" leadInLength="0/1"  name="textVerticalAlign"/>
             <InterpolatingParam id="1106" interp="linr"  time="0/1" value="320" leadInLength="0/1"  name="width"/>
            </DoubleParameters>
            <StringParameters>
             <Parameter id="1107"  name="VectorPath">
              <Keyframes>
              <Keyframe id="1108"  time="0/1" value="M10,0h286c5.521,0,10,4.477,10,10v207c0,5.521-4.479,10-10,10H10c-5.523,0-10-4.479-10-10V10&#xa;&#x9;C0,4.477,4.477,0,10,0z" leadInLength="0/1"  />
              </Keyframes>
             </Parameter>
             <Parameter id="1109"  name="filename">
              <Keyframes>
              <Keyframe id="1110"  time="0/1" value="C:\Program Files (x86)\TechSmith\Camtasia Studio 8\Media\Studio\Callouts\roundedrectangle.xml" leadInLength="0/1"  />
              </Keyframes>
             </Parameter>
             <Parameter id="1111"  name="name">
              <Keyframes>
              <Keyframe id="1112"  time="0/1" value="Filled Rounded Rectangle" leadInLength="0/1"  />
              </Keyframes>
             </Parameter>
             <Parameter id="1113"  name="text">
              <Keyframes>
              <Keyframe id="1114"  time="0/1" value="{\rtf1\ansi\ansicpg1252\deff0\deflang1033{\fonttbl{\f0\fswiss\fprq2\fcharset0 Arial;}}&#xD;&#xa;{\colortbl ;\red255\green255\blue255;}&#xD;&#xa;\viewkind4\uc1\pard\cf1\f0\fs56 Condu\&apos;e7\&apos;e3o el\&apos;e9trica \par&#xD;&#xa;\pard\qc (Esta\&apos;e7\&apos;e3o 1)\par&#xD;&#xa;Envolvidos:\par&#xD;&#xa;F\&apos;e1bio Pacheco\par&#xD;&#xa;(\&apos;c1udio e v\&apos;eddeo)\par&#xD;&#xa;Gabriel Cez\&apos;e1rio\par&#xD;&#xa;(V\&apos;eddeo)\par&#xD;&#xa;Giovana Cremasco\par&#xD;&#xa;(\&apos;c1udio)\par&#xD;&#xa;Massao Oshima\par&#xD;&#xa;(\&apos;c1udio)\par&#xD;&#xa;}&#xD;&#xa;" leadInLength="0/1"  />
              </Keyframes>
             </Parameter>
             <Parameter id="1115"  name="xmlContent">
              <Keyframes>
              <Keyframe id="1116"  time="0/1" value="﻿&lt;?xml version=&quot;1.0&quot;?&gt;&#xa;&#xa;&lt;Overlay version=&quot;1.0.1&quot;&gt;&#xa;&#xa;&lt;Overlay_Filename&gt;roundedrectangle.png&lt;/Overlay_Filename&gt;&#xa;&lt;Overlay_Name&gt;Filled Rounded Rectangle&lt;/Overlay_Name&gt;&#xa;&lt;Text_Top&gt;15&lt;/Text_Top&gt;&#xa;&lt;Text_Left&gt;15&lt;/Text_Left&gt;&#xa;&lt;Text_Bottom&gt;15&lt;/Text_Bottom&gt;&#xa;&lt;Text_Right&gt;15&lt;/Text_Right&gt;&#xa;&lt;Fill_Color&gt;1&lt;/Fill_Color&gt;&#xa;&lt;Border_Color&gt;1&lt;/Border_Color&gt;&#xa;&lt;Initial_Fill_Color&gt;0xffe05f00&lt;/Initial_Fill_Color&gt;&#xa;&lt;Initial_Border_Color&gt;0xffd7d7d7&lt;/Initial_Border_Color&gt;&#xa;&lt;VectorProps&gt;&#xa;&lt;figure&gt;&#xa;&lt;svg&gt;M10,0h286c5.521,0,10,4.477,10,10v207c0,5.521-4.479,10-10,10H10c-5.523,0-10-4.479-10-10V10&#xa;&#x9;C0,4.477,4.477,0,10,0z&lt;/svg&gt;&#xa;&lt;/figure&gt;&#xa;&lt;borderWidth&gt;5.00&lt;/borderWidth&gt;&#xa;&lt;seamY&gt;-1&lt;/seamY&gt;&#xa;&lt;roundedRectRadius&gt;30&lt;/roundedRectRadius&gt;&#xa;&lt;shapeWidth&gt;306&lt;/shapeWidth&gt;&#xa;&lt;shapeHeight&gt;227&lt;/shapeHeight&gt;&#xa;&lt;/VectorProps&gt;&#xa;&lt;Style&gt;5&lt;/Style&gt;&#xa;&lt;/Overlay&gt;" leadInLength="0/1"  />
              </Keyframes>
             </Parameter>
            </StringParameters>
           </VectorNode>
          </Attribute>
         </Attributes>
         <MetaData>
          <entry key="WinSubProjectDisplayName" val=""/>
         </MetaData>
         <LeftEdgeMods length="30/1" groupName="OpacityFade">
          <EdgeMod parameter="1073">
           <FadeInFunc id="1117"  />
          </EdgeMod>
         </LeftEdgeMods>
         <RightEdgeMods length="30/1" groupName="OpacityFade">
          <EdgeMod parameter="1073">
           <FadeOutFunc id="122"  />
          </EdgeMod>
         </RightEdgeMods>
         <ExtraData>
          <Entry key="ZoomPanBin">
           <ZoomPanBin id="1118"  >
            <ZoomPanKeyframes>
             <ZoomPanKeyframe id="1119" timeRangeEnd="-9999999/1" timeRangeDuration="0/1" interpolaterName="linr"  />
            </ZoomPanKeyframes>
           </ZoomPanBin>
          </Entry>
         </ExtraData>
        </Callout>
        <Callout id="1120" start="4441" duration="93" scalar="1/1" mediaStart="0/1" mediaDuration="93/1" >
         <Transformer>
          <VectorParam id="1121"  name="translation">
           <InterpolatingParam id="1122" interp="linr"  time="-9999999/1" value="-1.1145510835636614" leadInLength="0/1"  />
           <InterpolatingParam id="1123" interp="linr"  time="-9999999/1" value="186.69418684520286" leadInLength="0/1"  />
           <InterpolatingParam id="1124" interp="linr"  time="-9999999/1" value="0" leadInLength="0/1"  />
          </VectorParam>
          <VectorParam id="1125"  name="rotation">
           <InterpolatingParam id="1126" interp="linr"  time="-9999999/1" value="0" leadInLength="0/1"  />
           <InterpolatingParam id="1127" interp="linr"  time="-9999999/1" value="0" leadInLength="0/1"  />
           <InterpolatingParam id="1128" interp="linr"  time="-9999999/1" value="0" leadInLength="0/1"  />
          </VectorParam>
          <VectorParam id="1129"  name="shear">
           <InterpolatingParam id="1130" interp="linr"  time="-9999999/1" value="0" leadInLength="0/1"  />
           <InterpolatingParam id="1131" interp="linr"  time="-9999999/1" value="0" leadInLength="0/1"  />
           <InterpolatingParam id="1132" interp="linr"  time="-9999999/1" value="0" leadInLength="0/1"  />
          </VectorParam>
          <VectorParam id="1133"  name="scale">
           <InterpolatingParam id="1134" interp="linr"  time="-9999999/1" value="1.7871517027852868" leadInLength="0/1"  />
           <InterpolatingParam id="1135" interp="linr"  time="-9999999/1" value="1.4601205672786863" leadInLength="0/1"  />
           <InterpolatingParam id="1136" interp="linr"  time="-9999999/1" value="1" leadInLength="0/1"  />
          </VectorParam>
          <VectorParam id="1137"  name="anchor">
           <InterpolatingParam id="1138" interp="linr"  time="0/1" value="0" leadInLength="0/1"  />
           <InterpolatingParam id="1139" interp="linr"  time="0/1" value="0" leadInLength="0/1"  />
           <InterpolatingParam id="1140" interp="linr"  time="0/1" value="0" leadInLength="0/1"  />
          </VectorParam>
         </Transformer>
         <Parameters>
          <VectorParam id="1141"  name="sourceCrop">
           <InterpolatingParam id="1142" interp="linr"  time="0/1" value="0" leadInLength="0/1"  />
           <InterpolatingParam id="1143" interp="linr"  time="0/1" value="0" leadInLength="0/1"  />
           <InterpolatingParam id="1144" interp="linr"  time="0/1" value="0" leadInLength="0/1"  />
           <InterpolatingParam id="1145" interp="linr"  time="0/1" value="0" leadInLength="0/1"  />
          </VectorParam>
          <VectorParam id="1146"  name="geometryCrop">
           <InterpolatingParam id="1147" interp="linr"  time="-9999999/1" value="0" leadInLength="0/1"  />
           <InterpolatingParam id="1148" interp="linr"  time="-9999999/1" value="0" leadInLength="0/1"  />
           <InterpolatingParam id="1149" interp="linr"  time="-9999999/1" value="0" leadInLength="0/1"  />
           <InterpolatingParam id="1150" interp="linr"  time="-9999999/1" value="0" leadInLength="0/1"  />
          </VectorParam>
          <InterpolatingParam id="1151" interp="linr"  time="-9999999/1" value="1" leadInLength="0/1"  name="opacity"/>
         </Parameters>
         <Effects>
          <GenericEffect id="1152" name = "DropShadow" >
           <Parameters>
           <InterpolatingParam id="1153" interp="linr"  time="0/1" value="315" leadInLength="0/1"   name="angle"/>
           <InterpolatingParam id="1154" interp="linr"  time="0/1" value="2" leadInLength="0/1"   name="blur"/>
           <Parameter id="1155"   name="enabled">
            <Keyframes>
            <Keyframe id="1156"  time="0/1" value="1" leadInLength="0/1"  />
            </Keyframes>
           </Parameter>
           <InterpolatingParam id="1157" interp="linr"  time="0/1" value="4" leadInLength="0/1"   name="offset"/>
           <InterpolatingParam id="1158" interp="linr"  time="0/1" value="0.75" leadInLength="0/1"   name="opacity"/>
           </Parameters>
          </GenericEffect>
         </Effects>
         <Attributes>
          <Attribute id="1159"  name="vectorNode">
           <VectorNode id="1160" kind="TypeWinXML"  >
            <DoubleParameters>
             <InterpolatingParam id="1161" interp="linr"  time="0/1" value="-1" leadInLength="0/1"  name="CutoutPercentage"/>
             <InterpolatingParam id="1162" interp="linr"  time="0/1" value="30" leadInLength="0/1"  name="RoundedRectRadius"/>
             <InterpolatingParam id="1163" interp="linr"  time="0/1" value="5" leadInLength="0/1"  name="Style"/>
             <InterpolatingParam id="1164" interp="linr"  time="0/1" value="0" leadInLength="0/1"  name="borderColorBlue"/>
             <InterpolatingParam id="1165" interp="linr"  time="0/1" value="0" leadInLength="0/1"  name="borderColorGreen"/>
             <InterpolatingParam id="1166" interp="linr"  time="0/1" value="0" leadInLength="0/1"  name="borderColorRed"/>
             <InterpolatingParam id="1167" interp="linr"  time="0/1" value="1" leadInLength="0/1"  name="borderState"/>
             <InterpolatingParam id="1168" interp="linr"  time="0/1" value="5" leadInLength="0/1"  name="borderWidth"/>
             <InterpolatingParam id="1169" interp="linr"  time="0/1" value="0" leadInLength="0/1"  name="dimensionTime"/>
             <InterpolatingParam id="1170" interp="linr"  time="0/1" value="0" leadInLength="0/1"  name="fillColorBlue"/>
             <InterpolatingParam id="1171" interp="linr"  time="0/1" value="0" leadInLength="0/1"  name="fillColorGreen"/>
             <InterpolatingParam id="1172" interp="linr"  time="0/1" value="0" leadInLength="0/1"  name="fillColorRed"/>
             <InterpolatingParam id="1173" interp="linr"  time="0/1" value="1" leadInLength="0/1"  name="fillState"/>
             <InterpolatingParam id="1174" interp="linr"  time="0/1" value="0" leadInLength="0/1"  name="flipOnXAxis"/>
             <InterpolatingParam id="1175" interp="linr"  time="0/1" value="0" leadInLength="0/1"  name="flipOnYAxis"/>
             <InterpolatingParam id="1176" interp="linr"  time="0/1" value="237.38562091503266" leadInLength="0/1"  name="height"/>
             <InterpolatingParam id="1177" interp="linr"  time="0/1" value="0" leadInLength="0/1"  name="textDropShadow"/>
             <InterpolatingParam id="1178" interp="linr"  time="0/1" value="0" leadInLength="0/1"  name="textIgnoresOpacity"/>
             <InterpolatingParam id="1179" interp="linr"  time="0/1" value="0.86784140969162993" leadInLength="0/1"  name="textRectHeight"/>
             <InterpolatingParam id="1180" interp="linr"  time="0/1" value="0.90196078431372551" leadInLength="0/1"  name="textRectWidth"/>
             <InterpolatingParam id="1181" interp="linr"  time="0/1" value="0.049019607843137254" leadInLength="0/1"  name="textRectX"/>
             <InterpolatingParam id="1182" interp="linr"  time="0/1" value="0.066079295154185022" leadInLength="0/1"  name="textRectY"/>
             <InterpolatingParam id="1183" interp="linr"  time="0/1" value="0" leadInLength="0/1"  name="textVerticalAlign"/>
             <InterpolatingParam id="1184" interp="linr"  time="0/1" value="320" leadInLength="0/1"  name="width"/>
            </DoubleParameters>
            <StringParameters>
             <Parameter id="1185"  name="VectorPath">
              <Keyframes>
              <Keyframe id="1186"  time="0/1" value="M10,0h286c5.521,0,10,4.477,10,10v207c0,5.521-4.479,10-10,10H10c-5.523,0-10-4.479-10-10V10&#xa;&#x9;C0,4.477,4.477,0,10,0z" leadInLength="0/1"  />
              </Keyframes>
             </Parameter>
             <Parameter id="1187"  name="filename">
              <Keyframes>
              <Keyframe id="1188"  time="0/1" value="C:\Program Files (x86)\TechSmith\Camtasia Studio 8\Media\Studio\Callouts\roundedrectangle.xml" leadInLength="0/1"  />
              </Keyframes>
             </Parameter>
             <Parameter id="1189"  name="name">
              <Keyframes>
              <Keyframe id="1190"  time="0/1" value="Filled Rounded Rectangle" leadInLength="0/1"  />
              </Keyframes>
             </Parameter>
             <Parameter id="1191"  name="text">
              <Keyframes>
              <Keyframe id="1192"  time="0/1" value="{\rtf1\ansi\ansicpg1252\deff0\deflang1033{\fonttbl{\f0\fswiss\fprq2\fcharset0 Arial;}}&#xD;&#xa;{\colortbl ;\red255\green255\blue255;}&#xD;&#xa;\viewkind4\uc1\pard\qc\cf1\f0\fs96 1\&apos;ba composto:\par&#xD;&#xa;Nitrato de N\&apos;edquel\par&#xD;&#xa;}&#xD;&#xa;" leadInLength="0/1"  />
              </Keyframes>
             </Parameter>
             <Parameter id="1193"  name="xmlContent">
              <Keyframes>
              <Keyframe id="1194"  time="0/1" value="﻿&lt;?xml version=&quot;1.0&quot;?&gt;&#xa;&#xa;&lt;Overlay version=&quot;1.0.1&quot;&gt;&#xa;&#xa;&lt;Overlay_Filename&gt;roundedrectangle.png&lt;/Overlay_Filename&gt;&#xa;&lt;Overlay_Name&gt;Filled Rounded Rectangle&lt;/Overlay_Name&gt;&#xa;&lt;Text_Top&gt;15&lt;/Text_Top&gt;&#xa;&lt;Text_Left&gt;15&lt;/Text_Left&gt;&#xa;&lt;Text_Bottom&gt;15&lt;/Text_Bottom&gt;&#xa;&lt;Text_Right&gt;15&lt;/Text_Right&gt;&#xa;&lt;Fill_Color&gt;1&lt;/Fill_Color&gt;&#xa;&lt;Border_Color&gt;1&lt;/Border_Color&gt;&#xa;&lt;Initial_Fill_Color&gt;0xffe05f00&lt;/Initial_Fill_Color&gt;&#xa;&lt;Initial_Border_Color&gt;0xffd7d7d7&lt;/Initial_Border_Color&gt;&#xa;&lt;VectorProps&gt;&#xa;&lt;figure&gt;&#xa;&lt;svg&gt;M10,0h286c5.521,0,10,4.477,10,10v207c0,5.521-4.479,10-10,10H10c-5.523,0-10-4.479-10-10V10&#xa;&#x9;C0,4.477,4.477,0,10,0z&lt;/svg&gt;&#xa;&lt;/figure&gt;&#xa;&lt;borderWidth&gt;5.00&lt;/borderWidth&gt;&#xa;&lt;seamY&gt;-1&lt;/seamY&gt;&#xa;&lt;roundedRectRadius&gt;30&lt;/roundedRectRadius&gt;&#xa;&lt;shapeWidth&gt;306&lt;/shapeWidth&gt;&#xa;&lt;shapeHeight&gt;227&lt;/shapeHeight&gt;&#xa;&lt;/VectorProps&gt;&#xa;&lt;Style&gt;5&lt;/Style&gt;&#xa;&lt;/Overlay&gt;" leadInLength="0/1"  />
              </Keyframes>
             </Parameter>
            </StringParameters>
           </VectorNode>
          </Attribute>
         </Attributes>
         <MetaData>
          <entry key="WinSubProjectDisplayName" val=""/>
         </MetaData>
         <LeftEdgeMods length="30/1" groupName="OpacityFade">
          <EdgeMod parameter="1151">
           <FadeInFunc id="202"  />
          </EdgeMod>
         </LeftEdgeMods>
         <RightEdgeMods length="30/1" groupName="OpacityFade">
          <EdgeMod parameter="1151">
           <FadeOutFunc id="1195"  />
          </EdgeMod>
         </RightEdgeMods>
         <ExtraData>
          <Entry key="ZoomPanBin">
           <ZoomPanBin id="1196"  >
            <ZoomPanKeyframes>
             <ZoomPanKeyframe id="1197" timeRangeEnd="-9999999/1" timeRangeDuration="0/1" interpolaterName="linr"  />
            </ZoomPanKeyframes>
           </ZoomPanBin>
          </Entry>
         </ExtraData>
        </Callout>
        <UnifiedMedia id="1198"  >
         <AMFile id="1199" start="4534" duration="41" scalar="1/1" mediaStart="116/1" mediaDuration="41/1" trackNumber="1" src="29" channelNumber="0,1" >
          <Parameters>
           <InterpolatingParam id="1200" interp="linr"  name="volume">
            <Keyframes>
            <Keyframe id="1201"  time="0/1" value="3.3410138248847927" leadInLength="0/1"  />
            <Keyframe id="1202"  time="142/1" value="3.3410138248847927" leadInLength="0/1"  />
            <Keyframe id="1203"  time="157/1" value="3.3294930875576041" leadInLength="0/1"  />
            </Keyframes>
           </InterpolatingParam>
           <Parameter id="1204"  name="captions"/>
          </Parameters>
          <Attributes>
           <Attribute id="1205" value="" name="ident"/>
           <Attribute id="1206" value="48000" name="sampleRate"/>
           <Attribute id="1207" value="16" name="bitDepth"/>
           <Attribute id="1208" value="1" name="gain"/>
           <Attribute id="1209" value="0" name="mixToMono"/>
          </Attributes>
         </AMFile>
         <VMFile id="1210" start="4534" duration="41" scalar="1/1" mediaStart="116/1" mediaDuration="41/1" trackNumber="0" src="29" >
          <Transformer>
           <VectorParam id="1211"  name="translation">
            <InterpolatingParam id="1212" interp="linr"  time="-9999999/1" value="-11.14551083582802" leadInLength="0/1"  />
            <InterpolatingParam id="1213" interp="linr"  time="-9999999/1" value="4.0529357647756115e-011" leadInLength="0/1"  />
            <InterpolatingParam id="1214" interp="linr"  time="-9999999/1" value="0" leadInLength="0/1"  />
           </VectorParam>
           <VectorParam id="1215"  name="rotation">
            <InterpolatingParam id="1216" interp="linr"  time="-9999999/1" value="0" leadInLength="0/1"  />
            <InterpolatingParam id="1217" interp="linr"  time="-9999999/1" value="0" leadInLength="0/1"  />
            <InterpolatingParam id="1218" interp="linr"  time="-9999999/1" value="0" leadInLength="0/1"  />
           </VectorParam>
           <VectorParam id="1219"  name="shear">
            <InterpolatingParam id="1220" interp="linr"  time="-9999999/1" value="0" leadInLength="0/1"  />
            <InterpolatingParam id="1221" interp="linr"  time="-9999999/1" value="0" leadInLength="0/1"  />
            <InterpolatingParam id="1222" interp="linr"  time="-9999999/1" value="0" leadInLength="0/1"  />
           </VectorParam>
           <VectorParam id="1223"  name="scale">
            <InterpolatingParam id="1224" interp="linr"  time="-9999999/1" value="2.266535322263016" leadInLength="0/1"  />
            <InterpolatingParam id="1225" interp="linr"  time="-9999999/1" value="1.1250000000001688" leadInLength="0/1"  />
            <InterpolatingParam id="1226" interp="linr"  time="-9999999/1" value="1" leadInLength="0/1"  />
           </VectorParam>
           <VectorParam id="1227"  name="anchor">
            <InterpolatingParam id="1228" interp="linr"  time="0/1" value="0" leadInLength="0/1"  />
            <InterpolatingParam id="1229" interp="linr"  time="0/1" value="0" leadInLength="0/1"  />
            <InterpolatingParam id="1230" interp="linr"  time="0/1" value="0" leadInLength="0/1"  />
           </VectorParam>
          </Transformer>
          <Parameters>
           <VectorParam id="1231"  name="sourceCrop">
            <InterpolatingParam id="1232" interp="linr"  time="0/1" value="0" leadInLength="0/1"  />
            <InterpolatingParam id="1233" interp="linr"  time="0/1" value="0" leadInLength="0/1"  />
            <InterpolatingParam id="1234" interp="linr"  time="0/1" value="0" leadInLength="0/1"  />
            <InterpolatingParam id="1235" interp="linr"  time="0/1" value="0" leadInLength="0/1"  />
           </VectorParam>
           <VectorParam id="1236"  name="geometryCrop">
            <InterpolatingParam id="1237" interp="linr"  time="-9999999/1" value="0" leadInLength="0/1"  />
            <InterpolatingParam id="1238" interp="linr"  time="-9999999/1" value="0" leadInLength="0/1"  />
            <InterpolatingParam id="1239" interp="linr"  time="-9999999/1" value="0" leadInLength="0/1"  />
            <InterpolatingParam id="1240" interp="linr"  time="-9999999/1" value="0" leadInLength="0/1"  />
           </VectorParam>
           <InterpolatingParam id="1241" interp="linr"  time="-9999999/1" value="1" leadInLength="0/1"  name="opacity"/>
          </Parameters>
          <Attributes>
           <Attribute id="1242" value="" name="ident"/>
          </Attributes>
          <ExtraData>
           <Entry key="ZoomPanBin">
            <ZoomPanBin id="1243"  >
             <ZoomPanKeyframes>
              <ZoomPanKeyframe id="1244" timeRangeEnd="-9999999/1" timeRangeDuration="0/1" interpolaterName="linr"  />
             </ZoomPanKeyframes>
            </ZoomPanBin>
           </Entry>
          </ExtraData>
         </VMFile>
         <MetaData>
          <entry key="WinSubProjectDisplayName" val=""/>
         </MetaData>
        </UnifiedMedia>
        <UnifiedMedia id="1245"  >
         <AMFile id="1246" start="4575" duration="215" scalar="1/1" mediaStart="1090/1" mediaDuration="215/1" trackNumber="1" src="29" channelNumber="0,1" >
          <Parameters>
           <InterpolatingParam id="1247" interp="linr"  name="volume">
            <Keyframes>
            <Keyframe id="1248"  time="0/1" value="1.6705069124423964" leadInLength="0/1"  />
            <Keyframe id="1249"  time="1090/1" value="0" leadInLength="0/1"  />
            <Keyframe id="1250"  time="1105/1" value="0" leadInLength="0/1"  />
            </Keyframes>
           </InterpolatingParam>
           <Parameter id="1251"  name="captions"/>
          </Parameters>
          <Attributes>
           <Attribute id="1252" value="" name="ident"/>
           <Attribute id="1253" value="48000" name="sampleRate"/>
           <Attribute id="1254" value="16" name="bitDepth"/>
           <Attribute id="1255" value="1" name="gain"/>
           <Attribute id="1256" value="0" name="mixToMono"/>
          </Attributes>
         </AMFile>
         <VMFile id="1257" start="4575" duration="215" scalar="1/1" mediaStart="1090/1" mediaDuration="215/1" trackNumber="0" src="29" >
          <Transformer>
           <VectorParam id="1258"  name="translation">
            <InterpolatingParam id="1259" interp="linr"  time="-9999999/1" value="-8.9164086686908295" leadInLength="0/1"  interpolater="leadin-linr"  />
            <InterpolatingParam id="1260" interp="linr"  time="-9999999/1" value="-3.2862601528904634e-011" leadInLength="0/1"  interpolater="leadin-linr"  />
            <InterpolatingParam id="1261" interp="linr"  time="-9999999/1" value="0" leadInLength="0/1"  interpolater="leadin-linr"  />
           </VectorParam>
           <VectorParam id="1262"  name="rotation">
            <InterpolatingParam id="1263" interp="linr"  time="-9999999/1" value="0" leadInLength="0/1"  interpolater="leadin-linr"  />
            <InterpolatingParam id="1264" interp="linr"  time="-9999999/1" value="0" leadInLength="0/1"  interpolater="leadin-linr"  />
            <InterpolatingParam id="1265" interp="linr"  time="-9999999/1" value="0" leadInLength="0/1"  interpolater="leadin-linr"  />
           </VectorParam>
           <VectorParam id="1266"  name="shear">
            <InterpolatingParam id="1267" interp="linr"  time="-9999999/1" value="0" leadInLength="0/1"  interpolater="leadin-linr"  />
            <InterpolatingParam id="1268" interp="linr"  time="-9999999/1" value="0" leadInLength="0/1"  interpolater="leadin-linr"  />
            <InterpolatingParam id="1269" interp="linr"  time="-9999999/1" value="0" leadInLength="0/1"  interpolater="leadin-linr"  />
           </VectorParam>
           <VectorParam id="1270"  name="scale">
            <InterpolatingParam id="1271" interp="linr"  time="-9999999/1" value="2.2538699690387172" leadInLength="0/1"  interpolater="leadin-linr"  />
            <InterpolatingParam id="1272" interp="linr"  time="-9999999/1" value="1.124999999999823" leadInLength="0/1"  interpolater="leadin-linr"  />
            <InterpolatingParam id="1273" interp="linr"  time="-9999999/1" value="1" leadInLength="0/1"  interpolater="leadin-linr"  />
           </VectorParam>
           <VectorParam id="1274"  name="anchor">
            <InterpolatingParam id="1275" interp="linr"  time="0/1" value="0" leadInLength="0/1"  />
            <InterpolatingParam id="1276" interp="linr"  time="0/1" value="0" leadInLength="0/1"  />
            <InterpolatingParam id="1277" interp="linr"  time="0/1" value="0" leadInLength="0/1"  />
           </VectorParam>
          </Transformer>
          <Parameters>
           <VectorParam id="1278"  name="sourceCrop">
            <InterpolatingParam id="1279" interp="linr"  time="0/1" value="0" leadInLength="0/1"  />
            <InterpolatingParam id="1280" interp="linr"  time="0/1" value="0" leadInLength="0/1"  />
            <InterpolatingParam id="1281" interp="linr"  time="0/1" value="0" leadInLength="0/1"  />
            <InterpolatingParam id="1282" interp="linr"  time="0/1" value="0" leadInLength="0/1"  />
           </VectorParam>
           <VectorParam id="1283"  name="geometryCrop">
            <InterpolatingParam id="1284" interp="linr"  time="-9999999/1" value="0" leadInLength="0/1"  interpolater="leadin-linr"  />
            <InterpolatingParam id="1285" interp="linr"  time="-9999999/1" value="0" leadInLength="0/1"  interpolater="leadin-linr"  />
            <InterpolatingParam id="1286" interp="linr"  time="-9999999/1" value="0" leadInLength="0/1"  interpolater="leadin-linr"  />
            <InterpolatingParam id="1287" interp="linr"  time="-9999999/1" value="0" leadInLength="0/1"  interpolater="leadin-linr"  />
           </VectorParam>
           <InterpolatingParam id="1288" interp="linr"  time="-9999999/1" value="1" leadInLength="0/1"  interpolater="leadin-linr"  name="opacity"/>
          </Parameters>
          <Attributes>
           <Attribute id="1289" value="" name="ident"/>
          </Attributes>
          <ExtraData>
           <Entry key="ZoomPanBin">
            <ZoomPanBin id="1290"  >
             <ZoomPanKeyframes>
              <ZoomPanKeyframe id="1291" timeRangeEnd="-9999999/1" timeRangeDuration="0/1" interpolaterName="linr"  />
             </ZoomPanKeyframes>
            </ZoomPanBin>
           </Entry>
          </ExtraData>
         </VMFile>
         <MetaData>
          <entry key="WinSubProjectDisplayName" val=""/>
         </MetaData>
        </UnifiedMedia>
        <UnifiedMedia id="1292"  >
         <AudioTransition id="1293" start="4790" duration="30" >
          <Parameters>
           <InterpolatingParam id="1294" interp="linr"  time="0/1" value="1" leadInLength="0/1"  name="volume"/>
           <Parameter id="1295"  name="captions"/>
          </Parameters>
          <Effects>
           <GenericEffect id="1296" name = "AudioTransition" >
            <Parameters>
            <Parameter id="1297"   name="audioEdgeModType">
             <Keyframes>
             <Keyframe id="1298"  time="0/1" value="0" leadInLength="0/1"  />
             </Keyframes>
            </Parameter>
            <Parameter id="1299"   name="audioTransitionType">
             <Keyframes>
             <Keyframe id="1300"  time="0/1" value="" leadInLength="0/1"  />
             </Keyframes>
            </Parameter>
            </Parameters>
            <MetaData>
            </MetaData>
           </GenericEffect>
          </Effects>
          <Attributes>
           <Attribute id="1301" value="" name="ident"/>
           <Attribute id="1302" value="0" name="sampleRate"/>
           <Attribute id="1303" value="0" name="bitDepth"/>
           <Attribute id="1304" value="1" name="gain"/>
           <Attribute id="1305" value="0" name="mixToMono"/>
          </Attributes>
         </AudioTransition>
         <ImageTransition id="1306" start="4790" duration="30" >
          <Transformer>
           <VectorParam id="1307"  name="translation">
            <InterpolatingParam id="1308" interp="linr"  time="0/1" value="0" leadInLength="0/1"  />
            <InterpolatingParam id="1309" interp="linr"  time="0/1" value="0" leadInLength="0/1"  />
            <InterpolatingParam id="1310" interp="linr"  time="0/1" value="0" leadInLength="0/1"  />
           </VectorParam>
           <VectorParam id="1311"  name="rotation">
            <InterpolatingParam id="1312" interp="linr"  time="0/1" value="0" leadInLength="0/1"  />
            <InterpolatingParam id="1313" interp="linr"  time="0/1" value="0" leadInLength="0/1"  />
            <InterpolatingParam id="1314" interp="linr"  time="0/1" value="0" leadInLength="0/1"  />
           </VectorParam>
           <VectorParam id="1315"  name="shear">
            <InterpolatingParam id="1316" interp="linr"  time="0/1" value="0" leadInLength="0/1"  />
            <InterpolatingParam id="1317" interp="linr"  time="0/1" value="0" leadInLength="0/1"  />
            <InterpolatingParam id="1318" interp="linr"  time="0/1" value="0" leadInLength="0/1"  />
           </VectorParam>
           <VectorParam id="1319"  name="scale">
            <InterpolatingParam id="1320" interp="linr"  time="0/1" value="1" leadInLength="0/1"  />
            <InterpolatingParam id="1321" interp="linr"  time="0/1" value="1" leadInLength="0/1"  />
            <InterpolatingParam id="1322" interp="linr"  time="0/1" value="1" leadInLength="0/1"  />
           </VectorParam>
           <VectorParam id="1323"  name="anchor">
            <InterpolatingParam id="1324" interp="linr"  time="0/1" value="0" leadInLength="0/1"  />
            <InterpolatingParam id="1325" interp="linr"  time="0/1" value="0" leadInLength="0/1"  />
            <InterpolatingParam id="1326" interp="linr"  time="0/1" value="0" leadInLength="0/1"  />
           </VectorParam>
          </Transformer>
          <Parameters>
           <VectorParam id="1327"  name="sourceCrop">
            <InterpolatingParam id="1328" interp="linr"  time="0/1" value="0" leadInLength="0/1"  />
            <InterpolatingParam id="1329" interp="linr"  time="0/1" value="0" leadInLength="0/1"  />
            <InterpolatingParam id="1330" interp="linr"  time="0/1" value="0" leadInLength="0/1"  />
            <InterpolatingParam id="1331" interp="linr"  time="0/1" value="0" leadInLength="0/1"  />
           </VectorParam>
           <VectorParam id="1332"  name="geometryCrop">
            <InterpolatingParam id="1333" interp="linr"  time="0/1" value="0" leadInLength="0/1"  />
            <InterpolatingParam id="1334" interp="linr"  time="0/1" value="0" leadInLength="0/1"  />
            <InterpolatingParam id="1335" interp="linr"  time="0/1" value="0" leadInLength="0/1"  />
            <InterpolatingParam id="1336" interp="linr"  time="0/1" value="0" leadInLength="0/1"  />
           </VectorParam>
           <InterpolatingParam id="1337" interp="linr"  time="0/1" value="1" leadInLength="0/1"  name="opacity"/>
          </Parameters>
          <Effects>
           <GenericEffect id="1338" name = "VisualTransition" >
            <Parameters>
            <InterpolatingParam id="1339" interp="linr"  time="0/1" value="0.5" leadInLength="0/1"   name="leftFramePercentage"/>
            <InterpolatingParam id="1340" interp="linr"  time="0/1" value="0.5" leadInLength="0/1"   name="rightFramePercentage"/>
            <Parameter id="1341"   name="visualEdgeModType">
             <Keyframes>
             <Keyframe id="1342"  time="0/1" value="2" leadInLength="0/1"  />
             </Keyframes>
            </Parameter>
            <Parameter id="1343"   name="visualTransitionType">
             <Keyframes>
             <Keyframe id="1344"  time="0/1" value="FadeThruBlack" leadInLength="0/1"  />
             </Keyframes>
            </Parameter>
            </Parameters>
            <MetaData>
            </MetaData>
           </GenericEffect>
          </Effects>
          <Attributes>
           <Attribute id="1345" value="" name="ident"/>
          </Attributes>
          <ExtraData>
           <Entry key="ZoomPanBin">
            <ZoomPanBin id="1346"  >
             <ZoomPanKeyframes>
             </ZoomPanKeyframes>
            </ZoomPanBin>
           </Entry>
          </ExtraData>
         </ImageTransition>
         <MetaData>
          <entry key="WinSubProjectDisplayName" val=""/>
         </MetaData>
        </UnifiedMedia>
        <Callout id="1347" start="4820" duration="101" scalar="1/1" mediaStart="0/1" mediaDuration="101/1" >
         <Transformer>
          <VectorParam id="1348"  name="translation">
           <InterpolatingParam id="1349" interp="linr"  time="-9999999/1" value="-2.2291021676488398" leadInLength="0/1"  />
           <InterpolatingParam id="1350" interp="linr"  time="-9999999/1" value="185.57963576185671" leadInLength="0/1"  />
           <InterpolatingParam id="1351" interp="linr"  time="-9999999/1" value="-6.8212102632954408e-010" leadInLength="0/1"  />
          </VectorParam>
          <VectorParam id="1352"  name="rotation">
           <InterpolatingParam id="1353" interp="linr"  time="-9999999/1" value="0" leadInLength="0/1"  />
           <InterpolatingParam id="1354" interp="linr"  time="-9999999/1" value="0" leadInLength="0/1"  />
           <InterpolatingParam id="1355" interp="linr"  time="-9999999/1" value="0" leadInLength="0/1"  />
          </VectorParam>
          <VectorParam id="1356"  name="shear">
           <InterpolatingParam id="1357" interp="linr"  time="-9999999/1" value="0" leadInLength="0/1"  />
           <InterpolatingParam id="1358" interp="linr"  time="-9999999/1" value="0" leadInLength="0/1"  />
           <InterpolatingParam id="1359" interp="linr"  time="-9999999/1" value="0" leadInLength="0/1"  />
          </VectorParam>
          <VectorParam id="1360"  name="scale">
           <InterpolatingParam id="1361" interp="linr"  time="-9999999/1" value="1.7871517027857831" leadInLength="0/1"  />
           <InterpolatingParam id="1362" interp="linr"  time="-9999999/1" value="1.4695107829370193" leadInLength="0/1"  />
           <InterpolatingParam id="1363" interp="linr"  time="-9999999/1" value="1" leadInLength="0/1"  />
          </VectorParam>
          <VectorParam id="1364"  name="anchor">
           <InterpolatingParam id="1365" interp="linr"  time="0/1" value="0" leadInLength="0/1"  />
           <InterpolatingParam id="1366" interp="linr"  time="0/1" value="0" leadInLength="0/1"  />
           <InterpolatingParam id="1367" interp="linr"  time="0/1" value="0" leadInLength="0/1"  />
          </VectorParam>
         </Transformer>
         <Parameters>
          <VectorParam id="1368"  name="sourceCrop">
           <InterpolatingParam id="1369" interp="linr"  time="0/1" value="0" leadInLength="0/1"  />
           <InterpolatingParam id="1370" interp="linr"  time="0/1" value="0" leadInLength="0/1"  />
           <InterpolatingParam id="1371" interp="linr"  time="0/1" value="0" leadInLength="0/1"  />
           <InterpolatingParam id="1372" interp="linr"  time="0/1" value="0" leadInLength="0/1"  />
          </VectorParam>
          <VectorParam id="1373"  name="geometryCrop">
           <InterpolatingParam id="1374" interp="linr"  time="-9999999/1" value="0" leadInLength="0/1"  />
           <InterpolatingParam id="1375" interp="linr"  time="-9999999/1" value="0" leadInLength="0/1"  />
           <InterpolatingParam id="1376" interp="linr"  time="-9999999/1" value="0" leadInLength="0/1"  />
           <InterpolatingParam id="1377" interp="linr"  time="-9999999/1" value="0" leadInLength="0/1"  />
          </VectorParam>
          <InterpolatingParam id="1378" interp="linr"  time="-9999999/1" value="1" leadInLength="0/1"  name="opacity"/>
         </Parameters>
         <Effects>
          <GenericEffect id="1379" name = "DropShadow" >
           <Parameters>
           <InterpolatingParam id="1380" interp="linr"  time="0/1" value="315" leadInLength="0/1"   name="angle"/>
           <InterpolatingParam id="1381" interp="linr"  time="0/1" value="2" leadInLength="0/1"   name="blur"/>
           <Parameter id="1382"   name="enabled">
            <Keyframes>
            <Keyframe id="1383"  time="0/1" value="1" leadInLength="0/1"  />
            </Keyframes>
           </Parameter>
           <InterpolatingParam id="1384" interp="linr"  time="0/1" value="4" leadInLength="0/1"   name="offset"/>
           <InterpolatingParam id="1385" interp="linr"  time="0/1" value="0.75" leadInLength="0/1"   name="opacity"/>
           </Parameters>
          </GenericEffect>
         </Effects>
         <Attributes>
          <Attribute id="1386"  name="vectorNode">
           <VectorNode id="1387" kind="TypeWinXML"  >
            <DoubleParameters>
             <InterpolatingParam id="1388" interp="linr"  time="0/1" value="-1" leadInLength="0/1"  name="CutoutPercentage"/>
             <InterpolatingParam id="1389" interp="linr"  time="0/1" value="30" leadInLength="0/1"  name="RoundedRectRadius"/>
             <InterpolatingParam id="1390" interp="linr"  time="0/1" value="5" leadInLength="0/1"  name="Style"/>
             <InterpolatingParam id="1391" interp="linr"  time="0/1" value="0" leadInLength="0/1"  name="borderColorBlue"/>
             <InterpolatingParam id="1392" interp="linr"  time="0/1" value="0" leadInLength="0/1"  name="borderColorGreen"/>
             <InterpolatingParam id="1393" interp="linr"  time="0/1" value="0" leadInLength="0/1"  name="borderColorRed"/>
             <InterpolatingParam id="1394" interp="linr"  time="0/1" value="1" leadInLength="0/1"  name="borderState"/>
             <InterpolatingParam id="1395" interp="linr"  time="0/1" value="5" leadInLength="0/1"  name="borderWidth"/>
             <InterpolatingParam id="1396" interp="linr"  time="0/1" value="0" leadInLength="0/1"  name="dimensionTime"/>
             <InterpolatingParam id="1397" interp="linr"  time="0/1" value="0" leadInLength="0/1"  name="fillColorBlue"/>
             <InterpolatingParam id="1398" interp="linr"  time="0/1" value="0" leadInLength="0/1"  name="fillColorGreen"/>
             <InterpolatingParam id="1399" interp="linr"  time="0/1" value="0" leadInLength="0/1"  name="fillColorRed"/>
             <InterpolatingParam id="1400" interp="linr"  time="0/1" value="1" leadInLength="0/1"  name="fillState"/>
             <InterpolatingParam id="1401" interp="linr"  time="0/1" value="0" leadInLength="0/1"  name="flipOnXAxis"/>
             <InterpolatingParam id="1402" interp="linr"  time="0/1" value="0" leadInLength="0/1"  name="flipOnYAxis"/>
             <InterpolatingParam id="1403" interp="linr"  time="0/1" value="237.38562091503266" leadInLength="0/1"  name="height"/>
             <InterpolatingParam id="1404" interp="linr"  time="0/1" value="0" leadInLength="0/1"  name="textDropShadow"/>
             <InterpolatingParam id="1405" interp="linr"  time="0/1" value="0" leadInLength="0/1"  name="textIgnoresOpacity"/>
             <InterpolatingParam id="1406" interp="linr"  time="0/1" value="0.86784140969162993" leadInLength="0/1"  name="textRectHeight"/>
             <InterpolatingParam id="1407" interp="linr"  time="0/1" value="0.90196078431372551" leadInLength="0/1"  name="textRectWidth"/>
             <InterpolatingParam id="1408" interp="linr"  time="0/1" value="0.049019607843137254" leadInLength="0/1"  name="textRectX"/>
             <InterpolatingParam id="1409" interp="linr"  time="0/1" value="0.066079295154185022" leadInLength="0/1"  name="textRectY"/>
             <InterpolatingParam id="1410" interp="linr"  time="0/1" value="0" leadInLength="0/1"  name="textVerticalAlign"/>
             <InterpolatingParam id="1411" interp="linr"  time="0/1" value="320" leadInLength="0/1"  name="width"/>
            </DoubleParameters>
            <StringParameters>
             <Parameter id="1412"  name="VectorPath">
              <Keyframes>
              <Keyframe id="1413"  time="0/1" value="M10,0h286c5.521,0,10,4.477,10,10v207c0,5.521-4.479,10-10,10H10c-5.523,0-10-4.479-10-10V10&#xa;&#x9;C0,4.477,4.477,0,10,0z" leadInLength="0/1"  />
              </Keyframes>
             </Parameter>
             <Parameter id="1414"  name="filename">
              <Keyframes>
              <Keyframe id="1415"  time="0/1" value="C:\Program Files (x86)\TechSmith\Camtasia Studio 8\Media\Studio\Callouts\roundedrectangle.xml" leadInLength="0/1"  />
              </Keyframes>
             </Parameter>
             <Parameter id="1416"  name="name">
              <Keyframes>
              <Keyframe id="1417"  time="0/1" value="Filled Rounded Rectangle" leadInLength="0/1"  />
              </Keyframes>
             </Parameter>
             <Parameter id="1418"  name="text">
              <Keyframes>
              <Keyframe id="1419"  time="0/1" value="{\rtf1\ansi\ansicpg1252\deff0\deflang1033{\fonttbl{\f0\fswiss\fprq2\fcharset0 Arial;}}&#xD;&#xa;{\colortbl ;\red255\green255\blue255;}&#xD;&#xa;\viewkind4\uc1\pard\qc\cf1\f0\fs96 2\&apos;ba composto:\par&#xD;&#xa;Sulfato F\&apos;e9rrico\par&#xD;&#xa;}&#xD;&#xa;" leadInLength="0/1"  />
              </Keyframes>
             </Parameter>
             <Parameter id="1420"  name="xmlContent">
              <Keyframes>
              <Keyframe id="1421"  time="0/1" value="﻿&lt;?xml version=&quot;1.0&quot;?&gt;&#xa;&#xa;&lt;Overlay version=&quot;1.0.1&quot;&gt;&#xa;&#xa;&lt;Overlay_Filename&gt;roundedrectangle.png&lt;/Overlay_Filename&gt;&#xa;&lt;Overlay_Name&gt;Filled Rounded Rectangle&lt;/Overlay_Name&gt;&#xa;&lt;Text_Top&gt;15&lt;/Text_Top&gt;&#xa;&lt;Text_Left&gt;15&lt;/Text_Left&gt;&#xa;&lt;Text_Bottom&gt;15&lt;/Text_Bottom&gt;&#xa;&lt;Text_Right&gt;15&lt;/Text_Right&gt;&#xa;&lt;Fill_Color&gt;1&lt;/Fill_Color&gt;&#xa;&lt;Border_Color&gt;1&lt;/Border_Color&gt;&#xa;&lt;Initial_Fill_Color&gt;0xffe05f00&lt;/Initial_Fill_Color&gt;&#xa;&lt;Initial_Border_Color&gt;0xffd7d7d7&lt;/Initial_Border_Color&gt;&#xa;&lt;VectorProps&gt;&#xa;&lt;figure&gt;&#xa;&lt;svg&gt;M10,0h286c5.521,0,10,4.477,10,10v207c0,5.521-4.479,10-10,10H10c-5.523,0-10-4.479-10-10V10&#xa;&#x9;C0,4.477,4.477,0,10,0z&lt;/svg&gt;&#xa;&lt;/figure&gt;&#xa;&lt;borderWidth&gt;5.00&lt;/borderWidth&gt;&#xa;&lt;seamY&gt;-1&lt;/seamY&gt;&#xa;&lt;roundedRectRadius&gt;30&lt;/roundedRectRadius&gt;&#xa;&lt;shapeWidth&gt;306&lt;/shapeWidth&gt;&#xa;&lt;shapeHeight&gt;227&lt;/shapeHeight&gt;&#xa;&lt;/VectorProps&gt;&#xa;&lt;Style&gt;5&lt;/Style&gt;&#xa;&lt;/Overlay&gt;" leadInLength="0/1"  />
              </Keyframes>
             </Parameter>
            </StringParameters>
           </VectorNode>
          </Attribute>
         </Attributes>
         <MetaData>
          <entry key="WinSubProjectDisplayName" val=""/>
         </MetaData>
         <LeftEdgeMods length="30/1" groupName="OpacityFade">
          <EdgeMod parameter="1378">
           <FadeInFunc id="1117"  />
          </EdgeMod>
         </LeftEdgeMods>
         <RightEdgeMods length="30/1" groupName="OpacityFade">
          <EdgeMod parameter="1378">
           <FadeOutFunc id="1195"  />
          </EdgeMod>
         </RightEdgeMods>
         <ExtraData>
          <Entry key="ZoomPanBin">
           <ZoomPanBin id="1422"  >
            <ZoomPanKeyframes>
             <ZoomPanKeyframe id="1423" timeRangeEnd="-9999999/1" timeRangeDuration="0/1" interpolaterName="linr"  />
            </ZoomPanKeyframes>
           </ZoomPanBin>
          </Entry>
         </ExtraData>
        </Callout>
        <StitchedMedia id="1424" start="4921" duration="55" scalar="1/1" mediaStart="0/1" mediaDuration="55/1" minMediaStart="0/1" >
         <Transformer>
          <VectorParam id="1425"  name="translation">
           <InterpolatingParam id="1426" interp="linr"  time="-9999999/1" value="-10.030959752644151" leadInLength="0/1"  />
           <InterpolatingParam id="1427" interp="linr"  time="-9999999/1" value="-8.8006935072826309e-011" leadInLength="0/1"  />
           <InterpolatingParam id="1428" interp="linr"  time="-9999999/1" value="0" leadInLength="0/1"  />
          </VectorParam>
          <VectorParam id="1429"  name="rotation">
           <InterpolatingParam id="1430" interp="linr"  time="-9999999/1" value="0" leadInLength="0/1"  />
           <InterpolatingParam id="1431" interp="linr"  time="-9999999/1" value="0" leadInLength="0/1"  />
           <InterpolatingParam id="1432" interp="linr"  time="-9999999/1" value="0" leadInLength="0/1"  />
          </VectorParam>
          <VectorParam id="1433"  name="shear">
           <InterpolatingParam id="1434" interp="linr"  time="-9999999/1" value="0" leadInLength="0/1"  />
           <InterpolatingParam id="1435" interp="linr"  time="-9999999/1" value="0" leadInLength="0/1"  />
           <InterpolatingParam id="1436" interp="linr"  time="-9999999/1" value="0" leadInLength="0/1"  />
          </VectorParam>
          <VectorParam id="1437"  name="scale">
           <InterpolatingParam id="1438" interp="linr"  time="-9999999/1" value="2.2602026456496724" leadInLength="0/1"  />
           <InterpolatingParam id="1439" interp="linr"  time="-9999999/1" value="1.1249999999998588" leadInLength="0/1"  />
           <InterpolatingParam id="1440" interp="linr"  time="-9999999/1" value="1" leadInLength="0/1"  />
          </VectorParam>
          <VectorParam id="1441"  name="anchor">
           <InterpolatingParam id="1442" interp="linr"  time="0/1" value="0" leadInLength="0/1"  />
           <InterpolatingParam id="1443" interp="linr"  time="0/1" value="0" leadInLength="0/1"  />
           <InterpolatingParam id="1444" interp="linr"  time="0/1" value="0" leadInLength="0/1"  />
          </VectorParam>
         </Transformer>
         <Parameters>
          <VectorParam id="1445"  name="sourceCrop">
           <InterpolatingParam id="1446" interp="linr"  time="0/1" value="0" leadInLength="0/1"  />
           <InterpolatingParam id="1447" interp="linr"  time="0/1" value="0" leadInLength="0/1"  />
           <InterpolatingParam id="1448" interp="linr"  time="0/1" value="0" leadInLength="0/1"  />
           <InterpolatingParam id="1449" interp="linr"  time="0/1" value="0" leadInLength="0/1"  />
          </VectorParam>
          <VectorParam id="1450"  name="geometryCrop">
           <InterpolatingParam id="1451" interp="linr"  time="-9999999/1" value="0" leadInLength="0/1"  />
           <InterpolatingParam id="1452" interp="linr"  time="-9999999/1" value="0" leadInLength="0/1"  />
           <InterpolatingParam id="1453" interp="linr"  time="-9999999/1" value="0" leadInLength="0/1"  />
           <InterpolatingParam id="1454" interp="linr"  time="-9999999/1" value="0" leadInLength="0/1"  />
          </VectorParam>
          <InterpolatingParam id="1455" interp="linr"  time="-9999999/1" value="1" leadInLength="0/1"  name="opacity"/>
          <InterpolatingParam id="1456" interp="linr"  time="0/1" value="1" leadInLength="0/1"  name="cursorOpacity"/>
          <InterpolatingParam id="1457" interp="linr"  time="0/1" value="1" leadInLength="0/1"  name="cursorScale"/>
          <InterpolatingParam id="1458" interp="linr"  time="0/1" value="1" leadInLength="0/1"  name="volume"/>
          <Parameter id="1459"  name="captions"/>
         </Parameters>
         <Attributes>
          <Attribute id="1460" value="" name="ident"/>
          <Attribute id="1461" value="0" name="mixToMono"/>
         </Attributes>
         <MetaData>
          <entry key="WinSubProjectDisplayName" val=""/>
         </MetaData>
         <ExtraData>
          <Entry key="ZoomPanBin">
           <ZoomPanBin id="1462"  >
            <ZoomPanKeyframes>
             <ZoomPanKeyframe id="1463" timeRangeEnd="-9999999/1" timeRangeDuration="0/1" interpolaterName="linr"  />
            </ZoomPanKeyframes>
           </ZoomPanBin>
          </Entry>
          <Entry key="CursorEffectBin">
           <CursorEffectBin id="1464"  >
            <CursorEffectKeyframes>
            </CursorEffectKeyframes>
           </CursorEffectBin>
          </Entry>
         </ExtraData>
         <GenericTrack id="1465"  >
          <Attributes>
           <Attribute id="1466" value="" name="ident"/>
           <Attribute id="1467" value="0" name="audioMuted"/>
           <Attribute id="1468" value="0" name="videoHidden"/>
          </Attributes>
          <MetaData>
           <entry key="IsLocked" val="False"/>
           <entry key="WinTrackHeight" val="0"/>
          </MetaData>
          <Medias>
           <UnifiedMedia id="1469"  >
            <AMFile id="1470" start="0" duration="56" scalar="1/1" mediaStart="0/1" mediaDuration="56/1" trackNumber="1" src="32" channelNumber="0,1" >
             <Parameters>
              <InterpolatingParam id="1471" interp="linr"  time="0/1" value="1" leadInLength="0/1"  name="volume"/>
              <Parameter id="1472"  name="captions"/>
             </Parameters>
             <Attributes>
              <Attribute id="1473" value="" name="ident"/>
              <Attribute id="1474" value="48000" name="sampleRate"/>
              <Attribute id="1475" value="16" name="bitDepth"/>
              <Attribute id="1476" value="1" name="gain"/>
              <Attribute id="1477" value="0" name="mixToMono"/>
             </Attributes>
            </AMFile>
            <VMFile id="1478" start="0" duration="56" scalar="1/1" mediaStart="0/1" mediaDuration="56/1" trackNumber="0" src="32" >
             <Transformer>
              <VectorParam id="1479"  name="translation">
               <InterpolatingParam id="1480" interp="linr"  time="-9999999/1" value="0" leadInLength="0/1"  />
               <InterpolatingParam id="1481" interp="linr"  time="-9999999/1" value="0" leadInLength="0/1"  />
               <InterpolatingParam id="1482" interp="linr"  time="-9999999/1" value="0" leadInLength="0/1"  />
              </VectorParam>
              <VectorParam id="1483"  name="rotation">
               <InterpolatingParam id="1484" interp="linr"  time="-9999999/1" value="0" leadInLength="0/1"  />
               <InterpolatingParam id="1485" interp="linr"  time="-9999999/1" value="0" leadInLength="0/1"  />
               <InterpolatingParam id="1486" interp="linr"  time="-9999999/1" value="0" leadInLength="0/1"  />
              </VectorParam>
              <VectorParam id="1487"  name="shear">
               <InterpolatingParam id="1488" interp="linr"  time="-9999999/1" value="0" leadInLength="0/1"  />
               <InterpolatingParam id="1489" interp="linr"  time="-9999999/1" value="0" leadInLength="0/1"  />
               <InterpolatingParam id="1490" interp="linr"  time="-9999999/1" value="0" leadInLength="0/1"  />
              </VectorParam>
              <VectorParam id="1491"  name="scale">
               <InterpolatingParam id="1492" interp="linr"  time="-9999999/1" value="1" leadInLength="0/1"  />
               <InterpolatingParam id="1493" interp="linr"  time="-9999999/1" value="1" leadInLength="0/1"  />
               <InterpolatingParam id="1494" interp="linr"  time="-9999999/1" value="1" leadInLength="0/1"  />
              </VectorParam>
              <VectorParam id="1495"  name="anchor">
               <InterpolatingParam id="1496" interp="linr"  time="0/1" value="0" leadInLength="0/1"  />
               <InterpolatingParam id="1497" interp="linr"  time="0/1" value="0" leadInLength="0/1"  />
               <InterpolatingParam id="1498" interp="linr"  time="0/1" value="0" leadInLength="0/1"  />
              </VectorParam>
             </Transformer>
             <Parameters>
              <VectorParam id="1499"  name="sourceCrop">
               <InterpolatingParam id="1500" interp="linr"  time="0/1" value="0" leadInLength="0/1"  />
               <InterpolatingParam id="1501" interp="linr"  time="0/1" value="0" leadInLength="0/1"  />
               <InterpolatingParam id="1502" interp="linr"  time="0/1" value="0" leadInLength="0/1"  />
               <InterpolatingParam id="1503" interp="linr"  time="0/1" value="0" leadInLength="0/1"  />
              </VectorParam>
              <VectorParam id="1504"  name="geometryCrop">
               <InterpolatingParam id="1505" interp="linr"  time="-9999999/1" value="0" leadInLength="0/1"  />
               <InterpolatingParam id="1506" interp="linr"  time="-9999999/1" value="0" leadInLength="0/1"  />
               <InterpolatingParam id="1507" interp="linr"  time="-9999999/1" value="0" leadInLength="0/1"  />
               <InterpolatingParam id="1508" interp="linr"  time="-9999999/1" value="0" leadInLength="0/1"  />
              </VectorParam>
              <InterpolatingParam id="1509" interp="linr"  time="-9999999/1" value="1" leadInLength="0/1"  name="opacity"/>
             </Parameters>
             <Attributes>
              <Attribute id="1510" value="" name="ident"/>
             </Attributes>
             <ExtraData>
              <Entry key="ZoomPanBin">
               <ZoomPanBin id="1511"  >
                <ZoomPanKeyframes>
                 <ZoomPanKeyframe id="1512" timeRangeEnd="-9999999/1" timeRangeDuration="0/1" interpolaterName="linr"  />
                </ZoomPanKeyframes>
               </ZoomPanBin>
              </Entry>
             </ExtraData>
            </VMFile>
            <MetaData>
             <entry key="WinSubProjectDisplayName" val=""/>
            </MetaData>
           </UnifiedMedia>
           <UnifiedMedia id="1513"  >
            <AMFile id="1514" start="56" duration="412" scalar="1/1" mediaStart="1235/1" mediaDuration="412/1" trackNumber="1" src="32" channelNumber="0,1" >
             <Parameters>
              <InterpolatingParam id="1515" interp="linr"  time="0/1" value="1" leadInLength="0/1"  name="volume"/>
              <Parameter id="1516"  name="captions"/>
             </Parameters>
             <Attributes>
              <Attribute id="1517" value="" name="ident"/>
              <Attribute id="1518" value="48000" name="sampleRate"/>
              <Attribute id="1519" value="16" name="bitDepth"/>
              <Attribute id="1520" value="1" name="gain"/>
              <Attribute id="1521" value="0" name="mixToMono"/>
             </Attributes>
            </AMFile>
            <VMFile id="1522" start="56" duration="412" scalar="1/1" mediaStart="1235/1" mediaDuration="412/1" trackNumber="0" src="32" >
             <Transformer>
              <VectorParam id="1523"  name="translation">
               <InterpolatingParam id="1524" interp="linr"  time="-9999999/1" value="0" leadInLength="0/1"  />
               <InterpolatingParam id="1525" interp="linr"  time="-9999999/1" value="0" leadInLength="0/1"  />
               <InterpolatingParam id="1526" interp="linr"  time="-9999999/1" value="0" leadInLength="0/1"  />
              </VectorParam>
              <VectorParam id="1527"  name="rotation">
               <InterpolatingParam id="1528" interp="linr"  time="-9999999/1" value="0" leadInLength="0/1"  />
               <InterpolatingParam id="1529" interp="linr"  time="-9999999/1" value="0" leadInLength="0/1"  />
               <InterpolatingParam id="1530" interp="linr"  time="-9999999/1" value="0" leadInLength="0/1"  />
              </VectorParam>
              <VectorParam id="1531"  name="shear">
               <InterpolatingParam id="1532" interp="linr"  time="-9999999/1" value="0" leadInLength="0/1"  />
               <InterpolatingParam id="1533" interp="linr"  time="-9999999/1" value="0" leadInLength="0/1"  />
               <InterpolatingParam id="1534" interp="linr"  time="-9999999/1" value="0" leadInLength="0/1"  />
              </VectorParam>
              <VectorParam id="1535"  name="scale">
               <InterpolatingParam id="1536" interp="linr"  time="-9999999/1" value="1" leadInLength="0/1"  />
               <InterpolatingParam id="1537" interp="linr"  time="-9999999/1" value="1" leadInLength="0/1"  />
               <InterpolatingParam id="1538" interp="linr"  time="-9999999/1" value="1" leadInLength="0/1"  />
              </VectorParam>
              <VectorParam id="1539"  name="anchor">
               <InterpolatingParam id="1540" interp="linr"  time="0/1" value="0" leadInLength="0/1"  />
               <InterpolatingParam id="1541" interp="linr"  time="0/1" value="0" leadInLength="0/1"  />
               <InterpolatingParam id="1542" interp="linr"  time="0/1" value="0" leadInLength="0/1"  />
              </VectorParam>
             </Transformer>
             <Parameters>
              <VectorParam id="1543"  name="sourceCrop">
               <InterpolatingParam id="1544" interp="linr"  time="0/1" value="0" leadInLength="0/1"  />
               <InterpolatingParam id="1545" interp="linr"  time="0/1" value="0" leadInLength="0/1"  />
               <InterpolatingParam id="1546" interp="linr"  time="0/1" value="0" leadInLength="0/1"  />
               <InterpolatingParam id="1547" interp="linr"  time="0/1" value="0" leadInLength="0/1"  />
              </VectorParam>
              <VectorParam id="1548"  name="geometryCrop">
               <InterpolatingParam id="1549" interp="linr"  time="-9999999/1" value="0" leadInLength="0/1"  />
               <InterpolatingParam id="1550" interp="linr"  time="-9999999/1" value="0" leadInLength="0/1"  />
               <InterpolatingParam id="1551" interp="linr"  time="-9999999/1" value="0" leadInLength="0/1"  />
               <InterpolatingParam id="1552" interp="linr"  time="-9999999/1" value="0" leadInLength="0/1"  />
              </VectorParam>
              <InterpolatingParam id="1553" interp="linr"  time="-9999999/1" value="1" leadInLength="0/1"  name="opacity"/>
             </Parameters>
             <Attributes>
              <Attribute id="1554" value="" name="ident"/>
             </Attributes>
             <ExtraData>
              <Entry key="ZoomPanBin">
               <ZoomPanBin id="1555"  >
                <ZoomPanKeyframes>
                 <ZoomPanKeyframe id="1556" timeRangeEnd="-9999999/1" timeRangeDuration="0/1" interpolaterName="linr"  />
                </ZoomPanKeyframes>
               </ZoomPanBin>
              </Entry>
             </ExtraData>
            </VMFile>
            <MetaData>
             <entry key="WinSubProjectDisplayName" val=""/>
            </MetaData>
           </UnifiedMedia>
          </Medias>
         </GenericTrack>
        </StitchedMedia>
        <StitchedMedia id="1557" start="4976" duration="284" scalar="1/1" mediaStart="55/1" mediaDuration="284/1" minMediaStart="0/1" >
         <Transformer>
          <VectorParam id="1558"  name="translation">
           <InterpolatingParam id="1559" interp="linr"  time="-9999999/1" value="-10.030959752665979" leadInLength="0/1"  />
           <InterpolatingParam id="1560" interp="linr"  time="-9999999/1" value="-1.7220003201146028e-011" leadInLength="0/1"  />
           <InterpolatingParam id="1561" interp="linr"  time="-9999999/1" value="0" leadInLength="0/1"  />
          </VectorParam>
          <VectorParam id="1562"  name="rotation">
           <InterpolatingParam id="1563" interp="linr"  time="-9999999/1" value="0" leadInLength="0/1"  />
           <InterpolatingParam id="1564" interp="linr"  time="-9999999/1" value="0" leadInLength="0/1"  />
           <InterpolatingParam id="1565" interp="linr"  time="-9999999/1" value="0" leadInLength="0/1"  />
          </VectorParam>
          <VectorParam id="1566"  name="shear">
           <InterpolatingParam id="1567" interp="linr"  time="-9999999/1" value="0" leadInLength="0/1"  />
           <InterpolatingParam id="1568" interp="linr"  time="-9999999/1" value="0" leadInLength="0/1"  />
           <InterpolatingParam id="1569" interp="linr"  time="-9999999/1" value="0" leadInLength="0/1"  />
          </VectorParam>
          <VectorParam id="1570"  name="scale">
           <InterpolatingParam id="1571" interp="linr"  time="-9999999/1" value="2.2602026456491879" leadInLength="0/1"  />
           <InterpolatingParam id="1572" interp="linr"  time="-9999999/1" value="1.1250000000000064" leadInLength="0/1"  />
           <InterpolatingParam id="1573" interp="linr"  time="-9999999/1" value="1" leadInLength="0/1"  />
          </VectorParam>
          <VectorParam id="1574"  name="anchor">
           <InterpolatingParam id="1575" interp="linr"  time="0/1" value="0" leadInLength="0/1"  />
           <InterpolatingParam id="1576" interp="linr"  time="0/1" value="0" leadInLength="0/1"  />
           <InterpolatingParam id="1577" interp="linr"  time="0/1" value="0" leadInLength="0/1"  />
          </VectorParam>
         </Transformer>
         <Parameters>
          <VectorParam id="1578"  name="sourceCrop">
           <InterpolatingParam id="1579" interp="linr"  time="0/1" value="0" leadInLength="0/1"  />
           <InterpolatingParam id="1580" interp="linr"  time="0/1" value="0" leadInLength="0/1"  />
           <InterpolatingParam id="1581" interp="linr"  time="0/1" value="0" leadInLength="0/1"  />
           <InterpolatingParam id="1582" interp="linr"  time="0/1" value="0" leadInLength="0/1"  />
          </VectorParam>
          <VectorParam id="1583"  name="geometryCrop">
           <InterpolatingParam id="1584" interp="linr"  time="-9999999/1" value="0" leadInLength="0/1"  />
           <InterpolatingParam id="1585" interp="linr"  time="-9999999/1" value="0" leadInLength="0/1"  />
           <InterpolatingParam id="1586" interp="linr"  time="-9999999/1" value="0" leadInLength="0/1"  />
           <InterpolatingParam id="1587" interp="linr"  time="-9999999/1" value="0" leadInLength="0/1"  />
          </VectorParam>
          <InterpolatingParam id="1588" interp="linr"  time="-9999999/1" value="1" leadInLength="0/1"  name="opacity"/>
          <InterpolatingParam id="1589" interp="linr"  time="0/1" value="1" leadInLength="0/1"  name="cursorOpacity"/>
          <InterpolatingParam id="1590" interp="linr"  time="0/1" value="1" leadInLength="0/1"  name="cursorScale"/>
          <InterpolatingParam id="1591" interp="linr"  time="0/1" value="0" leadInLength="0/1"  name="volume"/>
          <Parameter id="1592"  name="captions"/>
         </Parameters>
         <Attributes>
          <Attribute id="1593" value="" name="ident"/>
          <Attribute id="1594" value="0" name="mixToMono"/>
         </Attributes>
         <MetaData>
          <entry key="WinSubProjectDisplayName" val=""/>
         </MetaData>
         <ExtraData>
          <Entry key="ZoomPanBin">
           <ZoomPanBin id="1595"  >
            <ZoomPanKeyframes>
             <ZoomPanKeyframe id="1596" timeRangeEnd="-9999999/1" timeRangeDuration="0/1" interpolaterName="linr"  />
            </ZoomPanKeyframes>
           </ZoomPanBin>
          </Entry>
          <Entry key="CursorEffectBin">
           <CursorEffectBin id="1597"  >
            <CursorEffectKeyframes>
            </CursorEffectKeyframes>
           </CursorEffectBin>
          </Entry>
         </ExtraData>
         <GenericTrack id="1598"  >
          <Attributes>
           <Attribute id="1599" value="" name="ident"/>
           <Attribute id="1600" value="0" name="audioMuted"/>
           <Attribute id="1601" value="0" name="videoHidden"/>
          </Attributes>
          <MetaData>
           <entry key="IsLocked" val="False"/>
           <entry key="WinTrackHeight" val="0"/>
          </MetaData>
          <Medias>
           <UnifiedMedia id="1602"  >
            <AMFile id="1603" start="0" duration="56" scalar="1/1" mediaStart="0/1" mediaDuration="56/1" trackNumber="1" src="32" channelNumber="0,1" >
             <Parameters>
              <InterpolatingParam id="1604" interp="linr"  time="0/1" value="1" leadInLength="0/1"  name="volume"/>
              <Parameter id="1605"  name="captions"/>
             </Parameters>
             <Attributes>
              <Attribute id="1606" value="" name="ident"/>
              <Attribute id="1607" value="48000" name="sampleRate"/>
              <Attribute id="1608" value="16" name="bitDepth"/>
              <Attribute id="1609" value="1" name="gain"/>
              <Attribute id="1610" value="0" name="mixToMono"/>
             </Attributes>
            </AMFile>
            <VMFile id="1611" start="0" duration="56" scalar="1/1" mediaStart="0/1" mediaDuration="56/1" trackNumber="0" src="32" >
             <Transformer>
              <VectorParam id="1612"  name="translation">
               <InterpolatingParam id="1613" interp="linr"  time="-9999999/1" value="0" leadInLength="0/1"  />
               <InterpolatingParam id="1614" interp="linr"  time="-9999999/1" value="0" leadInLength="0/1"  />
               <InterpolatingParam id="1615" interp="linr"  time="-9999999/1" value="0" leadInLength="0/1"  />
              </VectorParam>
              <VectorParam id="1616"  name="rotation">
               <InterpolatingParam id="1617" interp="linr"  time="-9999999/1" value="0" leadInLength="0/1"  />
               <InterpolatingParam id="1618" interp="linr"  time="-9999999/1" value="0" leadInLength="0/1"  />
               <InterpolatingParam id="1619" interp="linr"  time="-9999999/1" value="0" leadInLength="0/1"  />
              </VectorParam>
              <VectorParam id="1620"  name="shear">
               <InterpolatingParam id="1621" interp="linr"  time="-9999999/1" value="0" leadInLength="0/1"  />
               <InterpolatingParam id="1622" interp="linr"  time="-9999999/1" value="0" leadInLength="0/1"  />
               <InterpolatingParam id="1623" interp="linr"  time="-9999999/1" value="0" leadInLength="0/1"  />
              </VectorParam>
              <VectorParam id="1624"  name="scale">
               <InterpolatingParam id="1625" interp="linr"  time="-9999999/1" value="1" leadInLength="0/1"  />
               <InterpolatingParam id="1626" interp="linr"  time="-9999999/1" value="1" leadInLength="0/1"  />
               <InterpolatingParam id="1627" interp="linr"  time="-9999999/1" value="1" leadInLength="0/1"  />
              </VectorParam>
              <VectorParam id="1628"  name="anchor">
               <InterpolatingParam id="1629" interp="linr"  time="0/1" value="0" leadInLength="0/1"  />
               <InterpolatingParam id="1630" interp="linr"  time="0/1" value="0" leadInLength="0/1"  />
               <InterpolatingParam id="1631" interp="linr"  time="0/1" value="0" leadInLength="0/1"  />
              </VectorParam>
             </Transformer>
             <Parameters>
              <VectorParam id="1632"  name="sourceCrop">
               <InterpolatingParam id="1633" interp="linr"  time="0/1" value="0" leadInLength="0/1"  />
               <InterpolatingParam id="1634" interp="linr"  time="0/1" value="0" leadInLength="0/1"  />
               <InterpolatingParam id="1635" interp="linr"  time="0/1" value="0" leadInLength="0/1"  />
               <InterpolatingParam id="1636" interp="linr"  time="0/1" value="0" leadInLength="0/1"  />
              </VectorParam>
              <VectorParam id="1637"  name="geometryCrop">
               <InterpolatingParam id="1638" interp="linr"  time="-9999999/1" value="0" leadInLength="0/1"  />
               <InterpolatingParam id="1639" interp="linr"  time="-9999999/1" value="0" leadInLength="0/1"  />
               <InterpolatingParam id="1640" interp="linr"  time="-9999999/1" value="0" leadInLength="0/1"  />
               <InterpolatingParam id="1641" interp="linr"  time="-9999999/1" value="0" leadInLength="0/1"  />
              </VectorParam>
              <InterpolatingParam id="1642" interp="linr"  time="-9999999/1" value="1" leadInLength="0/1"  name="opacity"/>
             </Parameters>
             <Attributes>
              <Attribute id="1643" value="" name="ident"/>
             </Attributes>
             <ExtraData>
              <Entry key="ZoomPanBin">
               <ZoomPanBin id="1644"  >
                <ZoomPanKeyframes>
                 <ZoomPanKeyframe id="1645" timeRangeEnd="-9999999/1" timeRangeDuration="0/1" interpolaterName="linr"  />
                </ZoomPanKeyframes>
               </ZoomPanBin>
              </Entry>
             </ExtraData>
            </VMFile>
            <MetaData>
             <entry key="WinSubProjectDisplayName" val=""/>
            </MetaData>
           </UnifiedMedia>
           <UnifiedMedia id="1646"  >
            <AMFile id="1647" start="56" duration="41" scalar="1/1" mediaStart="1235/1" mediaDuration="41/1" trackNumber="1" src="32" channelNumber="0,1" >
             <Parameters>
              <InterpolatingParam id="1648" interp="linr"  time="0/1" value="1" leadInLength="0/1"  name="volume"/>
              <Parameter id="1649"  name="captions"/>
             </Parameters>
             <Attributes>
              <Attribute id="1650" value="" name="ident"/>
              <Attribute id="1651" value="48000" name="sampleRate"/>
              <Attribute id="1652" value="16" name="bitDepth"/>
              <Attribute id="1653" value="1" name="gain"/>
              <Attribute id="1654" value="0" name="mixToMono"/>
             </Attributes>
            </AMFile>
            <VMFile id="1655" start="56" duration="41" scalar="1/1" mediaStart="1235/1" mediaDuration="41/1" trackNumber="0" src="32" >
             <Transformer>
              <VectorParam id="1656"  name="translation">
               <InterpolatingParam id="1657" interp="linr"  time="-9999999/1" value="0" leadInLength="0/1"  />
               <InterpolatingParam id="1658" interp="linr"  time="-9999999/1" value="0" leadInLength="0/1"  />
               <InterpolatingParam id="1659" interp="linr"  time="-9999999/1" value="0" leadInLength="0/1"  />
              </VectorParam>
              <VectorParam id="1660"  name="rotation">
               <InterpolatingParam id="1661" interp="linr"  time="-9999999/1" value="0" leadInLength="0/1"  />
               <InterpolatingParam id="1662" interp="linr"  time="-9999999/1" value="0" leadInLength="0/1"  />
               <InterpolatingParam id="1663" interp="linr"  time="-9999999/1" value="0" leadInLength="0/1"  />
              </VectorParam>
              <VectorParam id="1664"  name="shear">
               <InterpolatingParam id="1665" interp="linr"  time="-9999999/1" value="0" leadInLength="0/1"  />
               <InterpolatingParam id="1666" interp="linr"  time="-9999999/1" value="0" leadInLength="0/1"  />
               <InterpolatingParam id="1667" interp="linr"  time="-9999999/1" value="0" leadInLength="0/1"  />
              </VectorParam>
              <VectorParam id="1668"  name="scale">
               <InterpolatingParam id="1669" interp="linr"  time="-9999999/1" value="1" leadInLength="0/1"  />
               <InterpolatingParam id="1670" interp="linr"  time="-9999999/1" value="1" leadInLength="0/1"  />
               <InterpolatingParam id="1671" interp="linr"  time="-9999999/1" value="1" leadInLength="0/1"  />
              </VectorParam>
              <VectorParam id="1672"  name="anchor">
               <InterpolatingParam id="1673" interp="linr"  time="0/1" value="0" leadInLength="0/1"  />
               <InterpolatingParam id="1674" interp="linr"  time="0/1" value="0" leadInLength="0/1"  />
               <InterpolatingParam id="1675" interp="linr"  time="0/1" value="0" leadInLength="0/1"  />
              </VectorParam>
             </Transformer>
             <Parameters>
              <VectorParam id="1676"  name="sourceCrop">
               <InterpolatingParam id="1677" interp="linr"  time="0/1" value="0" leadInLength="0/1"  />
               <InterpolatingParam id="1678" interp="linr"  time="0/1" value="0" leadInLength="0/1"  />
               <InterpolatingParam id="1679" interp="linr"  time="0/1" value="0" leadInLength="0/1"  />
               <InterpolatingParam id="1680" interp="linr"  time="0/1" value="0" leadInLength="0/1"  />
              </VectorParam>
              <VectorParam id="1681"  name="geometryCrop">
               <InterpolatingParam id="1682" interp="linr"  time="-9999999/1" value="0" leadInLength="0/1"  />
               <InterpolatingParam id="1683" interp="linr"  time="-9999999/1" value="0" leadInLength="0/1"  />
               <InterpolatingParam id="1684" interp="linr"  time="-9999999/1" value="0" leadInLength="0/1"  />
               <InterpolatingParam id="1685" interp="linr"  time="-9999999/1" value="0" leadInLength="0/1"  />
              </VectorParam>
              <InterpolatingParam id="1686" interp="linr"  time="-9999999/1" value="1" leadInLength="0/1"  name="opacity"/>
             </Parameters>
             <Attributes>
              <Attribute id="1687" value="" name="ident"/>
             </Attributes>
             <ExtraData>
              <Entry key="ZoomPanBin">
               <ZoomPanBin id="1688"  >
                <ZoomPanKeyframes>
                 <ZoomPanKeyframe id="1689" timeRangeEnd="-9999999/1" timeRangeDuration="0/1" interpolaterName="linr"  />
                </ZoomPanKeyframes>
               </ZoomPanBin>
              </Entry>
             </ExtraData>
            </VMFile>
            <MetaData>
             <entry key="WinSubProjectDisplayName" val=""/>
            </MetaData>
           </UnifiedMedia>
           <UnifiedMedia id="1690"  >
            <AMFile id="1691" start="97" duration="272" scalar="1/1" mediaStart="1375/1" mediaDuration="272/1" trackNumber="1" src="32" channelNumber="0,1" >
             <Parameters>
              <InterpolatingParam id="1692" interp="linr"  time="0/1" value="1" leadInLength="0/1"  name="volume"/>
              <Parameter id="1693"  name="captions"/>
             </Parameters>
             <Attributes>
              <Attribute id="1694" value="" name="ident"/>
              <Attribute id="1695" value="48000" name="sampleRate"/>
              <Attribute id="1696" value="16" name="bitDepth"/>
              <Attribute id="1697" value="1" name="gain"/>
              <Attribute id="1698" value="0" name="mixToMono"/>
             </Attributes>
            </AMFile>
            <VMFile id="1699" start="97" duration="272" scalar="1/1" mediaStart="1375/1" mediaDuration="272/1" trackNumber="0" src="32" >
             <Transformer>
              <VectorParam id="1700"  name="translation">
               <InterpolatingParam id="1701" interp="linr"  time="-9999999/1" value="0" leadInLength="0/1"  />
               <InterpolatingParam id="1702" interp="linr"  time="-9999999/1" value="0" leadInLength="0/1"  />
               <InterpolatingParam id="1703" interp="linr"  time="-9999999/1" value="0" leadInLength="0/1"  />
              </VectorParam>
              <VectorParam id="1704"  name="rotation">
               <InterpolatingParam id="1705" interp="linr"  time="-9999999/1" value="0" leadInLength="0/1"  />
               <InterpolatingParam id="1706" interp="linr"  time="-9999999/1" value="0" leadInLength="0/1"  />
               <InterpolatingParam id="1707" interp="linr"  time="-9999999/1" value="0" leadInLength="0/1"  />
              </VectorParam>
              <VectorParam id="1708"  name="shear">
               <InterpolatingParam id="1709" interp="linr"  time="-9999999/1" value="0" leadInLength="0/1"  />
               <InterpolatingParam id="1710" interp="linr"  time="-9999999/1" value="0" leadInLength="0/1"  />
               <InterpolatingParam id="1711" interp="linr"  time="-9999999/1" value="0" leadInLength="0/1"  />
              </VectorParam>
              <VectorParam id="1712"  name="scale">
               <InterpolatingParam id="1713" interp="linr"  time="-9999999/1" value="1" leadInLength="0/1"  />
               <InterpolatingParam id="1714" interp="linr"  time="-9999999/1" value="1" leadInLength="0/1"  />
               <InterpolatingParam id="1715" interp="linr"  time="-9999999/1" value="1" leadInLength="0/1"  />
              </VectorParam>
              <VectorParam id="1716"  name="anchor">
               <InterpolatingParam id="1717" interp="linr"  time="0/1" value="0" leadInLength="0/1"  />
               <InterpolatingParam id="1718" interp="linr"  time="0/1" value="0" leadInLength="0/1"  />
               <InterpolatingParam id="1719" interp="linr"  time="0/1" value="0" leadInLength="0/1"  />
              </VectorParam>
             </Transformer>
             <Parameters>
              <VectorParam id="1720"  name="sourceCrop">
               <InterpolatingParam id="1721" interp="linr"  time="0/1" value="0" leadInLength="0/1"  />
               <InterpolatingParam id="1722" interp="linr"  time="0/1" value="0" leadInLength="0/1"  />
               <InterpolatingParam id="1723" interp="linr"  time="0/1" value="0" leadInLength="0/1"  />
               <InterpolatingParam id="1724" interp="linr"  time="0/1" value="0" leadInLength="0/1"  />
              </VectorParam>
              <VectorParam id="1725"  name="geometryCrop">
               <InterpolatingParam id="1726" interp="linr"  time="-9999999/1" value="0" leadInLength="0/1"  />
               <InterpolatingParam id="1727" interp="linr"  time="-9999999/1" value="0" leadInLength="0/1"  />
               <InterpolatingParam id="1728" interp="linr"  time="-9999999/1" value="0" leadInLength="0/1"  />
               <InterpolatingParam id="1729" interp="linr"  time="-9999999/1" value="0" leadInLength="0/1"  />
              </VectorParam>
              <InterpolatingParam id="1730" interp="linr"  time="-9999999/1" value="1" leadInLength="0/1"  name="opacity"/>
             </Parameters>
             <Attributes>
              <Attribute id="1731" value="" name="ident"/>
             </Attributes>
             <ExtraData>
              <Entry key="ZoomPanBin">
               <ZoomPanBin id="1732"  >
                <ZoomPanKeyframes>
                 <ZoomPanKeyframe id="1733" timeRangeEnd="-9999999/1" timeRangeDuration="0/1" interpolaterName="linr"  />
                </ZoomPanKeyframes>
               </ZoomPanBin>
              </Entry>
             </ExtraData>
            </VMFile>
            <MetaData>
             <entry key="WinSubProjectDisplayName" val=""/>
            </MetaData>
           </UnifiedMedia>
          </Medias>
         </GenericTrack>
        </StitchedMedia>
        <UnifiedMedia id="1734"  >
         <AudioTransition id="1735" start="5260" duration="30" >
          <Parameters>
           <InterpolatingParam id="1736" interp="linr"  time="0/1" value="1" leadInLength="0/1"  name="volume"/>
           <Parameter id="1737"  name="captions"/>
          </Parameters>
          <Effects>
           <GenericEffect id="1738" name = "AudioTransition" >
            <Parameters>
            <Parameter id="1739"   name="audioEdgeModType">
             <Keyframes>
             <Keyframe id="1740"  time="0/1" value="0" leadInLength="0/1"  />
             </Keyframes>
            </Parameter>
            <Parameter id="1741"   name="audioTransitionType">
             <Keyframes>
             <Keyframe id="1742"  time="0/1" value="" leadInLength="0/1"  />
             </Keyframes>
            </Parameter>
            </Parameters>
            <MetaData>
            </MetaData>
           </GenericEffect>
          </Effects>
          <Attributes>
           <Attribute id="1743" value="" name="ident"/>
           <Attribute id="1744" value="0" name="sampleRate"/>
           <Attribute id="1745" value="0" name="bitDepth"/>
           <Attribute id="1746" value="1" name="gain"/>
           <Attribute id="1747" value="0" name="mixToMono"/>
          </Attributes>
         </AudioTransition>
         <ImageTransition id="1748" start="5260" duration="30" >
          <Transformer>
           <VectorParam id="1749"  name="translation">
            <InterpolatingParam id="1750" interp="linr"  time="0/1" value="0" leadInLength="0/1"  />
            <InterpolatingParam id="1751" interp="linr"  time="0/1" value="0" leadInLength="0/1"  />
            <InterpolatingParam id="1752" interp="linr"  time="0/1" value="0" leadInLength="0/1"  />
           </VectorParam>
           <VectorParam id="1753"  name="rotation">
            <InterpolatingParam id="1754" interp="linr"  time="0/1" value="0" leadInLength="0/1"  />
            <InterpolatingParam id="1755" interp="linr"  time="0/1" value="0" leadInLength="0/1"  />
            <InterpolatingParam id="1756" interp="linr"  time="0/1" value="0" leadInLength="0/1"  />
           </VectorParam>
           <VectorParam id="1757"  name="shear">
            <InterpolatingParam id="1758" interp="linr"  time="0/1" value="0" leadInLength="0/1"  />
            <InterpolatingParam id="1759" interp="linr"  time="0/1" value="0" leadInLength="0/1"  />
            <InterpolatingParam id="1760" interp="linr"  time="0/1" value="0" leadInLength="0/1"  />
           </VectorParam>
           <VectorParam id="1761"  name="scale">
            <InterpolatingParam id="1762" interp="linr"  time="0/1" value="1" leadInLength="0/1"  />
            <InterpolatingParam id="1763" interp="linr"  time="0/1" value="1" leadInLength="0/1"  />
            <InterpolatingParam id="1764" interp="linr"  time="0/1" value="1" leadInLength="0/1"  />
           </VectorParam>
           <VectorParam id="1765"  name="anchor">
            <InterpolatingParam id="1766" interp="linr"  time="0/1" value="0" leadInLength="0/1"  />
            <InterpolatingParam id="1767" interp="linr"  time="0/1" value="0" leadInLength="0/1"  />
            <InterpolatingParam id="1768" interp="linr"  time="0/1" value="0" leadInLength="0/1"  />
           </VectorParam>
          </Transformer>
          <Parameters>
           <VectorParam id="1769"  name="sourceCrop">
            <InterpolatingParam id="1770" interp="linr"  time="0/1" value="0" leadInLength="0/1"  />
            <InterpolatingParam id="1771" interp="linr"  time="0/1" value="0" leadInLength="0/1"  />
            <InterpolatingParam id="1772" interp="linr"  time="0/1" value="0" leadInLength="0/1"  />
            <InterpolatingParam id="1773" interp="linr"  time="0/1" value="0" leadInLength="0/1"  />
           </VectorParam>
           <VectorParam id="1774"  name="geometryCrop">
            <InterpolatingParam id="1775" interp="linr"  time="0/1" value="0" leadInLength="0/1"  />
            <InterpolatingParam id="1776" interp="linr"  time="0/1" value="0" leadInLength="0/1"  />
            <InterpolatingParam id="1777" interp="linr"  time="0/1" value="0" leadInLength="0/1"  />
            <InterpolatingParam id="1778" interp="linr"  time="0/1" value="0" leadInLength="0/1"  />
           </VectorParam>
           <InterpolatingParam id="1779" interp="linr"  time="0/1" value="1" leadInLength="0/1"  name="opacity"/>
          </Parameters>
          <Effects>
           <GenericEffect id="1780" name = "VisualTransition" >
            <Parameters>
            <InterpolatingParam id="1781" interp="linr"  time="0/1" value="0.5" leadInLength="0/1"   name="leftFramePercentage"/>
            <InterpolatingParam id="1782" interp="linr"  time="0/1" value="0.5" leadInLength="0/1"   name="rightFramePercentage"/>
            <Parameter id="1783"   name="visualEdgeModType">
             <Keyframes>
             <Keyframe id="1784"  time="0/1" value="2" leadInLength="0/1"  />
             </Keyframes>
            </Parameter>
            <Parameter id="1785"   name="visualTransitionType">
             <Keyframes>
             <Keyframe id="1786"  time="0/1" value="FadeThruBlack" leadInLength="0/1"  />
             </Keyframes>
            </Parameter>
            </Parameters>
            <MetaData>
            </MetaData>
           </GenericEffect>
          </Effects>
          <Attributes>
           <Attribute id="1787" value="" name="ident"/>
          </Attributes>
          <ExtraData>
           <Entry key="ZoomPanBin">
            <ZoomPanBin id="1788"  >
             <ZoomPanKeyframes>
             </ZoomPanKeyframes>
            </ZoomPanBin>
           </Entry>
          </ExtraData>
         </ImageTransition>
         <MetaData>
          <entry key="WinSubProjectDisplayName" val=""/>
         </MetaData>
        </UnifiedMedia>
        <Callout id="1789" start="5290" duration="97" scalar="1/1" mediaStart="0/1" mediaDuration="97/1" >
         <Transformer>
          <VectorParam id="1790"  name="translation">
           <InterpolatingParam id="1791" interp="linr"  time="-9999999/1" value="-1.1145510834964441" leadInLength="0/1"  />
           <InterpolatingParam id="1792" interp="linr"  time="-9999999/1" value="186.69418684548978" leadInLength="0/1"  />
           <InterpolatingParam id="1793" interp="linr"  time="-9999999/1" value="0" leadInLength="0/1"  />
          </VectorParam>
          <VectorParam id="1794"  name="rotation">
           <InterpolatingParam id="1795" interp="linr"  time="-9999999/1" value="0" leadInLength="0/1"  />
           <InterpolatingParam id="1796" interp="linr"  time="-9999999/1" value="0" leadInLength="0/1"  />
           <InterpolatingParam id="1797" interp="linr"  time="-9999999/1" value="0" leadInLength="0/1"  />
          </VectorParam>
          <VectorParam id="1798"  name="shear">
           <InterpolatingParam id="1799" interp="linr"  time="-9999999/1" value="0" leadInLength="0/1"  />
           <InterpolatingParam id="1800" interp="linr"  time="-9999999/1" value="0" leadInLength="0/1"  />
           <InterpolatingParam id="1801" interp="linr"  time="-9999999/1" value="0" leadInLength="0/1"  />
          </VectorParam>
          <VectorParam id="1802"  name="scale">
           <InterpolatingParam id="1803" interp="linr"  time="-9999999/1" value="1.8010835913298635" leadInLength="0/1"  />
           <InterpolatingParam id="1804" interp="linr"  time="-9999999/1" value="1.4601205672770579" leadInLength="0/1"  />
           <InterpolatingParam id="1805" interp="linr"  time="-9999999/1" value="1" leadInLength="0/1"  />
          </VectorParam>
          <VectorParam id="1806"  name="anchor">
           <InterpolatingParam id="1807" interp="linr"  time="0/1" value="0" leadInLength="0/1"  />
           <InterpolatingParam id="1808" interp="linr"  time="0/1" value="0" leadInLength="0/1"  />
           <InterpolatingParam id="1809" interp="linr"  time="0/1" value="0" leadInLength="0/1"  />
          </VectorParam>
         </Transformer>
         <Parameters>
          <VectorParam id="1810"  name="sourceCrop">
           <InterpolatingParam id="1811" interp="linr"  time="0/1" value="0" leadInLength="0/1"  />
           <InterpolatingParam id="1812" interp="linr"  time="0/1" value="0" leadInLength="0/1"  />
           <InterpolatingParam id="1813" interp="linr"  time="0/1" value="0" leadInLength="0/1"  />
           <InterpolatingParam id="1814" interp="linr"  time="0/1" value="0" leadInLength="0/1"  />
          </VectorParam>
          <VectorParam id="1815"  name="geometryCrop">
           <InterpolatingParam id="1816" interp="linr"  time="-9999999/1" value="0" leadInLength="0/1"  />
           <InterpolatingParam id="1817" interp="linr"  time="-9999999/1" value="0" leadInLength="0/1"  />
           <InterpolatingParam id="1818" interp="linr"  time="-9999999/1" value="0" leadInLength="0/1"  />
           <InterpolatingParam id="1819" interp="linr"  time="-9999999/1" value="0" leadInLength="0/1"  />
          </VectorParam>
          <InterpolatingParam id="1820" interp="linr"  time="-9999999/1" value="1" leadInLength="0/1"  name="opacity"/>
         </Parameters>
         <Effects>
          <GenericEffect id="1821" name = "DropShadow" >
           <Parameters>
           <InterpolatingParam id="1822" interp="linr"  time="0/1" value="315" leadInLength="0/1"   name="angle"/>
           <InterpolatingParam id="1823" interp="linr"  time="0/1" value="2" leadInLength="0/1"   name="blur"/>
           <Parameter id="1824"   name="enabled">
            <Keyframes>
            <Keyframe id="1825"  time="0/1" value="1" leadInLength="0/1"  />
            </Keyframes>
           </Parameter>
           <InterpolatingParam id="1826" interp="linr"  time="0/1" value="4" leadInLength="0/1"   name="offset"/>
           <InterpolatingParam id="1827" interp="linr"  time="0/1" value="0.75" leadInLength="0/1"   name="opacity"/>
           </Parameters>
          </GenericEffect>
         </Effects>
         <Attributes>
          <Attribute id="1828"  name="vectorNode">
           <VectorNode id="1829" kind="TypeWinXML"  >
            <DoubleParameters>
             <InterpolatingParam id="1830" interp="linr"  time="0/1" value="-1" leadInLength="0/1"  name="CutoutPercentage"/>
             <InterpolatingParam id="1831" interp="linr"  time="0/1" value="30" leadInLength="0/1"  name="RoundedRectRadius"/>
             <InterpolatingParam id="1832" interp="linr"  time="0/1" value="5" leadInLength="0/1"  name="Style"/>
             <InterpolatingParam id="1833" interp="linr"  time="0/1" value="0" leadInLength="0/1"  name="borderColorBlue"/>
             <InterpolatingParam id="1834" interp="linr"  time="0/1" value="0" leadInLength="0/1"  name="borderColorGreen"/>
             <InterpolatingParam id="1835" interp="linr"  time="0/1" value="0" leadInLength="0/1"  name="borderColorRed"/>
             <InterpolatingParam id="1836" interp="linr"  time="0/1" value="1" leadInLength="0/1"  name="borderState"/>
             <InterpolatingParam id="1837" interp="linr"  time="0/1" value="5" leadInLength="0/1"  name="borderWidth"/>
             <InterpolatingParam id="1838" interp="linr"  time="0/1" value="0" leadInLength="0/1"  name="dimensionTime"/>
             <InterpolatingParam id="1839" interp="linr"  time="0/1" value="0" leadInLength="0/1"  name="fillColorBlue"/>
             <InterpolatingParam id="1840" interp="linr"  time="0/1" value="0" leadInLength="0/1"  name="fillColorGreen"/>
             <InterpolatingParam id="1841" interp="linr"  time="0/1" value="0" leadInLength="0/1"  name="fillColorRed"/>
             <InterpolatingParam id="1842" interp="linr"  time="0/1" value="1" leadInLength="0/1"  name="fillState"/>
             <InterpolatingParam id="1843" interp="linr"  time="0/1" value="0" leadInLength="0/1"  name="flipOnXAxis"/>
             <InterpolatingParam id="1844" interp="linr"  time="0/1" value="0" leadInLength="0/1"  name="flipOnYAxis"/>
             <InterpolatingParam id="1845" interp="linr"  time="0/1" value="237.38562091503266" leadInLength="0/1"  name="height"/>
             <InterpolatingParam id="1846" interp="linr"  time="0/1" value="0" leadInLength="0/1"  name="textDropShadow"/>
             <InterpolatingParam id="1847" interp="linr"  time="0/1" value="0" leadInLength="0/1"  name="textIgnoresOpacity"/>
             <InterpolatingParam id="1848" interp="linr"  time="0/1" value="0.86784140969162993" leadInLength="0/1"  name="textRectHeight"/>
             <InterpolatingParam id="1849" interp="linr"  time="0/1" value="0.90196078431372551" leadInLength="0/1"  name="textRectWidth"/>
             <InterpolatingParam id="1850" interp="linr"  time="0/1" value="0.049019607843137254" leadInLength="0/1"  name="textRectX"/>
             <InterpolatingParam id="1851" interp="linr"  time="0/1" value="0.066079295154185022" leadInLength="0/1"  name="textRectY"/>
             <InterpolatingParam id="1852" interp="linr"  time="0/1" value="0" leadInLength="0/1"  name="textVerticalAlign"/>
             <InterpolatingParam id="1853" interp="linr"  time="0/1" value="320" leadInLength="0/1"  name="width"/>
            </DoubleParameters>
            <StringParameters>
             <Parameter id="1854"  name="VectorPath">
              <Keyframes>
              <Keyframe id="1855"  time="0/1" value="M10,0h286c5.521,0,10,4.477,10,10v207c0,5.521-4.479,10-10,10H10c-5.523,0-10-4.479-10-10V10&#xa;&#x9;C0,4.477,4.477,0,10,0z" leadInLength="0/1"  />
              </Keyframes>
             </Parameter>
             <Parameter id="1856"  name="filename">
              <Keyframes>
              <Keyframe id="1857"  time="0/1" value="C:\Program Files (x86)\TechSmith\Camtasia Studio 8\Media\Studio\Callouts\roundedrectangle.xml" leadInLength="0/1"  />
              </Keyframes>
             </Parameter>
             <Parameter id="1858"  name="name">
              <Keyframes>
              <Keyframe id="1859"  time="0/1" value="Filled Rounded Rectangle" leadInLength="0/1"  />
              </Keyframes>
             </Parameter>
             <Parameter id="1860"  name="text">
              <Keyframes>
              <Keyframe id="1861"  time="0/1" value="{\rtf1\ansi\ansicpg1252\deff0\deflang1033{\fonttbl{\f0\fswiss\fprq2\fcharset0 Arial;}}&#xD;&#xa;{\colortbl ;\red255\green255\blue255;}&#xD;&#xa;\viewkind4\uc1\pard\qc\cf1\f0\fs96 3\&apos;ba composto:\par&#xD;&#xa;Sulfato Ferroso\par&#xD;&#xa;}&#xD;&#xa;" leadInLength="0/1"  />
              </Keyframes>
             </Parameter>
             <Parameter id="1862"  name="xmlContent">
              <Keyframes>
              <Keyframe id="1863"  time="0/1" value="﻿&lt;?xml version=&quot;1.0&quot;?&gt;&#xa;&#xa;&lt;Overlay version=&quot;1.0.1&quot;&gt;&#xa;&#xa;&lt;Overlay_Filename&gt;roundedrectangle.png&lt;/Overlay_Filename&gt;&#xa;&lt;Overlay_Name&gt;Filled Rounded Rectangle&lt;/Overlay_Name&gt;&#xa;&lt;Text_Top&gt;15&lt;/Text_Top&gt;&#xa;&lt;Text_Left&gt;15&lt;/Text_Left&gt;&#xa;&lt;Text_Bottom&gt;15&lt;/Text_Bottom&gt;&#xa;&lt;Text_Right&gt;15&lt;/Text_Right&gt;&#xa;&lt;Fill_Color&gt;1&lt;/Fill_Color&gt;&#xa;&lt;Border_Color&gt;1&lt;/Border_Color&gt;&#xa;&lt;Initial_Fill_Color&gt;0xffe05f00&lt;/Initial_Fill_Color&gt;&#xa;&lt;Initial_Border_Color&gt;0xffd7d7d7&lt;/Initial_Border_Color&gt;&#xa;&lt;VectorProps&gt;&#xa;&lt;figure&gt;&#xa;&lt;svg&gt;M10,0h286c5.521,0,10,4.477,10,10v207c0,5.521-4.479,10-10,10H10c-5.523,0-10-4.479-10-10V10&#xa;&#x9;C0,4.477,4.477,0,10,0z&lt;/svg&gt;&#xa;&lt;/figure&gt;&#xa;&lt;borderWidth&gt;5.00&lt;/borderWidth&gt;&#xa;&lt;seamY&gt;-1&lt;/seamY&gt;&#xa;&lt;roundedRectRadius&gt;30&lt;/roundedRectRadius&gt;&#xa;&lt;shapeWidth&gt;306&lt;/shapeWidth&gt;&#xa;&lt;shapeHeight&gt;227&lt;/shapeHeight&gt;&#xa;&lt;/VectorProps&gt;&#xa;&lt;Style&gt;5&lt;/Style&gt;&#xa;&lt;/Overlay&gt;" leadInLength="0/1"  />
              </Keyframes>
             </Parameter>
            </StringParameters>
           </VectorNode>
          </Attribute>
         </Attributes>
         <MetaData>
          <entry key="WinSubProjectDisplayName" val=""/>
         </MetaData>
         <LeftEdgeMods length="30/1" groupName="OpacityFade">
          <EdgeMod parameter="1820">
           <FadeInFunc id="804"  />
          </EdgeMod>
         </LeftEdgeMods>
         <RightEdgeMods length="30/1" groupName="OpacityFade">
          <EdgeMod parameter="1820">
           <FadeOutFunc id="1864"  />
          </EdgeMod>
         </RightEdgeMods>
         <ExtraData>
          <Entry key="ZoomPanBin">
           <ZoomPanBin id="1865"  >
            <ZoomPanKeyframes>
             <ZoomPanKeyframe id="1866" timeRangeEnd="-9999999/1" timeRangeDuration="0/1" interpolaterName="linr"  />
            </ZoomPanKeyframes>
           </ZoomPanBin>
          </Entry>
         </ExtraData>
        </Callout>
        <UnifiedMedia id="1867"  >
         <AMFile id="1868" start="5387" duration="113" scalar="1/1" mediaStart="0/1" mediaDuration="113/1" trackNumber="1" src="33" channelNumber="0,1" >
          <Parameters>
           <InterpolatingParam id="1869" interp="linr"  time="0/1" value="1" leadInLength="0/1"  name="volume"/>
           <Parameter id="1870"  name="captions"/>
          </Parameters>
          <Attributes>
           <Attribute id="1871" value="" name="ident"/>
           <Attribute id="1872" value="48000" name="sampleRate"/>
           <Attribute id="1873" value="16" name="bitDepth"/>
           <Attribute id="1874" value="1" name="gain"/>
           <Attribute id="1875" value="0" name="mixToMono"/>
          </Attributes>
         </AMFile>
         <VMFile id="1876" start="5387" duration="113" scalar="1/1" mediaStart="0/1" mediaDuration="113/1" trackNumber="0" src="33" >
          <Transformer>
           <VectorParam id="1877"  name="translation">
            <InterpolatingParam id="1878" interp="linr"  time="-9999999/1" value="0" leadInLength="0/1"  />
            <InterpolatingParam id="1879" interp="linr"  time="-9999999/1" value="0" leadInLength="0/1"  />
            <InterpolatingParam id="1880" interp="linr"  time="-9999999/1" value="0" leadInLength="0/1"  />
           </VectorParam>
           <VectorParam id="1881"  name="rotation">
            <InterpolatingParam id="1882" interp="linr"  time="-9999999/1" value="0" leadInLength="0/1"  />
            <InterpolatingParam id="1883" interp="linr"  time="-9999999/1" value="0" leadInLength="0/1"  />
            <InterpolatingParam id="1884" interp="linr"  time="-9999999/1" value="0" leadInLength="0/1"  />
           </VectorParam>
           <VectorParam id="1885"  name="shear">
            <InterpolatingParam id="1886" interp="linr"  time="-9999999/1" value="0" leadInLength="0/1"  />
            <InterpolatingParam id="1887" interp="linr"  time="-9999999/1" value="0" leadInLength="0/1"  />
            <InterpolatingParam id="1888" interp="linr"  time="-9999999/1" value="0" leadInLength="0/1"  />
           </VectorParam>
           <VectorParam id="1889"  name="scale">
            <InterpolatingParam id="1890" interp="linr"  time="-9999999/1" value="1" leadInLength="0/1"  />
            <InterpolatingParam id="1891" interp="linr"  time="-9999999/1" value="1" leadInLength="0/1"  />
            <InterpolatingParam id="1892" interp="linr"  time="-9999999/1" value="1" leadInLength="0/1"  />
           </VectorParam>
           <VectorParam id="1893"  name="anchor">
            <InterpolatingParam id="1894" interp="linr"  time="0/1" value="0" leadInLength="0/1"  />
            <InterpolatingParam id="1895" interp="linr"  time="0/1" value="0" leadInLength="0/1"  />
            <InterpolatingParam id="1896" interp="linr"  time="0/1" value="0" leadInLength="0/1"  />
           </VectorParam>
          </Transformer>
          <Parameters>
           <VectorParam id="1897"  name="sourceCrop">
            <InterpolatingParam id="1898" interp="linr"  time="0/1" value="0" leadInLength="0/1"  />
            <InterpolatingParam id="1899" interp="linr"  time="0/1" value="0" leadInLength="0/1"  />
            <InterpolatingParam id="1900" interp="linr"  time="0/1" value="0" leadInLength="0/1"  />
            <InterpolatingParam id="1901" interp="linr"  time="0/1" value="0" leadInLength="0/1"  />
           </VectorParam>
           <VectorParam id="1902"  name="geometryCrop">
            <InterpolatingParam id="1903" interp="linr"  time="-9999999/1" value="0" leadInLength="0/1"  />
            <InterpolatingParam id="1904" interp="linr"  time="-9999999/1" value="0" leadInLength="0/1"  />
            <InterpolatingParam id="1905" interp="linr"  time="-9999999/1" value="0" leadInLength="0/1"  />
            <InterpolatingParam id="1906" interp="linr"  time="-9999999/1" value="0" leadInLength="0/1"  />
           </VectorParam>
           <InterpolatingParam id="1907" interp="linr"  time="-9999999/1" value="1" leadInLength="0/1"  name="opacity"/>
          </Parameters>
          <Attributes>
           <Attribute id="1908" value="" name="ident"/>
          </Attributes>
          <ExtraData>
           <Entry key="ZoomPanBin">
            <ZoomPanBin id="1909"  >
             <ZoomPanKeyframes>
              <ZoomPanKeyframe id="1910" timeRangeEnd="-9999999/1" timeRangeDuration="0/1" interpolaterName="linr"  />
             </ZoomPanKeyframes>
            </ZoomPanBin>
           </Entry>
          </ExtraData>
         </VMFile>
         <MetaData>
          <entry key="WinSubProjectDisplayName" val=""/>
         </MetaData>
        </UnifiedMedia>
        <UnifiedMedia id="1911"  >
         <AMFile id="1912" start="5500" duration="188" scalar="1/1" mediaStart="558/1" mediaDuration="188/1" trackNumber="1" src="33" channelNumber="0,1" >
          <Parameters>
           <InterpolatingParam id="1913" interp="linr"  name="volume">
            <Keyframes>
            <Keyframe id="1914"  time="0/1" value="1" leadInLength="0/1"  />
            <Keyframe id="1915"  time="558/1" value="0" leadInLength="0/1"  />
            </Keyframes>
           </InterpolatingParam>
           <Parameter id="1916"  name="captions"/>
          </Parameters>
          <Attributes>
           <Attribute id="1917" value="" name="ident"/>
           <Attribute id="1918" value="48000" name="sampleRate"/>
           <Attribute id="1919" value="16" name="bitDepth"/>
           <Attribute id="1920" value="1" name="gain"/>
           <Attribute id="1921" value="0" name="mixToMono"/>
          </Attributes>
         </AMFile>
         <VMFile id="1922" start="5500" duration="188" scalar="1/1" mediaStart="558/1" mediaDuration="188/1" trackNumber="0" src="33" >
          <Transformer>
           <VectorParam id="1923"  name="translation">
            <InterpolatingParam id="1924" interp="linr"  time="-9999999/1" value="-11.14551083602133" leadInLength="0/1"  interpolater="leadin-linr"  />
            <InterpolatingParam id="1925" interp="linr"  time="-9999999/1" value="-2.7263524771115044e-011" leadInLength="0/1"  interpolater="leadin-linr"  />
            <InterpolatingParam id="1926" interp="linr"  time="-9999999/1" value="0" leadInLength="0/1"  interpolater="leadin-linr"  />
           </VectorParam>
           <VectorParam id="1927"  name="rotation">
            <InterpolatingParam id="1928" interp="linr"  time="-9999999/1" value="0" leadInLength="0/1"  interpolater="leadin-linr"  />
            <InterpolatingParam id="1929" interp="linr"  time="-9999999/1" value="0" leadInLength="0/1"  interpolater="leadin-linr"  />
            <InterpolatingParam id="1930" interp="linr"  time="-9999999/1" value="0" leadInLength="0/1"  interpolater="leadin-linr"  />
           </VectorParam>
           <VectorParam id="1931"  name="shear">
            <InterpolatingParam id="1932" interp="linr"  time="-9999999/1" value="0" leadInLength="0/1"  interpolater="leadin-linr"  />
            <InterpolatingParam id="1933" interp="linr"  time="-9999999/1" value="0" leadInLength="0/1"  interpolater="leadin-linr"  />
            <InterpolatingParam id="1934" interp="linr"  time="-9999999/1" value="0" leadInLength="0/1"  interpolater="leadin-linr"  />
           </VectorParam>
           <VectorParam id="1935"  name="scale">
            <InterpolatingParam id="1936" interp="linr"  time="-9999999/1" value="2.2665353222622708" leadInLength="0/1"  interpolater="leadin-linr"  />
            <InterpolatingParam id="1937" interp="linr"  time="-9999999/1" value="1.1249999999998477" leadInLength="0/1"  interpolater="leadin-linr"  />
            <InterpolatingParam id="1938" interp="linr"  time="-9999999/1" value="1" leadInLength="0/1"  interpolater="leadin-linr"  />
           </VectorParam>
           <VectorParam id="1939"  name="anchor">
            <InterpolatingParam id="1940" interp="linr"  time="0/1" value="0" leadInLength="0/1"  />
            <InterpolatingParam id="1941" interp="linr"  time="0/1" value="0" leadInLength="0/1"  />
            <InterpolatingParam id="1942" interp="linr"  time="0/1" value="0" leadInLength="0/1"  />
           </VectorParam>
          </Transformer>
          <Parameters>
           <VectorParam id="1943"  name="sourceCrop">
            <InterpolatingParam id="1944" interp="linr"  time="0/1" value="0" leadInLength="0/1"  />
            <InterpolatingParam id="1945" interp="linr"  time="0/1" value="0" leadInLength="0/1"  />
            <InterpolatingParam id="1946" interp="linr"  time="0/1" value="0" leadInLength="0/1"  />
            <InterpolatingParam id="1947" interp="linr"  time="0/1" value="0" leadInLength="0/1"  />
           </VectorParam>
           <VectorParam id="1948"  name="geometryCrop">
            <InterpolatingParam id="1949" interp="linr"  time="-9999999/1" value="0" leadInLength="0/1"  interpolater="leadin-linr"  />
            <InterpolatingParam id="1950" interp="linr"  time="-9999999/1" value="0" leadInLength="0/1"  interpolater="leadin-linr"  />
            <InterpolatingParam id="1951" interp="linr"  time="-9999999/1" value="0" leadInLength="0/1"  interpolater="leadin-linr"  />
            <InterpolatingParam id="1952" interp="linr"  time="-9999999/1" value="0" leadInLength="0/1"  interpolater="leadin-linr"  />
           </VectorParam>
           <InterpolatingParam id="1953" interp="linr"  time="-9999999/1" value="1" leadInLength="0/1"  interpolater="leadin-linr"  name="opacity"/>
          </Parameters>
          <Attributes>
           <Attribute id="1954" value="" name="ident"/>
          </Attributes>
          <ExtraData>
           <Entry key="ZoomPanBin">
            <ZoomPanBin id="1955"  >
             <ZoomPanKeyframes>
              <ZoomPanKeyframe id="1956" timeRangeEnd="-9999999/1" timeRangeDuration="0/1" interpolaterName="linr"  />
             </ZoomPanKeyframes>
            </ZoomPanBin>
           </Entry>
          </ExtraData>
         </VMFile>
         <MetaData>
          <entry key="WinSubProjectDisplayName" val=""/>
         </MetaData>
        </UnifiedMedia>
        <UnifiedMedia id="1957"  >
         <AudioTransition id="1958" start="5688" duration="30" >
          <Parameters>
           <InterpolatingParam id="1959" interp="linr"  time="0/1" value="1" leadInLength="0/1"  name="volume"/>
           <Parameter id="1960"  name="captions"/>
          </Parameters>
          <Effects>
           <GenericEffect id="1961" name = "AudioTransition" >
            <Parameters>
            <Parameter id="1962"   name="audioEdgeModType">
             <Keyframes>
             <Keyframe id="1963"  time="0/1" value="0" leadInLength="0/1"  />
             </Keyframes>
            </Parameter>
            <Parameter id="1964"   name="audioTransitionType">
             <Keyframes>
             <Keyframe id="1965"  time="0/1" value="" leadInLength="0/1"  />
             </Keyframes>
            </Parameter>
            </Parameters>
            <MetaData>
            </MetaData>
           </GenericEffect>
          </Effects>
          <Attributes>
           <Attribute id="1966" value="" name="ident"/>
           <Attribute id="1967" value="0" name="sampleRate"/>
           <Attribute id="1968" value="0" name="bitDepth"/>
           <Attribute id="1969" value="1" name="gain"/>
           <Attribute id="1970" value="0" name="mixToMono"/>
          </Attributes>
         </AudioTransition>
         <ImageTransition id="1971" start="5688" duration="30" >
          <Transformer>
           <VectorParam id="1972"  name="translation">
            <InterpolatingParam id="1973" interp="linr"  time="0/1" value="0" leadInLength="0/1"  />
            <InterpolatingParam id="1974" interp="linr"  time="0/1" value="0" leadInLength="0/1"  />
            <InterpolatingParam id="1975" interp="linr"  time="0/1" value="0" leadInLength="0/1"  />
           </VectorParam>
           <VectorParam id="1976"  name="rotation">
            <InterpolatingParam id="1977" interp="linr"  time="0/1" value="0" leadInLength="0/1"  />
            <InterpolatingParam id="1978" interp="linr"  time="0/1" value="0" leadInLength="0/1"  />
            <InterpolatingParam id="1979" interp="linr"  time="0/1" value="0" leadInLength="0/1"  />
           </VectorParam>
           <VectorParam id="1980"  name="shear">
            <InterpolatingParam id="1981" interp="linr"  time="0/1" value="0" leadInLength="0/1"  />
            <InterpolatingParam id="1982" interp="linr"  time="0/1" value="0" leadInLength="0/1"  />
            <InterpolatingParam id="1983" interp="linr"  time="0/1" value="0" leadInLength="0/1"  />
           </VectorParam>
           <VectorParam id="1984"  name="scale">
            <InterpolatingParam id="1985" interp="linr"  time="0/1" value="1" leadInLength="0/1"  />
            <InterpolatingParam id="1986" interp="linr"  time="0/1" value="1" leadInLength="0/1"  />
            <InterpolatingParam id="1987" interp="linr"  time="0/1" value="1" leadInLength="0/1"  />
           </VectorParam>
           <VectorParam id="1988"  name="anchor">
            <InterpolatingParam id="1989" interp="linr"  time="0/1" value="0" leadInLength="0/1"  />
            <InterpolatingParam id="1990" interp="linr"  time="0/1" value="0" leadInLength="0/1"  />
            <InterpolatingParam id="1991" interp="linr"  time="0/1" value="0" leadInLength="0/1"  />
           </VectorParam>
          </Transformer>
          <Parameters>
           <VectorParam id="1992"  name="sourceCrop">
            <InterpolatingParam id="1993" interp="linr"  time="0/1" value="0" leadInLength="0/1"  />
            <InterpolatingParam id="1994" interp="linr"  time="0/1" value="0" leadInLength="0/1"  />
            <InterpolatingParam id="1995" interp="linr"  time="0/1" value="0" leadInLength="0/1"  />
            <InterpolatingParam id="1996" interp="linr"  time="0/1" value="0" leadInLength="0/1"  />
           </VectorParam>
           <VectorParam id="1997"  name="geometryCrop">
            <InterpolatingParam id="1998" interp="linr"  time="0/1" value="0" leadInLength="0/1"  />
            <InterpolatingParam id="1999" interp="linr"  time="0/1" value="0" leadInLength="0/1"  />
            <InterpolatingParam id="2000" interp="linr"  time="0/1" value="0" leadInLength="0/1"  />
            <InterpolatingParam id="2001" interp="linr"  time="0/1" value="0" leadInLength="0/1"  />
           </VectorParam>
           <InterpolatingParam id="2002" interp="linr"  time="0/1" value="1" leadInLength="0/1"  name="opacity"/>
          </Parameters>
          <Effects>
           <GenericEffect id="2003" name = "VisualTransition" >
            <Parameters>
            <InterpolatingParam id="2004" interp="linr"  time="0/1" value="0.5" leadInLength="0/1"   name="leftFramePercentage"/>
            <InterpolatingParam id="2005" interp="linr"  time="0/1" value="0.5" leadInLength="0/1"   name="rightFramePercentage"/>
            <Parameter id="2006"   name="visualEdgeModType">
             <Keyframes>
             <Keyframe id="2007"  time="0/1" value="2" leadInLength="0/1"  />
             </Keyframes>
            </Parameter>
            <Parameter id="2008"   name="visualTransitionType">
             <Keyframes>
             <Keyframe id="2009"  time="0/1" value="FadeThruBlack" leadInLength="0/1"  />
             </Keyframes>
            </Parameter>
            </Parameters>
            <MetaData>
            </MetaData>
           </GenericEffect>
          </Effects>
          <Attributes>
           <Attribute id="2010" value="" name="ident"/>
          </Attributes>
          <ExtraData>
           <Entry key="ZoomPanBin">
            <ZoomPanBin id="2011"  >
             <ZoomPanKeyframes>
             </ZoomPanKeyframes>
            </ZoomPanBin>
           </Entry>
          </ExtraData>
         </ImageTransition>
         <MetaData>
          <entry key="WinSubProjectDisplayName" val=""/>
         </MetaData>
        </UnifiedMedia>
        <Callout id="2012" start="5718" duration="107" scalar="1/1" mediaStart="0/1" mediaDuration="107/1" >
         <Transformer>
          <VectorParam id="2013"  name="translation">
           <InterpolatingParam id="2014" interp="linr"  time="-9999999/1" value="-2.2291021671814413" leadInLength="0/1"  />
           <InterpolatingParam id="2015" interp="linr"  time="-9999999/1" value="186.41210890258193" leadInLength="0/1"  />
           <InterpolatingParam id="2016" interp="linr"  time="-9999999/1" value="0" leadInLength="0/1"  />
          </VectorParam>
          <VectorParam id="2017"  name="rotation">
           <InterpolatingParam id="2018" interp="linr"  time="-9999999/1" value="0" leadInLength="0/1"  />
           <InterpolatingParam id="2019" interp="linr"  time="-9999999/1" value="0" leadInLength="0/1"  />
           <InterpolatingParam id="2020" interp="linr"  time="-9999999/1" value="0" leadInLength="0/1"  />
          </VectorParam>
          <VectorParam id="2021"  name="shear">
           <InterpolatingParam id="2022" interp="linr"  time="-9999999/1" value="0" leadInLength="0/1"  />
           <InterpolatingParam id="2023" interp="linr"  time="-9999999/1" value="0" leadInLength="0/1"  />
           <InterpolatingParam id="2024" interp="linr"  time="-9999999/1" value="0" leadInLength="0/1"  />
          </VectorParam>
          <VectorParam id="2025"  name="scale">
           <InterpolatingParam id="2026" interp="linr"  time="-9999999/1" value="1.7801857585138574" leadInLength="0/1"  />
           <InterpolatingParam id="2027" interp="linr"  time="-9999999/1" value="1.4624971050203979" leadInLength="0/1"  />
           <InterpolatingParam id="2028" interp="linr"  time="-9999999/1" value="1" leadInLength="0/1"  />
          </VectorParam>
          <VectorParam id="2029"  name="anchor">
           <InterpolatingParam id="2030" interp="linr"  time="0/1" value="0" leadInLength="0/1"  />
           <InterpolatingParam id="2031" interp="linr"  time="0/1" value="0" leadInLength="0/1"  />
           <InterpolatingParam id="2032" interp="linr"  time="0/1" value="0" leadInLength="0/1"  />
          </VectorParam>
         </Transformer>
         <Parameters>
          <VectorParam id="2033"  name="sourceCrop">
           <InterpolatingParam id="2034" interp="linr"  time="0/1" value="0" leadInLength="0/1"  />
           <InterpolatingParam id="2035" interp="linr"  time="0/1" value="0" leadInLength="0/1"  />
           <InterpolatingParam id="2036" interp="linr"  time="0/1" value="0" leadInLength="0/1"  />
           <InterpolatingParam id="2037" interp="linr"  time="0/1" value="0" leadInLength="0/1"  />
          </VectorParam>
          <VectorParam id="2038"  name="geometryCrop">
           <InterpolatingParam id="2039" interp="linr"  time="-9999999/1" value="0" leadInLength="0/1"  />
           <InterpolatingParam id="2040" interp="linr"  time="-9999999/1" value="0" leadInLength="0/1"  />
           <InterpolatingParam id="2041" interp="linr"  time="-9999999/1" value="0" leadInLength="0/1"  />
           <InterpolatingParam id="2042" interp="linr"  time="-9999999/1" value="0" leadInLength="0/1"  />
          </VectorParam>
          <InterpolatingParam id="2043" interp="linr"  time="-9999999/1" value="1" leadInLength="0/1"  name="opacity"/>
         </Parameters>
         <Effects>
          <GenericEffect id="2044" name = "DropShadow" >
           <Parameters>
           <InterpolatingParam id="2045" interp="linr"  time="0/1" value="315" leadInLength="0/1"   name="angle"/>
           <InterpolatingParam id="2046" interp="linr"  time="0/1" value="2" leadInLength="0/1"   name="blur"/>
           <Parameter id="2047"   name="enabled">
            <Keyframes>
            <Keyframe id="2048"  time="0/1" value="1" leadInLength="0/1"  />
            </Keyframes>
           </Parameter>
           <InterpolatingParam id="2049" interp="linr"  time="0/1" value="4" leadInLength="0/1"   name="offset"/>
           <InterpolatingParam id="2050" interp="linr"  time="0/1" value="0.75" leadInLength="0/1"   name="opacity"/>
           </Parameters>
          </GenericEffect>
         </Effects>
         <Attributes>
          <Attribute id="2051"  name="vectorNode">
           <VectorNode id="2052" kind="TypeWinXML"  >
            <DoubleParameters>
             <InterpolatingParam id="2053" interp="linr"  time="0/1" value="-1" leadInLength="0/1"  name="CutoutPercentage"/>
             <InterpolatingParam id="2054" interp="linr"  time="0/1" value="30" leadInLength="0/1"  name="RoundedRectRadius"/>
             <InterpolatingParam id="2055" interp="linr"  time="0/1" value="5" leadInLength="0/1"  name="Style"/>
             <InterpolatingParam id="2056" interp="linr"  time="0/1" value="0" leadInLength="0/1"  name="borderColorBlue"/>
             <InterpolatingParam id="2057" interp="linr"  time="0/1" value="0" leadInLength="0/1"  name="borderColorGreen"/>
             <InterpolatingParam id="2058" interp="linr"  time="0/1" value="0" leadInLength="0/1"  name="borderColorRed"/>
             <InterpolatingParam id="2059" interp="linr"  time="0/1" value="1" leadInLength="0/1"  name="borderState"/>
             <InterpolatingParam id="2060" interp="linr"  time="0/1" value="5" leadInLength="0/1"  name="borderWidth"/>
             <InterpolatingParam id="2061" interp="linr"  time="0/1" value="0" leadInLength="0/1"  name="dimensionTime"/>
             <InterpolatingParam id="2062" interp="linr"  time="0/1" value="0" leadInLength="0/1"  name="fillColorBlue"/>
             <InterpolatingParam id="2063" interp="linr"  time="0/1" value="0" leadInLength="0/1"  name="fillColorGreen"/>
             <InterpolatingParam id="2064" interp="linr"  time="0/1" value="0" leadInLength="0/1"  name="fillColorRed"/>
             <InterpolatingParam id="2065" interp="linr"  time="0/1" value="1" leadInLength="0/1"  name="fillState"/>
             <InterpolatingParam id="2066" interp="linr"  time="0/1" value="0" leadInLength="0/1"  name="flipOnXAxis"/>
             <InterpolatingParam id="2067" interp="linr"  time="0/1" value="0" leadInLength="0/1"  name="flipOnYAxis"/>
             <InterpolatingParam id="2068" interp="linr"  time="0/1" value="237.38562091503266" leadInLength="0/1"  name="height"/>
             <InterpolatingParam id="2069" interp="linr"  time="0/1" value="0" leadInLength="0/1"  name="textDropShadow"/>
             <InterpolatingParam id="2070" interp="linr"  time="0/1" value="0" leadInLength="0/1"  name="textIgnoresOpacity"/>
             <InterpolatingParam id="2071" interp="linr"  time="0/1" value="0.86784140969162993" leadInLength="0/1"  name="textRectHeight"/>
             <InterpolatingParam id="2072" interp="linr"  time="0/1" value="0.90196078431372551" leadInLength="0/1"  name="textRectWidth"/>
             <InterpolatingParam id="2073" interp="linr"  time="0/1" value="0.049019607843137254" leadInLength="0/1"  name="textRectX"/>
             <InterpolatingParam id="2074" interp="linr"  time="0/1" value="0.066079295154185022" leadInLength="0/1"  name="textRectY"/>
             <InterpolatingParam id="2075" interp="linr"  time="0/1" value="0" leadInLength="0/1"  name="textVerticalAlign"/>
             <InterpolatingParam id="2076" interp="linr"  time="0/1" value="320" leadInLength="0/1"  name="width"/>
            </DoubleParameters>
            <StringParameters>
             <Parameter id="2077"  name="VectorPath">
              <Keyframes>
              <Keyframe id="2078"  time="0/1" value="M10,0h286c5.521,0,10,4.477,10,10v207c0,5.521-4.479,10-10,10H10c-5.523,0-10-4.479-10-10V10&#xa;&#x9;C0,4.477,4.477,0,10,0z" leadInLength="0/1"  />
              </Keyframes>
             </Parameter>
             <Parameter id="2079"  name="filename">
              <Keyframes>
              <Keyframe id="2080"  time="0/1" value="C:\Program Files (x86)\TechSmith\Camtasia Studio 8\Media\Studio\Callouts\roundedrectangle.xml" leadInLength="0/1"  />
              </Keyframes>
             </Parameter>
             <Parameter id="2081"  name="name">
              <Keyframes>
              <Keyframe id="2082"  time="0/1" value="Filled Rounded Rectangle" leadInLength="0/1"  />
              </Keyframes>
             </Parameter>
             <Parameter id="2083"  name="text">
              <Keyframes>
              <Keyframe id="2084"  time="0/1" value="{\rtf1\ansi\ansicpg1252\deff0\deflang1033{\fonttbl{\f0\fswiss\fprq2\fcharset0 Arial;}}&#xD;&#xa;{\colortbl ;\red255\green255\blue255;}&#xD;&#xa;\viewkind4\uc1\pard\qc\cf1\f0\fs96 4\&apos;ba composto:\par&#xD;&#xa;Cloreto de Alum\&apos;ednio\par&#xD;&#xa;}&#xD;&#xa;" leadInLength="0/1"  />
              </Keyframes>
             </Parameter>
             <Parameter id="2085"  name="xmlContent">
              <Keyframes>
              <Keyframe id="2086"  time="0/1" value="﻿&lt;?xml version=&quot;1.0&quot;?&gt;&#xa;&#xa;&lt;Overlay version=&quot;1.0.1&quot;&gt;&#xa;&#xa;&lt;Overlay_Filename&gt;roundedrectangle.png&lt;/Overlay_Filename&gt;&#xa;&lt;Overlay_Name&gt;Filled Rounded Rectangle&lt;/Overlay_Name&gt;&#xa;&lt;Text_Top&gt;15&lt;/Text_Top&gt;&#xa;&lt;Text_Left&gt;15&lt;/Text_Left&gt;&#xa;&lt;Text_Bottom&gt;15&lt;/Text_Bottom&gt;&#xa;&lt;Text_Right&gt;15&lt;/Text_Right&gt;&#xa;&lt;Fill_Color&gt;1&lt;/Fill_Color&gt;&#xa;&lt;Border_Color&gt;1&lt;/Border_Color&gt;&#xa;&lt;Initial_Fill_Color&gt;0xffe05f00&lt;/Initial_Fill_Color&gt;&#xa;&lt;Initial_Border_Color&gt;0xffd7d7d7&lt;/Initial_Border_Color&gt;&#xa;&lt;VectorProps&gt;&#xa;&lt;figure&gt;&#xa;&lt;svg&gt;M10,0h286c5.521,0,10,4.477,10,10v207c0,5.521-4.479,10-10,10H10c-5.523,0-10-4.479-10-10V10&#xa;&#x9;C0,4.477,4.477,0,10,0z&lt;/svg&gt;&#xa;&lt;/figure&gt;&#xa;&lt;borderWidth&gt;5.00&lt;/borderWidth&gt;&#xa;&lt;seamY&gt;-1&lt;/seamY&gt;&#xa;&lt;roundedRectRadius&gt;30&lt;/roundedRectRadius&gt;&#xa;&lt;shapeWidth&gt;306&lt;/shapeWidth&gt;&#xa;&lt;shapeHeight&gt;227&lt;/shapeHeight&gt;&#xa;&lt;/VectorProps&gt;&#xa;&lt;Style&gt;5&lt;/Style&gt;&#xa;&lt;/Overlay&gt;" leadInLength="0/1"  />
              </Keyframes>
             </Parameter>
            </StringParameters>
           </VectorNode>
          </Attribute>
         </Attributes>
         <MetaData>
          <entry key="WinSubProjectDisplayName" val=""/>
         </MetaData>
         <LeftEdgeMods length="30/1" groupName="OpacityFade">
          <EdgeMod parameter="2043">
           <FadeInFunc id="2087"  />
          </EdgeMod>
         </LeftEdgeMods>
         <RightEdgeMods length="30/1" groupName="OpacityFade">
          <EdgeMod parameter="2043">
           <FadeOutFunc id="2088"  />
          </EdgeMod>
         </RightEdgeMods>
         <ExtraData>
          <Entry key="ZoomPanBin">
           <ZoomPanBin id="2089"  >
            <ZoomPanKeyframes>
             <ZoomPanKeyframe id="2090" timeRangeEnd="-9999999/1" timeRangeDuration="0/1" interpolaterName="linr"  />
            </ZoomPanKeyframes>
           </ZoomPanBin>
          </Entry>
         </ExtraData>
        </Callout>
        <UnifiedMedia id="2091"  >
         <AMFile id="2092" start="5825" duration="95" scalar="1/1" mediaStart="36/1" mediaDuration="95/1" trackNumber="1" src="35" channelNumber="0,1" >
          <Parameters>
           <InterpolatingParam id="2093" interp="linr"  time="0/1" value="1" leadInLength="0/1"  name="volume"/>
           <Parameter id="2094"  name="captions"/>
          </Parameters>
          <Attributes>
           <Attribute id="2095" value="" name="ident"/>
           <Attribute id="2096" value="48000" name="sampleRate"/>
           <Attribute id="2097" value="16" name="bitDepth"/>
           <Attribute id="2098" value="1" name="gain"/>
           <Attribute id="2099" value="0" name="mixToMono"/>
          </Attributes>
         </AMFile>
         <VMFile id="2100" start="5825" duration="95" scalar="1/1" mediaStart="36/1" mediaDuration="95/1" trackNumber="0" src="35" >
          <Transformer>
           <VectorParam id="2101"  name="translation">
            <InterpolatingParam id="2102" interp="linr"  time="-9999999/1" value="-12.260061919643164" leadInLength="0/1"  />
            <InterpolatingParam id="2103" interp="linr"  time="-9999999/1" value="7.4340533728900482e-011" leadInLength="0/1"  />
            <InterpolatingParam id="2104" interp="linr"  time="-9999999/1" value="0" leadInLength="0/1"  />
           </VectorParam>
           <VectorParam id="2105"  name="rotation">
            <InterpolatingParam id="2106" interp="linr"  time="-9999999/1" value="0" leadInLength="0/1"  />
            <InterpolatingParam id="2107" interp="linr"  time="-9999999/1" value="0" leadInLength="0/1"  />
            <InterpolatingParam id="2108" interp="linr"  time="-9999999/1" value="0" leadInLength="0/1"  />
           </VectorParam>
           <VectorParam id="2109"  name="shear">
            <InterpolatingParam id="2110" interp="linr"  time="-9999999/1" value="0" leadInLength="0/1"  />
            <InterpolatingParam id="2111" interp="linr"  time="-9999999/1" value="0" leadInLength="0/1"  />
            <InterpolatingParam id="2112" interp="linr"  time="-9999999/1" value="0" leadInLength="0/1"  />
           </VectorParam>
           <VectorParam id="2113"  name="scale">
            <InterpolatingParam id="2114" interp="linr"  time="-9999999/1" value="2.2602026456511348" leadInLength="0/1"  />
            <InterpolatingParam id="2115" interp="linr"  time="-9999999/1" value="1.1250000000000249" leadInLength="0/1"  />
            <InterpolatingParam id="2116" interp="linr"  time="-9999999/1" value="1" leadInLength="0/1"  />
           </VectorParam>
           <VectorParam id="2117"  name="anchor">
            <InterpolatingParam id="2118" interp="linr"  time="0/1" value="0" leadInLength="0/1"  />
            <InterpolatingParam id="2119" interp="linr"  time="0/1" value="0" leadInLength="0/1"  />
            <InterpolatingParam id="2120" interp="linr"  time="0/1" value="0" leadInLength="0/1"  />
           </VectorParam>
          </Transformer>
          <Parameters>
           <VectorParam id="2121"  name="sourceCrop">
            <InterpolatingParam id="2122" interp="linr"  time="0/1" value="0" leadInLength="0/1"  />
            <InterpolatingParam id="2123" interp="linr"  time="0/1" value="0" leadInLength="0/1"  />
            <InterpolatingParam id="2124" interp="linr"  time="0/1" value="0" leadInLength="0/1"  />
            <InterpolatingParam id="2125" interp="linr"  time="0/1" value="0" leadInLength="0/1"  />
           </VectorParam>
           <VectorParam id="2126"  name="geometryCrop">
            <InterpolatingParam id="2127" interp="linr"  time="-9999999/1" value="0" leadInLength="0/1"  />
            <InterpolatingParam id="2128" interp="linr"  time="-9999999/1" value="0" leadInLength="0/1"  />
            <InterpolatingParam id="2129" interp="linr"  time="-9999999/1" value="0" leadInLength="0/1"  />
            <InterpolatingParam id="2130" interp="linr"  time="-9999999/1" value="0" leadInLength="0/1"  />
           </VectorParam>
           <InterpolatingParam id="2131" interp="linr"  time="-9999999/1" value="1" leadInLength="0/1"  name="opacity"/>
          </Parameters>
          <Attributes>
           <Attribute id="2132" value="" name="ident"/>
          </Attributes>
          <ExtraData>
           <Entry key="ZoomPanBin">
            <ZoomPanBin id="2133"  >
             <ZoomPanKeyframes>
              <ZoomPanKeyframe id="2134" timeRangeEnd="-9999999/1" timeRangeDuration="0/1" interpolaterName="linr"  />
             </ZoomPanKeyframes>
            </ZoomPanBin>
           </Entry>
          </ExtraData>
         </VMFile>
         <MetaData>
          <entry key="WinSubProjectDisplayName" val=""/>
         </MetaData>
        </UnifiedMedia>
        <UnifiedMedia id="2135"  >
         <AMFile id="2136" start="5920" duration="436" scalar="1/1" mediaStart="1859/1" mediaDuration="436/1" trackNumber="1" src="35" channelNumber="0,1" >
          <Parameters>
           <InterpolatingParam id="2137" interp="linr"  name="volume">
            <Keyframes>
            <Keyframe id="2138"  time="0/1" value="1" leadInLength="0/1"  />
            <Keyframe id="2139"  time="1859/1" value="0" leadInLength="0/1"  />
            </Keyframes>
           </InterpolatingParam>
           <Parameter id="2140"  name="captions"/>
          </Parameters>
          <Attributes>
           <Attribute id="2141" value="" name="ident"/>
           <Attribute id="2142" value="48000" name="sampleRate"/>
           <Attribute id="2143" value="16" name="bitDepth"/>
           <Attribute id="2144" value="1" name="gain"/>
           <Attribute id="2145" value="0" name="mixToMono"/>
          </Attributes>
         </AMFile>
         <VMFile id="2146" start="5920" duration="436" scalar="1/1" mediaStart="1859/1" mediaDuration="436/1" trackNumber="0" src="35" >
          <Transformer>
           <VectorParam id="2147"  name="translation">
            <InterpolatingParam id="2148" interp="linr"  time="-9999999/1" value="-12.260061919609399" leadInLength="0/1"  interpolater="leadin-linr"  />
            <InterpolatingParam id="2149" interp="linr"  time="-9999999/1" value="6.6222582972841337e-011" leadInLength="0/1"  interpolater="leadin-linr"  />
            <InterpolatingParam id="2150" interp="linr"  time="-9999999/1" value="0" leadInLength="0/1"  interpolater="leadin-linr"  />
           </VectorParam>
           <VectorParam id="2151"  name="rotation">
            <InterpolatingParam id="2152" interp="linr"  time="-9999999/1" value="0" leadInLength="0/1"  interpolater="leadin-linr"  />
            <InterpolatingParam id="2153" interp="linr"  time="-9999999/1" value="0" leadInLength="0/1"  interpolater="leadin-linr"  />
            <InterpolatingParam id="2154" interp="linr"  time="-9999999/1" value="0" leadInLength="0/1"  interpolater="leadin-linr"  />
           </VectorParam>
           <VectorParam id="2155"  name="shear">
            <InterpolatingParam id="2156" interp="linr"  time="-9999999/1" value="0" leadInLength="0/1"  interpolater="leadin-linr"  />
            <InterpolatingParam id="2157" interp="linr"  time="-9999999/1" value="0" leadInLength="0/1"  interpolater="leadin-linr"  />
            <InterpolatingParam id="2158" interp="linr"  time="-9999999/1" value="0" leadInLength="0/1"  interpolater="leadin-linr"  />
           </VectorParam>
           <VectorParam id="2159"  name="scale">
            <InterpolatingParam id="2160" interp="linr"  time="-9999999/1" value="2.2602026456513302" leadInLength="0/1"  interpolater="leadin-linr"  />
            <InterpolatingParam id="2161" interp="linr"  time="-9999999/1" value="1.1249999999999702" leadInLength="0/1"  interpolater="leadin-linr"  />
            <InterpolatingParam id="2162" interp="linr"  time="-9999999/1" value="1" leadInLength="0/1"  interpolater="leadin-linr"  />
           </VectorParam>
           <VectorParam id="2163"  name="anchor">
            <InterpolatingParam id="2164" interp="linr"  time="0/1" value="0" leadInLength="0/1"  />
            <InterpolatingParam id="2165" interp="linr"  time="0/1" value="0" leadInLength="0/1"  />
            <InterpolatingParam id="2166" interp="linr"  time="0/1" value="0" leadInLength="0/1"  />
           </VectorParam>
          </Transformer>
          <Parameters>
           <VectorParam id="2167"  name="sourceCrop">
            <InterpolatingParam id="2168" interp="linr"  time="0/1" value="0" leadInLength="0/1"  />
            <InterpolatingParam id="2169" interp="linr"  time="0/1" value="0" leadInLength="0/1"  />
            <InterpolatingParam id="2170" interp="linr"  time="0/1" value="0" leadInLength="0/1"  />
            <InterpolatingParam id="2171" interp="linr"  time="0/1" value="0" leadInLength="0/1"  />
           </VectorParam>
           <VectorParam id="2172"  name="geometryCrop">
            <InterpolatingParam id="2173" interp="linr"  time="-9999999/1" value="0" leadInLength="0/1"  interpolater="leadin-linr"  />
            <InterpolatingParam id="2174" interp="linr"  time="-9999999/1" value="0" leadInLength="0/1"  interpolater="leadin-linr"  />
            <InterpolatingParam id="2175" interp="linr"  time="-9999999/1" value="0" leadInLength="0/1"  interpolater="leadin-linr"  />
            <InterpolatingParam id="2176" interp="linr"  time="-9999999/1" value="0" leadInLength="0/1"  interpolater="leadin-linr"  />
           </VectorParam>
           <InterpolatingParam id="2177" interp="linr"  time="-9999999/1" value="1" leadInLength="0/1"  interpolater="leadin-linr"  name="opacity"/>
          </Parameters>
          <Attributes>
           <Attribute id="2178" value="" name="ident"/>
          </Attributes>
          <ExtraData>
           <Entry key="ZoomPanBin">
            <ZoomPanBin id="2179"  >
             <ZoomPanKeyframes>
              <ZoomPanKeyframe id="2180" timeRangeEnd="-9999999/1" timeRangeDuration="0/1" interpolaterName="linr"  />
             </ZoomPanKeyframes>
            </ZoomPanBin>
           </Entry>
          </ExtraData>
         </VMFile>
         <MetaData>
          <entry key="WinSubProjectDisplayName" val=""/>
         </MetaData>
        </UnifiedMedia>
        <UnifiedMedia id="2181"  >
         <AudioTransition id="2182" start="6356" duration="30" >
          <Parameters>
           <InterpolatingParam id="2183" interp="linr"  time="0/1" value="1" leadInLength="0/1"  name="volume"/>
           <Parameter id="2184"  name="captions"/>
          </Parameters>
          <Effects>
           <GenericEffect id="2185" name = "AudioTransition" >
            <Parameters>
            <Parameter id="2186"   name="audioEdgeModType">
             <Keyframes>
             <Keyframe id="2187"  time="0/1" value="0" leadInLength="0/1"  />
             </Keyframes>
            </Parameter>
            <Parameter id="2188"   name="audioTransitionType">
             <Keyframes>
             <Keyframe id="2189"  time="0/1" value="" leadInLength="0/1"  />
             </Keyframes>
            </Parameter>
            </Parameters>
            <MetaData>
            </MetaData>
           </GenericEffect>
          </Effects>
          <Attributes>
           <Attribute id="2190" value="" name="ident"/>
           <Attribute id="2191" value="0" name="sampleRate"/>
           <Attribute id="2192" value="0" name="bitDepth"/>
           <Attribute id="2193" value="1" name="gain"/>
           <Attribute id="2194" value="0" name="mixToMono"/>
          </Attributes>
         </AudioTransition>
         <ImageTransition id="2195" start="6356" duration="30" >
          <Transformer>
           <VectorParam id="2196"  name="translation">
            <InterpolatingParam id="2197" interp="linr"  time="0/1" value="0" leadInLength="0/1"  />
            <InterpolatingParam id="2198" interp="linr"  time="0/1" value="0" leadInLength="0/1"  />
            <InterpolatingParam id="2199" interp="linr"  time="0/1" value="0" leadInLength="0/1"  />
           </VectorParam>
           <VectorParam id="2200"  name="rotation">
            <InterpolatingParam id="2201" interp="linr"  time="0/1" value="0" leadInLength="0/1"  />
            <InterpolatingParam id="2202" interp="linr"  time="0/1" value="0" leadInLength="0/1"  />
            <InterpolatingParam id="2203" interp="linr"  time="0/1" value="0" leadInLength="0/1"  />
           </VectorParam>
           <VectorParam id="2204"  name="shear">
            <InterpolatingParam id="2205" interp="linr"  time="0/1" value="0" leadInLength="0/1"  />
            <InterpolatingParam id="2206" interp="linr"  time="0/1" value="0" leadInLength="0/1"  />
            <InterpolatingParam id="2207" interp="linr"  time="0/1" value="0" leadInLength="0/1"  />
           </VectorParam>
           <VectorParam id="2208"  name="scale">
            <InterpolatingParam id="2209" interp="linr"  time="0/1" value="1" leadInLength="0/1"  />
            <InterpolatingParam id="2210" interp="linr"  time="0/1" value="1" leadInLength="0/1"  />
            <InterpolatingParam id="2211" interp="linr"  time="0/1" value="1" leadInLength="0/1"  />
           </VectorParam>
           <VectorParam id="2212"  name="anchor">
            <InterpolatingParam id="2213" interp="linr"  time="0/1" value="0" leadInLength="0/1"  />
            <InterpolatingParam id="2214" interp="linr"  time="0/1" value="0" leadInLength="0/1"  />
            <InterpolatingParam id="2215" interp="linr"  time="0/1" value="0" leadInLength="0/1"  />
           </VectorParam>
          </Transformer>
          <Parameters>
           <VectorParam id="2216"  name="sourceCrop">
            <InterpolatingParam id="2217" interp="linr"  time="0/1" value="0" leadInLength="0/1"  />
            <InterpolatingParam id="2218" interp="linr"  time="0/1" value="0" leadInLength="0/1"  />
            <InterpolatingParam id="2219" interp="linr"  time="0/1" value="0" leadInLength="0/1"  />
            <InterpolatingParam id="2220" interp="linr"  time="0/1" value="0" leadInLength="0/1"  />
           </VectorParam>
           <VectorParam id="2221"  name="geometryCrop">
            <InterpolatingParam id="2222" interp="linr"  time="0/1" value="0" leadInLength="0/1"  />
            <InterpolatingParam id="2223" interp="linr"  time="0/1" value="0" leadInLength="0/1"  />
            <InterpolatingParam id="2224" interp="linr"  time="0/1" value="0" leadInLength="0/1"  />
            <InterpolatingParam id="2225" interp="linr"  time="0/1" value="0" leadInLength="0/1"  />
           </VectorParam>
           <InterpolatingParam id="2226" interp="linr"  time="0/1" value="1" leadInLength="0/1"  name="opacity"/>
          </Parameters>
          <Effects>
           <GenericEffect id="2227" name = "VisualTransition" >
            <Parameters>
            <InterpolatingParam id="2228" interp="linr"  time="0/1" value="0.5" leadInLength="0/1"   name="leftFramePercentage"/>
            <InterpolatingParam id="2229" interp="linr"  time="0/1" value="0.5" leadInLength="0/1"   name="rightFramePercentage"/>
            <Parameter id="2230"   name="visualEdgeModType">
             <Keyframes>
             <Keyframe id="2231"  time="0/1" value="2" leadInLength="0/1"  />
             </Keyframes>
            </Parameter>
            <Parameter id="2232"   name="visualTransitionType">
             <Keyframes>
             <Keyframe id="2233"  time="0/1" value="FadeThruBlack" leadInLength="0/1"  />
             </Keyframes>
            </Parameter>
            </Parameters>
            <MetaData>
            </MetaData>
           </GenericEffect>
          </Effects>
          <Attributes>
           <Attribute id="2234" value="" name="ident"/>
          </Attributes>
          <ExtraData>
           <Entry key="ZoomPanBin">
            <ZoomPanBin id="2235"  >
             <ZoomPanKeyframes>
             </ZoomPanKeyframes>
            </ZoomPanBin>
           </Entry>
          </ExtraData>
         </ImageTransition>
         <MetaData>
          <entry key="WinSubProjectDisplayName" val=""/>
         </MetaData>
        </UnifiedMedia>
        <Callout id="2236" start="6386" duration="112" scalar="1/1" mediaStart="0/1" mediaDuration="112/1" >
         <Transformer>
          <VectorParam id="2237"  name="translation">
           <InterpolatingParam id="2238" interp="linr"  time="-9999999/1" value="0.37151702805275733" leadInLength="0/1"  />
           <InterpolatingParam id="2239" interp="linr"  time="-9999999/1" value="186.68730650153444" leadInLength="0/1"  />
           <InterpolatingParam id="2240" interp="linr"  time="-9999999/1" value="-3.4106051316488567e-010" leadInLength="0/1"  />
          </VectorParam>
          <VectorParam id="2241"  name="rotation">
           <InterpolatingParam id="2242" interp="linr"  time="-9999999/1" value="0" leadInLength="0/1"  />
           <InterpolatingParam id="2243" interp="linr"  time="-9999999/1" value="0" leadInLength="0/1"  />
           <InterpolatingParam id="2244" interp="linr"  time="-9999999/1" value="0" leadInLength="0/1"  />
          </VectorParam>
          <VectorParam id="2245"  name="shear">
           <InterpolatingParam id="2246" interp="linr"  time="-9999999/1" value="0" leadInLength="0/1"  />
           <InterpolatingParam id="2247" interp="linr"  time="-9999999/1" value="0" leadInLength="0/1"  />
           <InterpolatingParam id="2248" interp="linr"  time="-9999999/1" value="0" leadInLength="0/1"  />
          </VectorParam>
          <VectorParam id="2249"  name="scale">
           <InterpolatingParam id="2250" interp="linr"  time="-9999999/1" value="1.7871517027874131" leadInLength="0/1"  />
           <InterpolatingParam id="2251" interp="linr"  time="-9999999/1" value="1.4601785349332421" leadInLength="0/1"  />
           <InterpolatingParam id="2252" interp="linr"  time="-9999999/1" value="1" leadInLength="0/1"  />
          </VectorParam>
          <VectorParam id="2253"  name="anchor">
           <InterpolatingParam id="2254" interp="linr"  time="0/1" value="0" leadInLength="0/1"  />
           <InterpolatingParam id="2255" interp="linr"  time="0/1" value="0" leadInLength="0/1"  />
           <InterpolatingParam id="2256" interp="linr"  time="0/1" value="0" leadInLength="0/1"  />
          </VectorParam>
         </Transformer>
         <Parameters>
          <VectorParam id="2257"  name="sourceCrop">
           <InterpolatingParam id="2258" interp="linr"  time="0/1" value="0" leadInLength="0/1"  />
           <InterpolatingParam id="2259" interp="linr"  time="0/1" value="0" leadInLength="0/1"  />
           <InterpolatingParam id="2260" interp="linr"  time="0/1" value="0" leadInLength="0/1"  />
           <InterpolatingParam id="2261" interp="linr"  time="0/1" value="0" leadInLength="0/1"  />
          </VectorParam>
          <VectorParam id="2262"  name="geometryCrop">
           <InterpolatingParam id="2263" interp="linr"  time="-9999999/1" value="0" leadInLength="0/1"  />
           <InterpolatingParam id="2264" interp="linr"  time="-9999999/1" value="0" leadInLength="0/1"  />
           <InterpolatingParam id="2265" interp="linr"  time="-9999999/1" value="0" leadInLength="0/1"  />
           <InterpolatingParam id="2266" interp="linr"  time="-9999999/1" value="0" leadInLength="0/1"  />
          </VectorParam>
          <InterpolatingParam id="2267" interp="linr"  time="-9999999/1" value="1" leadInLength="0/1"  name="opacity"/>
         </Parameters>
         <Effects>
          <GenericEffect id="2268" name = "DropShadow" >
           <Parameters>
           <InterpolatingParam id="2269" interp="linr"  time="0/1" value="315" leadInLength="0/1"   name="angle"/>
           <InterpolatingParam id="2270" interp="linr"  time="0/1" value="2" leadInLength="0/1"   name="blur"/>
           <Parameter id="2271"   name="enabled">
            <Keyframes>
            <Keyframe id="2272"  time="0/1" value="1" leadInLength="0/1"  />
            </Keyframes>
           </Parameter>
           <InterpolatingParam id="2273" interp="linr"  time="0/1" value="4" leadInLength="0/1"   name="offset"/>
           <InterpolatingParam id="2274" interp="linr"  time="0/1" value="0.75" leadInLength="0/1"   name="opacity"/>
           </Parameters>
          </GenericEffect>
         </Effects>
         <Attributes>
          <Attribute id="2275"  name="vectorNode">
           <VectorNode id="2276" kind="TypeWinXML"  >
            <DoubleParameters>
             <InterpolatingParam id="2277" interp="linr"  time="0/1" value="-1" leadInLength="0/1"  name="CutoutPercentage"/>
             <InterpolatingParam id="2278" interp="linr"  time="0/1" value="30" leadInLength="0/1"  name="RoundedRectRadius"/>
             <InterpolatingParam id="2279" interp="linr"  time="0/1" value="5" leadInLength="0/1"  name="Style"/>
             <InterpolatingParam id="2280" interp="linr"  time="0/1" value="0" leadInLength="0/1"  name="borderColorBlue"/>
             <InterpolatingParam id="2281" interp="linr"  time="0/1" value="0" leadInLength="0/1"  name="borderColorGreen"/>
             <InterpolatingParam id="2282" interp="linr"  time="0/1" value="0" leadInLength="0/1"  name="borderColorRed"/>
             <InterpolatingParam id="2283" interp="linr"  time="0/1" value="1" leadInLength="0/1"  name="borderState"/>
             <InterpolatingParam id="2284" interp="linr"  time="0/1" value="5" leadInLength="0/1"  name="borderWidth"/>
             <InterpolatingParam id="2285" interp="linr"  time="0/1" value="0" leadInLength="0/1"  name="dimensionTime"/>
             <InterpolatingParam id="2286" interp="linr"  time="0/1" value="0" leadInLength="0/1"  name="fillColorBlue"/>
             <InterpolatingParam id="2287" interp="linr"  time="0/1" value="0" leadInLength="0/1"  name="fillColorGreen"/>
             <InterpolatingParam id="2288" interp="linr"  time="0/1" value="0" leadInLength="0/1"  name="fillColorRed"/>
             <InterpolatingParam id="2289" interp="linr"  time="0/1" value="1" leadInLength="0/1"  name="fillState"/>
             <InterpolatingParam id="2290" interp="linr"  time="0/1" value="0" leadInLength="0/1"  name="flipOnXAxis"/>
             <InterpolatingParam id="2291" interp="linr"  time="0/1" value="0" leadInLength="0/1"  name="flipOnYAxis"/>
             <InterpolatingParam id="2292" interp="linr"  time="0/1" value="237.38562091503266" leadInLength="0/1"  name="height"/>
             <InterpolatingParam id="2293" interp="linr"  time="0/1" value="0" leadInLength="0/1"  name="textDropShadow"/>
             <InterpolatingParam id="2294" interp="linr"  time="0/1" value="0" leadInLength="0/1"  name="textIgnoresOpacity"/>
             <InterpolatingParam id="2295" interp="linr"  time="0/1" value="0.86784140969162993" leadInLength="0/1"  name="textRectHeight"/>
             <InterpolatingParam id="2296" interp="linr"  time="0/1" value="0.90196078431372551" leadInLength="0/1"  name="textRectWidth"/>
             <InterpolatingParam id="2297" interp="linr"  time="0/1" value="0.049019607843137254" leadInLength="0/1"  name="textRectX"/>
             <InterpolatingParam id="2298" interp="linr"  time="0/1" value="0.066079295154185022" leadInLength="0/1"  name="textRectY"/>
             <InterpolatingParam id="2299" interp="linr"  time="0/1" value="0" leadInLength="0/1"  name="textVerticalAlign"/>
             <InterpolatingParam id="2300" interp="linr"  time="0/1" value="320" leadInLength="0/1"  name="width"/>
            </DoubleParameters>
            <StringParameters>
             <Parameter id="2301"  name="VectorPath">
              <Keyframes>
              <Keyframe id="2302"  time="0/1" value="M10,0h286c5.521,0,10,4.477,10,10v207c0,5.521-4.479,10-10,10H10c-5.523,0-10-4.479-10-10V10&#xa;&#x9;C0,4.477,4.477,0,10,0z" leadInLength="0/1"  />
              </Keyframes>
             </Parameter>
             <Parameter id="2303"  name="filename">
              <Keyframes>
              <Keyframe id="2304"  time="0/1" value="C:\Program Files (x86)\TechSmith\Camtasia Studio 8\Media\Studio\Callouts\roundedrectangle.xml" leadInLength="0/1"  />
              </Keyframes>
             </Parameter>
             <Parameter id="2305"  name="name">
              <Keyframes>
              <Keyframe id="2306"  time="0/1" value="Filled Rounded Rectangle" leadInLength="0/1"  />
              </Keyframes>
             </Parameter>
             <Parameter id="2307"  name="text">
              <Keyframes>
              <Keyframe id="2308"  time="0/1" value="{\rtf1\ansi\ansicpg1252\deff0\deflang1033{\fonttbl{\f0\fswiss\fprq2\fcharset0 Arial;}}&#xD;&#xa;{\colortbl ;\red255\green255\blue255;}&#xD;&#xa;\viewkind4\uc1\pard\qc\cf1\f0\fs96 5\&apos;ba \par&#xD;&#xa;composto:\par&#xD;&#xa;Sulfato de Zinco\par&#xD;&#xa;}&#xD;&#xa;" leadInLength="0/1"  />
              </Keyframes>
             </Parameter>
             <Parameter id="2309"  name="xmlContent">
              <Keyframes>
              <Keyframe id="2310"  time="0/1" value="﻿&lt;?xml version=&quot;1.0&quot;?&gt;&#xa;&#xa;&lt;Overlay version=&quot;1.0.1&quot;&gt;&#xa;&#xa;&lt;Overlay_Filename&gt;roundedrectangle.png&lt;/Overlay_Filename&gt;&#xa;&lt;Overlay_Name&gt;Filled Rounded Rectangle&lt;/Overlay_Name&gt;&#xa;&lt;Text_Top&gt;15&lt;/Text_Top&gt;&#xa;&lt;Text_Left&gt;15&lt;/Text_Left&gt;&#xa;&lt;Text_Bottom&gt;15&lt;/Text_Bottom&gt;&#xa;&lt;Text_Right&gt;15&lt;/Text_Right&gt;&#xa;&lt;Fill_Color&gt;1&lt;/Fill_Color&gt;&#xa;&lt;Border_Color&gt;1&lt;/Border_Color&gt;&#xa;&lt;Initial_Fill_Color&gt;0xffe05f00&lt;/Initial_Fill_Color&gt;&#xa;&lt;Initial_Border_Color&gt;0xffd7d7d7&lt;/Initial_Border_Color&gt;&#xa;&lt;VectorProps&gt;&#xa;&lt;figure&gt;&#xa;&lt;svg&gt;M10,0h286c5.521,0,10,4.477,10,10v207c0,5.521-4.479,10-10,10H10c-5.523,0-10-4.479-10-10V10&#xa;&#x9;C0,4.477,4.477,0,10,0z&lt;/svg&gt;&#xa;&lt;/figure&gt;&#xa;&lt;borderWidth&gt;5.00&lt;/borderWidth&gt;&#xa;&lt;seamY&gt;-1&lt;/seamY&gt;&#xa;&lt;roundedRectRadius&gt;30&lt;/roundedRectRadius&gt;&#xa;&lt;shapeWidth&gt;306&lt;/shapeWidth&gt;&#xa;&lt;shapeHeight&gt;227&lt;/shapeHeight&gt;&#xa;&lt;/VectorProps&gt;&#xa;&lt;Style&gt;5&lt;/Style&gt;&#xa;&lt;/Overlay&gt;" leadInLength="0/1"  />
              </Keyframes>
             </Parameter>
            </StringParameters>
           </VectorNode>
          </Attribute>
         </Attributes>
         <MetaData>
          <entry key="WinSubProjectDisplayName" val=""/>
         </MetaData>
         <LeftEdgeMods length="30/1" groupName="OpacityFade">
          <EdgeMod parameter="2267">
           <FadeInFunc id="2311"  />
          </EdgeMod>
         </LeftEdgeMods>
         <RightEdgeMods length="30/1" groupName="OpacityFade">
          <EdgeMod parameter="2267">
           <FadeOutFunc id="2312"  />
          </EdgeMod>
         </RightEdgeMods>
         <ExtraData>
          <Entry key="ZoomPanBin">
           <ZoomPanBin id="2313"  >
            <ZoomPanKeyframes>
             <ZoomPanKeyframe id="2314" timeRangeEnd="-9999999/1" timeRangeDuration="0/1" interpolaterName="linr"  />
            </ZoomPanKeyframes>
           </ZoomPanBin>
          </Entry>
         </ExtraData>
        </Callout>
        <UnifiedMedia id="2315"  >
         <AMFile id="2316" start="6498" duration="35" scalar="1/1" mediaStart="217/1" mediaDuration="35/1" trackNumber="1" src="31" channelNumber="0,1" >
          <Parameters>
           <InterpolatingParam id="2317" interp="linr"  time="0/1" value="1" leadInLength="0/1"  name="volume"/>
           <Parameter id="2318"  name="captions"/>
          </Parameters>
          <Attributes>
           <Attribute id="2319" value="" name="ident"/>
           <Attribute id="2320" value="48000" name="sampleRate"/>
           <Attribute id="2321" value="16" name="bitDepth"/>
           <Attribute id="2322" value="1" name="gain"/>
           <Attribute id="2323" value="0" name="mixToMono"/>
          </Attributes>
         </AMFile>
         <VMFile id="2324" start="6498" duration="35" scalar="1/1" mediaStart="217/1" mediaDuration="35/1" trackNumber="0" src="31" >
          <Transformer>
           <VectorParam id="2325"  name="translation">
            <InterpolatingParam id="2326" interp="linr"  time="-9999999/1" value="-11.145510836428187" leadInLength="0/1"  />
            <InterpolatingParam id="2327" interp="linr"  time="-9999999/1" value="2.3586466113556526e-011" leadInLength="0/1"  />
            <InterpolatingParam id="2328" interp="linr"  time="-9999999/1" value="0" leadInLength="0/1"  />
           </VectorParam>
           <VectorParam id="2329"  name="rotation">
            <InterpolatingParam id="2330" interp="linr"  time="-9999999/1" value="0" leadInLength="0/1"  />
            <InterpolatingParam id="2331" interp="linr"  time="-9999999/1" value="0" leadInLength="0/1"  />
            <InterpolatingParam id="2332" interp="linr"  time="-9999999/1" value="0" leadInLength="0/1"  />
           </VectorParam>
           <VectorParam id="2333"  name="shear">
            <InterpolatingParam id="2334" interp="linr"  time="-9999999/1" value="0" leadInLength="0/1"  />
            <InterpolatingParam id="2335" interp="linr"  time="-9999999/1" value="0" leadInLength="0/1"  />
            <InterpolatingParam id="2336" interp="linr"  time="-9999999/1" value="0" leadInLength="0/1"  />
           </VectorParam>
           <VectorParam id="2337"  name="scale">
            <InterpolatingParam id="2338" interp="linr"  time="-9999999/1" value="2.2665353222614906" leadInLength="0/1"  />
            <InterpolatingParam id="2339" interp="linr"  time="-9999999/1" value="1.1249999999998459" leadInLength="0/1"  />
            <InterpolatingParam id="2340" interp="linr"  time="-9999999/1" value="1" leadInLength="0/1"  />
           </VectorParam>
           <VectorParam id="2341"  name="anchor">
            <InterpolatingParam id="2342" interp="linr"  time="0/1" value="0" leadInLength="0/1"  />
            <InterpolatingParam id="2343" interp="linr"  time="0/1" value="0" leadInLength="0/1"  />
            <InterpolatingParam id="2344" interp="linr"  time="0/1" value="0" leadInLength="0/1"  />
           </VectorParam>
          </Transformer>
          <Parameters>
           <VectorParam id="2345"  name="sourceCrop">
            <InterpolatingParam id="2346" interp="linr"  time="0/1" value="0" leadInLength="0/1"  />
            <InterpolatingParam id="2347" interp="linr"  time="0/1" value="0" leadInLength="0/1"  />
            <InterpolatingParam id="2348" interp="linr"  time="0/1" value="0" leadInLength="0/1"  />
            <InterpolatingParam id="2349" interp="linr"  time="0/1" value="0" leadInLength="0/1"  />
           </VectorParam>
           <VectorParam id="2350"  name="geometryCrop">
            <InterpolatingParam id="2351" interp="linr"  time="-9999999/1" value="0" leadInLength="0/1"  />
            <InterpolatingParam id="2352" interp="linr"  time="-9999999/1" value="0" leadInLength="0/1"  />
            <InterpolatingParam id="2353" interp="linr"  time="-9999999/1" value="0" leadInLength="0/1"  />
            <InterpolatingParam id="2354" interp="linr"  time="-9999999/1" value="0" leadInLength="0/1"  />
           </VectorParam>
           <InterpolatingParam id="2355" interp="linr"  time="-9999999/1" value="1" leadInLength="0/1"  name="opacity"/>
          </Parameters>
          <Attributes>
           <Attribute id="2356" value="" name="ident"/>
          </Attributes>
          <ExtraData>
           <Entry key="ZoomPanBin">
            <ZoomPanBin id="2357"  >
             <ZoomPanKeyframes>
              <ZoomPanKeyframe id="2358" timeRangeEnd="-9999999/1" timeRangeDuration="0/1" interpolaterName="linr"  />
             </ZoomPanKeyframes>
            </ZoomPanBin>
           </Entry>
          </ExtraData>
         </VMFile>
         <MetaData>
          <entry key="WinSubProjectDisplayName" val=""/>
         </MetaData>
        </UnifiedMedia>
        <UnifiedMedia id="2359"  >
         <AMFile id="2360" start="6533" duration="53" scalar="1/1" mediaStart="252/1" mediaDuration="53/1" trackNumber="1" src="31" channelNumber="0,1" >
          <Parameters>
           <InterpolatingParam id="2361" interp="linr"  time="0/1" value="1" leadInLength="0/1"  name="volume"/>
           <Parameter id="2362"  name="captions"/>
          </Parameters>
          <Attributes>
           <Attribute id="2363" value="" name="ident"/>
           <Attribute id="2364" value="48000" name="sampleRate"/>
           <Attribute id="2365" value="16" name="bitDepth"/>
           <Attribute id="2366" value="1" name="gain"/>
           <Attribute id="2367" value="0" name="mixToMono"/>
          </Attributes>
         </AMFile>
         <VMFile id="2368" start="6533" duration="53" scalar="1/1" mediaStart="252/1" mediaDuration="53/1" trackNumber="0" src="31" >
          <Transformer>
           <VectorParam id="2369"  name="translation">
            <InterpolatingParam id="2370" interp="linr"  time="-9999999/1" value="-11.145510836523556" leadInLength="0/1"  />
            <InterpolatingParam id="2371" interp="linr"  time="-9999999/1" value="6.0349947261784109e-011" leadInLength="0/1"  />
            <InterpolatingParam id="2372" interp="linr"  time="-9999999/1" value="0" leadInLength="0/1"  />
           </VectorParam>
           <VectorParam id="2373"  name="rotation">
            <InterpolatingParam id="2374" interp="linr"  time="-9999999/1" value="0" leadInLength="0/1"  />
            <InterpolatingParam id="2375" interp="linr"  time="-9999999/1" value="0" leadInLength="0/1"  />
            <InterpolatingParam id="2376" interp="linr"  time="-9999999/1" value="0" leadInLength="0/1"  />
           </VectorParam>
           <VectorParam id="2377"  name="shear">
            <InterpolatingParam id="2378" interp="linr"  time="-9999999/1" value="0" leadInLength="0/1"  />
            <InterpolatingParam id="2379" interp="linr"  time="-9999999/1" value="0" leadInLength="0/1"  />
            <InterpolatingParam id="2380" interp="linr"  time="-9999999/1" value="0" leadInLength="0/1"  />
           </VectorParam>
           <VectorParam id="2381"  name="scale">
            <InterpolatingParam id="2382" interp="linr"  time="-9999999/1" value="2.2665353222618259" leadInLength="0/1"  />
            <InterpolatingParam id="2383" interp="linr"  time="-9999999/1" value="1.1249999999997311" leadInLength="0/1"  />
            <InterpolatingParam id="2384" interp="linr"  time="-9999999/1" value="1" leadInLength="0/1"  />
           </VectorParam>
           <VectorParam id="2385"  name="anchor">
            <InterpolatingParam id="2386" interp="linr"  time="0/1" value="0" leadInLength="0/1"  />
            <InterpolatingParam id="2387" interp="linr"  time="0/1" value="0" leadInLength="0/1"  />
            <InterpolatingParam id="2388" interp="linr"  time="0/1" value="0" leadInLength="0/1"  />
           </VectorParam>
          </Transformer>
          <Parameters>
           <VectorParam id="2389"  name="sourceCrop">
            <InterpolatingParam id="2390" interp="linr"  time="0/1" value="0" leadInLength="0/1"  />
            <InterpolatingParam id="2391" interp="linr"  time="0/1" value="0" leadInLength="0/1"  />
            <InterpolatingParam id="2392" interp="linr"  time="0/1" value="0" leadInLength="0/1"  />
            <InterpolatingParam id="2393" interp="linr"  time="0/1" value="0" leadInLength="0/1"  />
           </VectorParam>
           <VectorParam id="2394"  name="geometryCrop">
            <InterpolatingParam id="2395" interp="linr"  time="-9999999/1" value="0" leadInLength="0/1"  />
            <InterpolatingParam id="2396" interp="linr"  time="-9999999/1" value="0" leadInLength="0/1"  />
            <InterpolatingParam id="2397" interp="linr"  time="-9999999/1" value="0" leadInLength="0/1"  />
            <InterpolatingParam id="2398" interp="linr"  time="-9999999/1" value="0" leadInLength="0/1"  />
           </VectorParam>
           <InterpolatingParam id="2399" interp="linr"  time="-9999999/1" value="1" leadInLength="0/1"  name="opacity"/>
          </Parameters>
          <Attributes>
           <Attribute id="2400" value="" name="ident"/>
          </Attributes>
          <ExtraData>
           <Entry key="ZoomPanBin">
            <ZoomPanBin id="2401"  >
             <ZoomPanKeyframes>
              <ZoomPanKeyframe id="2402" timeRangeEnd="-9999999/1" timeRangeDuration="0/1" interpolaterName="linr"  />
             </ZoomPanKeyframes>
            </ZoomPanBin>
           </Entry>
          </ExtraData>
         </VMFile>
         <MetaData>
          <entry key="WinSubProjectDisplayName" val=""/>
         </MetaData>
        </UnifiedMedia>
        <UnifiedMedia id="2403"  >
         <AMFile id="2404" start="6586" duration="249" scalar="1/1" mediaStart="817/1" mediaDuration="249/1" trackNumber="1" src="31" channelNumber="0,1" >
          <Parameters>
           <InterpolatingParam id="2405" interp="linr"  name="volume">
            <Keyframes>
            <Keyframe id="2406"  time="0/1" value="1" leadInLength="0/1"  />
            <Keyframe id="2407"  time="817/1" value="0" leadInLength="0/1"  />
            </Keyframes>
           </InterpolatingParam>
           <Parameter id="2408"  name="captions"/>
          </Parameters>
          <Attributes>
           <Attribute id="2409" value="" name="ident"/>
           <Attribute id="2410" value="48000" name="sampleRate"/>
           <Attribute id="2411" value="16" name="bitDepth"/>
           <Attribute id="2412" value="1" name="gain"/>
           <Attribute id="2413" value="0" name="mixToMono"/>
          </Attributes>
         </AMFile>
         <VMFile id="2414" start="6586" duration="249" scalar="1/1" mediaStart="817/1" mediaDuration="249/1" trackNumber="0" src="31" >
          <Transformer>
           <VectorParam id="2415"  name="translation">
            <InterpolatingParam id="2416" interp="linr"  time="-9999999/1" value="-11.145510836623771" leadInLength="0/1"  interpolater="leadin-linr"  />
            <InterpolatingParam id="2417" interp="linr"  time="-9999999/1" value="5.1656456889759284e-012" leadInLength="0/1"  interpolater="leadin-linr"  />
            <InterpolatingParam id="2418" interp="linr"  time="-9999999/1" value="0" leadInLength="0/1"  interpolater="leadin-linr"  />
           </VectorParam>
           <VectorParam id="2419"  name="rotation">
            <InterpolatingParam id="2420" interp="linr"  time="-9999999/1" value="0" leadInLength="0/1"  interpolater="leadin-linr"  />
            <InterpolatingParam id="2421" interp="linr"  time="-9999999/1" value="0" leadInLength="0/1"  interpolater="leadin-linr"  />
            <InterpolatingParam id="2422" interp="linr"  time="-9999999/1" value="0" leadInLength="0/1"  interpolater="leadin-linr"  />
           </VectorParam>
           <VectorParam id="2423"  name="shear">
            <InterpolatingParam id="2424" interp="linr"  time="-9999999/1" value="0" leadInLength="0/1"  interpolater="leadin-linr"  />
            <InterpolatingParam id="2425" interp="linr"  time="-9999999/1" value="0" leadInLength="0/1"  interpolater="leadin-linr"  />
            <InterpolatingParam id="2426" interp="linr"  time="-9999999/1" value="0" leadInLength="0/1"  interpolater="leadin-linr"  />
           </VectorParam>
           <VectorParam id="2427"  name="scale">
            <InterpolatingParam id="2428" interp="linr"  time="-9999999/1" value="2.2665353222619347" leadInLength="0/1"  interpolater="leadin-linr"  />
            <InterpolatingParam id="2429" interp="linr"  time="-9999999/1" value="1.1249999999997828" leadInLength="0/1"  interpolater="leadin-linr"  />
            <InterpolatingParam id="2430" interp="linr"  time="-9999999/1" value="1" leadInLength="0/1"  interpolater="leadin-linr"  />
           </VectorParam>
           <VectorParam id="2431"  name="anchor">
            <InterpolatingParam id="2432" interp="linr"  time="0/1" value="0" leadInLength="0/1"  />
            <InterpolatingParam id="2433" interp="linr"  time="0/1" value="0" leadInLength="0/1"  />
            <InterpolatingParam id="2434" interp="linr"  time="0/1" value="0" leadInLength="0/1"  />
           </VectorParam>
          </Transformer>
          <Parameters>
           <VectorParam id="2435"  name="sourceCrop">
            <InterpolatingParam id="2436" interp="linr"  time="0/1" value="0" leadInLength="0/1"  />
            <InterpolatingParam id="2437" interp="linr"  time="0/1" value="0" leadInLength="0/1"  />
            <InterpolatingParam id="2438" interp="linr"  time="0/1" value="0" leadInLength="0/1"  />
            <InterpolatingParam id="2439" interp="linr"  time="0/1" value="0" leadInLength="0/1"  />
           </VectorParam>
           <VectorParam id="2440"  name="geometryCrop">
            <InterpolatingParam id="2441" interp="linr"  time="-9999999/1" value="0" leadInLength="0/1"  interpolater="leadin-linr"  />
            <InterpolatingParam id="2442" interp="linr"  time="-9999999/1" value="0" leadInLength="0/1"  interpolater="leadin-linr"  />
            <InterpolatingParam id="2443" interp="linr"  time="-9999999/1" value="0" leadInLength="0/1"  interpolater="leadin-linr"  />
            <InterpolatingParam id="2444" interp="linr"  time="-9999999/1" value="0" leadInLength="0/1"  interpolater="leadin-linr"  />
           </VectorParam>
           <InterpolatingParam id="2445" interp="linr"  time="-9999999/1" value="1" leadInLength="0/1"  interpolater="leadin-linr"  name="opacity"/>
          </Parameters>
          <Attributes>
           <Attribute id="2446" value="" name="ident"/>
          </Attributes>
          <ExtraData>
           <Entry key="ZoomPanBin">
            <ZoomPanBin id="2447"  >
             <ZoomPanKeyframes>
              <ZoomPanKeyframe id="2448" timeRangeEnd="-9999999/1" timeRangeDuration="0/1" interpolaterName="linr"  />
             </ZoomPanKeyframes>
            </ZoomPanBin>
           </Entry>
          </ExtraData>
         </VMFile>
         <MetaData>
          <entry key="WinSubProjectDisplayName" val=""/>
         </MetaData>
        </UnifiedMedia>
        <UnifiedMedia id="2449"  >
         <AudioTransition id="2450" start="6835" duration="30" >
          <Parameters>
           <InterpolatingParam id="2451" interp="linr"  time="0/1" value="1" leadInLength="0/1"  name="volume"/>
           <Parameter id="2452"  name="captions"/>
          </Parameters>
          <Effects>
           <GenericEffect id="2453" name = "AudioTransition" >
            <Parameters>
            <Parameter id="2454"   name="audioEdgeModType">
             <Keyframes>
             <Keyframe id="2455"  time="0/1" value="0" leadInLength="0/1"  />
             </Keyframes>
            </Parameter>
            <Parameter id="2456"   name="audioTransitionType">
             <Keyframes>
             <Keyframe id="2457"  time="0/1" value="" leadInLength="0/1"  />
             </Keyframes>
            </Parameter>
            </Parameters>
            <MetaData>
            </MetaData>
           </GenericEffect>
          </Effects>
          <Attributes>
           <Attribute id="2458" value="" name="ident"/>
           <Attribute id="2459" value="0" name="sampleRate"/>
           <Attribute id="2460" value="0" name="bitDepth"/>
           <Attribute id="2461" value="1" name="gain"/>
           <Attribute id="2462" value="0" name="mixToMono"/>
          </Attributes>
         </AudioTransition>
         <ImageTransition id="2463" start="6835" duration="30" >
          <Transformer>
           <VectorParam id="2464"  name="translation">
            <InterpolatingParam id="2465" interp="linr"  time="0/1" value="0" leadInLength="0/1"  />
            <InterpolatingParam id="2466" interp="linr"  time="0/1" value="0" leadInLength="0/1"  />
            <InterpolatingParam id="2467" interp="linr"  time="0/1" value="0" leadInLength="0/1"  />
           </VectorParam>
           <VectorParam id="2468"  name="rotation">
            <InterpolatingParam id="2469" interp="linr"  time="0/1" value="0" leadInLength="0/1"  />
            <InterpolatingParam id="2470" interp="linr"  time="0/1" value="0" leadInLength="0/1"  />
            <InterpolatingParam id="2471" interp="linr"  time="0/1" value="0" leadInLength="0/1"  />
           </VectorParam>
           <VectorParam id="2472"  name="shear">
            <InterpolatingParam id="2473" interp="linr"  time="0/1" value="0" leadInLength="0/1"  />
            <InterpolatingParam id="2474" interp="linr"  time="0/1" value="0" leadInLength="0/1"  />
            <InterpolatingParam id="2475" interp="linr"  time="0/1" value="0" leadInLength="0/1"  />
           </VectorParam>
           <VectorParam id="2476"  name="scale">
            <InterpolatingParam id="2477" interp="linr"  time="0/1" value="1" leadInLength="0/1"  />
            <InterpolatingParam id="2478" interp="linr"  time="0/1" value="1" leadInLength="0/1"  />
            <InterpolatingParam id="2479" interp="linr"  time="0/1" value="1" leadInLength="0/1"  />
           </VectorParam>
           <VectorParam id="2480"  name="anchor">
            <InterpolatingParam id="2481" interp="linr"  time="0/1" value="0" leadInLength="0/1"  />
            <InterpolatingParam id="2482" interp="linr"  time="0/1" value="0" leadInLength="0/1"  />
            <InterpolatingParam id="2483" interp="linr"  time="0/1" value="0" leadInLength="0/1"  />
           </VectorParam>
          </Transformer>
          <Parameters>
           <VectorParam id="2484"  name="sourceCrop">
            <InterpolatingParam id="2485" interp="linr"  time="0/1" value="0" leadInLength="0/1"  />
            <InterpolatingParam id="2486" interp="linr"  time="0/1" value="0" leadInLength="0/1"  />
            <InterpolatingParam id="2487" interp="linr"  time="0/1" value="0" leadInLength="0/1"  />
            <InterpolatingParam id="2488" interp="linr"  time="0/1" value="0" leadInLength="0/1"  />
           </VectorParam>
           <VectorParam id="2489"  name="geometryCrop">
            <InterpolatingParam id="2490" interp="linr"  time="0/1" value="0" leadInLength="0/1"  />
            <InterpolatingParam id="2491" interp="linr"  time="0/1" value="0" leadInLength="0/1"  />
            <InterpolatingParam id="2492" interp="linr"  time="0/1" value="0" leadInLength="0/1"  />
            <InterpolatingParam id="2493" interp="linr"  time="0/1" value="0" leadInLength="0/1"  />
           </VectorParam>
           <InterpolatingParam id="2494" interp="linr"  time="0/1" value="1" leadInLength="0/1"  name="opacity"/>
          </Parameters>
          <Effects>
           <GenericEffect id="2495" name = "VisualTransition" >
            <Parameters>
            <InterpolatingParam id="2496" interp="linr"  time="0/1" value="0.5" leadInLength="0/1"   name="leftFramePercentage"/>
            <InterpolatingParam id="2497" interp="linr"  time="0/1" value="0.5" leadInLength="0/1"   name="rightFramePercentage"/>
            <Parameter id="2498"   name="visualEdgeModType">
             <Keyframes>
             <Keyframe id="2499"  time="0/1" value="2" leadInLength="0/1"  />
             </Keyframes>
            </Parameter>
            <Parameter id="2500"   name="visualTransitionType">
             <Keyframes>
             <Keyframe id="2501"  time="0/1" value="FadeThruBlack" leadInLength="0/1"  />
             </Keyframes>
            </Parameter>
            </Parameters>
            <MetaData>
            </MetaData>
           </GenericEffect>
          </Effects>
          <Attributes>
           <Attribute id="2502" value="" name="ident"/>
          </Attributes>
          <ExtraData>
           <Entry key="ZoomPanBin">
            <ZoomPanBin id="2503"  >
             <ZoomPanKeyframes>
             </ZoomPanKeyframes>
            </ZoomPanBin>
           </Entry>
          </ExtraData>
         </ImageTransition>
         <MetaData>
          <entry key="WinSubProjectDisplayName" val=""/>
         </MetaData>
        </UnifiedMedia>
        <Callout id="2504" start="6865" duration="119" scalar="1/1" mediaStart="0/1" mediaDuration="119/1" >
         <Transformer>
          <VectorParam id="2505"  name="translation">
           <InterpolatingParam id="2506" interp="linr"  time="-9999999/1" value="-3.1179011634359112e-011" leadInLength="0/1"  />
           <InterpolatingParam id="2507" interp="linr"  time="-9999999/1" value="186.69418684527767" leadInLength="0/1"  />
           <InterpolatingParam id="2508" interp="linr"  time="-9999999/1" value="-3.4106051316488562e-010" leadInLength="0/1"  />
          </VectorParam>
          <VectorParam id="2509"  name="rotation">
           <InterpolatingParam id="2510" interp="linr"  time="-9999999/1" value="0" leadInLength="0/1"  />
           <InterpolatingParam id="2511" interp="linr"  time="-9999999/1" value="0" leadInLength="0/1"  />
           <InterpolatingParam id="2512" interp="linr"  time="-9999999/1" value="0" leadInLength="0/1"  />
          </VectorParam>
          <VectorParam id="2513"  name="shear">
           <InterpolatingParam id="2514" interp="linr"  time="-9999999/1" value="0" leadInLength="0/1"  />
           <InterpolatingParam id="2515" interp="linr"  time="-9999999/1" value="0" leadInLength="0/1"  />
           <InterpolatingParam id="2516" interp="linr"  time="-9999999/1" value="0" leadInLength="0/1"  />
          </VectorParam>
          <VectorParam id="2517"  name="scale">
           <InterpolatingParam id="2518" interp="linr"  time="-9999999/1" value="1.801083591332181" leadInLength="0/1"  />
           <InterpolatingParam id="2519" interp="linr"  time="-9999999/1" value="1.4601205672797621" leadInLength="0/1"  />
           <InterpolatingParam id="2520" interp="linr"  time="-9999999/1" value="1" leadInLength="0/1"  />
          </VectorParam>
          <VectorParam id="2521"  name="anchor">
           <InterpolatingParam id="2522" interp="linr"  time="0/1" value="0" leadInLength="0/1"  />
           <InterpolatingParam id="2523" interp="linr"  time="0/1" value="0" leadInLength="0/1"  />
           <InterpolatingParam id="2524" interp="linr"  time="0/1" value="0" leadInLength="0/1"  />
          </VectorParam>
         </Transformer>
         <Parameters>
          <VectorParam id="2525"  name="sourceCrop">
           <InterpolatingParam id="2526" interp="linr"  time="0/1" value="0" leadInLength="0/1"  />
           <InterpolatingParam id="2527" interp="linr"  time="0/1" value="0" leadInLength="0/1"  />
           <InterpolatingParam id="2528" interp="linr"  time="0/1" value="0" leadInLength="0/1"  />
           <InterpolatingParam id="2529" interp="linr"  time="0/1" value="0" leadInLength="0/1"  />
          </VectorParam>
          <VectorParam id="2530"  name="geometryCrop">
           <InterpolatingParam id="2531" interp="linr"  time="-9999999/1" value="0" leadInLength="0/1"  />
           <InterpolatingParam id="2532" interp="linr"  time="-9999999/1" value="0" leadInLength="0/1"  />
           <InterpolatingParam id="2533" interp="linr"  time="-9999999/1" value="0" leadInLength="0/1"  />
           <InterpolatingParam id="2534" interp="linr"  time="-9999999/1" value="0" leadInLength="0/1"  />
          </VectorParam>
          <InterpolatingParam id="2535" interp="linr"  time="-9999999/1" value="1" leadInLength="0/1"  name="opacity"/>
         </Parameters>
         <Effects>
          <GenericEffect id="2536" name = "DropShadow" >
           <Parameters>
           <InterpolatingParam id="2537" interp="linr"  time="0/1" value="315" leadInLength="0/1"   name="angle"/>
           <InterpolatingParam id="2538" interp="linr"  time="0/1" value="2" leadInLength="0/1"   name="blur"/>
           <Parameter id="2539"   name="enabled">
            <Keyframes>
            <Keyframe id="2540"  time="0/1" value="1" leadInLength="0/1"  />
            </Keyframes>
           </Parameter>
           <InterpolatingParam id="2541" interp="linr"  time="0/1" value="4" leadInLength="0/1"   name="offset"/>
           <InterpolatingParam id="2542" interp="linr"  time="0/1" value="0.75" leadInLength="0/1"   name="opacity"/>
           </Parameters>
          </GenericEffect>
         </Effects>
         <Attributes>
          <Attribute id="2543"  name="vectorNode">
           <VectorNode id="2544" kind="TypeWinXML"  >
            <DoubleParameters>
             <InterpolatingParam id="2545" interp="linr"  time="0/1" value="-1" leadInLength="0/1"  name="CutoutPercentage"/>
             <InterpolatingParam id="2546" interp="linr"  time="0/1" value="30" leadInLength="0/1"  name="RoundedRectRadius"/>
             <InterpolatingParam id="2547" interp="linr"  time="0/1" value="5" leadInLength="0/1"  name="Style"/>
             <InterpolatingParam id="2548" interp="linr"  time="0/1" value="0" leadInLength="0/1"  name="borderColorBlue"/>
             <InterpolatingParam id="2549" interp="linr"  time="0/1" value="0" leadInLength="0/1"  name="borderColorGreen"/>
             <InterpolatingParam id="2550" interp="linr"  time="0/1" value="0" leadInLength="0/1"  name="borderColorRed"/>
             <InterpolatingParam id="2551" interp="linr"  time="0/1" value="1" leadInLength="0/1"  name="borderState"/>
             <InterpolatingParam id="2552" interp="linr"  time="0/1" value="5" leadInLength="0/1"  name="borderWidth"/>
             <InterpolatingParam id="2553" interp="linr"  time="0/1" value="0" leadInLength="0/1"  name="dimensionTime"/>
             <InterpolatingParam id="2554" interp="linr"  time="0/1" value="0" leadInLength="0/1"  name="fillColorBlue"/>
             <InterpolatingParam id="2555" interp="linr"  time="0/1" value="0" leadInLength="0/1"  name="fillColorGreen"/>
             <InterpolatingParam id="2556" interp="linr"  time="0/1" value="0" leadInLength="0/1"  name="fillColorRed"/>
             <InterpolatingParam id="2557" interp="linr"  time="0/1" value="1" leadInLength="0/1"  name="fillState"/>
             <InterpolatingParam id="2558" interp="linr"  time="0/1" value="0" leadInLength="0/1"  name="flipOnXAxis"/>
             <InterpolatingParam id="2559" interp="linr"  time="0/1" value="0" leadInLength="0/1"  name="flipOnYAxis"/>
             <InterpolatingParam id="2560" interp="linr"  time="0/1" value="237.38562091503266" leadInLength="0/1"  name="height"/>
             <InterpolatingParam id="2561" interp="linr"  time="0/1" value="0" leadInLength="0/1"  name="textDropShadow"/>
             <InterpolatingParam id="2562" interp="linr"  time="0/1" value="0" leadInLength="0/1"  name="textIgnoresOpacity"/>
             <InterpolatingParam id="2563" interp="linr"  time="0/1" value="0.86784140969162993" leadInLength="0/1"  name="textRectHeight"/>
             <InterpolatingParam id="2564" interp="linr"  time="0/1" value="0.90196078431372551" leadInLength="0/1"  name="textRectWidth"/>
             <InterpolatingParam id="2565" interp="linr"  time="0/1" value="0.049019607843137254" leadInLength="0/1"  name="textRectX"/>
             <InterpolatingParam id="2566" interp="linr"  time="0/1" value="0.066079295154185022" leadInLength="0/1"  name="textRectY"/>
             <InterpolatingParam id="2567" interp="linr"  time="0/1" value="0" leadInLength="0/1"  name="textVerticalAlign"/>
             <InterpolatingParam id="2568" interp="linr"  time="0/1" value="320" leadInLength="0/1"  name="width"/>
            </DoubleParameters>
            <StringParameters>
             <Parameter id="2569"  name="VectorPath">
              <Keyframes>
              <Keyframe id="2570"  time="0/1" value="M10,0h286c5.521,0,10,4.477,10,10v207c0,5.521-4.479,10-10,10H10c-5.523,0-10-4.479-10-10V10&#xa;&#x9;C0,4.477,4.477,0,10,0z" leadInLength="0/1"  />
              </Keyframes>
             </Parameter>
             <Parameter id="2571"  name="filename">
              <Keyframes>
              <Keyframe id="2572"  time="0/1" value="C:\Program Files (x86)\TechSmith\Camtasia Studio 8\Media\Studio\Callouts\roundedrectangle.xml" leadInLength="0/1"  />
              </Keyframes>
             </Parameter>
             <Parameter id="2573"  name="name">
              <Keyframes>
              <Keyframe id="2574"  time="0/1" value="Filled Rounded Rectangle" leadInLength="0/1"  />
              </Keyframes>
             </Parameter>
             <Parameter id="2575"  name="text">
              <Keyframes>
              <Keyframe id="2576"  time="0/1" value="{\rtf1\ansi\ansicpg1252\deff0\deflang1033{\fonttbl{\f0\fswiss\fprq2\fcharset0 Arial;}}&#xD;&#xa;{\colortbl ;\red255\green255\blue255;}&#xD;&#xa;\viewkind4\uc1\pard\qc\cf1\f0\fs96 6\&apos;ba\par&#xD;&#xa;(e \&apos;faltimo) \par&#xD;&#xa;composto:\par&#xD;&#xa;Sulfato de Cobre\par&#xD;&#xa;}&#xD;&#xa;" leadInLength="0/1"  />
              </Keyframes>
             </Parameter>
             <Parameter id="2577"  name="xmlContent">
              <Keyframes>
              <Keyframe id="2578"  time="0/1" value="﻿&lt;?xml version=&quot;1.0&quot;?&gt;&#xa;&#xa;&lt;Overlay version=&quot;1.0.1&quot;&gt;&#xa;&#xa;&lt;Overlay_Filename&gt;roundedrectangle.png&lt;/Overlay_Filename&gt;&#xa;&lt;Overlay_Name&gt;Filled Rounded Rectangle&lt;/Overlay_Name&gt;&#xa;&lt;Text_Top&gt;15&lt;/Text_Top&gt;&#xa;&lt;Text_Left&gt;15&lt;/Text_Left&gt;&#xa;&lt;Text_Bottom&gt;15&lt;/Text_Bottom&gt;&#xa;&lt;Text_Right&gt;15&lt;/Text_Right&gt;&#xa;&lt;Fill_Color&gt;1&lt;/Fill_Color&gt;&#xa;&lt;Border_Color&gt;1&lt;/Border_Color&gt;&#xa;&lt;Initial_Fill_Color&gt;0xffe05f00&lt;/Initial_Fill_Color&gt;&#xa;&lt;Initial_Border_Color&gt;0xffd7d7d7&lt;/Initial_Border_Color&gt;&#xa;&lt;VectorProps&gt;&#xa;&lt;figure&gt;&#xa;&lt;svg&gt;M10,0h286c5.521,0,10,4.477,10,10v207c0,5.521-4.479,10-10,10H10c-5.523,0-10-4.479-10-10V10&#xa;&#x9;C0,4.477,4.477,0,10,0z&lt;/svg&gt;&#xa;&lt;/figure&gt;&#xa;&lt;borderWidth&gt;5.00&lt;/borderWidth&gt;&#xa;&lt;seamY&gt;-1&lt;/seamY&gt;&#xa;&lt;roundedRectRadius&gt;30&lt;/roundedRectRadius&gt;&#xa;&lt;shapeWidth&gt;306&lt;/shapeWidth&gt;&#xa;&lt;shapeHeight&gt;227&lt;/shapeHeight&gt;&#xa;&lt;/VectorProps&gt;&#xa;&lt;Style&gt;5&lt;/Style&gt;&#xa;&lt;/Overlay&gt;" leadInLength="0/1"  />
              </Keyframes>
             </Parameter>
            </StringParameters>
           </VectorNode>
          </Attribute>
         </Attributes>
         <MetaData>
          <entry key="WinSubProjectDisplayName" val=""/>
         </MetaData>
         <LeftEdgeMods length="30/1" groupName="OpacityFade">
          <EdgeMod parameter="2535">
           <FadeInFunc id="2579"  />
          </EdgeMod>
         </LeftEdgeMods>
         <RightEdgeMods length="30/1" groupName="OpacityFade">
          <EdgeMod parameter="2535">
           <FadeOutFunc id="1195"  />
          </EdgeMod>
         </RightEdgeMods>
         <ExtraData>
          <Entry key="ZoomPanBin">
           <ZoomPanBin id="2580"  >
            <ZoomPanKeyframes>
             <ZoomPanKeyframe id="2581" timeRangeEnd="-9999999/1" timeRangeDuration="0/1" interpolaterName="linr"  />
            </ZoomPanKeyframes>
           </ZoomPanBin>
          </Entry>
         </ExtraData>
        </Callout>
        <UnifiedMedia id="2582"  >
         <AMFile id="2583" start="6984" duration="149" scalar="1/1" mediaStart="77/1" mediaDuration="149/1" trackNumber="1" src="30" channelNumber="0,1" >
          <Parameters>
           <InterpolatingParam id="2584" interp="linr"  time="0/1" value="1" leadInLength="0/1"  name="volume"/>
           <Parameter id="2585"  name="captions"/>
          </Parameters>
          <Attributes>
           <Attribute id="2586" value="" name="ident"/>
           <Attribute id="2587" value="48000" name="sampleRate"/>
           <Attribute id="2588" value="16" name="bitDepth"/>
           <Attribute id="2589" value="1" name="gain"/>
           <Attribute id="2590" value="0" name="mixToMono"/>
          </Attributes>
         </AMFile>
         <VMFile id="2591" start="6984" duration="149" scalar="1/1" mediaStart="77/1" mediaDuration="149/1" trackNumber="0" src="30" >
          <Transformer>
           <VectorParam id="2592"  name="translation">
            <InterpolatingParam id="2593" interp="linr"  time="-9999999/1" value="-11.145510836014139" leadInLength="0/1"  />
            <InterpolatingParam id="2594" interp="linr"  time="-9999999/1" value="2.3586466113556526e-011" leadInLength="0/1"  />
            <InterpolatingParam id="2595" interp="linr"  time="-9999999/1" value="0" leadInLength="0/1"  />
           </VectorParam>
           <VectorParam id="2596"  name="rotation">
            <InterpolatingParam id="2597" interp="linr"  time="-9999999/1" value="0" leadInLength="0/1"  />
            <InterpolatingParam id="2598" interp="linr"  time="-9999999/1" value="0" leadInLength="0/1"  />
            <InterpolatingParam id="2599" interp="linr"  time="-9999999/1" value="0" leadInLength="0/1"  />
           </VectorParam>
           <VectorParam id="2600"  name="shear">
            <InterpolatingParam id="2601" interp="linr"  time="-9999999/1" value="0" leadInLength="0/1"  />
            <InterpolatingParam id="2602" interp="linr"  time="-9999999/1" value="0" leadInLength="0/1"  />
            <InterpolatingParam id="2603" interp="linr"  time="-9999999/1" value="0" leadInLength="0/1"  />
           </VectorParam>
           <VectorParam id="2604"  name="scale">
            <InterpolatingParam id="2605" interp="linr"  time="-9999999/1" value="2.266535322264017" leadInLength="0/1"  />
            <InterpolatingParam id="2606" interp="linr"  time="-9999999/1" value="1.1249999999998459" leadInLength="0/1"  />
            <InterpolatingParam id="2607" interp="linr"  time="-9999999/1" value="1" leadInLength="0/1"  />
           </VectorParam>
           <VectorParam id="2608"  name="anchor">
            <InterpolatingParam id="2609" interp="linr"  time="0/1" value="0" leadInLength="0/1"  />
            <InterpolatingParam id="2610" interp="linr"  time="0/1" value="0" leadInLength="0/1"  />
            <InterpolatingParam id="2611" interp="linr"  time="0/1" value="0" leadInLength="0/1"  />
           </VectorParam>
          </Transformer>
          <Parameters>
           <VectorParam id="2612"  name="sourceCrop">
            <InterpolatingParam id="2613" interp="linr"  time="0/1" value="0" leadInLength="0/1"  />
            <InterpolatingParam id="2614" interp="linr"  time="0/1" value="0" leadInLength="0/1"  />
            <InterpolatingParam id="2615" interp="linr"  time="0/1" value="0" leadInLength="0/1"  />
            <InterpolatingParam id="2616" interp="linr"  time="0/1" value="0" leadInLength="0/1"  />
           </VectorParam>
           <VectorParam id="2617"  name="geometryCrop">
            <InterpolatingParam id="2618" interp="linr"  time="-9999999/1" value="0" leadInLength="0/1"  />
            <InterpolatingParam id="2619" interp="linr"  time="-9999999/1" value="0" leadInLength="0/1"  />
            <InterpolatingParam id="2620" interp="linr"  time="-9999999/1" value="0" leadInLength="0/1"  />
            <InterpolatingParam id="2621" interp="linr"  time="-9999999/1" value="0" leadInLength="0/1"  />
           </VectorParam>
           <InterpolatingParam id="2622" interp="linr"  time="-9999999/1" value="1" leadInLength="0/1"  name="opacity"/>
          </Parameters>
          <Attributes>
           <Attribute id="2623" value="" name="ident"/>
          </Attributes>
          <ExtraData>
           <Entry key="ZoomPanBin">
            <ZoomPanBin id="2624"  >
             <ZoomPanKeyframes>
              <ZoomPanKeyframe id="2625" timeRangeEnd="-9999999/1" timeRangeDuration="0/1" interpolaterName="linr"  />
             </ZoomPanKeyframes>
            </ZoomPanBin>
           </Entry>
          </ExtraData>
         </VMFile>
         <MetaData>
          <entry key="WinSubProjectDisplayName" val=""/>
         </MetaData>
        </UnifiedMedia>
        <UnifiedMedia id="2626"  >
         <AMFile id="2627" start="7133" duration="150" scalar="1/1" mediaStart="462/1" mediaDuration="150/1" trackNumber="1" src="30" channelNumber="0,1" >
          <Parameters>
           <InterpolatingParam id="2628" interp="linr"  name="volume">
            <Keyframes>
            <Keyframe id="2629"  time="0/1" value="1" leadInLength="0/1"  />
            <Keyframe id="2630"  time="462/1" value="0" leadInLength="0/1"  />
            </Keyframes>
           </InterpolatingParam>
           <Parameter id="2631"  name="captions"/>
          </Parameters>
          <Attributes>
           <Attribute id="2632" value="" name="ident"/>
           <Attribute id="2633" value="48000" name="sampleRate"/>
           <Attribute id="2634" value="16" name="bitDepth"/>
           <Attribute id="2635" value="1" name="gain"/>
           <Attribute id="2636" value="0" name="mixToMono"/>
          </Attributes>
         </AMFile>
         <VMFile id="2637" start="7133" duration="150" scalar="1/1" mediaStart="462/1" mediaDuration="150/1" trackNumber="0" src="30" >
          <Transformer>
           <VectorParam id="2638"  name="translation">
            <InterpolatingParam id="2639" interp="linr"  time="-9999999/1" value="-11.14551083613595" leadInLength="0/1"  interpolater="leadin-linr"  />
            <InterpolatingParam id="2640" interp="linr"  time="-9999999/1" value="2.1705748309843155e-011" leadInLength="0/1"  interpolater="leadin-linr"  />
            <InterpolatingParam id="2641" interp="linr"  time="-9999999/1" value="0" leadInLength="0/1"  interpolater="leadin-linr"  />
           </VectorParam>
           <VectorParam id="2642"  name="rotation">
            <InterpolatingParam id="2643" interp="linr"  time="-9999999/1" value="0" leadInLength="0/1"  interpolater="leadin-linr"  />
            <InterpolatingParam id="2644" interp="linr"  time="-9999999/1" value="0" leadInLength="0/1"  interpolater="leadin-linr"  />
            <InterpolatingParam id="2645" interp="linr"  time="-9999999/1" value="0" leadInLength="0/1"  interpolater="leadin-linr"  />
           </VectorParam>
           <VectorParam id="2646"  name="shear">
            <InterpolatingParam id="2647" interp="linr"  time="-9999999/1" value="0" leadInLength="0/1"  interpolater="leadin-linr"  />
            <InterpolatingParam id="2648" interp="linr"  time="-9999999/1" value="0" leadInLength="0/1"  interpolater="leadin-linr"  />
            <InterpolatingParam id="2649" interp="linr"  time="-9999999/1" value="0" leadInLength="0/1"  interpolater="leadin-linr"  />
           </VectorParam>
           <VectorParam id="2650"  name="scale">
            <InterpolatingParam id="2651" interp="linr"  time="-9999999/1" value="2.2665353222633624" leadInLength="0/1"  interpolater="leadin-linr"  />
            <InterpolatingParam id="2652" interp="linr"  time="-9999999/1" value="1.1249999999998508" leadInLength="0/1"  interpolater="leadin-linr"  />
            <InterpolatingParam id="2653" interp="linr"  time="-9999999/1" value="1" leadInLength="0/1"  interpolater="leadin-linr"  />
           </VectorParam>
           <VectorParam id="2654"  name="anchor">
            <InterpolatingParam id="2655" interp="linr"  time="0/1" value="0" leadInLength="0/1"  />
            <InterpolatingParam id="2656" interp="linr"  time="0/1" value="0" leadInLength="0/1"  />
            <InterpolatingParam id="2657" interp="linr"  time="0/1" value="0" leadInLength="0/1"  />
           </VectorParam>
          </Transformer>
          <Parameters>
           <VectorParam id="2658"  name="sourceCrop">
            <InterpolatingParam id="2659" interp="linr"  time="0/1" value="0" leadInLength="0/1"  />
            <InterpolatingParam id="2660" interp="linr"  time="0/1" value="0" leadInLength="0/1"  />
            <InterpolatingParam id="2661" interp="linr"  time="0/1" value="0" leadInLength="0/1"  />
            <InterpolatingParam id="2662" interp="linr"  time="0/1" value="0" leadInLength="0/1"  />
           </VectorParam>
           <VectorParam id="2663"  name="geometryCrop">
            <InterpolatingParam id="2664" interp="linr"  time="-9999999/1" value="0" leadInLength="0/1"  interpolater="leadin-linr"  />
            <InterpolatingParam id="2665" interp="linr"  time="-9999999/1" value="0" leadInLength="0/1"  interpolater="leadin-linr"  />
            <InterpolatingParam id="2666" interp="linr"  time="-9999999/1" value="0" leadInLength="0/1"  interpolater="leadin-linr"  />
            <InterpolatingParam id="2667" interp="linr"  time="-9999999/1" value="0" leadInLength="0/1"  interpolater="leadin-linr"  />
           </VectorParam>
           <InterpolatingParam id="2668" interp="linr"  time="-9999999/1" value="1" leadInLength="0/1"  interpolater="leadin-linr"  name="opacity"/>
          </Parameters>
          <Attributes>
           <Attribute id="2669" value="" name="ident"/>
          </Attributes>
          <ExtraData>
           <Entry key="ZoomPanBin">
            <ZoomPanBin id="2670"  >
             <ZoomPanKeyframes>
              <ZoomPanKeyframe id="2671" timeRangeEnd="-9999999/1" timeRangeDuration="0/1" interpolaterName="linr"  />
             </ZoomPanKeyframes>
            </ZoomPanBin>
           </Entry>
          </ExtraData>
         </VMFile>
         <MetaData>
          <entry key="WinSubProjectDisplayName" val=""/>
         </MetaData>
        </UnifiedMedia>
        <UnifiedMedia id="2672"  >
         <AudioTransition id="2673" start="7283" duration="30" >
          <Parameters>
           <InterpolatingParam id="2674" interp="linr"  time="0/1" value="1" leadInLength="0/1"  name="volume"/>
           <Parameter id="2675"  name="captions"/>
          </Parameters>
          <Effects>
           <GenericEffect id="2676" name = "AudioTransition" >
            <Parameters>
            <Parameter id="2677"   name="audioEdgeModType">
             <Keyframes>
             <Keyframe id="2678"  time="0/1" value="0" leadInLength="0/1"  />
             </Keyframes>
            </Parameter>
            <Parameter id="2679"   name="audioTransitionType">
             <Keyframes>
             <Keyframe id="2680"  time="0/1" value="" leadInLength="0/1"  />
             </Keyframes>
            </Parameter>
            </Parameters>
            <MetaData>
            </MetaData>
           </GenericEffect>
          </Effects>
          <Attributes>
           <Attribute id="2681" value="" name="ident"/>
           <Attribute id="2682" value="0" name="sampleRate"/>
           <Attribute id="2683" value="0" name="bitDepth"/>
           <Attribute id="2684" value="1" name="gain"/>
           <Attribute id="2685" value="0" name="mixToMono"/>
          </Attributes>
         </AudioTransition>
         <ImageTransition id="2686" start="7283" duration="30" >
          <Transformer>
           <VectorParam id="2687"  name="translation">
            <InterpolatingParam id="2688" interp="linr"  time="0/1" value="0" leadInLength="0/1"  />
            <InterpolatingParam id="2689" interp="linr"  time="0/1" value="0" leadInLength="0/1"  />
            <InterpolatingParam id="2690" interp="linr"  time="0/1" value="0" leadInLength="0/1"  />
           </VectorParam>
           <VectorParam id="2691"  name="rotation">
            <InterpolatingParam id="2692" interp="linr"  time="0/1" value="0" leadInLength="0/1"  />
            <InterpolatingParam id="2693" interp="linr"  time="0/1" value="0" leadInLength="0/1"  />
            <InterpolatingParam id="2694" interp="linr"  time="0/1" value="0" leadInLength="0/1"  />
           </VectorParam>
           <VectorParam id="2695"  name="shear">
            <InterpolatingParam id="2696" interp="linr"  time="0/1" value="0" leadInLength="0/1"  />
            <InterpolatingParam id="2697" interp="linr"  time="0/1" value="0" leadInLength="0/1"  />
            <InterpolatingParam id="2698" interp="linr"  time="0/1" value="0" leadInLength="0/1"  />
           </VectorParam>
           <VectorParam id="2699"  name="scale">
            <InterpolatingParam id="2700" interp="linr"  time="0/1" value="1" leadInLength="0/1"  />
            <InterpolatingParam id="2701" interp="linr"  time="0/1" value="1" leadInLength="0/1"  />
            <InterpolatingParam id="2702" interp="linr"  time="0/1" value="1" leadInLength="0/1"  />
           </VectorParam>
           <VectorParam id="2703"  name="anchor">
            <InterpolatingParam id="2704" interp="linr"  time="0/1" value="0" leadInLength="0/1"  />
            <InterpolatingParam id="2705" interp="linr"  time="0/1" value="0" leadInLength="0/1"  />
            <InterpolatingParam id="2706" interp="linr"  time="0/1" value="0" leadInLength="0/1"  />
           </VectorParam>
          </Transformer>
          <Parameters>
           <VectorParam id="2707"  name="sourceCrop">
            <InterpolatingParam id="2708" interp="linr"  time="0/1" value="0" leadInLength="0/1"  />
            <InterpolatingParam id="2709" interp="linr"  time="0/1" value="0" leadInLength="0/1"  />
            <InterpolatingParam id="2710" interp="linr"  time="0/1" value="0" leadInLength="0/1"  />
            <InterpolatingParam id="2711" interp="linr"  time="0/1" value="0" leadInLength="0/1"  />
           </VectorParam>
           <VectorParam id="2712"  name="geometryCrop">
            <InterpolatingParam id="2713" interp="linr"  time="0/1" value="0" leadInLength="0/1"  />
            <InterpolatingParam id="2714" interp="linr"  time="0/1" value="0" leadInLength="0/1"  />
            <InterpolatingParam id="2715" interp="linr"  time="0/1" value="0" leadInLength="0/1"  />
            <InterpolatingParam id="2716" interp="linr"  time="0/1" value="0" leadInLength="0/1"  />
           </VectorParam>
           <InterpolatingParam id="2717" interp="linr"  time="0/1" value="1" leadInLength="0/1"  name="opacity"/>
          </Parameters>
          <Effects>
           <GenericEffect id="2718" name = "VisualTransition" >
            <Parameters>
            <InterpolatingParam id="2719" interp="linr"  time="0/1" value="0.5" leadInLength="0/1"   name="leftFramePercentage"/>
            <InterpolatingParam id="2720" interp="linr"  time="0/1" value="0.5" leadInLength="0/1"   name="rightFramePercentage"/>
            <Parameter id="2721"   name="visualEdgeModType">
             <Keyframes>
             <Keyframe id="2722"  time="0/1" value="2" leadInLength="0/1"  />
             </Keyframes>
            </Parameter>
            <Parameter id="2723"   name="visualTransitionType">
             <Keyframes>
             <Keyframe id="2724"  time="0/1" value="FadeThruBlack" leadInLength="0/1"  />
             </Keyframes>
            </Parameter>
            </Parameters>
            <MetaData>
            </MetaData>
           </GenericEffect>
          </Effects>
          <Attributes>
           <Attribute id="2725" value="" name="ident"/>
          </Attributes>
          <ExtraData>
           <Entry key="ZoomPanBin">
            <ZoomPanBin id="2726"  >
             <ZoomPanKeyframes>
             </ZoomPanKeyframes>
            </ZoomPanBin>
           </Entry>
          </ExtraData>
         </ImageTransition>
         <MetaData>
          <entry key="WinSubProjectDisplayName" val=""/>
         </MetaData>
        </UnifiedMedia>
        <Callout id="2727" start="7313" duration="538" scalar="1/1" mediaStart="-3/1" mediaDuration="538/1" >
         <Transformer>
          <VectorParam id="2728"  name="translation">
           <InterpolatingParam id="2729" interp="linr"  time="-9999999/1" value="-38.637770898169151" leadInLength="0/1"  />
           <InterpolatingParam id="2730" interp="linr"  time="-9999999/1" value="241.30718994139653" leadInLength="0/1"  />
           <InterpolatingParam id="2731" interp="linr"  time="-9999999/1" value="0" leadInLength="0/1"  />
          </VectorParam>
          <VectorParam id="2732"  name="rotation">
           <InterpolatingParam id="2733" interp="linr"  time="-9999999/1" value="0" leadInLength="0/1"  />
           <InterpolatingParam id="2734" interp="linr"  time="-9999999/1" value="0" leadInLength="0/1"  />
           <InterpolatingParam id="2735" interp="linr"  time="-9999999/1" value="0" leadInLength="0/1"  />
          </VectorParam>
          <VectorParam id="2736"  name="shear">
           <InterpolatingParam id="2737" interp="linr"  time="-9999999/1" value="0" leadInLength="0/1"  />
           <InterpolatingParam id="2738" interp="linr"  time="-9999999/1" value="0" leadInLength="0/1"  />
           <InterpolatingParam id="2739" interp="linr"  time="-9999999/1" value="0" leadInLength="0/1"  />
          </VectorParam>
          <VectorParam id="2740"  name="scale">
           <InterpolatingParam id="2741" interp="linr"  time="-9999999/1" value="1.4318885448910679" leadInLength="0/1"  />
           <InterpolatingParam id="2742" interp="linr"  time="-9999999/1" value="0.99999999999999967" leadInLength="0/1"  />
           <InterpolatingParam id="2743" interp="linr"  time="-9999999/1" value="1" leadInLength="0/1"  />
          </VectorParam>
          <VectorParam id="2744"  name="anchor">
           <InterpolatingParam id="2745" interp="linr"  time="0/1" value="0" leadInLength="0/1"  />
           <InterpolatingParam id="2746" interp="linr"  time="0/1" value="0" leadInLength="0/1"  />
           <InterpolatingParam id="2747" interp="linr"  time="0/1" value="0" leadInLength="0/1"  />
          </VectorParam>
         </Transformer>
         <Parameters>
          <VectorParam id="2748"  name="sourceCrop">
           <InterpolatingParam id="2749" interp="linr"  time="0/1" value="0" leadInLength="0/1"  />
           <InterpolatingParam id="2750" interp="linr"  time="0/1" value="0" leadInLength="0/1"  />
           <InterpolatingParam id="2751" interp="linr"  time="0/1" value="0" leadInLength="0/1"  />
           <InterpolatingParam id="2752" interp="linr"  time="0/1" value="0" leadInLength="0/1"  />
          </VectorParam>
          <VectorParam id="2753"  name="geometryCrop">
           <InterpolatingParam id="2754" interp="linr"  time="-9999999/1" value="0" leadInLength="0/1"  />
           <InterpolatingParam id="2755" interp="linr"  time="-9999999/1" value="0" leadInLength="0/1"  />
           <InterpolatingParam id="2756" interp="linr"  time="-9999999/1" value="0" leadInLength="0/1"  />
           <InterpolatingParam id="2757" interp="linr"  time="-9999999/1" value="0" leadInLength="0/1"  />
          </VectorParam>
          <InterpolatingParam id="2758" interp="linr"  time="-9999999/1" value="1" leadInLength="0/1"  name="opacity"/>
         </Parameters>
         <Effects>
          <GenericEffect id="2759" name = "DropShadow" >
           <Parameters>
           <InterpolatingParam id="2760" interp="linr"  time="0/1" value="315" leadInLength="0/1"   name="angle"/>
           <InterpolatingParam id="2761" interp="linr"  time="0/1" value="2" leadInLength="0/1"   name="blur"/>
           <Parameter id="2762"   name="enabled">
            <Keyframes>
            <Keyframe id="2763"  time="0/1" value="1" leadInLength="0/1"  />
            </Keyframes>
           </Parameter>
           <InterpolatingParam id="2764" interp="linr"  time="0/1" value="4" leadInLength="0/1"   name="offset"/>
           <InterpolatingParam id="2765" interp="linr"  time="0/1" value="0.75" leadInLength="0/1"   name="opacity"/>
           </Parameters>
          </GenericEffect>
         </Effects>
         <Attributes>
          <Attribute id="2766"  name="vectorNode">
           <VectorNode id="2767" kind="TypeWinXML"  >
            <DoubleParameters>
             <InterpolatingParam id="2768" interp="linr"  time="0/1" value="-1" leadInLength="0/1"  name="CutoutPercentage"/>
             <InterpolatingParam id="2769" interp="linr"  time="0/1" value="30" leadInLength="0/1"  name="RoundedRectRadius"/>
             <InterpolatingParam id="2770" interp="linr"  time="0/1" value="5" leadInLength="0/1"  name="Style"/>
             <InterpolatingParam id="2771" interp="linr"  time="0/1" value="0" leadInLength="0/1"  name="borderColorBlue"/>
             <InterpolatingParam id="2772" interp="linr"  time="0/1" value="0" leadInLength="0/1"  name="borderColorGreen"/>
             <InterpolatingParam id="2773" interp="linr"  time="0/1" value="0" leadInLength="0/1"  name="borderColorRed"/>
             <InterpolatingParam id="2774" interp="linr"  time="0/1" value="1" leadInLength="0/1"  name="borderState"/>
             <InterpolatingParam id="2775" interp="linr"  time="0/1" value="5" leadInLength="0/1"  name="borderWidth"/>
             <InterpolatingParam id="2776" interp="linr"  time="0/1" value="0" leadInLength="0/1"  name="dimensionTime"/>
             <InterpolatingParam id="2777" interp="linr"  time="0/1" value="0" leadInLength="0/1"  name="fillColorBlue"/>
             <InterpolatingParam id="2778" interp="linr"  time="0/1" value="0" leadInLength="0/1"  name="fillColorGreen"/>
             <InterpolatingParam id="2779" interp="linr"  time="0/1" value="0" leadInLength="0/1"  name="fillColorRed"/>
             <InterpolatingParam id="2780" interp="linr"  time="0/1" value="1" leadInLength="0/1"  name="fillState"/>
             <InterpolatingParam id="2781" interp="linr"  time="0/1" value="0" leadInLength="0/1"  name="flipOnXAxis"/>
             <InterpolatingParam id="2782" interp="linr"  time="0/1" value="0" leadInLength="0/1"  name="flipOnYAxis"/>
             <InterpolatingParam id="2783" interp="linr"  time="0/1" value="237.38562091503266" leadInLength="0/1"  name="height"/>
             <InterpolatingParam id="2784" interp="linr"  time="0/1" value="0" leadInLength="0/1"  name="textDropShadow"/>
             <InterpolatingParam id="2785" interp="linr"  time="0/1" value="0" leadInLength="0/1"  name="textIgnoresOpacity"/>
             <InterpolatingParam id="2786" interp="linr"  time="0/1" value="0.86784140969162993" leadInLength="0/1"  name="textRectHeight"/>
             <InterpolatingParam id="2787" interp="linr"  time="0/1" value="0.90196078431372551" leadInLength="0/1"  name="textRectWidth"/>
             <InterpolatingParam id="2788" interp="linr"  time="0/1" value="0.049019607843137254" leadInLength="0/1"  name="textRectX"/>
             <InterpolatingParam id="2789" interp="linr"  time="0/1" value="0.066079295154185022" leadInLength="0/1"  name="textRectY"/>
             <InterpolatingParam id="2790" interp="linr"  time="0/1" value="0" leadInLength="0/1"  name="textVerticalAlign"/>
             <InterpolatingParam id="2791" interp="linr"  time="0/1" value="320" leadInLength="0/1"  name="width"/>
            </DoubleParameters>
            <StringParameters>
             <Parameter id="2792"  name="VectorPath">
              <Keyframes>
              <Keyframe id="2793"  time="0/1" value="M10,0h286c5.521,0,10,4.477,10,10v207c0,5.521-4.479,10-10,10H10c-5.523,0-10-4.479-10-10V10&#xa;&#x9;C0,4.477,4.477,0,10,0z" leadInLength="0/1"  />
              </Keyframes>
             </Parameter>
             <Parameter id="2794"  name="filename">
              <Keyframes>
              <Keyframe id="2795"  time="0/1" value="C:\Program Files (x86)\TechSmith\Camtasia Studio 8\Media\Studio\Callouts\roundedrectangle.xml" leadInLength="0/1"  />
              </Keyframes>
             </Parameter>
             <Parameter id="2796"  name="name">
              <Keyframes>
              <Keyframe id="2797"  time="0/1" value="Filled Rounded Rectangle" leadInLength="0/1"  />
              </Keyframes>
             </Parameter>
             <Parameter id="2798"  name="text">
              <Keyframes>
              <Keyframe id="2799"  time="0/1" value="{\rtf1\ansi\ansicpg1252\deff0\deflang1033{\fonttbl{\f0\fswiss\fprq2\fcharset0 Arial;}}&#xD;&#xa;{\colortbl ;\red255\green255\blue255;}&#xD;&#xa;\viewkind4\uc1\pard\qc\cf1\f0\fs96 Confirmidade\par&#xD;&#xa;Com a teoria\par&#xD;&#xa;}&#xD;&#xa;" leadInLength="0/1"  />
              </Keyframes>
             </Parameter>
             <Parameter id="2800"  name="xmlContent">
              <Keyframes>
              <Keyframe id="2801"  time="0/1" value="﻿&lt;?xml version=&quot;1.0&quot;?&gt;&#xa;&#xa;&lt;Overlay version=&quot;1.0.1&quot;&gt;&#xa;&#xa;&lt;Overlay_Filename&gt;roundedrectangle.png&lt;/Overlay_Filename&gt;&#xa;&lt;Overlay_Name&gt;Filled Rounded Rectangle&lt;/Overlay_Name&gt;&#xa;&lt;Text_Top&gt;15&lt;/Text_Top&gt;&#xa;&lt;Text_Left&gt;15&lt;/Text_Left&gt;&#xa;&lt;Text_Bottom&gt;15&lt;/Text_Bottom&gt;&#xa;&lt;Text_Right&gt;15&lt;/Text_Right&gt;&#xa;&lt;Fill_Color&gt;1&lt;/Fill_Color&gt;&#xa;&lt;Border_Color&gt;1&lt;/Border_Color&gt;&#xa;&lt;Initial_Fill_Color&gt;0xffe05f00&lt;/Initial_Fill_Color&gt;&#xa;&lt;Initial_Border_Color&gt;0xffd7d7d7&lt;/Initial_Border_Color&gt;&#xa;&lt;VectorProps&gt;&#xa;&lt;figure&gt;&#xa;&lt;svg&gt;M10,0h286c5.521,0,10,4.477,10,10v207c0,5.521-4.479,10-10,10H10c-5.523,0-10-4.479-10-10V10&#xa;&#x9;C0,4.477,4.477,0,10,0z&lt;/svg&gt;&#xa;&lt;/figure&gt;&#xa;&lt;borderWidth&gt;5.00&lt;/borderWidth&gt;&#xa;&lt;seamY&gt;-1&lt;/seamY&gt;&#xa;&lt;roundedRectRadius&gt;30&lt;/roundedRectRadius&gt;&#xa;&lt;shapeWidth&gt;306&lt;/shapeWidth&gt;&#xa;&lt;shapeHeight&gt;227&lt;/shapeHeight&gt;&#xa;&lt;/VectorProps&gt;&#xa;&lt;Style&gt;5&lt;/Style&gt;&#xa;&lt;/Overlay&gt;" leadInLength="0/1"  />
              </Keyframes>
             </Parameter>
            </StringParameters>
           </VectorNode>
          </Attribute>
         </Attributes>
         <MetaData>
          <entry key="WinSubProjectDisplayName" val=""/>
         </MetaData>
         <LeftEdgeMods length="30/1" groupName="OpacityFade">
          <EdgeMod parameter="2758">
           <FadeInFunc id="1864"  />
          </EdgeMod>
         </LeftEdgeMods>
         <RightEdgeMods length="30/1" groupName="OpacityFade">
          <EdgeMod parameter="2758">
           <FadeOutFunc id="1864"  />
          </EdgeMod>
         </RightEdgeMods>
         <ExtraData>
          <Entry key="ZoomPanBin">
           <ZoomPanBin id="2802"  >
            <ZoomPanKeyframes>
             <ZoomPanKeyframe id="2803" timeRangeEnd="-9999999/1" timeRangeDuration="0/1" interpolaterName="linr"  />
            </ZoomPanKeyframes>
           </ZoomPanBin>
          </Entry>
         </ExtraData>
        </Callout>
        <Callout id="2804" start="7851" duration="552" scalar="1/1" mediaStart="0/1" mediaDuration="552/1" >
         <Transformer>
          <VectorParam id="2805"  name="translation">
           <InterpolatingParam id="2806" interp="linr"  time="-9999999/1" value="-407.92569659441381" leadInLength="0/1"  />
           <InterpolatingParam id="2807" interp="linr"  time="-9999999/1" value="72.445820433408699" leadInLength="0/1"  />
           <InterpolatingParam id="2808" interp="linr"  time="-9999999/1" value="0" leadInLength="0/1"  />
          </VectorParam>
          <VectorParam id="2809"  name="rotation">
           <InterpolatingParam id="2810" interp="linr"  time="-9999999/1" value="0" leadInLength="0/1"  />
           <InterpolatingParam id="2811" interp="linr"  time="-9999999/1" value="0" leadInLength="0/1"  />
           <InterpolatingParam id="2812" interp="linr"  time="-9999999/1" value="0" leadInLength="0/1"  />
          </VectorParam>
          <VectorParam id="2813"  name="shear">
           <InterpolatingParam id="2814" interp="linr"  time="-9999999/1" value="0" leadInLength="0/1"  />
           <InterpolatingParam id="2815" interp="linr"  time="-9999999/1" value="0" leadInLength="0/1"  />
           <InterpolatingParam id="2816" interp="linr"  time="-9999999/1" value="0" leadInLength="0/1"  />
          </VectorParam>
          <VectorParam id="2817"  name="scale">
           <InterpolatingParam id="2818" interp="linr"  time="-9999999/1" value="1.450464396287195" leadInLength="0/1"  />
           <InterpolatingParam id="2819" interp="linr"  time="-9999999/1" value="2.4226756399535962" leadInLength="0/1"  />
           <InterpolatingParam id="2820" interp="linr"  time="-9999999/1" value="1" leadInLength="0/1"  />
          </VectorParam>
          <VectorParam id="2821"  name="anchor">
           <InterpolatingParam id="2822" interp="linr"  time="0/1" value="0" leadInLength="0/1"  />
           <InterpolatingParam id="2823" interp="linr"  time="0/1" value="0" leadInLength="0/1"  />
           <InterpolatingParam id="2824" interp="linr"  time="0/1" value="0" leadInLength="0/1"  />
          </VectorParam>
         </Transformer>
         <Parameters>
          <VectorParam id="2825"  name="sourceCrop">
           <InterpolatingParam id="2826" interp="linr"  time="0/1" value="0" leadInLength="0/1"  />
           <InterpolatingParam id="2827" interp="linr"  time="0/1" value="0" leadInLength="0/1"  />
           <InterpolatingParam id="2828" interp="linr"  time="0/1" value="0" leadInLength="0/1"  />
           <InterpolatingParam id="2829" interp="linr"  time="0/1" value="0" leadInLength="0/1"  />
          </VectorParam>
          <VectorParam id="2830"  name="geometryCrop">
           <InterpolatingParam id="2831" interp="linr"  time="-9999999/1" value="0" leadInLength="0/1"  />
           <InterpolatingParam id="2832" interp="linr"  time="-9999999/1" value="0" leadInLength="0/1"  />
           <InterpolatingParam id="2833" interp="linr"  time="-9999999/1" value="0" leadInLength="0/1"  />
           <InterpolatingParam id="2834" interp="linr"  time="-9999999/1" value="0" leadInLength="0/1"  />
          </VectorParam>
          <InterpolatingParam id="2835" interp="linr"  time="-9999999/1" value="1" leadInLength="0/1"  name="opacity"/>
         </Parameters>
         <Effects>
          <GenericEffect id="2836" name = "DropShadow" >
           <Parameters>
           <InterpolatingParam id="2837" interp="linr"  time="0/1" value="315" leadInLength="0/1"   name="angle"/>
           <InterpolatingParam id="2838" interp="linr"  time="0/1" value="2" leadInLength="0/1"   name="blur"/>
           <Parameter id="2839"   name="enabled">
            <Keyframes>
            <Keyframe id="2840"  time="0/1" value="1" leadInLength="0/1"  />
            </Keyframes>
           </Parameter>
           <InterpolatingParam id="2841" interp="linr"  time="0/1" value="4" leadInLength="0/1"   name="offset"/>
           <InterpolatingParam id="2842" interp="linr"  time="0/1" value="0.75" leadInLength="0/1"   name="opacity"/>
           </Parameters>
          </GenericEffect>
         </Effects>
         <Attributes>
          <Attribute id="2843"  name="vectorNode">
           <VectorNode id="2844" kind="TypeWinXML"  >
            <DoubleParameters>
             <InterpolatingParam id="2845" interp="linr"  time="0/1" value="-1" leadInLength="0/1"  name="CutoutPercentage"/>
             <InterpolatingParam id="2846" interp="linr"  time="0/1" value="30" leadInLength="0/1"  name="RoundedRectRadius"/>
             <InterpolatingParam id="2847" interp="linr"  time="0/1" value="5" leadInLength="0/1"  name="Style"/>
             <InterpolatingParam id="2848" interp="linr"  time="0/1" value="0" leadInLength="0/1"  name="borderColorBlue"/>
             <InterpolatingParam id="2849" interp="linr"  time="0/1" value="0" leadInLength="0/1"  name="borderColorGreen"/>
             <InterpolatingParam id="2850" interp="linr"  time="0/1" value="0" leadInLength="0/1"  name="borderColorRed"/>
             <InterpolatingParam id="2851" interp="linr"  time="0/1" value="1" leadInLength="0/1"  name="borderState"/>
             <InterpolatingParam id="2852" interp="linr"  time="0/1" value="5" leadInLength="0/1"  name="borderWidth"/>
             <InterpolatingParam id="2853" interp="linr"  time="0/1" value="0" leadInLength="0/1"  name="dimensionTime"/>
             <InterpolatingParam id="2854" interp="linr"  time="0/1" value="0" leadInLength="0/1"  name="fillColorBlue"/>
             <InterpolatingParam id="2855" interp="linr"  time="0/1" value="0" leadInLength="0/1"  name="fillColorGreen"/>
             <InterpolatingParam id="2856" interp="linr"  time="0/1" value="0" leadInLength="0/1"  name="fillColorRed"/>
             <InterpolatingParam id="2857" interp="linr"  time="0/1" value="1" leadInLength="0/1"  name="fillState"/>
             <InterpolatingParam id="2858" interp="linr"  time="0/1" value="0" leadInLength="0/1"  name="flipOnXAxis"/>
             <InterpolatingParam id="2859" interp="linr"  time="0/1" value="0" leadInLength="0/1"  name="flipOnYAxis"/>
             <InterpolatingParam id="2860" interp="linr"  time="0/1" value="237.38562091503266" leadInLength="0/1"  name="height"/>
             <InterpolatingParam id="2861" interp="linr"  time="0/1" value="0" leadInLength="0/1"  name="textDropShadow"/>
             <InterpolatingParam id="2862" interp="linr"  time="0/1" value="0" leadInLength="0/1"  name="textIgnoresOpacity"/>
             <InterpolatingParam id="2863" interp="linr"  time="0/1" value="0.86784140969162993" leadInLength="0/1"  name="textRectHeight"/>
             <InterpolatingParam id="2864" interp="linr"  time="0/1" value="0.90196078431372551" leadInLength="0/1"  name="textRectWidth"/>
             <InterpolatingParam id="2865" interp="linr"  time="0/1" value="0.049019607843137254" leadInLength="0/1"  name="textRectX"/>
             <InterpolatingParam id="2866" interp="linr"  time="0/1" value="0.066079295154185022" leadInLength="0/1"  name="textRectY"/>
             <InterpolatingParam id="2867" interp="linr"  time="0/1" value="0" leadInLength="0/1"  name="textVerticalAlign"/>
             <InterpolatingParam id="2868" interp="linr"  time="0/1" value="320" leadInLength="0/1"  name="width"/>
            </DoubleParameters>
            <StringParameters>
             <Parameter id="2869"  name="VectorPath">
              <Keyframes>
              <Keyframe id="2870"  time="0/1" value="M10,0h286c5.521,0,10,4.477,10,10v207c0,5.521-4.479,10-10,10H10c-5.523,0-10-4.479-10-10V10&#xa;&#x9;C0,4.477,4.477,0,10,0z" leadInLength="0/1"  />
              </Keyframes>
             </Parameter>
             <Parameter id="2871"  name="filename">
              <Keyframes>
              <Keyframe id="2872"  time="0/1" value="C:\Program Files (x86)\TechSmith\Camtasia Studio 8\Media\Studio\Callouts\roundedrectangle.xml" leadInLength="0/1"  />
              </Keyframes>
             </Parameter>
             <Parameter id="2873"  name="name">
              <Keyframes>
              <Keyframe id="2874"  time="0/1" value="Filled Rounded Rectangle" leadInLength="0/1"  />
              </Keyframes>
             </Parameter>
             <Parameter id="2875"  name="text">
              <Keyframes>
              <Keyframe id="2876"  time="0/1" value="{\rtf1\ansi\ansicpg1252\deff0\deflang1033{\fonttbl{\f0\fswiss\fprq2\fcharset0 Arial;}}&#xD;&#xa;{\colortbl ;\red255\green255\blue255;}&#xD;&#xa;\viewkind4\uc1\pard\qc\cf1\f0\fs56 Magnetismo \par&#xD;&#xa;Esta\&apos;e7\&apos;e3o 3\par&#xD;&#xa;Envolvidos:\par&#xD;&#xa;F\&apos;e1bio Pacheco\par&#xD;&#xa;(\&apos;c1udio)\par&#xD;&#xa;Gabriel Cez\&apos;e1rio\par&#xD;&#xa;(V\&apos;eddeo)\par&#xD;&#xa;Giovana Cremasco\par&#xD;&#xa;(\&apos;c1udio)\par&#xD;&#xa;Massao Oshima\par&#xD;&#xa;(\&apos;c1udio)\par&#xD;&#xa;}&#xD;&#xa;" leadInLength="0/1"  />
              </Keyframes>
             </Parameter>
             <Parameter id="2877"  name="xmlContent">
              <Keyframes>
              <Keyframe id="2878"  time="0/1" value="﻿&lt;?xml version=&quot;1.0&quot;?&gt;&#xa;&#xa;&lt;Overlay version=&quot;1.0.1&quot;&gt;&#xa;&#xa;&lt;Overlay_Filename&gt;roundedrectangle.png&lt;/Overlay_Filename&gt;&#xa;&lt;Overlay_Name&gt;Filled Rounded Rectangle&lt;/Overlay_Name&gt;&#xa;&lt;Text_Top&gt;15&lt;/Text_Top&gt;&#xa;&lt;Text_Left&gt;15&lt;/Text_Left&gt;&#xa;&lt;Text_Bottom&gt;15&lt;/Text_Bottom&gt;&#xa;&lt;Text_Right&gt;15&lt;/Text_Right&gt;&#xa;&lt;Fill_Color&gt;1&lt;/Fill_Color&gt;&#xa;&lt;Border_Color&gt;1&lt;/Border_Color&gt;&#xa;&lt;Initial_Fill_Color&gt;0xffe05f00&lt;/Initial_Fill_Color&gt;&#xa;&lt;Initial_Border_Color&gt;0xffd7d7d7&lt;/Initial_Border_Color&gt;&#xa;&lt;VectorProps&gt;&#xa;&lt;figure&gt;&#xa;&lt;svg&gt;M10,0h286c5.521,0,10,4.477,10,10v207c0,5.521-4.479,10-10,10H10c-5.523,0-10-4.479-10-10V10&#xa;&#x9;C0,4.477,4.477,0,10,0z&lt;/svg&gt;&#xa;&lt;/figure&gt;&#xa;&lt;borderWidth&gt;5.00&lt;/borderWidth&gt;&#xa;&lt;seamY&gt;-1&lt;/seamY&gt;&#xa;&lt;roundedRectRadius&gt;30&lt;/roundedRectRadius&gt;&#xa;&lt;shapeWidth&gt;306&lt;/shapeWidth&gt;&#xa;&lt;shapeHeight&gt;227&lt;/shapeHeight&gt;&#xa;&lt;/VectorProps&gt;&#xa;&lt;Style&gt;5&lt;/Style&gt;&#xa;&lt;/Overlay&gt;" leadInLength="0/1"  />
              </Keyframes>
             </Parameter>
            </StringParameters>
           </VectorNode>
          </Attribute>
         </Attributes>
         <MetaData>
          <entry key="WinSubProjectDisplayName" val=""/>
         </MetaData>
         <LeftEdgeMods length="30/1" groupName="OpacityFade">
          <EdgeMod parameter="2835">
           <FadeInFunc id="2088"  />
          </EdgeMod>
         </LeftEdgeMods>
         <RightEdgeMods length="30/1" groupName="OpacityFade">
          <EdgeMod parameter="2835">
           <FadeOutFunc id="280"  />
          </EdgeMod>
         </RightEdgeMods>
         <ExtraData>
          <Entry key="ZoomPanBin">
           <ZoomPanBin id="2879"  >
            <ZoomPanKeyframes>
             <ZoomPanKeyframe id="2880" timeRangeEnd="-9999999/1" timeRangeDuration="0/1" interpolaterName="linr"  />
            </ZoomPanKeyframes>
           </ZoomPanBin>
          </Entry>
         </ExtraData>
        </Callout>
        <UnifiedMedia id="2881"  >
         <AMFile id="2882" start="8403" duration="744" scalar="1/1" mediaStart="0/1" mediaDuration="744/1" trackNumber="1" src="28" channelNumber="0,1" >
          <Parameters>
           <InterpolatingParam id="2883" interp="linr"  time="0/1" value="0" leadInLength="0/1"  name="volume"/>
           <Parameter id="2884"  name="captions"/>
          </Parameters>
          <Attributes>
           <Attribute id="2885" value="" name="ident"/>
           <Attribute id="2886" value="48000" name="sampleRate"/>
           <Attribute id="2887" value="16" name="bitDepth"/>
           <Attribute id="2888" value="1" name="gain"/>
           <Attribute id="2889" value="0" name="mixToMono"/>
          </Attributes>
         </AMFile>
         <VMFile id="2890" start="8403" duration="744" scalar="1/1" mediaStart="0/1" mediaDuration="744/1" trackNumber="0" src="28" >
          <Transformer>
           <VectorParam id="2891"  name="translation">
            <InterpolatingParam id="2892" interp="linr"  time="-9999999/1" value="-12.260061919534166" leadInLength="0/1"  />
            <InterpolatingParam id="2893" interp="linr"  time="-9999999/1" value="4.5066173015584354e-011" leadInLength="0/1"  />
            <InterpolatingParam id="2894" interp="linr"  time="-9999999/1" value="0" leadInLength="0/1"  />
           </VectorParam>
           <VectorParam id="2895"  name="rotation">
            <InterpolatingParam id="2896" interp="linr"  time="-9999999/1" value="0" leadInLength="0/1"  />
            <InterpolatingParam id="2897" interp="linr"  time="-9999999/1" value="0" leadInLength="0/1"  />
            <InterpolatingParam id="2898" interp="linr"  time="-9999999/1" value="0" leadInLength="0/1"  />
           </VectorParam>
           <VectorParam id="2899"  name="shear">
            <InterpolatingParam id="2900" interp="linr"  time="-9999999/1" value="0" leadInLength="0/1"  />
            <InterpolatingParam id="2901" interp="linr"  time="-9999999/1" value="0" leadInLength="0/1"  />
            <InterpolatingParam id="2902" interp="linr"  time="-9999999/1" value="0" leadInLength="0/1"  />
           </VectorParam>
           <VectorParam id="2903"  name="scale">
            <InterpolatingParam id="2904" interp="linr"  time="-9999999/1" value="2.2602026456515101" leadInLength="0/1"  />
            <InterpolatingParam id="2905" interp="linr"  time="-9999999/1" value="1.1249999999997884" leadInLength="0/1"  />
            <InterpolatingParam id="2906" interp="linr"  time="-9999999/1" value="1" leadInLength="0/1"  />
           </VectorParam>
           <VectorParam id="2907"  name="anchor">
            <InterpolatingParam id="2908" interp="linr"  time="0/1" value="0" leadInLength="0/1"  />
            <InterpolatingParam id="2909" interp="linr"  time="0/1" value="0" leadInLength="0/1"  />
            <InterpolatingParam id="2910" interp="linr"  time="0/1" value="0" leadInLength="0/1"  />
           </VectorParam>
          </Transformer>
          <Parameters>
           <VectorParam id="2911"  name="sourceCrop">
            <InterpolatingParam id="2912" interp="linr"  time="0/1" value="0" leadInLength="0/1"  />
            <InterpolatingParam id="2913" interp="linr"  time="0/1" value="0" leadInLength="0/1"  />
            <InterpolatingParam id="2914" interp="linr"  time="0/1" value="0" leadInLength="0/1"  />
            <InterpolatingParam id="2915" interp="linr"  time="0/1" value="0" leadInLength="0/1"  />
           </VectorParam>
           <VectorParam id="2916"  name="geometryCrop">
            <InterpolatingParam id="2917" interp="linr"  time="-9999999/1" value="0" leadInLength="0/1"  />
            <InterpolatingParam id="2918" interp="linr"  time="-9999999/1" value="0" leadInLength="0/1"  />
            <InterpolatingParam id="2919" interp="linr"  time="-9999999/1" value="0" leadInLength="0/1"  />
            <InterpolatingParam id="2920" interp="linr"  time="-9999999/1" value="0" leadInLength="0/1"  />
           </VectorParam>
           <InterpolatingParam id="2921" interp="linr"  time="-9999999/1" value="1" leadInLength="0/1"  name="opacity"/>
          </Parameters>
          <Attributes>
           <Attribute id="2922" value="" name="ident"/>
          </Attributes>
          <ExtraData>
           <Entry key="ZoomPanBin">
            <ZoomPanBin id="2923"  >
             <ZoomPanKeyframes>
              <ZoomPanKeyframe id="2924" timeRangeEnd="-9999999/1" timeRangeDuration="0/1" interpolaterName="linr"  />
             </ZoomPanKeyframes>
            </ZoomPanBin>
           </Entry>
          </ExtraData>
         </VMFile>
         <MetaData>
          <entry key="WinSubProjectDisplayName" val=""/>
         </MetaData>
        </UnifiedMedia>
        <UnifiedMedia id="2925"  >
         <AudioTransition id="2926" start="9147" duration="30" >
          <Parameters>
           <InterpolatingParam id="2927" interp="linr"  time="0/1" value="1" leadInLength="0/1"  name="volume"/>
           <Parameter id="2928"  name="captions"/>
          </Parameters>
          <Effects>
           <GenericEffect id="2929" name = "AudioTransition" >
            <Parameters>
            <Parameter id="2930"   name="audioEdgeModType">
             <Keyframes>
             <Keyframe id="2931"  time="0/1" value="0" leadInLength="0/1"  />
             </Keyframes>
            </Parameter>
            <Parameter id="2932"   name="audioTransitionType">
             <Keyframes>
             <Keyframe id="2933"  time="0/1" value="" leadInLength="0/1"  />
             </Keyframes>
            </Parameter>
            </Parameters>
            <MetaData>
            </MetaData>
           </GenericEffect>
          </Effects>
          <Attributes>
           <Attribute id="2934" value="" name="ident"/>
           <Attribute id="2935" value="0" name="sampleRate"/>
           <Attribute id="2936" value="0" name="bitDepth"/>
           <Attribute id="2937" value="1" name="gain"/>
           <Attribute id="2938" value="0" name="mixToMono"/>
          </Attributes>
         </AudioTransition>
         <ImageTransition id="2939" start="9147" duration="30" >
          <Transformer>
           <VectorParam id="2940"  name="translation">
            <InterpolatingParam id="2941" interp="linr"  time="0/1" value="0" leadInLength="0/1"  />
            <InterpolatingParam id="2942" interp="linr"  time="0/1" value="0" leadInLength="0/1"  />
            <InterpolatingParam id="2943" interp="linr"  time="0/1" value="0" leadInLength="0/1"  />
           </VectorParam>
           <VectorParam id="2944"  name="rotation">
            <InterpolatingParam id="2945" interp="linr"  time="0/1" value="0" leadInLength="0/1"  />
            <InterpolatingParam id="2946" interp="linr"  time="0/1" value="0" leadInLength="0/1"  />
            <InterpolatingParam id="2947" interp="linr"  time="0/1" value="0" leadInLength="0/1"  />
           </VectorParam>
           <VectorParam id="2948"  name="shear">
            <InterpolatingParam id="2949" interp="linr"  time="0/1" value="0" leadInLength="0/1"  />
            <InterpolatingParam id="2950" interp="linr"  time="0/1" value="0" leadInLength="0/1"  />
            <InterpolatingParam id="2951" interp="linr"  time="0/1" value="0" leadInLength="0/1"  />
           </VectorParam>
           <VectorParam id="2952"  name="scale">
            <InterpolatingParam id="2953" interp="linr"  time="0/1" value="1" leadInLength="0/1"  />
            <InterpolatingParam id="2954" interp="linr"  time="0/1" value="1" leadInLength="0/1"  />
            <InterpolatingParam id="2955" interp="linr"  time="0/1" value="1" leadInLength="0/1"  />
           </VectorParam>
           <VectorParam id="2956"  name="anchor">
            <InterpolatingParam id="2957" interp="linr"  time="0/1" value="0" leadInLength="0/1"  />
            <InterpolatingParam id="2958" interp="linr"  time="0/1" value="0" leadInLength="0/1"  />
            <InterpolatingParam id="2959" interp="linr"  time="0/1" value="0" leadInLength="0/1"  />
           </VectorParam>
          </Transformer>
          <Parameters>
           <VectorParam id="2960"  name="sourceCrop">
            <InterpolatingParam id="2961" interp="linr"  time="0/1" value="0" leadInLength="0/1"  />
            <InterpolatingParam id="2962" interp="linr"  time="0/1" value="0" leadInLength="0/1"  />
            <InterpolatingParam id="2963" interp="linr"  time="0/1" value="0" leadInLength="0/1"  />
            <InterpolatingParam id="2964" interp="linr"  time="0/1" value="0" leadInLength="0/1"  />
           </VectorParam>
           <VectorParam id="2965"  name="geometryCrop">
            <InterpolatingParam id="2966" interp="linr"  time="0/1" value="0" leadInLength="0/1"  />
            <InterpolatingParam id="2967" interp="linr"  time="0/1" value="0" leadInLength="0/1"  />
            <InterpolatingParam id="2968" interp="linr"  time="0/1" value="0" leadInLength="0/1"  />
            <InterpolatingParam id="2969" interp="linr"  time="0/1" value="0" leadInLength="0/1"  />
           </VectorParam>
           <InterpolatingParam id="2970" interp="linr"  time="0/1" value="1" leadInLength="0/1"  name="opacity"/>
          </Parameters>
          <Effects>
           <GenericEffect id="2971" name = "VisualTransition" >
            <Parameters>
            <InterpolatingParam id="2972" interp="linr"  time="0/1" value="0.5" leadInLength="0/1"   name="leftFramePercentage"/>
            <InterpolatingParam id="2973" interp="linr"  time="0/1" value="0.5" leadInLength="0/1"   name="rightFramePercentage"/>
            <Parameter id="2974"   name="visualEdgeModType">
             <Keyframes>
             <Keyframe id="2975"  time="0/1" value="2" leadInLength="0/1"  />
             </Keyframes>
            </Parameter>
            <Parameter id="2976"   name="visualTransitionType">
             <Keyframes>
             <Keyframe id="2977"  time="0/1" value="FadeThruBlack" leadInLength="0/1"  />
             </Keyframes>
            </Parameter>
            </Parameters>
            <MetaData>
            </MetaData>
           </GenericEffect>
          </Effects>
          <Attributes>
           <Attribute id="2978" value="" name="ident"/>
          </Attributes>
          <ExtraData>
           <Entry key="ZoomPanBin">
            <ZoomPanBin id="2979"  >
             <ZoomPanKeyframes>
             </ZoomPanKeyframes>
            </ZoomPanBin>
           </Entry>
          </ExtraData>
         </ImageTransition>
         <MetaData>
          <entry key="WinSubProjectDisplayName" val=""/>
         </MetaData>
        </UnifiedMedia>
        <Callout id="2980" start="9177" duration="381" scalar="1/1" mediaStart="0/1" mediaDuration="381/1" >
         <Transformer>
          <VectorParam id="2981"  name="translation">
           <InterpolatingParam id="2982" interp="linr"  time="-9999999/1" value="-23.034055727595028" leadInLength="0/1"  />
           <InterpolatingParam id="2983" interp="linr"  time="-9999999/1" value="206.75610635006086" leadInLength="0/1"  />
           <InterpolatingParam id="2984" interp="linr"  time="-9999999/1" value="3.4106051316488567e-010" leadInLength="0/1"  />
          </VectorParam>
          <VectorParam id="2985"  name="rotation">
           <InterpolatingParam id="2986" interp="linr"  time="-9999999/1" value="0" leadInLength="0/1"  />
           <InterpolatingParam id="2987" interp="linr"  time="-9999999/1" value="0" leadInLength="0/1"  />
           <InterpolatingParam id="2988" interp="linr"  time="-9999999/1" value="0" leadInLength="0/1"  />
          </VectorParam>
          <VectorParam id="2989"  name="shear">
           <InterpolatingParam id="2990" interp="linr"  time="-9999999/1" value="0" leadInLength="0/1"  />
           <InterpolatingParam id="2991" interp="linr"  time="-9999999/1" value="0" leadInLength="0/1"  />
           <InterpolatingParam id="2992" interp="linr"  time="-9999999/1" value="0" leadInLength="0/1"  />
          </VectorParam>
          <VectorParam id="2993"  name="scale">
           <InterpolatingParam id="2994" interp="linr"  time="-9999999/1" value="1.585139318884643" leadInLength="0/1"  />
           <InterpolatingParam id="2995" interp="linr"  time="-9999999/1" value="1.2910966854206978" leadInLength="0/1"  />
           <InterpolatingParam id="2996" interp="linr"  time="-9999999/1" value="1" leadInLength="0/1"  />
          </VectorParam>
          <VectorParam id="2997"  name="anchor">
           <InterpolatingParam id="2998" interp="linr"  time="0/1" value="0" leadInLength="0/1"  />
           <InterpolatingParam id="2999" interp="linr"  time="0/1" value="0" leadInLength="0/1"  />
           <InterpolatingParam id="3000" interp="linr"  time="0/1" value="0" leadInLength="0/1"  />
          </VectorParam>
         </Transformer>
         <Parameters>
          <VectorParam id="3001"  name="sourceCrop">
           <InterpolatingParam id="3002" interp="linr"  time="0/1" value="0" leadInLength="0/1"  />
           <InterpolatingParam id="3003" interp="linr"  time="0/1" value="0" leadInLength="0/1"  />
           <InterpolatingParam id="3004" interp="linr"  time="0/1" value="0" leadInLength="0/1"  />
           <InterpolatingParam id="3005" interp="linr"  time="0/1" value="0" leadInLength="0/1"  />
          </VectorParam>
          <VectorParam id="3006"  name="geometryCrop">
           <InterpolatingParam id="3007" interp="linr"  time="-9999999/1" value="0" leadInLength="0/1"  />
           <InterpolatingParam id="3008" interp="linr"  time="-9999999/1" value="0" leadInLength="0/1"  />
           <InterpolatingParam id="3009" interp="linr"  time="-9999999/1" value="0" leadInLength="0/1"  />
           <InterpolatingParam id="3010" interp="linr"  time="-9999999/1" value="0" leadInLength="0/1"  />
          </VectorParam>
          <InterpolatingParam id="3011" interp="linr"  time="-9999999/1" value="1" leadInLength="0/1"  name="opacity"/>
         </Parameters>
         <Effects>
          <GenericEffect id="3012" name = "DropShadow" >
           <Parameters>
           <InterpolatingParam id="3013" interp="linr"  time="0/1" value="315" leadInLength="0/1"   name="angle"/>
           <InterpolatingParam id="3014" interp="linr"  time="0/1" value="2" leadInLength="0/1"   name="blur"/>
           <Parameter id="3015"   name="enabled">
            <Keyframes>
            <Keyframe id="3016"  time="0/1" value="1" leadInLength="0/1"  />
            </Keyframes>
           </Parameter>
           <InterpolatingParam id="3017" interp="linr"  time="0/1" value="4" leadInLength="0/1"   name="offset"/>
           <InterpolatingParam id="3018" interp="linr"  time="0/1" value="0.75" leadInLength="0/1"   name="opacity"/>
           </Parameters>
          </GenericEffect>
         </Effects>
         <Attributes>
          <Attribute id="3019"  name="vectorNode">
           <VectorNode id="3020" kind="TypeWinXML"  >
            <DoubleParameters>
             <InterpolatingParam id="3021" interp="linr"  time="0/1" value="-1" leadInLength="0/1"  name="CutoutPercentage"/>
             <InterpolatingParam id="3022" interp="linr"  time="0/1" value="30" leadInLength="0/1"  name="RoundedRectRadius"/>
             <InterpolatingParam id="3023" interp="linr"  time="0/1" value="5" leadInLength="0/1"  name="Style"/>
             <InterpolatingParam id="3024" interp="linr"  time="0/1" value="0" leadInLength="0/1"  name="borderColorBlue"/>
             <InterpolatingParam id="3025" interp="linr"  time="0/1" value="0" leadInLength="0/1"  name="borderColorGreen"/>
             <InterpolatingParam id="3026" interp="linr"  time="0/1" value="0" leadInLength="0/1"  name="borderColorRed"/>
             <InterpolatingParam id="3027" interp="linr"  time="0/1" value="1" leadInLength="0/1"  name="borderState"/>
             <InterpolatingParam id="3028" interp="linr"  time="0/1" value="5" leadInLength="0/1"  name="borderWidth"/>
             <InterpolatingParam id="3029" interp="linr"  time="0/1" value="0" leadInLength="0/1"  name="dimensionTime"/>
             <InterpolatingParam id="3030" interp="linr"  time="0/1" value="0" leadInLength="0/1"  name="fillColorBlue"/>
             <InterpolatingParam id="3031" interp="linr"  time="0/1" value="0" leadInLength="0/1"  name="fillColorGreen"/>
             <InterpolatingParam id="3032" interp="linr"  time="0/1" value="0" leadInLength="0/1"  name="fillColorRed"/>
             <InterpolatingParam id="3033" interp="linr"  time="0/1" value="1" leadInLength="0/1"  name="fillState"/>
             <InterpolatingParam id="3034" interp="linr"  time="0/1" value="0" leadInLength="0/1"  name="flipOnXAxis"/>
             <InterpolatingParam id="3035" interp="linr"  time="0/1" value="0" leadInLength="0/1"  name="flipOnYAxis"/>
             <InterpolatingParam id="3036" interp="linr"  time="0/1" value="237.38562091503266" leadInLength="0/1"  name="height"/>
             <InterpolatingParam id="3037" interp="linr"  time="0/1" value="0" leadInLength="0/1"  name="textDropShadow"/>
             <InterpolatingParam id="3038" interp="linr"  time="0/1" value="0" leadInLength="0/1"  name="textIgnoresOpacity"/>
             <InterpolatingParam id="3039" interp="linr"  time="0/1" value="0.86784140969162993" leadInLength="0/1"  name="textRectHeight"/>
             <InterpolatingParam id="3040" interp="linr"  time="0/1" value="0.90196078431372551" leadInLength="0/1"  name="textRectWidth"/>
             <InterpolatingParam id="3041" interp="linr"  time="0/1" value="0.049019607843137254" leadInLength="0/1"  name="textRectX"/>
             <InterpolatingParam id="3042" interp="linr"  time="0/1" value="0.066079295154185022" leadInLength="0/1"  name="textRectY"/>
             <InterpolatingParam id="3043" interp="linr"  time="0/1" value="0" leadInLength="0/1"  name="textVerticalAlign"/>
             <InterpolatingParam id="3044" interp="linr"  time="0/1" value="320" leadInLength="0/1"  name="width"/>
            </DoubleParameters>
            <StringParameters>
             <Parameter id="3045"  name="VectorPath">
              <Keyframes>
              <Keyframe id="3046"  time="0/1" value="M10,0h286c5.521,0,10,4.477,10,10v207c0,5.521-4.479,10-10,10H10c-5.523,0-10-4.479-10-10V10&#xa;&#x9;C0,4.477,4.477,0,10,0z" leadInLength="0/1"  />
              </Keyframes>
             </Parameter>
             <Parameter id="3047"  name="filename">
              <Keyframes>
              <Keyframe id="3048"  time="0/1" value="C:\Program Files (x86)\TechSmith\Camtasia Studio 8\Media\Studio\Callouts\roundedrectangle.xml" leadInLength="0/1"  />
              </Keyframes>
             </Parameter>
             <Parameter id="3049"  name="name">
              <Keyframes>
              <Keyframe id="3050"  time="0/1" value="Filled Rounded Rectangle" leadInLength="0/1"  />
              </Keyframes>
             </Parameter>
             <Parameter id="3051"  name="text">
              <Keyframes>
              <Keyframe id="3052"  time="0/1" value="{\rtf1\ansi\ansicpg1252\deff0\deflang1033{\fonttbl{\f0\fswiss\fprq2\fcharset0 Arial;}}&#xD;&#xa;{\colortbl ;\red255\green255\blue255;}&#xD;&#xa;\viewkind4\uc1\pard\qc\cf1\f0\fs144 Outros materiais\par&#xD;&#xa;}&#xD;&#xa;" leadInLength="0/1"  />
              </Keyframes>
             </Parameter>
             <Parameter id="3053"  name="xmlContent">
              <Keyframes>
              <Keyframe id="3054"  time="0/1" value="﻿&lt;?xml version=&quot;1.0&quot;?&gt;&#xa;&#xa;&lt;Overlay version=&quot;1.0.1&quot;&gt;&#xa;&#xa;&lt;Overlay_Filename&gt;roundedrectangle.png&lt;/Overlay_Filename&gt;&#xa;&lt;Overlay_Name&gt;Filled Rounded Rectangle&lt;/Overlay_Name&gt;&#xa;&lt;Text_Top&gt;15&lt;/Text_Top&gt;&#xa;&lt;Text_Left&gt;15&lt;/Text_Left&gt;&#xa;&lt;Text_Bottom&gt;15&lt;/Text_Bottom&gt;&#xa;&lt;Text_Right&gt;15&lt;/Text_Right&gt;&#xa;&lt;Fill_Color&gt;1&lt;/Fill_Color&gt;&#xa;&lt;Border_Color&gt;1&lt;/Border_Color&gt;&#xa;&lt;Initial_Fill_Color&gt;0xffe05f00&lt;/Initial_Fill_Color&gt;&#xa;&lt;Initial_Border_Color&gt;0xffd7d7d7&lt;/Initial_Border_Color&gt;&#xa;&lt;VectorProps&gt;&#xa;&lt;figure&gt;&#xa;&lt;svg&gt;M10,0h286c5.521,0,10,4.477,10,10v207c0,5.521-4.479,10-10,10H10c-5.523,0-10-4.479-10-10V10&#xa;&#x9;C0,4.477,4.477,0,10,0z&lt;/svg&gt;&#xa;&lt;/figure&gt;&#xa;&lt;borderWidth&gt;5.00&lt;/borderWidth&gt;&#xa;&lt;seamY&gt;-1&lt;/seamY&gt;&#xa;&lt;roundedRectRadius&gt;30&lt;/roundedRectRadius&gt;&#xa;&lt;shapeWidth&gt;306&lt;/shapeWidth&gt;&#xa;&lt;shapeHeight&gt;227&lt;/shapeHeight&gt;&#xa;&lt;/VectorProps&gt;&#xa;&lt;Style&gt;5&lt;/Style&gt;&#xa;&lt;/Overlay&gt;" leadInLength="0/1"  />
              </Keyframes>
             </Parameter>
            </StringParameters>
           </VectorNode>
          </Attribute>
         </Attributes>
         <MetaData>
          <entry key="WinSubProjectDisplayName" val=""/>
         </MetaData>
         <LeftEdgeMods length="30/1" groupName="OpacityFade">
          <EdgeMod parameter="3011">
           <FadeInFunc id="2087"  />
          </EdgeMod>
         </LeftEdgeMods>
         <RightEdgeMods length="30/1" groupName="OpacityFade">
          <EdgeMod parameter="3011">
           <FadeOutFunc id="3055"  />
          </EdgeMod>
         </RightEdgeMods>
         <ExtraData>
          <Entry key="ZoomPanBin">
           <ZoomPanBin id="3056"  >
            <ZoomPanKeyframes>
             <ZoomPanKeyframe id="3057" timeRangeEnd="-9999999/1" timeRangeDuration="0/1" interpolaterName="linr"  />
            </ZoomPanKeyframes>
           </ZoomPanBin>
          </Entry>
         </ExtraData>
        </Callout>
        <Callout id="3058" start="9558" duration="290" scalar="1/1" mediaStart="0/1" mediaDuration="290/1" >
         <Transformer>
          <VectorParam id="3059"  name="translation">
           <InterpolatingParam id="3060" interp="linr"  time="-9999999/1" value="-404.21052631570456" leadInLength="0/1"  />
           <InterpolatingParam id="3061" interp="linr"  time="-9999999/1" value="193.38149334699858" leadInLength="0/1"  />
           <InterpolatingParam id="3062" interp="linr"  time="-9999999/1" value="0" leadInLength="0/1"  />
          </VectorParam>
          <VectorParam id="3063"  name="rotation">
           <InterpolatingParam id="3064" interp="linr"  time="-9999999/1" value="0" leadInLength="0/1"  />
           <InterpolatingParam id="3065" interp="linr"  time="-9999999/1" value="0" leadInLength="0/1"  />
           <InterpolatingParam id="3066" interp="linr"  time="-9999999/1" value="0" leadInLength="0/1"  />
          </VectorParam>
          <VectorParam id="3067"  name="shear">
           <InterpolatingParam id="3068" interp="linr"  time="-9999999/1" value="0" leadInLength="0/1"  />
           <InterpolatingParam id="3069" interp="linr"  time="-9999999/1" value="0" leadInLength="0/1"  />
           <InterpolatingParam id="3070" interp="linr"  time="-9999999/1" value="0" leadInLength="0/1"  />
          </VectorParam>
          <VectorParam id="3071"  name="scale">
           <InterpolatingParam id="3072" interp="linr"  time="-9999999/1" value="1.4736842105264669" leadInLength="0/1"  />
           <InterpolatingParam id="3073" interp="linr"  time="-9999999/1" value="1.4037792733254908" leadInLength="0/1"  />
           <InterpolatingParam id="3074" interp="linr"  time="-9999999/1" value="1" leadInLength="0/1"  />
          </VectorParam>
          <VectorParam id="3075"  name="anchor">
           <InterpolatingParam id="3076" interp="linr"  time="0/1" value="0" leadInLength="0/1"  />
           <InterpolatingParam id="3077" interp="linr"  time="0/1" value="0" leadInLength="0/1"  />
           <InterpolatingParam id="3078" interp="linr"  time="0/1" value="0" leadInLength="0/1"  />
          </VectorParam>
         </Transformer>
         <Parameters>
          <VectorParam id="3079"  name="sourceCrop">
           <InterpolatingParam id="3080" interp="linr"  time="0/1" value="0" leadInLength="0/1"  />
           <InterpolatingParam id="3081" interp="linr"  time="0/1" value="0" leadInLength="0/1"  />
           <InterpolatingParam id="3082" interp="linr"  time="0/1" value="0" leadInLength="0/1"  />
           <InterpolatingParam id="3083" interp="linr"  time="0/1" value="0" leadInLength="0/1"  />
          </VectorParam>
          <VectorParam id="3084"  name="geometryCrop">
           <InterpolatingParam id="3085" interp="linr"  time="-9999999/1" value="0" leadInLength="0/1"  />
           <InterpolatingParam id="3086" interp="linr"  time="-9999999/1" value="0" leadInLength="0/1"  />
           <InterpolatingParam id="3087" interp="linr"  time="-9999999/1" value="0" leadInLength="0/1"  />
           <InterpolatingParam id="3088" interp="linr"  time="-9999999/1" value="0" leadInLength="0/1"  />
          </VectorParam>
          <InterpolatingParam id="3089" interp="linr"  time="-9999999/1" value="1" leadInLength="0/1"  name="opacity"/>
         </Parameters>
         <Effects>
          <GenericEffect id="3090" name = "DropShadow" >
           <Parameters>
           <InterpolatingParam id="3091" interp="linr"  time="0/1" value="315" leadInLength="0/1"   name="angle"/>
           <InterpolatingParam id="3092" interp="linr"  time="0/1" value="2" leadInLength="0/1"   name="blur"/>
           <Parameter id="3093"   name="enabled">
            <Keyframes>
            <Keyframe id="3094"  time="0/1" value="1" leadInLength="0/1"  />
            </Keyframes>
           </Parameter>
           <InterpolatingParam id="3095" interp="linr"  time="0/1" value="4" leadInLength="0/1"   name="offset"/>
           <InterpolatingParam id="3096" interp="linr"  time="0/1" value="0.75" leadInLength="0/1"   name="opacity"/>
           </Parameters>
          </GenericEffect>
         </Effects>
         <Attributes>
          <Attribute id="3097"  name="vectorNode">
           <VectorNode id="3098" kind="TypeWinXML"  >
            <DoubleParameters>
             <InterpolatingParam id="3099" interp="linr"  time="0/1" value="-1" leadInLength="0/1"  name="CutoutPercentage"/>
             <InterpolatingParam id="3100" interp="linr"  time="0/1" value="30" leadInLength="0/1"  name="RoundedRectRadius"/>
             <InterpolatingParam id="3101" interp="linr"  time="0/1" value="5" leadInLength="0/1"  name="Style"/>
             <InterpolatingParam id="3102" interp="linr"  time="0/1" value="0" leadInLength="0/1"  name="borderColorBlue"/>
             <InterpolatingParam id="3103" interp="linr"  time="0/1" value="0" leadInLength="0/1"  name="borderColorGreen"/>
             <InterpolatingParam id="3104" interp="linr"  time="0/1" value="0" leadInLength="0/1"  name="borderColorRed"/>
             <InterpolatingParam id="3105" interp="linr"  time="0/1" value="1" leadInLength="0/1"  name="borderState"/>
             <InterpolatingParam id="3106" interp="linr"  time="0/1" value="5" leadInLength="0/1"  name="borderWidth"/>
             <InterpolatingParam id="3107" interp="linr"  time="0/1" value="0" leadInLength="0/1"  name="dimensionTime"/>
             <InterpolatingParam id="3108" interp="linr"  time="0/1" value="0" leadInLength="0/1"  name="fillColorBlue"/>
             <InterpolatingParam id="3109" interp="linr"  time="0/1" value="0" leadInLength="0/1"  name="fillColorGreen"/>
             <InterpolatingParam id="3110" interp="linr"  time="0/1" value="0" leadInLength="0/1"  name="fillColorRed"/>
             <InterpolatingParam id="3111" interp="linr"  time="0/1" value="1" leadInLength="0/1"  name="fillState"/>
             <InterpolatingParam id="3112" interp="linr"  time="0/1" value="0" leadInLength="0/1"  name="flipOnXAxis"/>
             <InterpolatingParam id="3113" interp="linr"  time="0/1" value="0" leadInLength="0/1"  name="flipOnYAxis"/>
             <InterpolatingParam id="3114" interp="linr"  time="0/1" value="237.38562091503266" leadInLength="0/1"  name="height"/>
             <InterpolatingParam id="3115" interp="linr"  time="0/1" value="0" leadInLength="0/1"  name="textDropShadow"/>
             <InterpolatingParam id="3116" interp="linr"  time="0/1" value="0" leadInLength="0/1"  name="textIgnoresOpacity"/>
             <InterpolatingParam id="3117" interp="linr"  time="0/1" value="0.86784140969162993" leadInLength="0/1"  name="textRectHeight"/>
             <InterpolatingParam id="3118" interp="linr"  time="0/1" value="0.90196078431372551" leadInLength="0/1"  name="textRectWidth"/>
             <InterpolatingParam id="3119" interp="linr"  time="0/1" value="0.049019607843137254" leadInLength="0/1"  name="textRectX"/>
             <InterpolatingParam id="3120" interp="linr"  time="0/1" value="0.066079295154185022" leadInLength="0/1"  name="textRectY"/>
             <InterpolatingParam id="3121" interp="linr"  time="0/1" value="0" leadInLength="0/1"  name="textVerticalAlign"/>
             <InterpolatingParam id="3122" interp="linr"  time="0/1" value="320" leadInLength="0/1"  name="width"/>
            </DoubleParameters>
            <StringParameters>
             <Parameter id="3123"  name="VectorPath">
              <Keyframes>
              <Keyframe id="3124"  time="0/1" value="M10,0h286c5.521,0,10,4.477,10,10v207c0,5.521-4.479,10-10,10H10c-5.523,0-10-4.479-10-10V10&#xa;&#x9;C0,4.477,4.477,0,10,0z" leadInLength="0/1"  />
              </Keyframes>
             </Parameter>
             <Parameter id="3125"  name="filename">
              <Keyframes>
              <Keyframe id="3126"  time="0/1" value="C:\Program Files (x86)\TechSmith\Camtasia Studio 8\Media\Studio\Callouts\roundedrectangle.xml" leadInLength="0/1"  />
              </Keyframes>
             </Parameter>
             <Parameter id="3127"  name="name">
              <Keyframes>
              <Keyframe id="3128"  time="0/1" value="Filled Rounded Rectangle" leadInLength="0/1"  />
              </Keyframes>
             </Parameter>
             <Parameter id="3129"  name="text">
              <Keyframes>
              <Keyframe id="3130"  time="0/1" value="{\rtf1\ansi\ansicpg1252\deff0\deflang1033{\fonttbl{\f0\fswiss\fprq2\fcharset0 Arial;}}&#xD;&#xa;{\colortbl ;\red255\green255\blue255;}&#xD;&#xa;\viewkind4\uc1\pard\qc\cf1\f0\fs96 Conformidade com a teoria\fs144\par&#xD;&#xa;}&#xD;&#xa;" leadInLength="0/1"  />
              </Keyframes>
             </Parameter>
             <Parameter id="3131"  name="xmlContent">
              <Keyframes>
              <Keyframe id="3132"  time="0/1" value="﻿&lt;?xml version=&quot;1.0&quot;?&gt;&#xa;&#xa;&lt;Overlay version=&quot;1.0.1&quot;&gt;&#xa;&#xa;&lt;Overlay_Filename&gt;roundedrectangle.png&lt;/Overlay_Filename&gt;&#xa;&lt;Overlay_Name&gt;Filled Rounded Rectangle&lt;/Overlay_Name&gt;&#xa;&lt;Text_Top&gt;15&lt;/Text_Top&gt;&#xa;&lt;Text_Left&gt;15&lt;/Text_Left&gt;&#xa;&lt;Text_Bottom&gt;15&lt;/Text_Bottom&gt;&#xa;&lt;Text_Right&gt;15&lt;/Text_Right&gt;&#xa;&lt;Fill_Color&gt;1&lt;/Fill_Color&gt;&#xa;&lt;Border_Color&gt;1&lt;/Border_Color&gt;&#xa;&lt;Initial_Fill_Color&gt;0xffe05f00&lt;/Initial_Fill_Color&gt;&#xa;&lt;Initial_Border_Color&gt;0xffd7d7d7&lt;/Initial_Border_Color&gt;&#xa;&lt;VectorProps&gt;&#xa;&lt;figure&gt;&#xa;&lt;svg&gt;M10,0h286c5.521,0,10,4.477,10,10v207c0,5.521-4.479,10-10,10H10c-5.523,0-10-4.479-10-10V10&#xa;&#x9;C0,4.477,4.477,0,10,0z&lt;/svg&gt;&#xa;&lt;/figure&gt;&#xa;&lt;borderWidth&gt;5.00&lt;/borderWidth&gt;&#xa;&lt;seamY&gt;-1&lt;/seamY&gt;&#xa;&lt;roundedRectRadius&gt;30&lt;/roundedRectRadius&gt;&#xa;&lt;shapeWidth&gt;306&lt;/shapeWidth&gt;&#xa;&lt;shapeHeight&gt;227&lt;/shapeHeight&gt;&#xa;&lt;/VectorProps&gt;&#xa;&lt;Style&gt;5&lt;/Style&gt;&#xa;&lt;/Overlay&gt;" leadInLength="0/1"  />
              </Keyframes>
             </Parameter>
            </StringParameters>
           </VectorNode>
          </Attribute>
         </Attributes>
         <MetaData>
          <entry key="WinSubProjectDisplayName" val=""/>
         </MetaData>
         <LeftEdgeMods length="30/1" groupName="OpacityFade">
          <EdgeMod parameter="3089">
           <FadeInFunc id="3133"  />
          </EdgeMod>
         </LeftEdgeMods>
         <RightEdgeMods length="30/1" groupName="OpacityFade">
          <EdgeMod parameter="3089">
           <FadeOutFunc id="123"  />
          </EdgeMod>
         </RightEdgeMods>
         <ExtraData>
          <Entry key="ZoomPanBin">
           <ZoomPanBin id="3134"  >
            <ZoomPanKeyframes>
             <ZoomPanKeyframe id="3135" timeRangeEnd="-9999999/1" timeRangeDuration="0/1" interpolaterName="linr"  />
            </ZoomPanKeyframes>
           </ZoomPanBin>
          </Entry>
         </ExtraData>
        </Callout>
       </Medias>
      </GenericTrack>
      <GenericTrack id="3136"  >
       <Attributes>
        <Attribute id="3137" value="" name="ident"/>
        <Attribute id="3138" value="0" name="audioMuted"/>
        <Attribute id="3139" value="0" name="videoHidden"/>
       </Attributes>
       <MetaData>
        <entry key="IsLocked" val="False"/>
        <entry key="WinTrackHeight" val="62"/>
       </MetaData>
       <Medias>
        <AMFile id="3140" start="171" duration="591" scalar="1/1" mediaStart="0/1" mediaDuration="591/1" trackNumber="0" src="5" channelNumber="0" >
         <Parameters>
          <InterpolatingParam id="3141" interp="linr"  time="0/1" value="1" leadInLength="0/1"  name="volume"/>
          <Parameter id="3142"  name="captions"/>
         </Parameters>
         <Attributes>
          <Attribute id="3143" value="" name="ident"/>
          <Attribute id="3144" value="48000" name="sampleRate"/>
          <Attribute id="3145" value="0" name="bitDepth"/>
          <Attribute id="3146" value="1" name="gain"/>
          <Attribute id="3147" value="0" name="mixToMono"/>
         </Attributes>
         <MetaData>
          <entry key="WinSubProjectDisplayName" val=""/>
         </MetaData>
        </AMFile>
        <AMFile id="3148" start="762" duration="402" scalar="1/1" mediaStart="0/1" mediaDuration="402/1" trackNumber="0" src="36" channelNumber="0" >
         <Parameters>
          <InterpolatingParam id="3149" interp="linr"  time="0/1" value="1" leadInLength="0/1"  name="volume"/>
          <Parameter id="3150"  name="captions"/>
         </Parameters>
         <Attributes>
          <Attribute id="3151" value="" name="ident"/>
          <Attribute id="3152" value="48000" name="sampleRate"/>
          <Attribute id="3153" value="0" name="bitDepth"/>
          <Attribute id="3154" value="1" name="gain"/>
          <Attribute id="3155" value="0" name="mixToMono"/>
         </Attributes>
         <MetaData>
          <entry key="WinSubProjectDisplayName" val=""/>
         </MetaData>
        </AMFile>
        <AMFile id="3156" start="1241" duration="366" scalar="1/1" mediaStart="0/1" mediaDuration="366/1" trackNumber="0" src="13" channelNumber="0" >
         <Parameters>
          <InterpolatingParam id="3157" interp="linr"  time="0/1" value="1" leadInLength="0/1"  name="volume"/>
          <Parameter id="3158"  name="captions"/>
         </Parameters>
         <Attributes>
          <Attribute id="3159" value="" name="ident"/>
          <Attribute id="3160" value="44100" name="sampleRate"/>
          <Attribute id="3161" value="0" name="bitDepth"/>
          <Attribute id="3162" value="1" name="gain"/>
          <Attribute id="3163" value="0" name="mixToMono"/>
         </Attributes>
         <MetaData>
          <entry key="WinSubProjectDisplayName" val=""/>
         </MetaData>
        </AMFile>
        <AMFile id="3164" start="1851" duration="404" scalar="1/1" mediaStart="0/1" mediaDuration="404/1" trackNumber="0" src="7" channelNumber="0" >
         <Parameters>
          <InterpolatingParam id="3165" interp="linr"  time="0/1" value="1" leadInLength="0/1"  name="volume"/>
          <Parameter id="3166"  name="captions"/>
         </Parameters>
         <Attributes>
          <Attribute id="3167" value="" name="ident"/>
          <Attribute id="3168" value="44100" name="sampleRate"/>
          <Attribute id="3169" value="0" name="bitDepth"/>
          <Attribute id="3170" value="1" name="gain"/>
          <Attribute id="3171" value="0" name="mixToMono"/>
         </Attributes>
         <MetaData>
          <entry key="WinSubProjectDisplayName" val=""/>
         </MetaData>
        </AMFile>
        <AMFile id="3172" start="2307" duration="711" scalar="1/1" mediaStart="0/1" mediaDuration="711/1" trackNumber="0" src="4" channelNumber="0" >
         <Parameters>
          <InterpolatingParam id="3173" interp="linr"  time="0/1" value="1" leadInLength="0/1"  name="volume"/>
          <Parameter id="3174"  name="captions"/>
         </Parameters>
         <Attributes>
          <Attribute id="3175" value="" name="ident"/>
          <Attribute id="3176" value="48000" name="sampleRate"/>
          <Attribute id="3177" value="0" name="bitDepth"/>
          <Attribute id="3178" value="1" name="gain"/>
          <Attribute id="3179" value="0" name="mixToMono"/>
         </Attributes>
         <MetaData>
          <entry key="WinSubProjectDisplayName" val=""/>
         </MetaData>
        </AMFile>
        <AMFile id="3180" start="3018" duration="369" scalar="1/1" mediaStart="0/1" mediaDuration="369/1" trackNumber="0" src="14" channelNumber="0" >
         <Parameters>
          <InterpolatingParam id="3181" interp="linr"  time="0/1" value="1" leadInLength="0/1"  name="volume"/>
          <Parameter id="3182"  name="captions"/>
         </Parameters>
         <Attributes>
          <Attribute id="3183" value="" name="ident"/>
          <Attribute id="3184" value="44100" name="sampleRate"/>
          <Attribute id="3185" value="0" name="bitDepth"/>
          <Attribute id="3186" value="1" name="gain"/>
          <Attribute id="3187" value="0" name="mixToMono"/>
         </Attributes>
         <MetaData>
          <entry key="WinSubProjectDisplayName" val=""/>
         </MetaData>
        </AMFile>
        <AMFile id="3188" start="3387" duration="486" scalar="1/1" mediaStart="0/1" mediaDuration="486/1" trackNumber="0" src="6" channelNumber="0" >
         <Parameters>
          <InterpolatingParam id="3189" interp="linr"  time="0/1" value="1" leadInLength="0/1"  name="volume"/>
          <Parameter id="3190"  name="captions"/>
         </Parameters>
         <Attributes>
          <Attribute id="3191" value="" name="ident"/>
          <Attribute id="3192" value="44100" name="sampleRate"/>
          <Attribute id="3193" value="0" name="bitDepth"/>
          <Attribute id="3194" value="1" name="gain"/>
          <Attribute id="3195" value="0" name="mixToMono"/>
         </Attributes>
         <MetaData>
          <entry key="WinSubProjectDisplayName" val=""/>
         </MetaData>
        </AMFile>
        <Caption id="3196" start="3873" duration="122" scalar="1/1" mediaStart="77/1" mediaDuration="122/1" maxMediaDuration="9.22337e+018"  allowTrimOut="1"  >
         <Parameters>
          <Parameter id="3197"  name="captionData">
           <Keyframes>
           <Keyframe id="3198"  time="-9999999/1" value="{61,Agora é visualmente que a barra tá ficando mais clara (SIC),0}" leadInLength="0/1"  />
           <Keyframe id="3199"  time="77/1" value="{36,Ele não fica completamente inteiro&#xD;,0}" leadInLength="0/1"  />
           <Keyframe id="3200"  time="122/1" value="{20,Não ficou parecido&#xD;,0}" leadInLength="0/1"  />
           </Keyframes>
          </Parameter>
          <Parameter id="3201"  name="toc"/>
          <Parameter id="3202"  name="quiz"/>
         </Parameters>
         <Attributes>
         </Attributes>
         <MetaData>
          <entry key="WinSubProjectDisplayName" val=""/>
         </MetaData>
        </Caption>
        <AMFile id="3203" start="4025" duration="416" scalar="1/1" mediaStart="0/1" mediaDuration="416/1" trackNumber="0" src="20" channelNumber="0" >
         <Parameters>
          <InterpolatingParam id="3204" interp="linr"  time="0/1" value="1" leadInLength="0/1"  name="volume"/>
          <Parameter id="3205"  name="captions"/>
         </Parameters>
         <Attributes>
          <Attribute id="3206" value="" name="ident"/>
          <Attribute id="3207" value="48000" name="sampleRate"/>
          <Attribute id="3208" value="0" name="bitDepth"/>
          <Attribute id="3209" value="1" name="gain"/>
          <Attribute id="3210" value="0" name="mixToMono"/>
         </Attributes>
         <MetaData>
          <entry key="WinSubProjectDisplayName" val=""/>
         </MetaData>
        </AMFile>
        <AMFile id="3211" start="4575" duration="245" scalar="1/1" mediaStart="0/1" mediaDuration="245/1" trackNumber="0" src="19" channelNumber="0" >
         <Parameters>
          <InterpolatingParam id="3212" interp="linr"  time="0/1" value="1" leadInLength="0/1"  name="volume"/>
          <Parameter id="3213"  name="captions"/>
         </Parameters>
         <Attributes>
          <Attribute id="3214" value="" name="ident"/>
          <Attribute id="3215" value="48000" name="sampleRate"/>
          <Attribute id="3216" value="0" name="bitDepth"/>
          <Attribute id="3217" value="1" name="gain"/>
          <Attribute id="3218" value="0" name="mixToMono"/>
         </Attributes>
         <MetaData>
          <entry key="WinSubProjectDisplayName" val=""/>
         </MetaData>
        </AMFile>
        <AMFile id="3219" start="5018" duration="272" scalar="1/1" mediaStart="0/1" mediaDuration="272/1" trackNumber="0" src="18" channelNumber="0" >
         <Parameters>
          <InterpolatingParam id="3220" interp="linr"  time="0/1" value="1" leadInLength="0/1"  name="volume"/>
          <Parameter id="3221"  name="captions"/>
         </Parameters>
         <Attributes>
          <Attribute id="3222" value="" name="ident"/>
          <Attribute id="3223" value="48000" name="sampleRate"/>
          <Attribute id="3224" value="0" name="bitDepth"/>
          <Attribute id="3225" value="1" name="gain"/>
          <Attribute id="3226" value="0" name="mixToMono"/>
         </Attributes>
         <MetaData>
          <entry key="WinSubProjectDisplayName" val=""/>
         </MetaData>
        </AMFile>
        <AMFile id="3227" start="5500" duration="218" scalar="1/1" mediaStart="0/1" mediaDuration="218/1" trackNumber="0" src="10" channelNumber="0" >
         <Parameters>
          <InterpolatingParam id="3228" interp="linr"  time="0/1" value="1" leadInLength="0/1"  name="volume"/>
          <Parameter id="3229"  name="captions"/>
         </Parameters>
         <Attributes>
          <Attribute id="3230" value="" name="ident"/>
          <Attribute id="3231" value="48000" name="sampleRate"/>
          <Attribute id="3232" value="0" name="bitDepth"/>
          <Attribute id="3233" value="1" name="gain"/>
          <Attribute id="3234" value="0" name="mixToMono"/>
         </Attributes>
         <MetaData>
          <entry key="WinSubProjectDisplayName" val=""/>
         </MetaData>
        </AMFile>
        <AMFile id="3235" start="5920" duration="466" scalar="1/1" mediaStart="0/1" mediaDuration="466/1" trackNumber="0" src="17" channelNumber="0" >
         <Parameters>
          <InterpolatingParam id="3236" interp="linr"  time="0/1" value="1" leadInLength="0/1"  name="volume"/>
          <Parameter id="3237"  name="captions"/>
         </Parameters>
         <Attributes>
          <Attribute id="3238" value="" name="ident"/>
          <Attribute id="3239" value="48000" name="sampleRate"/>
          <Attribute id="3240" value="0" name="bitDepth"/>
          <Attribute id="3241" value="1" name="gain"/>
          <Attribute id="3242" value="0" name="mixToMono"/>
         </Attributes>
         <MetaData>
          <entry key="WinSubProjectDisplayName" val=""/>
         </MetaData>
        </AMFile>
        <AMFile id="3243" start="6674" duration="191" scalar="1/1" mediaStart="0/1" mediaDuration="191/1" trackNumber="0" src="16" channelNumber="0" >
         <Parameters>
          <InterpolatingParam id="3244" interp="linr"  time="0/1" value="1" leadInLength="0/1"  name="volume"/>
          <Parameter id="3245"  name="captions"/>
         </Parameters>
         <Attributes>
          <Attribute id="3246" value="" name="ident"/>
          <Attribute id="3247" value="48000" name="sampleRate"/>
          <Attribute id="3248" value="0" name="bitDepth"/>
          <Attribute id="3249" value="1" name="gain"/>
          <Attribute id="3250" value="0" name="mixToMono"/>
         </Attributes>
         <MetaData>
          <entry key="WinSubProjectDisplayName" val=""/>
         </MetaData>
        </AMFile>
        <AMFile id="3251" start="7133" duration="180" scalar="1/1" mediaStart="191/1" mediaDuration="180/1" trackNumber="0" src="16" channelNumber="0" >
         <Parameters>
          <InterpolatingParam id="3252" interp="linr"  time="0/1" value="1" leadInLength="0/1"  name="volume"/>
          <Parameter id="3253"  name="captions"/>
         </Parameters>
         <Attributes>
          <Attribute id="3254" value="" name="ident"/>
          <Attribute id="3255" value="48000" name="sampleRate"/>
          <Attribute id="3256" value="0" name="bitDepth"/>
          <Attribute id="3257" value="1" name="gain"/>
          <Attribute id="3258" value="0" name="mixToMono"/>
         </Attributes>
         <MetaData>
          <entry key="WinSubProjectDisplayName" val=""/>
         </MetaData>
        </AMFile>
        <AMFile id="3259" start="7343" duration="478" scalar="1/1" mediaStart="0/1" mediaDuration="478/1" trackNumber="0" src="8" channelNumber="0" >
         <Parameters>
          <InterpolatingParam id="3260" interp="linr"  time="0/1" value="1" leadInLength="0/1"  name="volume"/>
          <Parameter id="3261"  name="captions"/>
         </Parameters>
         <Attributes>
          <Attribute id="3262" value="" name="ident"/>
          <Attribute id="3263" value="44100" name="sampleRate"/>
          <Attribute id="3264" value="0" name="bitDepth"/>
          <Attribute id="3265" value="1" name="gain"/>
          <Attribute id="3266" value="0" name="mixToMono"/>
         </Attributes>
         <MetaData>
          <entry key="WinSubProjectDisplayName" val=""/>
         </MetaData>
        </AMFile>
        <AMFile id="3267" start="7881" duration="491" scalar="1/1" mediaStart="0/1" mediaDuration="491/1" trackNumber="0" src="11" channelNumber="0" >
         <Parameters>
          <InterpolatingParam id="3268" interp="linr"  time="0/1" value="1" leadInLength="0/1"  name="volume"/>
          <Parameter id="3269"  name="captions"/>
         </Parameters>
         <Attributes>
          <Attribute id="3270" value="" name="ident"/>
          <Attribute id="3271" value="48000" name="sampleRate"/>
          <Attribute id="3272" value="0" name="bitDepth"/>
          <Attribute id="3273" value="1" name="gain"/>
          <Attribute id="3274" value="0" name="mixToMono"/>
         </Attributes>
         <MetaData>
          <entry key="WinSubProjectDisplayName" val=""/>
         </MetaData>
        </AMFile>
        <AMFile id="3275" start="8373" duration="804" scalar="1/1" mediaStart="0/1" mediaDuration="804/1" trackNumber="0" src="15" channelNumber="0" >
         <Parameters>
          <InterpolatingParam id="3276" interp="linr"  time="0/1" value="1" leadInLength="0/1"  name="volume"/>
          <Parameter id="3277"  name="captions"/>
         </Parameters>
         <Attributes>
          <Attribute id="3278" value="" name="ident"/>
          <Attribute id="3279" value="48000" name="sampleRate"/>
          <Attribute id="3280" value="0" name="bitDepth"/>
          <Attribute id="3281" value="1" name="gain"/>
          <Attribute id="3282" value="0" name="mixToMono"/>
         </Attributes>
         <MetaData>
          <entry key="WinSubProjectDisplayName" val=""/>
         </MetaData>
        </AMFile>
        <AMFile id="3283" start="9177" duration="364" scalar="1/1" mediaStart="0/1" mediaDuration="364/1" trackNumber="0" src="9" channelNumber="0" >
         <Parameters>
          <InterpolatingParam id="3284" interp="linr"  time="0/1" value="1" leadInLength="0/1"  name="volume"/>
          <Parameter id="3285"  name="captions"/>
         </Parameters>
         <Attributes>
          <Attribute id="3286" value="" name="ident"/>
          <Attribute id="3287" value="44100" name="sampleRate"/>
          <Attribute id="3288" value="0" name="bitDepth"/>
          <Attribute id="3289" value="1" name="gain"/>
          <Attribute id="3290" value="0" name="mixToMono"/>
         </Attributes>
         <MetaData>
          <entry key="WinSubProjectDisplayName" val=""/>
         </MetaData>
        </AMFile>
        <AMFile id="3291" start="9581" duration="267" scalar="1/1" mediaStart="0/1" mediaDuration="267/1" trackNumber="0" src="37" channelNumber="0" >
         <Parameters>
          <InterpolatingParam id="3292" interp="linr"  time="0/1" value="1" leadInLength="0/1"  name="volume"/>
          <Parameter id="3293"  name="captions"/>
         </Parameters>
         <Attributes>
          <Attribute id="3294" value="" name="ident"/>
          <Attribute id="3295" value="48000" name="sampleRate"/>
          <Attribute id="3296" value="0" name="bitDepth"/>
          <Attribute id="3297" value="1" name="gain"/>
          <Attribute id="3298" value="0" name="mixToMono"/>
         </Attributes>
         <MetaData>
          <entry key="WinSubProjectDisplayName" val=""/>
         </MetaData>
        </AMFile>
        <Callout id="3299" start="9848" duration="210" scalar="1/1" mediaStart="0/1" mediaDuration="210/1" >
         <Transformer>
          <VectorParam id="3300"  name="translation">
           <InterpolatingParam id="3301" interp="linr"  time="-9999999/1" value="-486.68730650139736" leadInLength="0/1"  />
           <InterpolatingParam id="3302" interp="linr"  time="-9999999/1" value="262.48366052959943" leadInLength="0/1"  />
           <InterpolatingParam id="3303" interp="linr"  time="-9999999/1" value="0" leadInLength="0/1"  />
          </VectorParam>
          <VectorParam id="3304"  name="rotation">
           <InterpolatingParam id="3305" interp="linr"  time="-9999999/1" value="0" leadInLength="0/1"  />
           <InterpolatingParam id="3306" interp="linr"  time="-9999999/1" value="0" leadInLength="0/1"  />
           <InterpolatingParam id="3307" interp="linr"  time="-9999999/1" value="0" leadInLength="0/1"  />
          </VectorParam>
          <VectorParam id="3308"  name="shear">
           <InterpolatingParam id="3309" interp="linr"  time="-9999999/1" value="0" leadInLength="0/1"  />
           <InterpolatingParam id="3310" interp="linr"  time="-9999999/1" value="0" leadInLength="0/1"  />
           <InterpolatingParam id="3311" interp="linr"  time="-9999999/1" value="0" leadInLength="0/1"  />
          </VectorParam>
          <VectorParam id="3312"  name="scale">
           <InterpolatingParam id="3313" interp="linr"  time="-9999999/1" value="0.95820433436543451" leadInLength="0/1"  />
           <InterpolatingParam id="3314" interp="linr"  time="-9999999/1" value="0.82158590248396191" leadInLength="0/1"  />
           <InterpolatingParam id="3315" interp="linr"  time="-9999999/1" value="1" leadInLength="0/1"  />
          </VectorParam>
          <VectorParam id="3316"  name="anchor">
           <InterpolatingParam id="3317" interp="linr"  time="0/1" value="0" leadInLength="0/1"  />
           <InterpolatingParam id="3318" interp="linr"  time="0/1" value="0" leadInLength="0/1"  />
           <InterpolatingParam id="3319" interp="linr"  time="0/1" value="0" leadInLength="0/1"  />
          </VectorParam>
         </Transformer>
         <Parameters>
          <VectorParam id="3320"  name="sourceCrop">
           <InterpolatingParam id="3321" interp="linr"  time="0/1" value="0" leadInLength="0/1"  />
           <InterpolatingParam id="3322" interp="linr"  time="0/1" value="0" leadInLength="0/1"  />
           <InterpolatingParam id="3323" interp="linr"  time="0/1" value="0" leadInLength="0/1"  />
           <InterpolatingParam id="3324" interp="linr"  time="0/1" value="0" leadInLength="0/1"  />
          </VectorParam>
          <VectorParam id="3325"  name="geometryCrop">
           <InterpolatingParam id="3326" interp="linr"  time="-9999999/1" value="0" leadInLength="0/1"  />
           <InterpolatingParam id="3327" interp="linr"  time="-9999999/1" value="0" leadInLength="0/1"  />
           <InterpolatingParam id="3328" interp="linr"  time="-9999999/1" value="0" leadInLength="0/1"  />
           <InterpolatingParam id="3329" interp="linr"  time="-9999999/1" value="0" leadInLength="0/1"  />
          </VectorParam>
          <InterpolatingParam id="3330" interp="linr"  time="-9999999/1" value="1" leadInLength="0/1"  name="opacity"/>
         </Parameters>
         <Effects>
          <GenericEffect id="3331" name = "DropShadow" >
           <Parameters>
           <InterpolatingParam id="3332" interp="linr"  time="0/1" value="315" leadInLength="0/1"   name="angle"/>
           <InterpolatingParam id="3333" interp="linr"  time="0/1" value="2" leadInLength="0/1"   name="blur"/>
           <Parameter id="3334"   name="enabled">
            <Keyframes>
            <Keyframe id="3335"  time="0/1" value="1" leadInLength="0/1"  />
            </Keyframes>
           </Parameter>
           <InterpolatingParam id="3336" interp="linr"  time="0/1" value="4" leadInLength="0/1"   name="offset"/>
           <InterpolatingParam id="3337" interp="linr"  time="0/1" value="0.75" leadInLength="0/1"   name="opacity"/>
           </Parameters>
          </GenericEffect>
         </Effects>
         <Attributes>
          <Attribute id="3338"  name="vectorNode">
           <VectorNode id="3339" kind="TypeWinXML"  >
            <DoubleParameters>
             <InterpolatingParam id="3340" interp="linr"  time="0/1" value="-1" leadInLength="0/1"  name="CutoutPercentage"/>
             <InterpolatingParam id="3341" interp="linr"  time="0/1" value="30" leadInLength="0/1"  name="RoundedRectRadius"/>
             <InterpolatingParam id="3342" interp="linr"  time="0/1" value="5" leadInLength="0/1"  name="Style"/>
             <InterpolatingParam id="3343" interp="linr"  time="0/1" value="0" leadInLength="0/1"  name="borderColorBlue"/>
             <InterpolatingParam id="3344" interp="linr"  time="0/1" value="0" leadInLength="0/1"  name="borderColorGreen"/>
             <InterpolatingParam id="3345" interp="linr"  time="0/1" value="0" leadInLength="0/1"  name="borderColorRed"/>
             <InterpolatingParam id="3346" interp="linr"  time="0/1" value="1" leadInLength="0/1"  name="borderState"/>
             <InterpolatingParam id="3347" interp="linr"  time="0/1" value="5" leadInLength="0/1"  name="borderWidth"/>
             <InterpolatingParam id="3348" interp="linr"  time="0/1" value="0" leadInLength="0/1"  name="dimensionTime"/>
             <InterpolatingParam id="3349" interp="linr"  time="0/1" value="0" leadInLength="0/1"  name="fillColorBlue"/>
             <InterpolatingParam id="3350" interp="linr"  time="0/1" value="0" leadInLength="0/1"  name="fillColorGreen"/>
             <InterpolatingParam id="3351" interp="linr"  time="0/1" value="0" leadInLength="0/1"  name="fillColorRed"/>
             <InterpolatingParam id="3352" interp="linr"  time="0/1" value="1" leadInLength="0/1"  name="fillState"/>
             <InterpolatingParam id="3353" interp="linr"  time="0/1" value="0" leadInLength="0/1"  name="flipOnXAxis"/>
             <InterpolatingParam id="3354" interp="linr"  time="0/1" value="0" leadInLength="0/1"  name="flipOnYAxis"/>
             <InterpolatingParam id="3355" interp="linr"  time="0/1" value="237.38562091503266" leadInLength="0/1"  name="height"/>
             <InterpolatingParam id="3356" interp="linr"  time="0/1" value="0" leadInLength="0/1"  name="textDropShadow"/>
             <InterpolatingParam id="3357" interp="linr"  time="0/1" value="0" leadInLength="0/1"  name="textIgnoresOpacity"/>
             <InterpolatingParam id="3358" interp="linr"  time="0/1" value="0.86784140969162993" leadInLength="0/1"  name="textRectHeight"/>
             <InterpolatingParam id="3359" interp="linr"  time="0/1" value="0.90196078431372551" leadInLength="0/1"  name="textRectWidth"/>
             <InterpolatingParam id="3360" interp="linr"  time="0/1" value="0.049019607843137254" leadInLength="0/1"  name="textRectX"/>
             <InterpolatingParam id="3361" interp="linr"  time="0/1" value="0.066079295154185022" leadInLength="0/1"  name="textRectY"/>
             <InterpolatingParam id="3362" interp="linr"  time="0/1" value="0" leadInLength="0/1"  name="textVerticalAlign"/>
             <InterpolatingParam id="3363" interp="linr"  time="0/1" value="320" leadInLength="0/1"  name="width"/>
            </DoubleParameters>
            <StringParameters>
             <Parameter id="3364"  name="VectorPath">
              <Keyframes>
              <Keyframe id="3365"  time="0/1" value="M10,0h286c5.521,0,10,4.477,10,10v207c0,5.521-4.479,10-10,10H10c-5.523,0-10-4.479-10-10V10&#xa;&#x9;C0,4.477,4.477,0,10,0z" leadInLength="0/1"  />
              </Keyframes>
             </Parameter>
             <Parameter id="3366"  name="filename">
              <Keyframes>
              <Keyframe id="3367"  time="0/1" value="C:\Program Files (x86)\TechSmith\Camtasia Studio 8\Media\Studio\Callouts\roundedrectangle.xml" leadInLength="0/1"  />
              </Keyframes>
             </Parameter>
             <Parameter id="3368"  name="name">
              <Keyframes>
              <Keyframe id="3369"  time="0/1" value="Filled Rounded Rectangle" leadInLength="0/1"  />
              </Keyframes>
             </Parameter>
             <Parameter id="3370"  name="text">
              <Keyframes>
              <Keyframe id="3371"  time="0/1" value="{\rtf1\ansi\ansicpg1252\deff0\deflang1033{\fonttbl{\f0\fswiss\fprq2\fcharset0 Arial;}}&#xD;&#xa;{\colortbl ;\red255\green255\blue255;}&#xD;&#xa;\viewkind4\uc1\pard\qc\cf1\f0\fs56 Programa de edi\&apos;e7\&apos;e3o utilizado : \par&#xD;&#xa;Camtasia 8\par&#xD;&#xa;}&#xD;&#xa;" leadInLength="0/1"  />
              </Keyframes>
             </Parameter>
             <Parameter id="3372"  name="xmlContent">
              <Keyframes>
              <Keyframe id="3373"  time="0/1" value="﻿&lt;?xml version=&quot;1.0&quot;?&gt;&#xa;&#xa;&lt;Overlay version=&quot;1.0.1&quot;&gt;&#xa;&#xa;&lt;Overlay_Filename&gt;roundedrectangle.png&lt;/Overlay_Filename&gt;&#xa;&lt;Overlay_Name&gt;Filled Rounded Rectangle&lt;/Overlay_Name&gt;&#xa;&lt;Text_Top&gt;15&lt;/Text_Top&gt;&#xa;&lt;Text_Left&gt;15&lt;/Text_Left&gt;&#xa;&lt;Text_Bottom&gt;15&lt;/Text_Bottom&gt;&#xa;&lt;Text_Right&gt;15&lt;/Text_Right&gt;&#xa;&lt;Fill_Color&gt;1&lt;/Fill_Color&gt;&#xa;&lt;Border_Color&gt;1&lt;/Border_Color&gt;&#xa;&lt;Initial_Fill_Color&gt;0xffe05f00&lt;/Initial_Fill_Color&gt;&#xa;&lt;Initial_Border_Color&gt;0xffd7d7d7&lt;/Initial_Border_Color&gt;&#xa;&lt;VectorProps&gt;&#xa;&lt;figure&gt;&#xa;&lt;svg&gt;M10,0h286c5.521,0,10,4.477,10,10v207c0,5.521-4.479,10-10,10H10c-5.523,0-10-4.479-10-10V10&#xa;&#x9;C0,4.477,4.477,0,10,0z&lt;/svg&gt;&#xa;&lt;/figure&gt;&#xa;&lt;borderWidth&gt;5.00&lt;/borderWidth&gt;&#xa;&lt;seamY&gt;-1&lt;/seamY&gt;&#xa;&lt;roundedRectRadius&gt;30&lt;/roundedRectRadius&gt;&#xa;&lt;shapeWidth&gt;306&lt;/shapeWidth&gt;&#xa;&lt;shapeHeight&gt;227&lt;/shapeHeight&gt;&#xa;&lt;/VectorProps&gt;&#xa;&lt;Style&gt;5&lt;/Style&gt;&#xa;&lt;/Overlay&gt;" leadInLength="0/1"  />
              </Keyframes>
             </Parameter>
            </StringParameters>
           </VectorNode>
          </Attribute>
         </Attributes>
         <MetaData>
          <entry key="WinSubProjectDisplayName" val=""/>
         </MetaData>
         <LeftEdgeMods length="30/1" groupName="OpacityFade">
          <EdgeMod parameter="3330">
           <FadeInFunc id="804"  />
          </EdgeMod>
         </LeftEdgeMods>
         <RightEdgeMods length="30/1" groupName="OpacityFade">
          <EdgeMod parameter="3330">
           <FadeOutFunc id="2579"  />
          </EdgeMod>
         </RightEdgeMods>
         <ExtraData>
          <Entry key="ZoomPanBin">
           <ZoomPanBin id="3374"  >
            <ZoomPanKeyframes>
             <ZoomPanKeyframe id="3375" timeRangeEnd="-9999999/1" timeRangeDuration="0/1" interpolaterName="linr"  />
            </ZoomPanKeyframes>
           </ZoomPanBin>
          </Entry>
         </ExtraData>
        </Callout>
       </Medias>
      </GenericTrack>
      <GenericTrack id="3376"  >
       <Attributes>
        <Attribute id="3377" value="" name="ident"/>
        <Attribute id="3378" value="0" name="audioMuted"/>
        <Attribute id="3379" value="0" name="videoHidden"/>
       </Attributes>
       <MetaData>
        <entry key="IsLocked" val="False"/>
        <entry key="WinTrackHeight" val="62"/>
       </MetaData>
       <Medias>
        <Callout id="3380" start="171" duration="180" scalar="1/1" mediaStart="0/1" mediaDuration="180/1" >
         <Transformer>
          <VectorParam id="3381"  name="translation">
           <InterpolatingParam id="3382" interp="linr"  time="-9999999/1" value="424.89164086685736" leadInLength="0/1"  />
           <InterpolatingParam id="3383" interp="linr"  time="-9999999/1" value="169.41176470612521" leadInLength="0/1"  />
           <InterpolatingParam id="3384" interp="linr"  time="-9999999/1" value="0" leadInLength="0/1"  />
          </VectorParam>
          <VectorParam id="3385"  name="rotation">
           <InterpolatingParam id="3386" interp="linr"  time="-9999999/1" value="0" leadInLength="0/1"  />
           <InterpolatingParam id="3387" interp="linr"  time="-9999999/1" value="0" leadInLength="0/1"  />
           <InterpolatingParam id="3388" interp="linr"  time="-9999999/1" value="0" leadInLength="0/1"  />
          </VectorParam>
          <VectorParam id="3389"  name="shear">
           <InterpolatingParam id="3390" interp="linr"  time="-9999999/1" value="0" leadInLength="0/1"  />
           <InterpolatingParam id="3391" interp="linr"  time="-9999999/1" value="0" leadInLength="0/1"  />
           <InterpolatingParam id="3392" interp="linr"  time="-9999999/1" value="0" leadInLength="0/1"  />
          </VectorParam>
          <VectorParam id="3393"  name="scale">
           <InterpolatingParam id="3394" interp="linr"  time="-9999999/1" value="1.3444272445817529" leadInLength="0/1"  />
           <InterpolatingParam id="3395" interp="linr"  time="-9999999/1" value="1.6057268776409435" leadInLength="0/1"  />
           <InterpolatingParam id="3396" interp="linr"  time="-9999999/1" value="1" leadInLength="0/1"  />
          </VectorParam>
          <VectorParam id="3397"  name="anchor">
           <InterpolatingParam id="3398" interp="linr"  time="0/1" value="0" leadInLength="0/1"  />
           <InterpolatingParam id="3399" interp="linr"  time="0/1" value="0" leadInLength="0/1"  />
           <InterpolatingParam id="3400" interp="linr"  time="0/1" value="0" leadInLength="0/1"  />
          </VectorParam>
         </Transformer>
         <Parameters>
          <VectorParam id="3401"  name="sourceCrop">
           <InterpolatingParam id="3402" interp="linr"  time="0/1" value="0" leadInLength="0/1"  />
           <InterpolatingParam id="3403" interp="linr"  time="0/1" value="0" leadInLength="0/1"  />
           <InterpolatingParam id="3404" interp="linr"  time="0/1" value="0" leadInLength="0/1"  />
           <InterpolatingParam id="3405" interp="linr"  time="0/1" value="0" leadInLength="0/1"  />
          </VectorParam>
          <VectorParam id="3406"  name="geometryCrop">
           <InterpolatingParam id="3407" interp="linr"  time="-9999999/1" value="0" leadInLength="0/1"  />
           <InterpolatingParam id="3408" interp="linr"  time="-9999999/1" value="0" leadInLength="0/1"  />
           <InterpolatingParam id="3409" interp="linr"  time="-9999999/1" value="0" leadInLength="0/1"  />
           <InterpolatingParam id="3410" interp="linr"  time="-9999999/1" value="0" leadInLength="0/1"  />
          </VectorParam>
          <InterpolatingParam id="3411" interp="linr"  time="-9999999/1" value="1" leadInLength="0/1"  name="opacity"/>
         </Parameters>
         <Effects>
          <GenericEffect id="3412" name = "DropShadow" >
           <Parameters>
           <InterpolatingParam id="3413" interp="linr"  time="0/1" value="315" leadInLength="0/1"   name="angle"/>
           <InterpolatingParam id="3414" interp="linr"  time="0/1" value="2" leadInLength="0/1"   name="blur"/>
           <Parameter id="3415"   name="enabled">
            <Keyframes>
            <Keyframe id="3416"  time="0/1" value="1" leadInLength="0/1"  />
            </Keyframes>
           </Parameter>
           <InterpolatingParam id="3417" interp="linr"  time="0/1" value="4" leadInLength="0/1"   name="offset"/>
           <InterpolatingParam id="3418" interp="linr"  time="0/1" value="0.75" leadInLength="0/1"   name="opacity"/>
           </Parameters>
          </GenericEffect>
         </Effects>
         <Attributes>
          <Attribute id="3419"  name="vectorNode">
           <VectorNode id="3420" kind="TypeWinXML"  >
            <DoubleParameters>
             <InterpolatingParam id="3421" interp="linr"  time="0/1" value="-1" leadInLength="0/1"  name="CutoutPercentage"/>
             <InterpolatingParam id="3422" interp="linr"  time="0/1" value="30" leadInLength="0/1"  name="RoundedRectRadius"/>
             <InterpolatingParam id="3423" interp="linr"  time="0/1" value="5" leadInLength="0/1"  name="Style"/>
             <InterpolatingParam id="3424" interp="linr"  time="0/1" value="0" leadInLength="0/1"  name="borderColorBlue"/>
             <InterpolatingParam id="3425" interp="linr"  time="0/1" value="0" leadInLength="0/1"  name="borderColorGreen"/>
             <InterpolatingParam id="3426" interp="linr"  time="0/1" value="0" leadInLength="0/1"  name="borderColorRed"/>
             <InterpolatingParam id="3427" interp="linr"  time="0/1" value="1" leadInLength="0/1"  name="borderState"/>
             <InterpolatingParam id="3428" interp="linr"  time="0/1" value="5" leadInLength="0/1"  name="borderWidth"/>
             <InterpolatingParam id="3429" interp="linr"  time="0/1" value="0" leadInLength="0/1"  name="dimensionTime"/>
             <InterpolatingParam id="3430" interp="linr"  time="0/1" value="0" leadInLength="0/1"  name="fillColorBlue"/>
             <InterpolatingParam id="3431" interp="linr"  time="0/1" value="0" leadInLength="0/1"  name="fillColorGreen"/>
             <InterpolatingParam id="3432" interp="linr"  time="0/1" value="0" leadInLength="0/1"  name="fillColorRed"/>
             <InterpolatingParam id="3433" interp="linr"  time="0/1" value="1" leadInLength="0/1"  name="fillState"/>
             <InterpolatingParam id="3434" interp="linr"  time="0/1" value="0" leadInLength="0/1"  name="flipOnXAxis"/>
             <InterpolatingParam id="3435" interp="linr"  time="0/1" value="0" leadInLength="0/1"  name="flipOnYAxis"/>
             <InterpolatingParam id="3436" interp="linr"  time="0/1" value="237.38562091503266" leadInLength="0/1"  name="height"/>
             <InterpolatingParam id="3437" interp="linr"  time="0/1" value="0" leadInLength="0/1"  name="textDropShadow"/>
             <InterpolatingParam id="3438" interp="linr"  time="0/1" value="0" leadInLength="0/1"  name="textIgnoresOpacity"/>
             <InterpolatingParam id="3439" interp="linr"  time="0/1" value="0.86784140969162993" leadInLength="0/1"  name="textRectHeight"/>
             <InterpolatingParam id="3440" interp="linr"  time="0/1" value="0.90196078431372551" leadInLength="0/1"  name="textRectWidth"/>
             <InterpolatingParam id="3441" interp="linr"  time="0/1" value="0.049019607843137254" leadInLength="0/1"  name="textRectX"/>
             <InterpolatingParam id="3442" interp="linr"  time="0/1" value="0.066079295154185022" leadInLength="0/1"  name="textRectY"/>
             <InterpolatingParam id="3443" interp="linr"  time="0/1" value="0" leadInLength="0/1"  name="textVerticalAlign"/>
             <InterpolatingParam id="3444" interp="linr"  time="0/1" value="320" leadInLength="0/1"  name="width"/>
            </DoubleParameters>
            <StringParameters>
             <Parameter id="3445"  name="VectorPath">
              <Keyframes>
              <Keyframe id="3446"  time="0/1" value="M10,0h286c5.521,0,10,4.477,10,10v207c0,5.521-4.479,10-10,10H10c-5.523,0-10-4.479-10-10V10&#xa;&#x9;C0,4.477,4.477,0,10,0z" leadInLength="0/1"  />
              </Keyframes>
             </Parameter>
             <Parameter id="3447"  name="filename">
              <Keyframes>
              <Keyframe id="3448"  time="0/1" value="C:\Program Files (x86)\TechSmith\Camtasia Studio 8\Media\Studio\Callouts\roundedrectangle.xml" leadInLength="0/1"  />
              </Keyframes>
             </Parameter>
             <Parameter id="3449"  name="name">
              <Keyframes>
              <Keyframe id="3450"  time="0/1" value="Filled Rounded Rectangle" leadInLength="0/1"  />
              </Keyframes>
             </Parameter>
             <Parameter id="3451"  name="text">
              <Keyframes>
              <Keyframe id="3452"  time="0/1" value="{\rtf1\ansi\ansicpg1252\deff0\deflang1033{\fonttbl{\f0\fswiss\fprq2\fcharset0 Arial;}}&#xD;&#xa;{\colortbl ;\red255\green255\blue255;}&#xD;&#xa;\viewkind4\uc1\pard\qc\cf1\f0\fs72 Integrantes\par&#xD;&#xa;F\&apos;e1bio Pacheco\par&#xD;&#xa;Gabriel Cez\&apos;e1rio\par&#xD;&#xa;Giovana Cremasco\par&#xD;&#xa;Massao Oshima\par&#xD;&#xa; \par&#xD;&#xa;}&#xD;&#xa;" leadInLength="0/1"  />
              </Keyframes>
             </Parameter>
             <Parameter id="3453"  name="xmlContent">
              <Keyframes>
              <Keyframe id="3454"  time="0/1" value="﻿&lt;?xml version=&quot;1.0&quot;?&gt;&#xa;&#xa;&lt;Overlay version=&quot;1.0.1&quot;&gt;&#xa;&#xa;&lt;Overlay_Filename&gt;roundedrectangle.png&lt;/Overlay_Filename&gt;&#xa;&lt;Overlay_Name&gt;Filled Rounded Rectangle&lt;/Overlay_Name&gt;&#xa;&lt;Text_Top&gt;15&lt;/Text_Top&gt;&#xa;&lt;Text_Left&gt;15&lt;/Text_Left&gt;&#xa;&lt;Text_Bottom&gt;15&lt;/Text_Bottom&gt;&#xa;&lt;Text_Right&gt;15&lt;/Text_Right&gt;&#xa;&lt;Fill_Color&gt;1&lt;/Fill_Color&gt;&#xa;&lt;Border_Color&gt;1&lt;/Border_Color&gt;&#xa;&lt;Initial_Fill_Color&gt;0xffe05f00&lt;/Initial_Fill_Color&gt;&#xa;&lt;Initial_Border_Color&gt;0xffd7d7d7&lt;/Initial_Border_Color&gt;&#xa;&lt;VectorProps&gt;&#xa;&lt;figure&gt;&#xa;&lt;svg&gt;M10,0h286c5.521,0,10,4.477,10,10v207c0,5.521-4.479,10-10,10H10c-5.523,0-10-4.479-10-10V10&#xa;&#x9;C0,4.477,4.477,0,10,0z&lt;/svg&gt;&#xa;&lt;/figure&gt;&#xa;&lt;borderWidth&gt;5.00&lt;/borderWidth&gt;&#xa;&lt;seamY&gt;-1&lt;/seamY&gt;&#xa;&lt;roundedRectRadius&gt;30&lt;/roundedRectRadius&gt;&#xa;&lt;shapeWidth&gt;306&lt;/shapeWidth&gt;&#xa;&lt;shapeHeight&gt;227&lt;/shapeHeight&gt;&#xa;&lt;/VectorProps&gt;&#xa;&lt;Style&gt;5&lt;/Style&gt;&#xa;&lt;/Overlay&gt;" leadInLength="0/1"  />
              </Keyframes>
             </Parameter>
            </StringParameters>
           </VectorNode>
          </Attribute>
         </Attributes>
         <MetaData>
          <entry key="WinSubProjectDisplayName" val=""/>
         </MetaData>
         <LeftEdgeMods length="0/1" groupName="OpacityFade">
          <EdgeMod parameter="3411">
           <FadeInFunc id="3455"  />
          </EdgeMod>
         </LeftEdgeMods>
         <RightEdgeMods length="30/1" groupName="OpacityFade">
          <EdgeMod parameter="3411">
           <FadeOutFunc id="280"  />
          </EdgeMod>
         </RightEdgeMods>
         <ExtraData>
          <Entry key="ZoomPanBin">
           <ZoomPanBin id="3456"  >
            <ZoomPanKeyframes>
             <ZoomPanKeyframe id="3457" timeRangeEnd="-9999999/1" timeRangeDuration="0/1" interpolaterName="linr"  />
            </ZoomPanKeyframes>
           </ZoomPanBin>
          </Entry>
         </ExtraData>
        </Callout>
        <Caption id="3458" start="1164" duration="77" scalar="1/1" mediaStart="0/1" mediaDuration="77/1" maxMediaDuration="9.22337e+018"  allowTrimOut="1"  >
         <Parameters>
          <Parameter id="3459"  name="captionData">
           <Keyframes>
           <Keyframe id="3460"  time="-9999999/1" value="{61,Agora é visualmente que a barra tá ficando mais clara (SIC),0}" leadInLength="0/1"  />
           <Keyframe id="3461"  time="77/1" value="{1,&#xD;,0}" leadInLength="0/1"  />
           </Keyframes>
          </Parameter>
          <Parameter id="3462"  name="toc"/>
          <Parameter id="3463"  name="quiz"/>
         </Parameters>
         <Attributes>
         </Attributes>
         <MetaData>
          <entry key="WinSubProjectDisplayName" val=""/>
         </MetaData>
        </Caption>
        <Callout id="3464" start="2255" duration="235" scalar="1/1" mediaStart="0/1" mediaDuration="235/1" >
         <Transformer>
          <VectorParam id="3465"  name="translation">
           <InterpolatingParam id="3466" interp="linr"  time="-9999999/1" value="-399.00928792579504" leadInLength="0/1"  />
           <InterpolatingParam id="3467" interp="linr"  time="-9999999/1" value="168.29721362242805" leadInLength="0/1"  />
           <InterpolatingParam id="3468" interp="linr"  time="-9999999/1" value="0" leadInLength="0/1"  />
          </VectorParam>
          <VectorParam id="3469"  name="rotation">
           <InterpolatingParam id="3470" interp="linr"  time="-9999999/1" value="0" leadInLength="0/1"  />
           <InterpolatingParam id="3471" interp="linr"  time="-9999999/1" value="0" leadInLength="0/1"  />
           <InterpolatingParam id="3472" interp="linr"  time="-9999999/1" value="0" leadInLength="0/1"  />
          </VectorParam>
          <VectorParam id="3473"  name="shear">
           <InterpolatingParam id="3474" interp="linr"  time="-9999999/1" value="0" leadInLength="0/1"  />
           <InterpolatingParam id="3475" interp="linr"  time="-9999999/1" value="0" leadInLength="0/1"  />
           <InterpolatingParam id="3476" interp="linr"  time="-9999999/1" value="0" leadInLength="0/1"  />
          </VectorParam>
          <VectorParam id="3477"  name="scale">
           <InterpolatingParam id="3478" interp="linr"  time="-9999999/1" value="1.506191950465207" leadInLength="0/1"  />
           <InterpolatingParam id="3479" interp="linr"  time="-9999999/1" value="1.6151170933021859" leadInLength="0/1"  />
           <InterpolatingParam id="3480" interp="linr"  time="-9999999/1" value="1" leadInLength="0/1"  />
          </VectorParam>
          <VectorParam id="3481"  name="anchor">
           <InterpolatingParam id="3482" interp="linr"  time="0/1" value="0" leadInLength="0/1"  />
           <InterpolatingParam id="3483" interp="linr"  time="0/1" value="0" leadInLength="0/1"  />
           <InterpolatingParam id="3484" interp="linr"  time="0/1" value="0" leadInLength="0/1"  />
          </VectorParam>
         </Transformer>
         <Parameters>
          <VectorParam id="3485"  name="sourceCrop">
           <InterpolatingParam id="3486" interp="linr"  time="0/1" value="0" leadInLength="0/1"  />
           <InterpolatingParam id="3487" interp="linr"  time="0/1" value="0" leadInLength="0/1"  />
           <InterpolatingParam id="3488" interp="linr"  time="0/1" value="0" leadInLength="0/1"  />
           <InterpolatingParam id="3489" interp="linr"  time="0/1" value="0" leadInLength="0/1"  />
          </VectorParam>
          <VectorParam id="3490"  name="geometryCrop">
           <InterpolatingParam id="3491" interp="linr"  time="-9999999/1" value="0" leadInLength="0/1"  />
           <InterpolatingParam id="3492" interp="linr"  time="-9999999/1" value="0" leadInLength="0/1"  />
           <InterpolatingParam id="3493" interp="linr"  time="-9999999/1" value="0" leadInLength="0/1"  />
           <InterpolatingParam id="3494" interp="linr"  time="-9999999/1" value="0" leadInLength="0/1"  />
          </VectorParam>
          <InterpolatingParam id="3495" interp="linr"  time="-9999999/1" value="1" leadInLength="0/1"  name="opacity"/>
         </Parameters>
         <Effects>
          <GenericEffect id="3496" name = "DropShadow" >
           <Parameters>
           <InterpolatingParam id="3497" interp="linr"  time="0/1" value="315" leadInLength="0/1"   name="angle"/>
           <InterpolatingParam id="3498" interp="linr"  time="0/1" value="2" leadInLength="0/1"   name="blur"/>
           <Parameter id="3499"   name="enabled">
            <Keyframes>
            <Keyframe id="3500"  time="0/1" value="1" leadInLength="0/1"  />
            </Keyframes>
           </Parameter>
           <InterpolatingParam id="3501" interp="linr"  time="0/1" value="4" leadInLength="0/1"   name="offset"/>
           <InterpolatingParam id="3502" interp="linr"  time="0/1" value="0.75" leadInLength="0/1"   name="opacity"/>
           </Parameters>
          </GenericEffect>
         </Effects>
         <Attributes>
          <Attribute id="3503"  name="vectorNode">
           <VectorNode id="3504" kind="TypeWinXML"  >
            <DoubleParameters>
             <InterpolatingParam id="3505" interp="linr"  time="0/1" value="-1" leadInLength="0/1"  name="CutoutPercentage"/>
             <InterpolatingParam id="3506" interp="linr"  time="0/1" value="30" leadInLength="0/1"  name="RoundedRectRadius"/>
             <InterpolatingParam id="3507" interp="linr"  time="0/1" value="5" leadInLength="0/1"  name="Style"/>
             <InterpolatingParam id="3508" interp="linr"  time="0/1" value="0" leadInLength="0/1"  name="borderColorBlue"/>
             <InterpolatingParam id="3509" interp="linr"  time="0/1" value="0" leadInLength="0/1"  name="borderColorGreen"/>
             <InterpolatingParam id="3510" interp="linr"  time="0/1" value="0" leadInLength="0/1"  name="borderColorRed"/>
             <InterpolatingParam id="3511" interp="linr"  time="0/1" value="1" leadInLength="0/1"  name="borderState"/>
             <InterpolatingParam id="3512" interp="linr"  time="0/1" value="5" leadInLength="0/1"  name="borderWidth"/>
             <InterpolatingParam id="3513" interp="linr"  time="0/1" value="0" leadInLength="0/1"  name="dimensionTime"/>
             <InterpolatingParam id="3514" interp="linr"  time="0/1" value="0" leadInLength="0/1"  name="fillColorBlue"/>
             <InterpolatingParam id="3515" interp="linr"  time="0/1" value="0" leadInLength="0/1"  name="fillColorGreen"/>
             <InterpolatingParam id="3516" interp="linr"  time="0/1" value="0" leadInLength="0/1"  name="fillColorRed"/>
             <InterpolatingParam id="3517" interp="linr"  time="0/1" value="1" leadInLength="0/1"  name="fillState"/>
             <InterpolatingParam id="3518" interp="linr"  time="0/1" value="0" leadInLength="0/1"  name="flipOnXAxis"/>
             <InterpolatingParam id="3519" interp="linr"  time="0/1" value="0" leadInLength="0/1"  name="flipOnYAxis"/>
             <InterpolatingParam id="3520" interp="linr"  time="0/1" value="237.38562091503266" leadInLength="0/1"  name="height"/>
             <InterpolatingParam id="3521" interp="linr"  time="0/1" value="0" leadInLength="0/1"  name="textDropShadow"/>
             <InterpolatingParam id="3522" interp="linr"  time="0/1" value="0" leadInLength="0/1"  name="textIgnoresOpacity"/>
             <InterpolatingParam id="3523" interp="linr"  time="0/1" value="0.86784140969162993" leadInLength="0/1"  name="textRectHeight"/>
             <InterpolatingParam id="3524" interp="linr"  time="0/1" value="0.90196078431372551" leadInLength="0/1"  name="textRectWidth"/>
             <InterpolatingParam id="3525" interp="linr"  time="0/1" value="0.049019607843137254" leadInLength="0/1"  name="textRectX"/>
             <InterpolatingParam id="3526" interp="linr"  time="0/1" value="0.066079295154185022" leadInLength="0/1"  name="textRectY"/>
             <InterpolatingParam id="3527" interp="linr"  time="0/1" value="0" leadInLength="0/1"  name="textVerticalAlign"/>
             <InterpolatingParam id="3528" interp="linr"  time="0/1" value="320" leadInLength="0/1"  name="width"/>
            </DoubleParameters>
            <StringParameters>
             <Parameter id="3529"  name="VectorPath">
              <Keyframes>
              <Keyframe id="3530"  time="0/1" value="M10,0h286c5.521,0,10,4.477,10,10v207c0,5.521-4.479,10-10,10H10c-5.523,0-10-4.479-10-10V10&#xa;&#x9;C0,4.477,4.477,0,10,0z" leadInLength="0/1"  />
              </Keyframes>
             </Parameter>
             <Parameter id="3531"  name="filename">
              <Keyframes>
              <Keyframe id="3532"  time="0/1" value="C:\Program Files (x86)\TechSmith\Camtasia Studio 8\Media\Studio\Callouts\roundedrectangle.xml" leadInLength="0/1"  />
              </Keyframes>
             </Parameter>
             <Parameter id="3533"  name="name">
              <Keyframes>
              <Keyframe id="3534"  time="0/1" value="Filled Rounded Rectangle" leadInLength="0/1"  />
              </Keyframes>
             </Parameter>
             <Parameter id="3535"  name="text">
              <Keyframes>
              <Keyframe id="3536"  time="0/1" value="{\rtf1\ansi\ansicpg1252\deff0\deflang1033{\fonttbl{\f0\fswiss\fprq2\fcharset0 Arial;}}&#xD;&#xa;{\colortbl ;\red255\green255\blue255;}&#xD;&#xa;\viewkind4\uc1\pard\cf1\f0\fs56 Fadiga/Deforma\&apos;e7\&apos;e3o dos \par&#xD;&#xa;Metais\par&#xD;&#xa;Esta\&apos;e7\&apos;e3o 7\par&#xD;&#xa;Envolvidos:\par&#xD;&#xa;Gabriel Cez\&apos;e1rio \par&#xD;&#xa;(V\&apos;eddeo)\par&#xD;&#xa;Massao Oshima\par&#xD;&#xa;(\&apos;c1udio)\par&#xD;&#xa;}&#xD;&#xa;" leadInLength="0/1"  />
              </Keyframes>
             </Parameter>
             <Parameter id="3537"  name="xmlContent">
              <Keyframes>
              <Keyframe id="3538"  time="0/1" value="﻿&lt;?xml version=&quot;1.0&quot;?&gt;&#xa;&#xa;&lt;Overlay version=&quot;1.0.1&quot;&gt;&#xa;&#xa;&lt;Overlay_Filename&gt;roundedrectangle.png&lt;/Overlay_Filename&gt;&#xa;&lt;Overlay_Name&gt;Filled Rounded Rectangle&lt;/Overlay_Name&gt;&#xa;&lt;Text_Top&gt;15&lt;/Text_Top&gt;&#xa;&lt;Text_Left&gt;15&lt;/Text_Left&gt;&#xa;&lt;Text_Bottom&gt;15&lt;/Text_Bottom&gt;&#xa;&lt;Text_Right&gt;15&lt;/Text_Right&gt;&#xa;&lt;Fill_Color&gt;1&lt;/Fill_Color&gt;&#xa;&lt;Border_Color&gt;1&lt;/Border_Color&gt;&#xa;&lt;Initial_Fill_Color&gt;0xffe05f00&lt;/Initial_Fill_Color&gt;&#xa;&lt;Initial_Border_Color&gt;0xffd7d7d7&lt;/Initial_Border_Color&gt;&#xa;&lt;VectorProps&gt;&#xa;&lt;figure&gt;&#xa;&lt;svg&gt;M10,0h286c5.521,0,10,4.477,10,10v207c0,5.521-4.479,10-10,10H10c-5.523,0-10-4.479-10-10V10&#xa;&#x9;C0,4.477,4.477,0,10,0z&lt;/svg&gt;&#xa;&lt;/figure&gt;&#xa;&lt;borderWidth&gt;5.00&lt;/borderWidth&gt;&#xa;&lt;seamY&gt;-1&lt;/seamY&gt;&#xa;&lt;roundedRectRadius&gt;30&lt;/roundedRectRadius&gt;&#xa;&lt;shapeWidth&gt;306&lt;/shapeWidth&gt;&#xa;&lt;shapeHeight&gt;227&lt;/shapeHeight&gt;&#xa;&lt;/VectorProps&gt;&#xa;&lt;Style&gt;5&lt;/Style&gt;&#xa;&lt;/Overlay&gt;" leadInLength="0/1"  />
              </Keyframes>
             </Parameter>
            </StringParameters>
           </VectorNode>
          </Attribute>
         </Attributes>
         <MetaData>
          <entry key="WinSubProjectDisplayName" val=""/>
         </MetaData>
         <LeftEdgeMods length="30/1" groupName="OpacityFade">
          <EdgeMod parameter="3495">
           <FadeInFunc id="3539"  />
          </EdgeMod>
         </LeftEdgeMods>
         <RightEdgeMods length="30/1" groupName="OpacityFade">
          <EdgeMod parameter="3495">
           <FadeOutFunc id="1864"  />
          </EdgeMod>
         </RightEdgeMods>
         <ExtraData>
          <Entry key="ZoomPanBin">
           <ZoomPanBin id="3540"  >
            <ZoomPanKeyframes>
             <ZoomPanKeyframe id="3541" timeRangeEnd="-9999999/1" timeRangeDuration="0/1" interpolaterName="linr"  />
            </ZoomPanKeyframes>
           </ZoomPanBin>
          </Entry>
         </ExtraData>
        </Callout>
       </Medias>
      </GenericTrack>
      <GenericTrack id="3542"  >
       <Attributes>
        <Attribute id="3543" value="" name="ident"/>
        <Attribute id="3544" value="0" name="audioMuted"/>
        <Attribute id="3545" value="0" name="videoHidden"/>
       </Attributes>
       <MetaData>
        <entry key="IsLocked" val="False"/>
        <entry key="WinTrackHeight" val="62"/>
       </MetaData>
       <Medias>
       </Medias>
      </GenericTrack>
      <GenericTrack id="3546"  >
       <Attributes>
        <Attribute id="3547" value="" name="ident"/>
        <Attribute id="3548" value="0" name="audioMuted"/>
        <Attribute id="3549" value="0" name="videoHidden"/>
       </Attributes>
       <MetaData>
        <entry key="IsLocked" val="False"/>
        <entry key="WinTrackHeight" val="62"/>
       </MetaData>
       <Medias>
       </Medias>
      </GenericTrack>
     </Tracks>
    </GenericMixer>
   <CaptionAttributes id="3550"  >
    <Attribute id="3551" value="1" name="captionsEnabled"/>
    <Attribute id="3552" value="Arial" name="captionsFontName"/>
    <Attribute id="3553" value="26" name="captionsFontSize"/>
    <Attribute id="3554" value="(0,0,0,255)" name="captionsBackgroundColor"/>
    <Attribute id="3555" value="(255,255,255,255)" name="captionsForegroundColor"/>
    <Attribute id="3556" value="en" name="lang"/>
    <Attribute id="3557" value="1" name="captionsAlignment"/>
    <Attribute id="3558" value="0" name="captionsDefaultFontSize"/>
    <Attribute id="3559" value="0.5" name="captionsOpacity"/>
    <Attribute id="3560" value="1" name="captionsBackgroundEnabled"/>
    <Attribute id="3561" value="1" name="captionsBackgroundOnlyAroundText"/>
   </CaptionAttributes>
   <Parameters>
    <VectorParam id="3562"  name="eyePosition">
     <InterpolatingParam id="3563" interp="linr"  time="0/1" value="0" leadInLength="0/1"  />
     <InterpolatingParam id="3564" interp="linr"  time="0/1" value="0" leadInLength="0/1"  />
     <InterpolatingParam id="3565" interp="linr"  time="0/1" value="3000" leadInLength="0/1"  />
    </VectorParam>
    <VectorParam id="3566"  name="eyeLookAtPosition">
     <InterpolatingParam id="3567" interp="linr"  time="0/1" value="0" leadInLength="0/1"  />
     <InterpolatingParam id="3568" interp="linr"  time="0/1" value="0" leadInLength="0/1"  />
     <InterpolatingParam id="3569" interp="linr"  time="0/1" value="0" leadInLength="0/1"  />
    </VectorParam>
    <VectorParam id="3570"  name="eyeUpVector">
     <InterpolatingParam id="3571" interp="linr"  time="0/1" value="0" leadInLength="0/1"  />
     <InterpolatingParam id="3572" interp="linr"  time="0/1" value="1" leadInLength="0/1"  />
     <InterpolatingParam id="3573" interp="linr"  time="0/1" value="0" leadInLength="0/1"  />
    </VectorParam>
    <InterpolatingParam id="3574" interp="linr"  time="0/1" value="0.23885785" leadInLength="0/1"  name="fov"/>
    <InterpolatingParam id="3575" interp="linr"  time="0/1" value="1.5" leadInLength="0/1"  name="nearClipDistance"/>
    <InterpolatingParam id="3576" interp="linr"  time="0/1" value="6000" leadInLength="0/1"  name="farClipDistance"/>
   </Parameters>
  </Timeline>
 </Project>
</GoProject>
</CSMLData>

</Project_Data>
