<?xml version="1.0" encoding="UTF-8" standalone="no"?>
<!-- Created with Inkscape (http://www.inkscape.org/) -->

<svg
   width="182.29785mm"
   height="37.435993mm"
   viewBox="0 0 182.29785 37.435993"
   version="1.1"
   id="svg9826"
   inkscape:version="1.1.1 (3bf5ae0d25, 2021-09-20)"
   sodipodi:docname="logo_para_fundo_claro.svg"
   inkscape:export-filename="C:\Users\mstra\OneDrive - Grupo Marista\Fractal\logo\logo_para_fundo_escuro.png"
   inkscape:export-xdpi="300"
   inkscape:export-ydpi="300"
   xmlns:inkscape="http://www.inkscape.org/namespaces/inkscape"
   xmlns:sodipodi="http://sodipodi.sourceforge.net/DTD/sodipodi-0.dtd"
   xmlns="http://www.w3.org/2000/svg"
   xmlns:svg="http://www.w3.org/2000/svg">
  <sodipodi:namedview
     id="namedview9828"
     pagecolor="#ffffff"
     bordercolor="#666666"
     borderopacity="1.0"
     inkscape:pageshadow="2"
     inkscape:pageopacity="0.0"
     inkscape:pagecheckerboard="0"
     inkscape:document-units="mm"
     showgrid="false"
     inkscape:zoom="1.2400673"
     inkscape:cx="304.01576"
     inkscape:cy="101.20418"
     inkscape:current-layer="g12813"
     inkscape:snap-bbox="true"
     inkscape:bbox-paths="true"
     inkscape:bbox-nodes="true"
     inkscape:snap-bbox-edge-midpoints="true"
     inkscape:snap-bbox-midpoints="true"
     inkscape:window-width="1920"
     inkscape:window-height="1017"
     inkscape:window-x="1358"
     inkscape:window-y="-8"
     inkscape:window-maximized="1" />
  <defs
     id="defs9823" />
  <g
     inkscape:label="Layer 1"
     inkscape:groupmode="layer"
     id="layer1"
     transform="translate(-21.47732,-145.99752)">
    <g
       id="g12813"
       transform="translate(-29.448952,93.278165)"
       inkscape:export-filename="C:\Users\mstra\OneDrive - Grupo Marista\Fractal\logo_fundo_escuro.png"
       inkscape:export-xdpi="300"
       inkscape:export-ydpi="300"
       style="display:inline">
      <path
         id="path12807"
         style="color:#000000;fill:#009ba1;fill-opacity:1;stroke-width:1;stroke-linecap:round;stroke-linejoin:round;-inkscape-stroke:none"
         d="m 69.643113,52.719357 c -10.332134,0 -18.716841,8.386555 -18.716841,18.718689 0,10.332141 8.384707,18.717303 18.716841,18.717303 10.332135,0 18.719155,-8.385162 18.719155,-18.717303 0,-10.332132 -8.38702,-18.718689 -18.719155,-18.718689 z m 4.514282,1.526366 c 6.190325,1.619055 11.060189,6.489733 12.678509,12.680361 -1.52979,-2.789796 -4.432022,-4.723544 -7.793862,-4.886964 -0.16338,-3.36117 -2.095752,-6.263366 -4.884647,-7.793397 z m -9.028102,4.74e-4 c -2.788816,1.530053 -4.721262,4.431823 -4.884646,7.792935 -3.362038,0.16326 -6.263999,2.09704 -7.793861,4.886962 1.61831,-6.190588 6.488237,-11.060808 12.678507,-12.679897 z m 4.51382,0.16666 c 2.108552,0 3.807812,1.698797 3.807812,3.807347 0,2.108548 -1.69926,3.80781 -3.807812,3.80781 -2.10855,0 -3.80735,-1.699262 -3.80735,-3.80781 0,-2.10855 1.6988,-3.807347 3.80735,-3.807347 z m -3.113842,0.217126 c -1.004868,0.872856 -1.64164,2.158877 -1.64164,3.590219 0,1.880508 1.09889,3.510824 2.687922,4.281878 -0.590458,0.286516 -1.11312,0.691702 -1.537014,1.184244 -1.39102,-0.959328 -3.05192,-1.55459 -4.84437,-1.646274 0.1811,-3.37815 2.336258,-6.225226 5.335102,-7.410067 z m 6.228148,0 c 2.998651,1.184933 5.154021,4.032047 5.335101,7.410069 -1.792368,0.09168 -3.453391,0.687022 -4.844369,1.646272 -0.4239,-0.492558 -0.94654,-0.897724 -1.537014,-1.184242 1.589028,-0.771056 2.687922,-2.401372 2.687922,-4.281878 0,-1.431344 -0.636774,-2.717365 -1.64164,-3.590221 z m -3.114306,8.346153 c 1.139246,0 2.158782,0.496154 2.855512,1.284702 -1.305622,1.10767 -2.30597,2.564488 -2.855512,4.2254 -0.549522,-1.660832 -1.549512,-3.117756 -2.855048,-4.2254 0.696726,-0.788416 1.715916,-1.284702 2.855048,-1.284702 z m -9.39754,0.0126 c 0.0916,1.792406 0.687068,3.452872 1.64627,4.843904 -0.492624,0.423842 -0.89764,0.947038 -1.18424,1.537478 -0.77113,-1.588828 -2.40152,-2.68792 -4.28188,-2.68792 -1.430865,0 -2.716915,0.636424 -3.589757,1.640714 1.185172,-2.998166 4.031925,-5.15314 7.409607,-5.334176 z m 18.795543,0 c 3.377658,0.18106 6.224444,2.336026 7.409608,5.334176 -0.872844,-1.00429 -2.158892,-1.640714 -3.589758,-1.640714 -1.880286,0 -3.51025,1.099192 -4.281416,2.68792 -0.286554,-0.59041 -0.69215,-1.113168 -1.184704,-1.537012 0.95933,-1.391098 1.55467,-3.05183 1.64627,-4.84437 z m -17.845559,0.0019 c 1.592052,0.09028 3.065106,0.619244 4.30086,1.468034 -0.372116,0.66068 -0.591068,1.418628 -0.60786,2.224966 -0.806338,0.0168 -1.563824,0.23573 -2.224504,0.60786 -0.848958,-1.235844 -1.378212,-2.708622 -1.468496,-4.30086 z m 16.895111,0 c -0.09028,1.592204 -0.619104,3.065032 -1.468032,4.30086 -0.66068,-0.37213 -1.418165,-0.591054 -2.224505,-0.60786 -0.0168,-0.80637 -0.236178,-1.564266 -0.608324,-2.224966 1.23568,-0.84879 2.708899,-1.377678 4.300861,-1.468034 z m -11.836853,2.052782 c 1.01765,0.883102 1.82167,2.005676 2.325424,3.280502 -0.69655,-0.801884 -1.656266,-1.369202 -2.743012,-1.565716 0.004,-0.618298 0.15402,-1.200722 0.417588,-1.714786 z m 6.77906,0 c 0.263572,0.514062 0.413548,1.096488 0.417586,1.714786 -1.086302,0.19644 -2.046068,0.763422 -2.74255,1.56479 0.503782,-1.274426 1.307572,-2.396696 2.324964,-3.279576 z m -16.607152,2.58746 c 2.10855,0 3.80735,1.698798 3.80735,3.807344 0,2.108554 -1.6988,3.807348 -3.80735,3.807348 -2.108547,0 -3.807347,-1.698794 -3.807347,-3.807348 0,-2.108546 1.6988,-3.807344 3.807347,-3.807344 z m 26.435243,0 c 2.108548,0 3.807348,1.698798 3.807348,3.807344 0,2.108554 -1.6988,3.807348 -3.807348,3.807348 -2.10855,0 -3.807348,-1.698794 -3.807348,-3.807348 0,-2.108546 1.698798,-3.807344 3.807348,-3.807344 z m -17.897873,4.74e-4 c 0.19646,1.086402 0.763758,2.046052 1.565254,2.742548 -1.27465,-0.503768 -2.396572,-1.307888 -3.27958,-2.325428 0.51388,-0.263402 1.096302,-0.41303 1.714326,-0.41712 z m 9.36004,0 c 0.618332,0.004 1.200697,0.15354 1.714789,0.41712 -0.882883,1.017396 -2.005151,1.821186 -3.279579,2.324964 0.801374,-0.696478 1.368354,-1.655788 1.56479,-2.742084 z m -8.363296,0.12358 c 1.325706,0.346482 2.365946,1.3863 2.712458,2.711998 -1.325656,-0.346514 -2.365956,-1.386338 -2.712458,-2.711998 z m 7.366554,0 c -0.34651,1.325648 -1.386346,2.365488 -2.711996,2.711998 0.346504,-1.325672 1.386328,-2.365494 2.711996,-2.711998 z m -10.860018,0.827766 c 1.107732,1.3057 2.564364,2.30599 4.225398,2.855512 -1.661034,0.54952 -3.117666,1.549808 -4.225398,2.855506 -0.788612,-0.696732 -1.284702,-1.716212 -1.284702,-2.855506 0,-1.139302 0.49609,-2.158778 1.284702,-2.855512 z m 14.353943,0 c 0.788612,0.696734 1.284704,1.716212 1.284704,2.855512 0,1.139294 -0.496092,2.158774 -1.284704,2.855506 -1.107732,-1.305698 -2.564363,-2.305986 -4.225395,-2.855506 1.661032,-0.549522 3.117663,-1.549814 4.225395,-2.855512 z m -8.147559,3.82495 c -0.346118,1.326406 -1.386716,2.36723 -2.71292,2.713844 0.34652,-1.326174 1.38702,-2.36713 2.71292,-2.713844 z m 1.941176,0 c 1.325894,0.346714 2.365932,1.387684 2.712458,2.713844 -1.326166,-0.346636 -2.366346,-1.387464 -2.712458,-2.713844 z m -4.084662,0.09444 c -0.801892,0.69655 -1.369662,1.65626 -1.56618,2.743006 -0.618022,-0.0042 -1.200446,-0.15372 -1.714324,-0.41712 0.883194,-1.017754 2.00552,-1.82214 3.280504,-2.325886 z m 6.228148,0 c 1.274826,0.503754 2.397398,1.30823 3.280503,2.325886 -0.514092,0.263576 -1.096457,0.413102 -1.714789,0.41712 -0.19652,-1.086746 -0.763824,-2.046464 -1.565714,-2.743006 z m -12.049816,1.00415 c 0.2866,0.590436 0.691616,1.113632 1.18424,1.537472 -0.959202,1.391035 -1.554676,3.051495 -1.64627,4.843909 -3.377682,-0.18104 -6.224435,-2.336012 -7.409607,-5.334179 0.872842,1.004291 2.158892,1.640715 3.589757,1.640715 1.88036,0 3.51075,-1.099089 4.28188,-2.687917 z m 17.871947,0 c 0.771166,1.588722 2.40113,2.687917 4.281416,2.687917 1.430866,0 2.716914,-0.636424 3.589758,-1.640715 -1.185164,2.998153 -4.03195,5.153115 -7.409608,5.334179 -0.0916,-1.792548 -0.68694,-3.453278 -1.64627,-4.844367 0.492554,-0.42385 0.89815,-0.946608 1.184704,-1.537014 z m -8.936437,0.88378 c 0.549652,1.660969 1.55003,3.117529 2.855974,4.224933 -0.69674,0.788834 -1.716492,1.285162 -2.855974,1.285162 -1.13948,0 -2.159232,-0.496328 -2.855974,-1.285162 1.305994,-1.107412 2.306306,-2.563928 2.855974,-4.224933 z m -1.063874,0.1625 c -0.503754,1.274827 -1.307774,2.397397 -2.325424,3.280505 -0.263524,-0.513972 -0.413496,-1.096616 -0.417588,-1.714788 1.086748,-0.1965 2.04646,-0.763827 2.743012,-1.565717 z m 2.128672,7.34e-4 c 0.696484,0.801372 1.656246,1.368359 2.74255,1.564791 -0.0042,0.61817 -0.15406,1.200812 -0.417586,1.714784 -1.017392,-0.882878 -1.821182,-2.005144 -2.324964,-3.279575 z m -8.04432,1.031463 c 0.66074,0.372226 1.418516,0.591054 2.224966,0.607864 0.0168,0.806388 0.235686,1.564252 0.60786,2.224964 -1.235754,0.848792 -2.708808,1.377758 -4.30086,1.468036 0.09028,-1.59206 0.619246,-3.065108 1.468034,-4.300864 z m 13.959045,0 c 0.848844,1.235782 1.377754,2.708748 1.468032,4.300864 -1.591964,-0.09036 -3.065181,-0.619244 -4.300861,-1.468036 0.372206,-0.660726 0.591516,-1.418542 0.608324,-2.224964 0.806306,-0.0168 1.563845,-0.23576 2.224505,-0.607864 z m -24.172314,0.364772 c 1.529834,2.789536 4.432207,4.722372 7.794325,4.88558 0.16276,3.361676 2.095046,6.263504 4.884184,7.793396 C 58.938573,87.009427 54.06845,82.139775 52.450322,75.949379 Z m 34.386042,0 c -1.618162,6.190536 -6.488506,11.060156 -12.678969,12.678976 2.789297,-1.529852 4.721879,-4.4316 4.884647,-7.793396 3.361922,-0.16336 6.264564,-2.096174 7.794322,-4.88558 z m -20.798749,3.239304 c 0.424046,0.492988 0.947082,0.898462 1.537938,1.185168 -1.589032,0.771058 -2.687922,2.40091 -2.687922,4.281418 0,1.43098 0.636282,2.717366 1.640716,3.590214 -2.998982,-1.185254 -5.154262,-4.032788 -5.33464,-7.411454 1.792264,-0.09154 3.45294,-0.68657 4.843908,-1.645346 z m 7.211462,0 c 1.390806,0.958614 3.051437,1.553726 4.843443,1.64535 -0.18036,3.378462 -2.335482,6.22561 -5.334177,7.41099 1.0043,-0.872854 1.640716,-2.158888 1.640716,-3.589754 0,-1.880508 -1.098894,-3.51036 -2.687922,-4.281418 0.59087,-0.286718 1.113888,-0.692164 1.53794,-1.185168 z m -3.605964,1.659236 c 2.108552,0 3.807812,1.698806 3.807812,3.80735 0,2.10854 -1.69926,3.807806 -3.807812,3.807806 -2.10855,0 -3.80735,-1.699266 -3.80735,-3.807806 0,-2.108544 1.6988,-3.80735 3.80735,-3.80735 z" />
      <g
         aria-label="fractal"
         id="text12811"
         style="font-size:35.0631px;line-height:1.25;font-family:Telegrafico;-inkscape-font-specification:Telegrafico;text-align:center;text-anchor:middle;fill:#141414;stroke-width:0.264586;fill-opacity:1"
         transform="matrix(0.99998392,0,0,0.99998392,0.00162129,9.9825215e-4)">
        <path
           d="m 113.28385,62.078353 v 3.128708 h -9.35915 v 6.203471 h 9.35915 v 3.155679 h -9.35915 v 6.230443 h -3.10174 V 62.078353 Z"
           id="path22459"
           style="stroke-width:0.264586;fill:#141414;fill-opacity:1" />
        <path
           d="m 128.03728,65.207061 h -6.25741 v 6.203471 l 6.25741,0.02697 q 1.26767,0 2.1847,-0.917035 0.91704,-0.917035 0.91704,-2.211673 0,-1.267666 -0.91704,-2.184701 -0.91703,-0.917034 -2.1847,-0.917034 z m 2.64322,15.589593 -3.61419,-6.230443 h -5.28644 v 6.230443 h -3.10174 V 62.078353 h 9.35915 q 2.56231,0 4.39638,1.83407 1.83407,1.83407 1.83407,4.396373 0,1.941956 -1.10584,3.533282 -1.07886,1.564353 -2.7511,2.238644 l 3.85694,6.715932 z"
           id="path22461"
           style="stroke-width:0.264586;fill:#141414;fill-opacity:1" />
        <path
           d="m 146.27008,74.566211 h 5.50221 l -2.7511,-5.50221 z m 7.06657,3.101735 h -8.60395 l -1.59132,3.128708 h -3.47934 l 9.35915,-18.718301 9.35915,18.718301 H 154.901 Z"
           id="path22463"
           style="stroke-width:0.264586;fill:#141414;fill-opacity:1" />
        <path
           d="m 170.0859,62.078353 q 1.94195,0 3.61419,0.728234 1.69922,0.728233 2.99385,2.022871 l -2.21167,2.211672 q -1.83407,-1.834069 -4.39637,-1.834069 -2.58928,0 -4.42335,1.834069 -1.83407,1.83407 -1.83407,4.396374 0,2.562303 1.83407,4.423344 1.83407,1.807098 4.42335,1.807098 2.53533,0 4.39637,-1.807098 l 2.21167,2.184701 q -1.29463,1.294638 -2.99385,2.022871 -1.67224,0.728234 -3.61419,0.728234 -3.88391,0 -6.63502,-2.751105 -2.7511,-2.724133 -2.7511,-6.608045 0,-3.856941 2.7511,-6.608046 2.72413,-2.751105 6.63502,-2.751105 z"
           id="path22465"
           style="stroke-width:0.264586;fill:#141414;fill-opacity:1" />
        <path
           d="m 182.08822,62.078353 h 15.61657 v 3.128708 h -6.23044 v 15.589593 h -3.12871 V 65.207061 h -6.25742 z"
           id="path22467"
           style="stroke-width:0.264586;fill:#141414;fill-opacity:1" />
        <path
           d="m 203.26086,74.566211 h 5.50221 l -2.75111,-5.50221 z m 7.06656,3.101735 h -8.60394 l -1.59133,3.128708 h -3.47934 l 9.35915,-18.718301 9.35915,18.718301 h -3.47933 z"
           id="path22469"
           style="stroke-width:0.264586;fill:#141414;fill-opacity:1" />
        <path
           d="m 220.76538,62.078353 h 3.10173 v 15.589593 h 9.35915 v 3.128708 h -12.46088 z"
           id="path22471"
           style="stroke-width:0.264586;fill:#141414;fill-opacity:1" />
      </g>
    </g>
  </g>
</svg>
